<svg id="SvgjsSvg1006" width="211mm" height="182mm" xmlns="http://www.w3.org/2000/svg" version="1.1" xmlns:xlink="http://www.w3.org/1999/xlink" xmlns:svgjs="http://svgjs.com/svgjs" viewBox="0 0 211 182"><g id="SvgjsG1008" transform="matrix(1,0,0,1,27.886497497558594,-28.180038452148438)"><path style="fill:none;stroke:#ff0000;stroke-width:0.26458332;" id="lzr_959_2" d="M151.50000000000006 14.33073634737876L151.49999999999983 2.0000000000000036L2.0000000000000426 2L2.0000000000000426 12.000000000001005L6.500000000000028 12.000000000001087L6.500000000000028 80.72499999999941L2.000000000000014 80.72499999999934L2.000000000000014 90.72499999999938L6.500000000000028 90.72499999999945L6.500000000000014 159.4499999999988L2 159.44999999999874L2 169.4499999999988L6.500000000000014 169.44999999999874L6.500000000000014 208.79187079003856L151.49999999999983 208.7918707900384L151.50000000000006 158.7918707900384L154.4999999999999 158.7918707900384L154.4999999999999 148.3918707900384L151.50000000000006 148.3918707900384L151.50000000000006 62.0000000000001L154.4999999999999 62.0000000000001L154.4999999999999 52.000000000000114L151.49999999999983 52.000000000000114L151.49999999999983 35.330736347378675L141.49999999999977 35.330736347378675L141.49999999999994 30.830736347378796L151.50000000000006 30.830736347378796L151.49999999999983 18.830736347378725L141.49999999999977 18.830736347378725L141.49999999999994 14.33073634737876L151.50000000000006 14.33073634737876M143.12499999999994 45.992369624160155L142.76256313292345 45.71426203461379L142.48445554337718 45.351825167537456L142.30962980399363 44.929758496466775L142.25 44.47682516753747L142.3096298039938 44.0238918386079L142.484455543377 43.60182516753713L142.76256313292345 43.23938830046089L143.12499999999994 42.9612807109147L143.54706667107047 42.7864549715315L143.99999999999977 42.726825167537235L144.99999999999972 42.726825167537235L145.4529333289292 42.78645497153159L145.87499999999972 42.9612807109147L146.23743686707604 43.23938830046098L146.51554445662248 43.601825167537584L146.6903701960057 44.023891838607994L146.7499999999995 44.47682516753747L146.6903701960057 44.92975849646686L146.51554445662248 45.35182516753754L146.23743686707604 45.714262034613874L145.87499999999972 45.99236962416024L145.4529333289292 46.167195363543264L144.99999999999972 46.226825167537434L143.9999999999996 46.226825167537434L143.54706667107047 46.167195363543264L143.12499999999994 45.992369624160155M142.24999999999977 48.3739394845674L143.33531429703834 48.82349138583828L144.5 48.97682516753744L144.49999999999983 153.4768251671174L144.36370330515615 154.5121013475275L143.9641016151374 155.47682516711745L143.32842712474604 156.3052522918635L142.49999999999972 156.94092678225513L141.53527618040977 157.34052847227377L140.49999999999983 157.4768251671174L123.04999999999967 157.4768251671174L122.92222184858383 156.50625374798312L122.5475952641915 155.60182516711734L121.95165042944927 154.82517473766774L121.17499999999973 154.2292299029259L120.27057141913434 153.85460331853346L119.2999999999998 153.7268251671175L118.29999999999983 153.7268251671175L117.32942858086527 153.85460331853346L116.42499999999954 154.2292299029259L115.64834957055034 154.82517473766768L115.05240473580828 155.6018251671174L114.67777815141578 156.50625374798312L114.54999999999977 157.4768251671174L95.99999999999987 157.47682516711745L94.96472381958974 157.34052847227377L93.99999999999984 156.94092678225513L93.17157287525369 156.30525229186355L92.53589838486211 155.4768251671175L92.13629669484352 154.51210134752745L91.99999999999982 153.4768251671174L91.99999999999984 48.97682516753744L92.99999999999984 48.97682516753747L94.1646857029612 48.82349138583827L95.24999999999987 48.37393948456739L96.1819805153393 47.658805682876874L96.89711431702979 46.72682516753748L97.34666621830063 45.6415108704988L97.49999999999987 44.47682516753746L139.99999999999977 44.47682516753747L140.1533337816989 45.641510870498784L140.60288568296937 46.72682516753741L141.31801948466023 47.658805682876874L142.24999999999977 48.3739394845674M144.44500000000028 172.52823776072694L144.95241161390692 172.91758838609172L145.34176223927187 173.42499999999876L145.5865182744081 174.01589333949767L145.66999999999962 174.64999999999884L145.5865182744081 175.2841066604998L145.34176223927187 175.87499999999852L144.95241161390692 176.38241161390556L144.44500000000022 176.77176223927052L143.85410666050115 177.01651827440674L143.22000000000014 177.0999999999986L142.5858933394988 177.0165182744068L141.99499999999972 176.77176223927052L141.4875883860932 176.38241161390556L141.09823776072807 175.87499999999858L140.8534817255919 175.2841066604998L140.76999999999987 174.64999999999884L140.85348172559185 174.01589333949767L141.09823776072807 173.42499999999876L141.4875883860932 172.91758838609167L141.99499999999978 172.52823776072694L142.58589333949885 172.2834817255905L143.22000000000014 172.19999999999885L143.85410666050115 172.28348172559055L144.44500000000028 172.52823776072694M136.21999999999997 166.4499999999988L136.21999999999997 203.34453686867602L136.1518516525781 203.86217495888104L135.9520508075688 204.34453686867602L135.63421356237302 204.75875043104912L135.2199999999999 205.07658767624486L134.737638090205 205.27638852125415L134.21999999999997 205.34453686867602L121.21999999999974 205.34453686867602L121.21999999999974 164.4499999999988L134.21999999999997 164.4499999999988L134.737638090205 164.51814834742066L135.21999999999997 164.7179491924299L135.63421356237302 165.0357864376257L135.9520508075688 165.4499999999988L136.1518516525781 165.93236190979377L136.21999999999997 166.4499999999988M115.22000000000016 205.34453686867602L20.499999999999943 205.3445368686762L19.98236190979489 205.27638852125432L19.499999999999915 205.07658767624503L19.08578643762688 204.7587504310493L18.76794919243109 204.34453686867624L18.568148347421797 203.8621749588812L18.499999999999986 203.34453686867624L18.499999999999943 171.44999999999874L18.56814834742184 170.9323619097937L18.767949192431033 170.44999999999868L19.085786437626794 170.03578643762557L19.4999999999999 169.71794919242984L19.982361909794875 169.51814834742055L20.499999999999915 169.44999999999874L115.22000000000013 169.44999999999885L115.73763809020521 169.51814834742078L116.22000000000016 169.71794919242996L116.6342135623732 170.03578643762575L116.95205080756902 170.44999999999885L117.15185165257826 170.93236190979383L117.2200000000001 171.44999999999885L117.2200000000001 203.34453686867602L117.15185165257829 203.86217495888104L116.95205080756902 204.34453686867602L116.6342135623732 204.75875043104912L116.2200000000001 205.07658767624486L115.73763809020518 205.27638852125415L115.22000000000016 205.34453686867602M120.943303524935 157.02389183818804L121.00293332892937 157.4768251671174L120.943303524935 157.92975849604687L120.7684777855518 158.35182516711734L120.49037019600553 158.7142620341939L120.12793332892937 158.99236962374022L119.7058666578585 159.1671953631233L119.2999999999998 159.22682516711728L119.25293332892902 159.22682516711728L118.34706667107044 159.22682516711728L118.29999999999983 159.22682516711728L117.8941333421411 159.1671953631233L117.47206667107044 158.99236962374016L117.10962980399391 158.7142620341939L116.83152221444747 158.35182516711734L116.6566964750646 157.92975849604687L116.59706667107027 157.4768251671174L116.6566964750646 157.02389183818804L116.83152221444747 156.60182516711734L117.10962980399391 156.2393883000409L117.47206667107044 155.96128071049463L117.89413334214113 155.78645497111154L118.29999999999986 155.72682516711734L118.34706667107044 155.72682516711734L119.25293332892905 155.72682516711734L119.29999999999977 155.72682516711734L119.7058666578585 155.78645497111154L120.12793332892937 155.96128071049463L120.49037019600553 156.2393883000409L120.7684777855518 156.60182516711734L120.943303524935 157.02389183818804M9.269999999999868 164.4499999999988L9.26999999999984 5.44999999999996L53.97000000000001 5.449999999999935L53.969999999999985 164.4499999999988L9.269999999999868 164.4499999999988M140.7699999999998 195.1209026515067L140.85348172559173 194.4867959910057L141.09823776072813 193.8959026515068L141.48758838609302 193.38849103759975L141.99499999999978 192.99914041223496L142.5858933394988 192.75438437709857L143.22000000000014 192.67090265150688L143.85410666050115 192.75438437709857L144.44500000000022 192.99914041223496L144.95241161390692 193.38849103759975L145.34176223927187 193.8959026515068L145.5865182744081 194.4867959910057L145.66999999999962 195.1209026515067L145.5865182744081 195.75500931200787L145.34176223927187 196.34590265150678L144.95241161390692 196.85331426541381L144.44500000000022 197.24266489077877L143.85410666050115 197.487420925915L143.22000000000014 197.57090265150686L142.5858933394988 197.487420925915L141.99499999999972 197.24266489077877L141.48758838609302 196.85331426541381L141.09823776072807 196.34590265150678L140.85348172559173 195.75500931200787L140.7699999999998 195.1209026515067M90.7499999999999 44.47682516753756L90.80962980399399 44.023891838608L90.98445554337702 43.601825167537314L91.26256313292343 43.23938830046099L91.62499999999984 42.96128071091479L92.04706667107045 42.78645497153156L92.49999999999982 42.72682516753733L93.49999999999982 42.72682516753733L93.95293332892912 42.786454971531676L94.37499999999982 42.961280710914885L94.73743686707631 43.23938830046106L95.01554445662246 43.60182516753766L95.19037019600567 44.02389183860808L95.24999999999984 44.47682516753756L95.19037019600567 44.92975849646695L95.01554445662246 45.35182516753763L94.73743686707631 45.71426203461399L94.37499999999982 45.99236962416033L93.95293332892912 46.16719536354337L93.49999999999987 46.22682516753755L92.49999999999987 46.226825167537534L92.04706667107043 46.16719536354334L91.62499999999982 45.99236962416031L91.26256313292343 45.714262034613874L90.98445554337702 45.351825167537626L90.80962980399393 44.92975849646694L90.7499999999999 44.47682516753756M62.04999997596245 98.0742147297813L62.049999967627755 77.4768251715482L66.68039855483572 70.03843386008725L66.92737155175526 69.87267894632237L67.00370320966768 69.8679040862716L67.07933691948647 69.87925588028047L67.1509036023573 69.9062286663996L67.21521534381081 69.94762095069751L67.26940739836833 70.0015889274152L67.31106579869324 70.06572861068962L67.34999996468831 70.21276894450386L67.34999997302303 90.81015850273705L62.71960138581487 98.24854981419794L62.47262838889536 98.41430472796287L62.39629673098294 98.41907958801367L62.320663021164236 98.40772779400473L62.2490963382932 98.38075500788574L62.184784596840004 98.33936272358773L62.130592542282486 98.28539474686997L62.08893414195735 98.22125506359573L62.04999997596245 98.0742147297813M70.34999995977627 58.07421472642257L70.3499999514412 37.47682516818971L75.6499999514415 37.476825166045046L75.64999995683682 50.81015849937826L71.01960136962863 58.24854981083932L70.77262837270901 58.41430472460412L70.69629671479653 58.41907958465487L70.6206630049778 58.407727790646035L70.54909632210696 58.380755004526875L70.48478458065357 58.339362720228905L70.43059252609605 58.28539474351129L70.38893412577117 58.22125506023693L70.34999995977627 58.07421472642257M83.57852107339683 38.07357838096695L79.31960136423343 44.915216474147336L79.07262836731381 45.08097138791232L78.99629670940116 45.08574624796297L78.92066299958258 45.07439445395399L78.84909631671162 45.04742166783496L78.78478457525851 45.006029383536934L78.7305925207008 44.95206140681931L78.68893412037592 44.88792172354487L78.64999995438102 44.74088138973059L78.64999995144153 37.476825164831084L83.22831489618774 37.4768251629785L83.52015760061765 37.53425502033203L83.57750856946804 37.58485331733999L83.62296274804488 37.64636135696151L83.65449539483741 37.71603928369879L83.67070189841313 37.7907833171063L83.67086034537327 37.86726400867446L83.57852107339683 38.07357838096695M70.34999997056703 84.74088139308918L70.3499999622323 64.14349183485635L74.98039854944021 56.7051005233954L75.22737154635983 56.53934560963047L75.30370320427234 56.5345707495798L75.37933691409093 56.545922543588574L75.45090359696196 56.57289532970772L75.51521533841527 56.61428761400569L75.56940739297293 56.668255590723405L75.61106579329795 56.73239527399764L75.6499999592928 56.879435607812L75.64999996762752 77.47682516604499L71.0196013804195 84.915216477506L70.77262838349988 85.08097139127084L70.69629672558743 85.08574625132162L70.62066301576881 85.07439445731274L70.54909633289783 85.04742167119353L70.48478459144447 85.00602938689565L70.43059253688695 84.95206141017803L70.38893413656193 84.88792172690368L70.34999997056703 84.74088139308918M70.34999998135784 111.40754805975595L70.34999997302306 90.81015850152309L74.9803985602312 83.37176719006193L75.2273715571507 83.20601227629714L75.30370321506307 83.20123741624636L75.3793369248818 83.21258921025515L75.45090360775269 83.23956199637428L75.51521534920612 83.28095428067225L75.56940740376375 83.33492225738993L75.61106580408857 83.39906194066431L75.64999997008364 83.54610227447857L75.64999997841828 104.14349183271172L71.01960139121017 111.58188314417265L70.77262839429083 111.74763805793773L70.69629673637822 111.75241291798835L70.62066302655971 111.74106112397945L70.5490963436889 111.71408833786029L70.48478460223542 111.6726960535623L70.43059254767768 111.61872807684472L70.3889341473528 111.55458839357044L70.34999998135784 111.40754805975595M70.34999999999981 157.4768251681898L70.34999999460457 144.14349183485655L74.98039858181254 136.70510052339552L75.22737157873219 136.53934560963052L75.30370323664455 136.53457074957976L75.37933694646337 136.54592254358863L75.45090362933435 136.57289532970776L75.51521537078754 136.61428761400572L75.56940742534512 136.66825559072356L75.61106582567 136.73239527399778L75.6499999916651 136.87943560781213L75.64999999999976 157.476825166045L70.34999999999981 157.4768251681898M62.421478878044255 156.8800719532681L66.68039858720776 150.03843386008754L66.92737158412736 149.87267894632248L67.00370324203978 149.86790408627184L67.07933695185874 149.8792558802807L67.15090363472952 149.90622866639973L67.21521537618288 149.9476209506978L67.26940743074037 150.00158892741547L67.31106583106533 150.06572861068975L67.34999999706015 150.21276894450415L67.34999999999978 157.47682516940375L62.771685055253485 157.47682517125656L62.47984235082363 157.4193953139029L62.4224913819733 157.36879701689503L62.3770372033964 157.30728897727363L62.34550455660393 157.23761105053626L62.32929805302821 157.16286701712852L62.32913960606804 157.08638632556057L62.421478878044255 156.8800719532681M78.64999998675334 124.7408813897307L78.6499999784182 104.14349183149784L83.28039856562653 96.70510052003706L83.52737156254615 96.53934560627211L83.60370322045854 96.5345707462214L83.6793369302773 96.5459225402302L83.75090361314817 96.57289532634928L83.81521535460168 96.61428761064722L83.86940740915914 96.66825558736488L83.91106580948404 96.73239527063923L83.94999997547906 96.87943560445358L83.9499999838141 117.47682516268658L79.31960139660576 124.91521647414748L79.07262839968631 125.08097138791237L78.99629674177366 125.08574624796302L78.92066303195502 125.0743944539542L78.84909634908423 125.04742166783512L78.78478460763095 125.00602938353711L78.73059255307318 124.9520614068195L78.68893415274827 124.8879217235451L78.64999998675334 124.7408813897307M78.64999999754419 151.40754805639733L78.64999998920929 130.81015849816458L83.28039857641737 123.37176718670361L83.52737157333691 123.20601227293866L83.60370323124938 123.20123741288796L83.67933694106823 123.21258920689672L83.75090362393904 123.23956199301585L83.81521536539235 123.28095427731375L83.86940741994995 123.33492225403148L83.91106582027474 123.39906193730582L83.9499999862699 123.54610227112016L83.94999999460462 144.14349182935314L79.31960140739666 151.5818831408141L79.07262841047695 151.747638054579L78.99629675256459 151.75241291462982L78.92066304274589 151.74106112062088L78.84909635987499 151.7140883345017L78.78478461842151 151.6726960502038L78.73059256386405 151.61872807348612L78.68893416353917 151.5545883902118L78.64999999754419 151.40754805639733M79.02147887804442 156.88007194655086L83.28039858720796 150.0384338533703L83.52737158412755 149.87267893960535L83.60370324203986 149.86790407955465L83.67933695185879 149.8792558735634L83.7509036347296 149.90622865968254L83.81521537618293 149.94762094398044L83.86940743074057 150.0015889206981L83.91106583106547 150.06572860397262L83.94999999706035 150.21276893778685L83.94999999999997 157.4768251626865L79.37168505525356 157.47682516453926L79.07984235082363 157.4193953071857L79.02249138197338 157.36879701017767L78.97703720339648 157.30728897055616L78.94550455660395 157.23761104381884L78.92929805302823 157.16286701041128L78.92913960606795 157.08638631884327L79.02147887804442 156.88007194655086M70.34999999214874 138.07421472642267L70.34999998381379 117.47682516818979L74.98039857102195 110.03843385672893L75.22737156794146 109.87267894296394L75.30370322585388 109.86790408291321L75.37933693567264 109.8792558769221L75.45090361854342 109.90622866304122L75.51521535999687 109.94762094733926L75.56940741455448 110.00158892405695L75.6110658148795 110.06572860733122L75.64999998087434 110.21276894114547L75.64999998920923 130.81015849937836L71.01960140200116 138.24854981083934L70.77262840508165 138.41430472460434L70.69629674716909 138.41907958465498L70.62066303735044 138.40772779064616L70.54909635447943 138.38075500452703L70.48478461302601 138.33936272022902L70.43059255846843 138.2853947435114L70.3889341581437 138.22125506023713L70.34999999214874 138.07421472642267M62.04999999754399 151.40754806311458L62.04999998920927 130.81015850488177L66.68039857641726 123.3717671934208L66.92737157333694 123.20601227965585L67.0037032312493 123.20123741960504L67.07933694106818 123.21258921361391L67.15090362393893 123.23956199973304L67.21521536539235 123.28095428403105L67.26940741994987 123.33492226074873L67.31106582027483 123.399061944023L67.34999998626982 123.54610227783735L67.34999999460457 144.14349183607044L62.719601407396524 151.5818831475312L62.47262841047676 151.74763806129613L62.39629675256448 151.7524129213469L62.32066304274572 151.741061127338L62.24909635987494 151.714088341219L62.18478461842123 151.67269605692104L62.1305925638638 151.6187280802032L62.08893416353909 151.55458839692898L62.04999999754399 151.40754806311458M62.049999986753235 124.740881396448L62.04999997841831 104.14349183821511L66.68039856562656 96.70510052675418L66.92737156254607 96.53934561298927L67.00370322045846 96.53457075293842L67.07933693027725 96.54592254694741L67.15090361314809 96.57289533306636L67.2152153546016 96.61428761736451L67.26940740915906 96.66825559408208L67.31106580948402 96.73239527735646L67.34999997547881 96.87943561117075L67.3499999838137 117.4768251694038L62.7196013966056 124.91521648086467L62.47262839968617 125.08097139462973L62.39629674177364 125.08574625468049L62.32066303195485 125.07439446067161L62.24909634908404 125.04742167455254L62.184784607630675 125.00602939025453L62.13059255307307 124.9520614135368L62.08893415274822 124.88792173026246L62.049999986753235 124.740881396448M78.64999996517152 71.4075480563973L78.64999995683668 50.810158498164455L83.2803985440451 43.37176718670343L83.52737154096461 43.20601227293861L83.60370319887703 43.20123741288774L83.67933690869576 43.21258920689661L83.75090359156665 43.23956199301581L83.81521533301994 43.2809542773137L83.86940738757748 43.334922254031405L83.9110657879025 43.39906193730575L83.94999995389749 43.54610227112005L83.94999996223207 64.14349182935311L79.31960137502425 71.581883140814L79.07262837810462 71.74763805457886L78.99629672019215 71.75241291462964L78.92066301037339 71.74106112062069L78.84909632750247 71.71408833450164L78.78478458604918 71.6726960502037L78.73059253149167 71.61872807348605L78.68893413116662 71.5545883902116L78.64999996517152 71.4075480563973M78.64999997596239 98.07421472306392L78.64999996762769 77.47682516483098L83.28039855483563 70.03843385336997L83.52737155175531 69.87267893960515L83.60370320966776 69.86790407955431L83.67933691948663 69.8792558735633L83.75090360235735 69.90622865968238L83.81521534381069 69.94762094398025L83.86940739836824 70.00158892069797L83.91106579869331 70.06572860397232L83.94999996468822 70.21276893778669L83.949999973023 90.81015849601974L79.31960138581489 98.24854980748083L79.0726283888953 98.41430472124559L78.9962967309829 98.41907958129636L78.92066302116415 98.40772778728743L78.84909633829328 98.38075500116841L78.78478459683988 98.33936271687041L78.73059254228222 98.28539474015273L78.68893414195743 98.22125505687839L78.64999997596239 98.07421472306392M66.97852107339686 38.073578387684286L62.71960136423347 44.91521648086455L62.47262836731382 45.08097139462945L62.396296709401454 45.085746254680224L62.32066299958264 45.07439446067124L62.24909631671177 45.04742167455211L62.18478457525835 45.00602939025415L62.13059252070069 44.952061413536605L62.088934120375896 44.88792173026219L62.049999954380965 44.74088139644776L62.04999995144151 37.476825171548406L66.62831489618777 37.476825169695665L66.92015760061777 37.534255027049376L66.97750856946801 37.58485332405721L67.02296274804486 37.64636136367873L67.05449539483753 37.716039290416084L67.07070189841322 37.790783323823554L67.07086034537333 37.86726401539162L66.97852107339686 38.073578387684286M62.04999996517172 71.40754806311443L62.04999995683686 50.81015850488157L66.68039854404505 43.37176719342061L66.92737154096461 43.20601227965567L67.00370319887706 43.20123741960495L67.07933690869588 43.21258921361386L67.15090359156663 43.23956199973295L67.21521533302011 43.28095428403085L67.26940738757769 43.33492226074859L67.31106578790265 43.39906194402293L67.34999995389747 43.5461022778372L67.3499999622321 64.14349183607024L62.7196013750242 71.58188314753119L62.472628378104545 71.74763806129606L62.39629672019218 71.75241292134683L62.32066301037334 71.74106112733799L62.24909632750244 71.71408834121888L62.184784586049076 71.67269605692081L62.13059253149156 71.61872808020328L62.08893413116668 71.55458839692885L62.04999996517172 71.40754806311443 " fill="none" stroke="#ff0000" stroke-width="0.26458332" transform="matrix(6.123233995736766e-17,1,-1,6.123233995736766e-17,183.64593505859375,27.14593505859375)" data-transform="matrix(1,0,0,1,27.886497497558594,-28.180038452148438)"></path><path style="fill:none;stroke:#ff0000;stroke-width:0.26458332;" id="lzr_959_3" d="M151.50000000000006 14.33073634737876M151.49999999999983 2.0000000000000036M2.0000000000000426 2M2.0000000000000426 12.000000000001005M6.500000000000028 12.000000000001087M6.500000000000028 80.72499999999941M2.000000000000014 80.72499999999934M2.000000000000014 90.72499999999938M6.500000000000028 90.72499999999945M6.500000000000014 159.4499999999988M2 159.44999999999874M2 169.4499999999988M6.500000000000014 169.44999999999874M6.500000000000014 208.79187079003856M151.49999999999983 208.7918707900384M151.50000000000006 158.7918707900384M154.4999999999999 158.7918707900384M154.4999999999999 148.3918707900384M151.50000000000006 148.3918707900384M151.50000000000006 62.0000000000001M154.4999999999999 62.0000000000001M154.4999999999999 52.000000000000114M151.49999999999983 52.000000000000114M151.49999999999983 35.330736347378675M141.49999999999977 35.330736347378675M141.49999999999994 30.830736347378796M151.50000000000006 30.830736347378796M151.49999999999983 18.830736347378725M141.49999999999977 18.830736347378725M141.49999999999994 14.33073634737876M143.12499999999994 45.992369624160155M142.76256313292345 45.71426203461379M142.48445554337718 45.351825167537456M142.30962980399363 44.929758496466775M142.25 44.47682516753747M142.3096298039938 44.0238918386079M142.484455543377 43.60182516753713M142.76256313292345 43.23938830046089M143.12499999999994 42.9612807109147M143.54706667107047 42.7864549715315M143.99999999999977 42.726825167537235M144.99999999999972 42.726825167537235M145.4529333289292 42.78645497153159M145.87499999999972 42.9612807109147M146.23743686707604 43.23938830046098M146.51554445662248 43.601825167537584M146.6903701960057 44.023891838607994M146.7499999999995 44.47682516753747M146.6903701960057 44.92975849646686M146.51554445662248 45.35182516753754M146.23743686707604 45.714262034613874M145.87499999999972 45.99236962416024M145.4529333289292 46.167195363543264M144.99999999999972 46.226825167537434M143.9999999999996 46.226825167537434M143.54706667107047 46.167195363543264M142.24999999999977 48.3739394845674M143.33531429703834 48.82349138583828M144.5 48.97682516753744M144.49999999999983 153.4768251671174M144.36370330515615 154.5121013475275M143.9641016151374 155.47682516711745M143.32842712474604 156.3052522918635M142.49999999999972 156.94092678225513M141.53527618040977 157.34052847227377M140.49999999999983 157.4768251671174M123.04999999999967 157.4768251671174M122.92222184858383 156.50625374798312M122.5475952641915 155.60182516711734M121.95165042944927 154.82517473766774M121.17499999999973 154.2292299029259M120.27057141913434 153.85460331853346M119.2999999999998 153.7268251671175M118.29999999999983 153.7268251671175M117.32942858086527 153.85460331853346M116.42499999999954 154.2292299029259M115.64834957055034 154.82517473766768M115.05240473580828 155.6018251671174M114.67777815141578 156.50625374798312M114.54999999999977 157.4768251671174M95.99999999999987 157.47682516711745M94.96472381958974 157.34052847227377M93.99999999999984 156.94092678225513M93.17157287525369 156.30525229186355M92.53589838486211 155.4768251671175M92.13629669484352 154.51210134752745M91.99999999999982 153.4768251671174M91.99999999999984 48.97682516753744M92.99999999999984 48.97682516753747M94.1646857029612 48.82349138583827M95.24999999999987 48.37393948456739M96.1819805153393 47.658805682876874M96.89711431702979 46.72682516753748M97.34666621830063 45.6415108704988M97.49999999999987 44.47682516753746M139.99999999999977 44.47682516753747M140.1533337816989 45.641510870498784M140.60288568296937 46.72682516753741M141.31801948466023 47.658805682876874M144.44500000000028 172.52823776072694M144.95241161390692 172.91758838609172M145.34176223927187 173.42499999999876M145.5865182744081 174.01589333949767M145.66999999999962 174.64999999999884M145.5865182744081 175.2841066604998M145.34176223927187 175.87499999999852M144.95241161390692 176.38241161390556M144.44500000000022 176.77176223927052M143.85410666050115 177.01651827440674M143.22000000000014 177.0999999999986M142.5858933394988 177.0165182744068M141.99499999999972 176.77176223927052M141.4875883860932 176.38241161390556M141.09823776072807 175.87499999999858M140.8534817255919 175.2841066604998M140.76999999999987 174.64999999999884M140.85348172559185 174.01589333949767M141.09823776072807 173.42499999999876M141.4875883860932 172.91758838609167M141.99499999999978 172.52823776072694M142.58589333949885 172.2834817255905M143.22000000000014 172.19999999999885M143.85410666050115 172.28348172559055M136.21999999999997 166.4499999999988M136.21999999999997 203.34453686867602M136.1518516525781 203.86217495888104M135.9520508075688 204.34453686867602M135.63421356237302 204.75875043104912M135.2199999999999 205.07658767624486M134.737638090205 205.27638852125415M134.21999999999997 205.34453686867602M121.21999999999974 205.34453686867602M121.21999999999974 164.4499999999988M134.21999999999997 164.4499999999988M134.737638090205 164.51814834742066M135.21999999999997 164.7179491924299M135.63421356237302 165.0357864376257M135.9520508075688 165.4499999999988M136.1518516525781 165.93236190979377M115.22000000000016 205.34453686867602M20.499999999999943 205.3445368686762M19.98236190979489 205.27638852125432M19.499999999999915 205.07658767624503M19.08578643762688 204.7587504310493M18.76794919243109 204.34453686867624M18.568148347421797 203.8621749588812M18.499999999999986 203.34453686867624M18.499999999999943 171.44999999999874M18.56814834742184 170.9323619097937M18.767949192431033 170.44999999999868M19.085786437626794 170.03578643762557M19.4999999999999 169.71794919242984M19.982361909794875 169.51814834742055M20.499999999999915 169.44999999999874M115.22000000000013 169.44999999999885M115.73763809020521 169.51814834742078M116.22000000000016 169.71794919242996M116.6342135623732 170.03578643762575M116.95205080756902 170.44999999999885M117.15185165257826 170.93236190979383M117.2200000000001 171.44999999999885M117.2200000000001 203.34453686867602M117.15185165257829 203.86217495888104M116.95205080756902 204.34453686867602M116.6342135623732 204.75875043104912M116.2200000000001 205.07658767624486M115.73763809020518 205.27638852125415M120.943303524935 157.02389183818804M121.00293332892937 157.4768251671174M120.943303524935 157.92975849604687M120.7684777855518 158.35182516711734M120.49037019600553 158.7142620341939M120.12793332892937 158.99236962374022M119.7058666578585 159.1671953631233M119.2999999999998 159.22682516711728M119.25293332892902 159.22682516711728M118.34706667107044 159.22682516711728M118.29999999999983 159.22682516711728M117.8941333421411 159.1671953631233M117.47206667107044 158.99236962374016M117.10962980399391 158.7142620341939M116.83152221444747 158.35182516711734M116.6566964750646 157.92975849604687M116.59706667107027 157.4768251671174M116.6566964750646 157.02389183818804M116.83152221444747 156.60182516711734M117.10962980399391 156.2393883000409M117.47206667107044 155.96128071049463M117.89413334214113 155.78645497111154M118.29999999999986 155.72682516711734M118.34706667107044 155.72682516711734M119.25293332892905 155.72682516711734M119.29999999999977 155.72682516711734M119.7058666578585 155.78645497111154M120.12793332892937 155.96128071049463M120.49037019600553 156.2393883000409M120.7684777855518 156.60182516711734M9.269999999999868 164.4499999999988M9.26999999999984 5.44999999999996M53.97000000000001 5.449999999999935M53.969999999999985 164.4499999999988M140.7699999999998 195.1209026515067M140.85348172559173 194.4867959910057M141.09823776072813 193.8959026515068M141.48758838609302 193.38849103759975M141.99499999999978 192.99914041223496M142.5858933394988 192.75438437709857M143.22000000000014 192.67090265150688M143.85410666050115 192.75438437709857M144.44500000000022 192.99914041223496M144.95241161390692 193.38849103759975M145.34176223927187 193.8959026515068M145.5865182744081 194.4867959910057M145.66999999999962 195.1209026515067M145.5865182744081 195.75500931200787M145.34176223927187 196.34590265150678M144.95241161390692 196.85331426541381M144.44500000000022 197.24266489077877M143.85410666050115 197.487420925915M143.22000000000014 197.57090265150686M142.5858933394988 197.487420925915M141.99499999999972 197.24266489077877M141.48758838609302 196.85331426541381M141.09823776072807 196.34590265150678M140.85348172559173 195.75500931200787M90.7499999999999 44.47682516753756M90.80962980399399 44.023891838608M90.98445554337702 43.601825167537314M91.26256313292343 43.23938830046099M91.62499999999984 42.96128071091479M92.04706667107045 42.78645497153156M92.49999999999982 42.72682516753733M93.49999999999982 42.72682516753733M93.95293332892912 42.786454971531676M94.37499999999982 42.961280710914885M94.73743686707631 43.23938830046106M95.01554445662246 43.60182516753766M95.19037019600567 44.02389183860808M95.24999999999984 44.47682516753756M95.19037019600567 44.92975849646695M95.01554445662246 45.35182516753763M94.73743686707631 45.71426203461399M94.37499999999982 45.99236962416033M93.95293332892912 46.16719536354337M93.49999999999987 46.22682516753755M92.49999999999987 46.226825167537534M92.04706667107043 46.16719536354334M91.62499999999982 45.99236962416031M91.26256313292343 45.714262034613874M90.98445554337702 45.351825167537626M90.80962980399393 44.92975849646694M62.04999997596245 98.0742147297813M62.049999967627755 77.4768251715482M66.68039855483572 70.03843386008725M66.92737155175526 69.87267894632237M67.00370320966768 69.8679040862716M67.07933691948647 69.87925588028047M67.1509036023573 69.9062286663996M67.21521534381081 69.94762095069751M67.26940739836833 70.0015889274152M67.31106579869324 70.06572861068962M67.34999996468831 70.21276894450386M67.34999997302303 90.81015850273705M62.71960138581487 98.24854981419794M62.47262838889536 98.41430472796287M62.39629673098294 98.41907958801367M62.320663021164236 98.40772779400473M62.2490963382932 98.38075500788574M62.184784596840004 98.33936272358773M62.130592542282486 98.28539474686997M62.08893414195735 98.22125506359573M70.34999995977627 58.07421472642257M70.3499999514412 37.47682516818971M75.6499999514415 37.476825166045046M75.64999995683682 50.81015849937826M71.01960136962863 58.24854981083932M70.77262837270901 58.41430472460412M70.69629671479653 58.41907958465487M70.6206630049778 58.407727790646035M70.54909632210696 58.380755004526875M70.48478458065357 58.339362720228905M70.43059252609605 58.28539474351129M70.38893412577117 58.22125506023693M83.57852107339683 38.07357838096695M79.31960136423343 44.915216474147336M79.07262836731381 45.08097138791232M78.99629670940116 45.08574624796297M78.92066299958258 45.07439445395399M78.84909631671162 45.04742166783496M78.78478457525851 45.006029383536934M78.7305925207008 44.95206140681931M78.68893412037592 44.88792172354487M78.64999995438102 44.74088138973059M78.64999995144153 37.476825164831084M83.22831489618774 37.4768251629785M83.52015760061765 37.53425502033203M83.57750856946804 37.58485331733999M83.62296274804488 37.64636135696151M83.65449539483741 37.71603928369879M83.67070189841313 37.7907833171063M83.67086034537327 37.86726400867446M70.34999997056703 84.74088139308918M70.3499999622323 64.14349183485635M74.98039854944021 56.7051005233954M75.22737154635983 56.53934560963047M75.30370320427234 56.5345707495798M75.37933691409093 56.545922543588574M75.45090359696196 56.57289532970772M75.51521533841527 56.61428761400569M75.56940739297293 56.668255590723405M75.61106579329795 56.73239527399764M75.6499999592928 56.879435607812M75.64999996762752 77.47682516604499M71.0196013804195 84.915216477506M70.77262838349988 85.08097139127084M70.69629672558743 85.08574625132162M70.62066301576881 85.07439445731274M70.54909633289783 85.04742167119353M70.48478459144447 85.00602938689565M70.43059253688695 84.95206141017803M70.38893413656193 84.88792172690368M70.34999998135784 111.40754805975595M70.34999997302306 90.81015850152309M74.9803985602312 83.37176719006193M75.2273715571507 83.20601227629714M75.30370321506307 83.20123741624636M75.3793369248818 83.21258921025515M75.45090360775269 83.23956199637428M75.51521534920612 83.28095428067225M75.56940740376375 83.33492225738993M75.61106580408857 83.39906194066431M75.64999997008364 83.54610227447857M75.64999997841828 104.14349183271172M71.01960139121017 111.58188314417265M70.77262839429083 111.74763805793773M70.69629673637822 111.75241291798835M70.62066302655971 111.74106112397945M70.5490963436889 111.71408833786029M70.48478460223542 111.6726960535623M70.43059254767768 111.61872807684472M70.3889341473528 111.55458839357044M70.34999999999981 157.4768251681898M70.34999999460457 144.14349183485655M74.98039858181254 136.70510052339552M75.22737157873219 136.53934560963052M75.30370323664455 136.53457074957976M75.37933694646337 136.54592254358863M75.45090362933435 136.57289532970776M75.51521537078754 136.61428761400572M75.56940742534512 136.66825559072356M75.61106582567 136.73239527399778M75.6499999916651 136.87943560781213M75.64999999999976 157.476825166045M62.421478878044255 156.8800719532681M66.68039858720776 150.03843386008754M66.92737158412736 149.87267894632248M67.00370324203978 149.86790408627184M67.07933695185874 149.8792558802807M67.15090363472952 149.90622866639973M67.21521537618288 149.9476209506978M67.26940743074037 150.00158892741547M67.31106583106533 150.06572861068975M67.34999999706015 150.21276894450415M67.34999999999978 157.47682516940375M62.771685055253485 157.47682517125656M62.47984235082363 157.4193953139029M62.4224913819733 157.36879701689503M62.3770372033964 157.30728897727363M62.34550455660393 157.23761105053626M62.32929805302821 157.16286701712852M62.32913960606804 157.08638632556057M78.64999998675334 124.7408813897307M78.6499999784182 104.14349183149784M83.28039856562653 96.70510052003706M83.52737156254615 96.53934560627211M83.60370322045854 96.5345707462214M83.6793369302773 96.5459225402302M83.75090361314817 96.57289532634928M83.81521535460168 96.61428761064722M83.86940740915914 96.66825558736488M83.91106580948404 96.73239527063923M83.94999997547906 96.87943560445358M83.9499999838141 117.47682516268658M79.31960139660576 124.91521647414748M79.07262839968631 125.08097138791237M78.99629674177366 125.08574624796302M78.92066303195502 125.0743944539542M78.84909634908423 125.04742166783512M78.78478460763095 125.00602938353711M78.73059255307318 124.9520614068195M78.68893415274827 124.8879217235451M78.64999999754419 151.40754805639733M78.64999998920929 130.81015849816458M83.28039857641737 123.37176718670361M83.52737157333691 123.20601227293866M83.60370323124938 123.20123741288796M83.67933694106823 123.21258920689672M83.75090362393904 123.23956199301585M83.81521536539235 123.28095427731375M83.86940741994995 123.33492225403148M83.91106582027474 123.39906193730582M83.9499999862699 123.54610227112016M83.94999999460462 144.14349182935314M79.31960140739666 151.5818831408141M79.07262841047695 151.747638054579M78.99629675256459 151.75241291462982M78.92066304274589 151.74106112062088M78.84909635987499 151.7140883345017M78.78478461842151 151.6726960502038M78.73059256386405 151.61872807348612M78.68893416353917 151.5545883902118M79.02147887804442 156.88007194655086M83.28039858720796 150.0384338533703M83.52737158412755 149.87267893960535M83.60370324203986 149.86790407955465M83.67933695185879 149.8792558735634M83.7509036347296 149.90622865968254M83.81521537618293 149.94762094398044M83.86940743074057 150.0015889206981M83.91106583106547 150.06572860397262M83.94999999706035 150.21276893778685M83.94999999999997 157.4768251626865M79.37168505525356 157.47682516453926M79.07984235082363 157.4193953071857M79.02249138197338 157.36879701017767M78.97703720339648 157.30728897055616M78.94550455660395 157.23761104381884M78.92929805302823 157.16286701041128M78.92913960606795 157.08638631884327M70.34999999214874 138.07421472642267M70.34999998381379 117.47682516818979M74.98039857102195 110.03843385672893M75.22737156794146 109.87267894296394M75.30370322585388 109.86790408291321M75.37933693567264 109.8792558769221M75.45090361854342 109.90622866304122M75.51521535999687 109.94762094733926M75.56940741455448 110.00158892405695M75.6110658148795 110.06572860733122M75.64999998087434 110.21276894114547M75.64999998920923 130.81015849937836M71.01960140200116 138.24854981083934M70.77262840508165 138.41430472460434M70.69629674716909 138.41907958465498M70.62066303735044 138.40772779064616M70.54909635447943 138.38075500452703M70.48478461302601 138.33936272022902M70.43059255846843 138.2853947435114M70.3889341581437 138.22125506023713M62.04999999754399 151.40754806311458M62.04999998920927 130.81015850488177M66.68039857641726 123.3717671934208M66.92737157333694 123.20601227965585M67.0037032312493 123.20123741960504M67.07933694106818 123.21258921361391M67.15090362393893 123.23956199973304M67.21521536539235 123.28095428403105M67.26940741994987 123.33492226074873M67.31106582027483 123.399061944023M67.34999998626982 123.54610227783735M67.34999999460457 144.14349183607044M62.719601407396524 151.5818831475312M62.47262841047676 151.74763806129613M62.39629675256448 151.7524129213469M62.32066304274572 151.741061127338M62.24909635987494 151.714088341219M62.18478461842123 151.67269605692104M62.1305925638638 151.6187280802032M62.08893416353909 151.55458839692898M62.049999986753235 124.740881396448M62.04999997841831 104.14349183821511M66.68039856562656 96.70510052675418M66.92737156254607 96.53934561298927M67.00370322045846 96.53457075293842M67.07933693027725 96.54592254694741M67.15090361314809 96.57289533306636M67.2152153546016 96.61428761736451M67.26940740915906 96.66825559408208M67.31106580948402 96.73239527735646M67.34999997547881 96.87943561117075M67.3499999838137 117.4768251694038M62.7196013966056 124.91521648086467M62.47262839968617 125.08097139462973M62.39629674177364 125.08574625468049M62.32066303195485 125.07439446067161M62.24909634908404 125.04742167455254M62.184784607630675 125.00602939025453M62.13059255307307 124.9520614135368M62.08893415274822 124.88792173026246M78.64999996517152 71.4075480563973M78.64999995683668 50.810158498164455M83.2803985440451 43.37176718670343M83.52737154096461 43.20601227293861M83.60370319887703 43.20123741288774M83.67933690869576 43.21258920689661M83.75090359156665 43.23956199301581M83.81521533301994 43.2809542773137M83.86940738757748 43.334922254031405M83.9110657879025 43.39906193730575M83.94999995389749 43.54610227112005M83.94999996223207 64.14349182935311M79.31960137502425 71.581883140814M79.07262837810462 71.74763805457886M78.99629672019215 71.75241291462964M78.92066301037339 71.74106112062069M78.84909632750247 71.71408833450164M78.78478458604918 71.6726960502037M78.73059253149167 71.61872807348605M78.68893413116662 71.5545883902116M78.64999997596239 98.07421472306392M78.64999996762769 77.47682516483098M83.28039855483563 70.03843385336997M83.52737155175531 69.87267893960515M83.60370320966776 69.86790407955431M83.67933691948663 69.8792558735633M83.75090360235735 69.90622865968238M83.81521534381069 69.94762094398025M83.86940739836824 70.00158892069797M83.91106579869331 70.06572860397232M83.94999996468822 70.21276893778669M83.949999973023 90.81015849601974M79.31960138581489 98.24854980748083M79.0726283888953 98.41430472124559M78.9962967309829 98.41907958129636M78.92066302116415 98.40772778728743M78.84909633829328 98.38075500116841M78.78478459683988 98.33936271687041M78.73059254228222 98.28539474015273M78.68893414195743 98.22125505687839M66.97852107339686 38.073578387684286M62.71960136423347 44.91521648086455M62.47262836731382 45.08097139462945M62.396296709401454 45.085746254680224M62.32066299958264 45.07439446067124M62.24909631671177 45.04742167455211M62.18478457525835 45.00602939025415M62.13059252070069 44.952061413536605M62.088934120375896 44.88792173026219M62.049999954380965 44.74088139644776M62.04999995144151 37.476825171548406M66.62831489618777 37.476825169695665M66.92015760061777 37.534255027049376M66.97750856946801 37.58485332405721M67.02296274804486 37.64636136367873M67.05449539483753 37.716039290416084M67.07070189841322 37.790783323823554M67.07086034537333 37.86726401539162M62.04999996517172 71.40754806311443M62.04999995683686 50.81015850488157M66.68039854404505 43.37176719342061M66.92737154096461 43.20601227965567M67.00370319887706 43.20123741960495M67.07933690869588 43.21258921361386M67.15090359156663 43.23956199973295M67.21521533302011 43.28095428403085M67.26940738757769 43.33492226074859M67.31106578790265 43.39906194402293M67.34999995389747 43.5461022778372M67.3499999622321 64.14349183607024M62.7196013750242 71.58188314753119M62.472628378104545 71.74763806129606M62.39629672019218 71.75241292134683M62.32066301037334 71.74106112733799M62.24909632750244 71.71408834121888M62.184784586049076 71.67269605692081M62.13059253149156 71.61872808020328M62.08893413116668 71.55458839692885 " fill="none" stroke="#ff0000" stroke-width="0.26458332" data-transform="matrix(1,0,0,1,27.886497497558594,-28.180038452148438)"></path><path style="fill:none;stroke:#ff0000;stroke-width:0.26458332;" id="lzr_959_4" d="M151.50000000000006 14.33073634737876M151.49999999999983 2.0000000000000036M2.0000000000000426 2M2.0000000000000426 12.000000000001005M6.500000000000028 12.000000000001087M6.500000000000028 80.72499999999941M2.000000000000014 80.72499999999934M2.000000000000014 90.72499999999938M6.500000000000028 90.72499999999945M6.500000000000014 159.4499999999988M2 159.44999999999874M2 169.4499999999988M6.500000000000014 169.44999999999874M6.500000000000014 208.79187079003856M151.49999999999983 208.7918707900384M151.50000000000006 158.7918707900384M154.4999999999999 158.7918707900384M154.4999999999999 148.3918707900384M151.50000000000006 148.3918707900384M151.50000000000006 62.0000000000001M154.4999999999999 62.0000000000001M154.4999999999999 52.000000000000114M151.49999999999983 52.000000000000114M151.49999999999983 35.330736347378675M141.49999999999977 35.330736347378675M141.49999999999994 30.830736347378796M151.50000000000006 30.830736347378796M151.49999999999983 18.830736347378725M141.49999999999977 18.830736347378725M141.49999999999994 14.33073634737876M143.12499999999994 45.992369624160155M142.76256313292345 45.71426203461379M142.48445554337718 45.351825167537456M142.30962980399363 44.929758496466775M142.25 44.47682516753747M142.3096298039938 44.0238918386079M142.484455543377 43.60182516753713M142.76256313292345 43.23938830046089M143.12499999999994 42.9612807109147M143.54706667107047 42.7864549715315M143.99999999999977 42.726825167537235M144.99999999999972 42.726825167537235M145.4529333289292 42.78645497153159M145.87499999999972 42.9612807109147M146.23743686707604 43.23938830046098M146.51554445662248 43.601825167537584M146.6903701960057 44.023891838607994M146.7499999999995 44.47682516753747M146.6903701960057 44.92975849646686M146.51554445662248 45.35182516753754M146.23743686707604 45.714262034613874M145.87499999999972 45.99236962416024M145.4529333289292 46.167195363543264M144.99999999999972 46.226825167537434M143.9999999999996 46.226825167537434M143.54706667107047 46.167195363543264M142.24999999999977 48.3739394845674M143.33531429703834 48.82349138583828M144.5 48.97682516753744M144.49999999999983 153.4768251671174M144.36370330515615 154.5121013475275M143.9641016151374 155.47682516711745M143.32842712474604 156.3052522918635M142.49999999999972 156.94092678225513M141.53527618040977 157.34052847227377M140.49999999999983 157.4768251671174M123.04999999999967 157.4768251671174M122.92222184858383 156.50625374798312M122.5475952641915 155.60182516711734M121.95165042944927 154.82517473766774M121.17499999999973 154.2292299029259M120.27057141913434 153.85460331853346M119.2999999999998 153.7268251671175M118.29999999999983 153.7268251671175M117.32942858086527 153.85460331853346M116.42499999999954 154.2292299029259M115.64834957055034 154.82517473766768M115.05240473580828 155.6018251671174M114.67777815141578 156.50625374798312M114.54999999999977 157.4768251671174M95.99999999999987 157.47682516711745M94.96472381958974 157.34052847227377M93.99999999999984 156.94092678225513M93.17157287525369 156.30525229186355M92.53589838486211 155.4768251671175M92.13629669484352 154.51210134752745M91.99999999999982 153.4768251671174M91.99999999999984 48.97682516753744M92.99999999999984 48.97682516753747M94.1646857029612 48.82349138583827M95.24999999999987 48.37393948456739M96.1819805153393 47.658805682876874M96.89711431702979 46.72682516753748M97.34666621830063 45.6415108704988M97.49999999999987 44.47682516753746M139.99999999999977 44.47682516753747M140.1533337816989 45.641510870498784M140.60288568296937 46.72682516753741M141.31801948466023 47.658805682876874M144.44500000000028 172.52823776072694M144.95241161390692 172.91758838609172M145.34176223927187 173.42499999999876M145.5865182744081 174.01589333949767M145.66999999999962 174.64999999999884M145.5865182744081 175.2841066604998M145.34176223927187 175.87499999999852M144.95241161390692 176.38241161390556M144.44500000000022 176.77176223927052M143.85410666050115 177.01651827440674M143.22000000000014 177.0999999999986M142.5858933394988 177.0165182744068M141.99499999999972 176.77176223927052M141.4875883860932 176.38241161390556M141.09823776072807 175.87499999999858M140.8534817255919 175.2841066604998M140.76999999999987 174.64999999999884M140.85348172559185 174.01589333949767M141.09823776072807 173.42499999999876M141.4875883860932 172.91758838609167M141.99499999999978 172.52823776072694M142.58589333949885 172.2834817255905M143.22000000000014 172.19999999999885M143.85410666050115 172.28348172559055M136.21999999999997 166.4499999999988M136.21999999999997 203.34453686867602M136.1518516525781 203.86217495888104M135.9520508075688 204.34453686867602M135.63421356237302 204.75875043104912M135.2199999999999 205.07658767624486M134.737638090205 205.27638852125415M134.21999999999997 205.34453686867602M121.21999999999974 205.34453686867602M121.21999999999974 164.4499999999988M134.21999999999997 164.4499999999988M134.737638090205 164.51814834742066M135.21999999999997 164.7179491924299M135.63421356237302 165.0357864376257M135.9520508075688 165.4499999999988M136.1518516525781 165.93236190979377M115.22000000000016 205.34453686867602M20.499999999999943 205.3445368686762M19.98236190979489 205.27638852125432M19.499999999999915 205.07658767624503M19.08578643762688 204.7587504310493M18.76794919243109 204.34453686867624M18.568148347421797 203.8621749588812M18.499999999999986 203.34453686867624M18.499999999999943 171.44999999999874M18.56814834742184 170.9323619097937M18.767949192431033 170.44999999999868M19.085786437626794 170.03578643762557M19.4999999999999 169.71794919242984M19.982361909794875 169.51814834742055M20.499999999999915 169.44999999999874M115.22000000000013 169.44999999999885M115.73763809020521 169.51814834742078M116.22000000000016 169.71794919242996M116.6342135623732 170.03578643762575M116.95205080756902 170.44999999999885M117.15185165257826 170.93236190979383M117.2200000000001 171.44999999999885M117.2200000000001 203.34453686867602M117.15185165257829 203.86217495888104M116.95205080756902 204.34453686867602M116.6342135623732 204.75875043104912M116.2200000000001 205.07658767624486M115.73763809020518 205.27638852125415M120.943303524935 157.02389183818804M121.00293332892937 157.4768251671174M120.943303524935 157.92975849604687M120.7684777855518 158.35182516711734M120.49037019600553 158.7142620341939M120.12793332892937 158.99236962374022M119.7058666578585 159.1671953631233M119.2999999999998 159.22682516711728M119.25293332892902 159.22682516711728M118.34706667107044 159.22682516711728M118.29999999999983 159.22682516711728M117.8941333421411 159.1671953631233M117.47206667107044 158.99236962374016M117.10962980399391 158.7142620341939M116.83152221444747 158.35182516711734M116.6566964750646 157.92975849604687M116.59706667107027 157.4768251671174M116.6566964750646 157.02389183818804M116.83152221444747 156.60182516711734M117.10962980399391 156.2393883000409M117.47206667107044 155.96128071049463M117.89413334214113 155.78645497111154M118.29999999999986 155.72682516711734M118.34706667107044 155.72682516711734M119.25293332892905 155.72682516711734M119.29999999999977 155.72682516711734M119.7058666578585 155.78645497111154M120.12793332892937 155.96128071049463M120.49037019600553 156.2393883000409M120.7684777855518 156.60182516711734M9.269999999999868 164.4499999999988M9.26999999999984 5.44999999999996M53.97000000000001 5.449999999999935M53.969999999999985 164.4499999999988M140.7699999999998 195.1209026515067M140.85348172559173 194.4867959910057M141.09823776072813 193.8959026515068M141.48758838609302 193.38849103759975M141.99499999999978 192.99914041223496M142.5858933394988 192.75438437709857M143.22000000000014 192.67090265150688M143.85410666050115 192.75438437709857M144.44500000000022 192.99914041223496M144.95241161390692 193.38849103759975M145.34176223927187 193.8959026515068M145.5865182744081 194.4867959910057M145.66999999999962 195.1209026515067M145.5865182744081 195.75500931200787M145.34176223927187 196.34590265150678M144.95241161390692 196.85331426541381M144.44500000000022 197.24266489077877M143.85410666050115 197.487420925915M143.22000000000014 197.57090265150686M142.5858933394988 197.487420925915M141.99499999999972 197.24266489077877M141.48758838609302 196.85331426541381M141.09823776072807 196.34590265150678M140.85348172559173 195.75500931200787M90.7499999999999 44.47682516753756M90.80962980399399 44.023891838608M90.98445554337702 43.601825167537314M91.26256313292343 43.23938830046099M91.62499999999984 42.96128071091479M92.04706667107045 42.78645497153156M92.49999999999982 42.72682516753733M93.49999999999982 42.72682516753733M93.95293332892912 42.786454971531676M94.37499999999982 42.961280710914885M94.73743686707631 43.23938830046106M95.01554445662246 43.60182516753766M95.19037019600567 44.02389183860808M95.24999999999984 44.47682516753756M95.19037019600567 44.92975849646695M95.01554445662246 45.35182516753763M94.73743686707631 45.71426203461399M94.37499999999982 45.99236962416033M93.95293332892912 46.16719536354337M93.49999999999987 46.22682516753755M92.49999999999987 46.226825167537534M92.04706667107043 46.16719536354334M91.62499999999982 45.99236962416031M91.26256313292343 45.714262034613874M90.98445554337702 45.351825167537626M90.80962980399393 44.92975849646694M62.04999997596245 98.0742147297813M62.049999967627755 77.4768251715482M66.68039855483572 70.03843386008725M66.92737155175526 69.87267894632237M67.00370320966768 69.8679040862716M67.07933691948647 69.87925588028047M67.1509036023573 69.9062286663996M67.21521534381081 69.94762095069751M67.26940739836833 70.0015889274152M67.31106579869324 70.06572861068962M67.34999996468831 70.21276894450386M67.34999997302303 90.81015850273705M62.71960138581487 98.24854981419794M62.47262838889536 98.41430472796287M62.39629673098294 98.41907958801367M62.320663021164236 98.40772779400473M62.2490963382932 98.38075500788574M62.184784596840004 98.33936272358773M62.130592542282486 98.28539474686997M62.08893414195735 98.22125506359573M70.34999995977627 58.07421472642257M70.3499999514412 37.47682516818971M75.6499999514415 37.476825166045046M75.64999995683682 50.81015849937826M71.01960136962863 58.24854981083932M70.77262837270901 58.41430472460412M70.69629671479653 58.41907958465487M70.6206630049778 58.407727790646035M70.54909632210696 58.380755004526875M70.48478458065357 58.339362720228905M70.43059252609605 58.28539474351129M70.38893412577117 58.22125506023693M83.57852107339683 38.07357838096695M79.31960136423343 44.915216474147336M79.07262836731381 45.08097138791232M78.99629670940116 45.08574624796297M78.92066299958258 45.07439445395399M78.84909631671162 45.04742166783496M78.78478457525851 45.006029383536934M78.7305925207008 44.95206140681931M78.68893412037592 44.88792172354487M78.64999995438102 44.74088138973059M78.64999995144153 37.476825164831084M83.22831489618774 37.4768251629785M83.52015760061765 37.53425502033203M83.57750856946804 37.58485331733999M83.62296274804488 37.64636135696151M83.65449539483741 37.71603928369879M83.67070189841313 37.7907833171063M83.67086034537327 37.86726400867446M70.34999997056703 84.74088139308918M70.3499999622323 64.14349183485635M74.98039854944021 56.7051005233954M75.22737154635983 56.53934560963047M75.30370320427234 56.5345707495798M75.37933691409093 56.545922543588574M75.45090359696196 56.57289532970772M75.51521533841527 56.61428761400569M75.56940739297293 56.668255590723405M75.61106579329795 56.73239527399764M75.6499999592928 56.879435607812M75.64999996762752 77.47682516604499M71.0196013804195 84.915216477506M70.77262838349988 85.08097139127084M70.69629672558743 85.08574625132162M70.62066301576881 85.07439445731274M70.54909633289783 85.04742167119353M70.48478459144447 85.00602938689565M70.43059253688695 84.95206141017803M70.38893413656193 84.88792172690368M70.34999998135784 111.40754805975595M70.34999997302306 90.81015850152309M74.9803985602312 83.37176719006193M75.2273715571507 83.20601227629714M75.30370321506307 83.20123741624636M75.3793369248818 83.21258921025515M75.45090360775269 83.23956199637428M75.51521534920612 83.28095428067225M75.56940740376375 83.33492225738993M75.61106580408857 83.39906194066431M75.64999997008364 83.54610227447857M75.64999997841828 104.14349183271172M71.01960139121017 111.58188314417265M70.77262839429083 111.74763805793773M70.69629673637822 111.75241291798835M70.62066302655971 111.74106112397945M70.5490963436889 111.71408833786029M70.48478460223542 111.6726960535623M70.43059254767768 111.61872807684472M70.3889341473528 111.55458839357044M70.34999999999981 157.4768251681898M70.34999999460457 144.14349183485655M74.98039858181254 136.70510052339552M75.22737157873219 136.53934560963052M75.30370323664455 136.53457074957976M75.37933694646337 136.54592254358863M75.45090362933435 136.57289532970776M75.51521537078754 136.61428761400572M75.56940742534512 136.66825559072356M75.61106582567 136.73239527399778M75.6499999916651 136.87943560781213M75.64999999999976 157.476825166045M62.421478878044255 156.8800719532681M66.68039858720776 150.03843386008754M66.92737158412736 149.87267894632248M67.00370324203978 149.86790408627184M67.07933695185874 149.8792558802807M67.15090363472952 149.90622866639973M67.21521537618288 149.9476209506978M67.26940743074037 150.00158892741547M67.31106583106533 150.06572861068975M67.34999999706015 150.21276894450415M67.34999999999978 157.47682516940375M62.771685055253485 157.47682517125656M62.47984235082363 157.4193953139029M62.4224913819733 157.36879701689503M62.3770372033964 157.30728897727363M62.34550455660393 157.23761105053626M62.32929805302821 157.16286701712852M62.32913960606804 157.08638632556057M78.64999998675334 124.7408813897307M78.6499999784182 104.14349183149784M83.28039856562653 96.70510052003706M83.52737156254615 96.53934560627211M83.60370322045854 96.5345707462214M83.6793369302773 96.5459225402302M83.75090361314817 96.57289532634928M83.81521535460168 96.61428761064722M83.86940740915914 96.66825558736488M83.91106580948404 96.73239527063923M83.94999997547906 96.87943560445358M83.9499999838141 117.47682516268658M79.31960139660576 124.91521647414748M79.07262839968631 125.08097138791237M78.99629674177366 125.08574624796302M78.92066303195502 125.0743944539542M78.84909634908423 125.04742166783512M78.78478460763095 125.00602938353711M78.73059255307318 124.9520614068195M78.68893415274827 124.8879217235451M78.64999999754419 151.40754805639733M78.64999998920929 130.81015849816458M83.28039857641737 123.37176718670361M83.52737157333691 123.20601227293866M83.60370323124938 123.20123741288796M83.67933694106823 123.21258920689672M83.75090362393904 123.23956199301585M83.81521536539235 123.28095427731375M83.86940741994995 123.33492225403148M83.91106582027474 123.39906193730582M83.9499999862699 123.54610227112016M83.94999999460462 144.14349182935314M79.31960140739666 151.5818831408141M79.07262841047695 151.747638054579M78.99629675256459 151.75241291462982M78.92066304274589 151.74106112062088M78.84909635987499 151.7140883345017M78.78478461842151 151.6726960502038M78.73059256386405 151.61872807348612M78.68893416353917 151.5545883902118M79.02147887804442 156.88007194655086M83.28039858720796 150.0384338533703M83.52737158412755 149.87267893960535M83.60370324203986 149.86790407955465M83.67933695185879 149.8792558735634M83.7509036347296 149.90622865968254M83.81521537618293 149.94762094398044M83.86940743074057 150.0015889206981M83.91106583106547 150.06572860397262M83.94999999706035 150.21276893778685M83.94999999999997 157.4768251626865M79.37168505525356 157.47682516453926M79.07984235082363 157.4193953071857M79.02249138197338 157.36879701017767M78.97703720339648 157.30728897055616M78.94550455660395 157.23761104381884M78.92929805302823 157.16286701041128M78.92913960606795 157.08638631884327M70.34999999214874 138.07421472642267M70.34999998381379 117.47682516818979M74.98039857102195 110.03843385672893M75.22737156794146 109.87267894296394M75.30370322585388 109.86790408291321M75.37933693567264 109.8792558769221M75.45090361854342 109.90622866304122M75.51521535999687 109.94762094733926M75.56940741455448 110.00158892405695M75.6110658148795 110.06572860733122M75.64999998087434 110.21276894114547M75.64999998920923 130.81015849937836M71.01960140200116 138.24854981083934M70.77262840508165 138.41430472460434M70.69629674716909 138.41907958465498M70.62066303735044 138.40772779064616M70.54909635447943 138.38075500452703M70.48478461302601 138.33936272022902M70.43059255846843 138.2853947435114M70.3889341581437 138.22125506023713M62.04999999754399 151.40754806311458M62.04999998920927 130.81015850488177M66.68039857641726 123.3717671934208M66.92737157333694 123.20601227965585M67.0037032312493 123.20123741960504M67.07933694106818 123.21258921361391M67.15090362393893 123.23956199973304M67.21521536539235 123.28095428403105M67.26940741994987 123.33492226074873M67.31106582027483 123.399061944023M67.34999998626982 123.54610227783735M67.34999999460457 144.14349183607044M62.719601407396524 151.5818831475312M62.47262841047676 151.74763806129613M62.39629675256448 151.7524129213469M62.32066304274572 151.741061127338M62.24909635987494 151.714088341219M62.18478461842123 151.67269605692104M62.1305925638638 151.6187280802032M62.08893416353909 151.55458839692898M62.049999986753235 124.740881396448M62.04999997841831 104.14349183821511M66.68039856562656 96.70510052675418M66.92737156254607 96.53934561298927M67.00370322045846 96.53457075293842M67.07933693027725 96.54592254694741M67.15090361314809 96.57289533306636M67.2152153546016 96.61428761736451M67.26940740915906 96.66825559408208M67.31106580948402 96.73239527735646M67.34999997547881 96.87943561117075M67.3499999838137 117.4768251694038M62.7196013966056 124.91521648086467M62.47262839968617 125.08097139462973M62.39629674177364 125.08574625468049M62.32066303195485 125.07439446067161M62.24909634908404 125.04742167455254M62.184784607630675 125.00602939025453M62.13059255307307 124.9520614135368M62.08893415274822 124.88792173026246M78.64999996517152 71.4075480563973M78.64999995683668 50.810158498164455M83.2803985440451 43.37176718670343M83.52737154096461 43.20601227293861M83.60370319887703 43.20123741288774M83.67933690869576 43.21258920689661M83.75090359156665 43.23956199301581M83.81521533301994 43.2809542773137M83.86940738757748 43.334922254031405M83.9110657879025 43.39906193730575M83.94999995389749 43.54610227112005M83.94999996223207 64.14349182935311M79.31960137502425 71.581883140814M79.07262837810462 71.74763805457886M78.99629672019215 71.75241291462964M78.92066301037339 71.74106112062069M78.84909632750247 71.71408833450164M78.78478458604918 71.6726960502037M78.73059253149167 71.61872807348605M78.68893413116662 71.5545883902116M78.64999997596239 98.07421472306392M78.64999996762769 77.47682516483098M83.28039855483563 70.03843385336997M83.52737155175531 69.87267893960515M83.60370320966776 69.86790407955431M83.67933691948663 69.8792558735633M83.75090360235735 69.90622865968238M83.81521534381069 69.94762094398025M83.86940739836824 70.00158892069797M83.91106579869331 70.06572860397232M83.94999996468822 70.21276893778669M83.949999973023 90.81015849601974M79.31960138581489 98.24854980748083M79.0726283888953 98.41430472124559M78.9962967309829 98.41907958129636M78.92066302116415 98.40772778728743M78.84909633829328 98.38075500116841M78.78478459683988 98.33936271687041M78.73059254228222 98.28539474015273M78.68893414195743 98.22125505687839M66.97852107339686 38.073578387684286M62.71960136423347 44.91521648086455M62.47262836731382 45.08097139462945M62.396296709401454 45.085746254680224M62.32066299958264 45.07439446067124M62.24909631671177 45.04742167455211M62.18478457525835 45.00602939025415M62.13059252070069 44.952061413536605M62.088934120375896 44.88792173026219M62.049999954380965 44.74088139644776M62.04999995144151 37.476825171548406M66.62831489618777 37.476825169695665M66.92015760061777 37.534255027049376M66.97750856946801 37.58485332405721M67.02296274804486 37.64636136367873M67.05449539483753 37.716039290416084M67.07070189841322 37.790783323823554M67.07086034537333 37.86726401539162M62.04999996517172 71.40754806311443M62.04999995683686 50.81015850488157M66.68039854404505 43.37176719342061M66.92737154096461 43.20601227965567M67.00370319887706 43.20123741960495M67.07933690869588 43.21258921361386M67.15090359156663 43.23956199973295M67.21521533302011 43.28095428403085M67.26940738757769 43.33492226074859M67.31106578790265 43.39906194402293M67.34999995389747 43.5461022778372M67.3499999622321 64.14349183607024M62.7196013750242 71.58188314753119M62.472628378104545 71.74763806129606M62.39629672019218 71.75241292134683M62.32066301037334 71.74106112733799M62.24909632750244 71.71408834121888M62.184784586049076 71.67269605692081M62.13059253149156 71.61872808020328M62.08893413116668 71.55458839692885 " fill="none" stroke="#ff0000" stroke-width="0.26458332" data-transform="matrix(1,0,0,1,27.886497497558594,-28.180038452148438)"></path><defs id="lzr_959_0" x="-8" y="-8" fill="none" stroke="#ff0000" stroke-width="0.26458332" data-transform="matrix(1,0,0,1,27.886497497558594,-28.180038452148438)"></defs></g><g id="SvgjsG1012" transform="matrix(1,0,0,1,115.94912528991699,-34.63795852661133)"><path style="fill:none;stroke:#ff0000;stroke-width:0.26458332;" id="lzr_54_2" d="M37.99986108471052 12.068159295272913L31.99986112736002 12.068159295272913L31.482223152115267 12L30.999861561885325 12.336119813768846L30.585648507861038 12.653957649509529L30.267811925154888 13.068171695412708L30.068011851628455 13.550533913504786L29.99986433208224 14.068172107604518L29.99999364431939 94.92468391634326L29.93184612479395 95.44232211552209L29.73204605126176 95.92468434485151L29.41420946854892 96.338898415544L28.999996414517412 96.65673632320294L28.517634824280023 96.85653793967326L27.9999968430714 96.92468711498007L11.99999680124806 96.92471270255827L11.482358820041199 96.9928618778895L10.999997229803213 97.19266349437406L10.585784175770968 97.51050140204858L10.267947593057329 97.924715472757L10.068147519524473 98.40707770210183L10 98.92471590127344L10.000012862313383 106.92471591303313L30.00001288373413 106.9246839164111L30.000019757756363 111.22468391360427L20.00001975778953 111.22469990730086L20.0000241171778 113.92469990977018L20.06817329256708 114.44233789086427L20.267974909037903 114.92469948110802L20.585812816696418 115.33891253515186L21.000026887387563 115.65674911788206L21.482389116714927 115.85654919143546L22.000027315916498 115.9246967109742L38.000027189976024 115.9246711137783L38.51766517089695 115.8565219384029L39.000026761068 115.6567203219253L39.414239815057385 115.33888241425957L39.73207639775521 114.92466834356078L39.93187647130023 114.44230611422564L40.00002399122408 113.92466791503558L39.99986428344924 14.06815609652908L39.931715108131314 13.55051811532033L39.73191349164635 13.06815652508304L39.41407558396975 12.653943471051477L38.999861513257784 12.336106888338598L38.51749928390849 12.13630681480641L37.99986108471052 12.068159295272913M36.749873481666015 19.81816129477172L36.690244402081234 20.271094719053664L36.51541933774061 20.693161669718982L36.237312327866846 21.055598981578L35.874875905589306 21.3337071507831L35.452809514131545 21.508533565197602L34.999876280574014 21.568164093593325L34.54694285627575 21.50853501400364L34.12487590559512 21.333709949660964L33.76243859372214 21.055602939787995L33.484330424505174 20.69316651751454L33.309504010080744 20.271100126064447L33.24987348167768 19.818166892517986L33.24987028293235 17.818166892602143L33.309499362517045 17.365233468331468L33.48432442685768 16.943166517684155L33.76243143673145 16.58072920584855L34.12486785900907 16.302621036668945L34.54693425046668 16.127794622276966L34.99986748402438 16.068164093895405L35.45280090832246 16.12779317348727L35.87486785900326 16.30261823781992L36.237305170876155 16.58072524767367L36.51541334009312 16.94316166992335L36.69023975451755 17.365228061349747L36.74987028292071 17.818161294876063L36.749873481666015 19.81816129477172M36.749995591948576 96.16816129434925L36.69036651236175 96.62109471864788L36.51554144801639 97.04316166932894L36.23743443813558 97.40559898120178L35.87499801584907 97.68370715041873L35.45293162438141 97.85853356484292L34.99999839081303 97.91816409324595L34.54706496650451 97.85853501366095L34.1249980158142 97.68370994932017L33.7625607039333 97.40560293944615L33.48445253471046 97.04316651716827L33.30962612028263 96.62110012571004L33.2499955918788 96.16816689215169L33.24999239313671 94.16816689215462L33.30962147272358 93.7152334678555L33.484446537068976 93.29316651717392L33.76255354694976 92.93072920530014L34.12498996923617 92.65262103608251L34.54705636070403 92.47779462165786L34.99998959427219 92.41816409325496L35.45292301858093 92.4777931728403L35.874989969271056 92.65261823718188L36.23742728115204 92.93072524705687L36.5155354503749 93.29316166933565L36.69036186480271 93.71522806079436L36.749992393206426 94.16816129435286L36.749995591948576 96.16816129434925 " fill="none" stroke="#ff0000" stroke-width="0.26458332" data-transform="matrix(1,0,0,1,115.94912528991699,-34.63795852661133)" transform="matrix(-1.8369701987210297e-16,-1,1,-1.8369701987210297e-16,-38.96233749389648,88.96236038208009)"></path><path style="fill:none;stroke:#ff0000;stroke-width:0.26458332;" id="lzr_54_3" d="M37.99986108471052 12.068159295272913M31.99986112736002 12.068159295272913M31.482223152115267 12M30.999861561885325 12.336119813768846M30.585648507861038 12.653957649509529M30.267811925154888 13.068171695412708M30.068011851628455 13.550533913504786M29.99986433208224 14.068172107604518M29.99999364431939 94.92468391634326M29.93184612479395 95.44232211552209M29.73204605126176 95.92468434485151M29.41420946854892 96.338898415544M28.999996414517412 96.65673632320294M28.517634824280023 96.85653793967326M27.9999968430714 96.92468711498007M11.99999680124806 96.92471270255827M11.482358820041199 96.9928618778895M10.999997229803213 97.19266349437406M10.585784175770968 97.51050140204858M10.267947593057329 97.924715472757M10.068147519524473 98.40707770210183M10 98.92471590127344M10.000012862313383 106.92471591303313M30.00001288373413 106.9246839164111M30.000019757756363 111.22468391360427M20.00001975778953 111.22469990730086M20.0000241171778 113.92469990977018M20.06817329256708 114.44233789086427M20.267974909037903 114.92469948110802M20.585812816696418 115.33891253515186M21.000026887387563 115.65674911788206M21.482389116714927 115.85654919143546M22.000027315916498 115.9246967109742M38.000027189976024 115.9246711137783M38.51766517089695 115.8565219384029M39.000026761068 115.6567203219253M39.414239815057385 115.33888241425957M39.73207639775521 114.92466834356078M39.93187647130023 114.44230611422564M40.00002399122408 113.92466791503558M39.99986428344924 14.06815609652908M39.931715108131314 13.55051811532033M39.73191349164635 13.06815652508304M39.41407558396975 12.653943471051477M38.999861513257784 12.336106888338598M38.51749928390849 12.13630681480641M36.749873481666015 19.81816129477172M36.690244402081234 20.271094719053664M36.51541933774061 20.693161669718982M36.237312327866846 21.055598981578M35.874875905589306 21.3337071507831M35.452809514131545 21.508533565197602M34.999876280574014 21.568164093593325M34.54694285627575 21.50853501400364M34.12487590559512 21.333709949660964M33.76243859372214 21.055602939787995M33.484330424505174 20.69316651751454M33.309504010080744 20.271100126064447M33.24987348167768 19.818166892517986M33.24987028293235 17.818166892602143M33.309499362517045 17.365233468331468M33.48432442685768 16.943166517684155M33.76243143673145 16.58072920584855M34.12486785900907 16.302621036668945M34.54693425046668 16.127794622276966M34.99986748402438 16.068164093895405M35.45280090832246 16.12779317348727M35.87486785900326 16.30261823781992M36.237305170876155 16.58072524767367M36.51541334009312 16.94316166992335M36.69023975451755 17.365228061349747M36.74987028292071 17.818161294876063M36.749995591948576 96.16816129434925M36.69036651236175 96.62109471864788M36.51554144801639 97.04316166932894M36.23743443813558 97.40559898120178M35.87499801584907 97.68370715041873M35.45293162438141 97.85853356484292M34.99999839081303 97.91816409324595M34.54706496650451 97.85853501366095M34.1249980158142 97.68370994932017M33.7625607039333 97.40560293944615M33.48445253471046 97.04316651716827M33.30962612028263 96.62110012571004M33.2499955918788 96.16816689215169M33.24999239313671 94.16816689215462M33.30962147272358 93.7152334678555M33.484446537068976 93.29316651717392M33.76255354694976 92.93072920530014M34.12498996923617 92.65262103608251M34.54705636070403 92.47779462165786M34.99998959427219 92.41816409325496M35.45292301858093 92.4777931728403M35.874989969271056 92.65261823718188M36.23742728115204 92.93072524705687M36.5155354503749 93.29316166933565M36.69036186480271 93.71522806079436M36.749992393206426 94.16816129435286 " fill="none" stroke="#ff0000" stroke-width="0.26458332" data-transform="matrix(1,0,0,1,115.94912528991699,-34.63795852661133)"></path><path style="fill:none;stroke:#ff0000;stroke-width:0.26458332;" id="lzr_54_4" d="M37.99986108471052 12.068159295272913M31.99986112736002 12.068159295272913M31.482223152115267 12M30.999861561885325 12.336119813768846M30.585648507861038 12.653957649509529M30.267811925154888 13.068171695412708M30.068011851628455 13.550533913504786M29.99986433208224 14.068172107604518M29.99999364431939 94.92468391634326M29.93184612479395 95.44232211552209M29.73204605126176 95.92468434485151M29.41420946854892 96.338898415544M28.999996414517412 96.65673632320294M28.517634824280023 96.85653793967326M27.9999968430714 96.92468711498007M11.99999680124806 96.92471270255827M11.482358820041199 96.9928618778895M10.999997229803213 97.19266349437406M10.585784175770968 97.51050140204858M10.267947593057329 97.924715472757M10.068147519524473 98.40707770210183M10 98.92471590127344M10.000012862313383 106.92471591303313M30.00001288373413 106.9246839164111M30.000019757756363 111.22468391360427M20.00001975778953 111.22469990730086M20.0000241171778 113.92469990977018M20.06817329256708 114.44233789086427M20.267974909037903 114.92469948110802M20.585812816696418 115.33891253515186M21.000026887387563 115.65674911788206M21.482389116714927 115.85654919143546M22.000027315916498 115.9246967109742M38.000027189976024 115.9246711137783M38.51766517089695 115.8565219384029M39.000026761068 115.6567203219253M39.414239815057385 115.33888241425957M39.73207639775521 114.92466834356078M39.93187647130023 114.44230611422564M40.00002399122408 113.92466791503558M39.99986428344924 14.06815609652908M39.931715108131314 13.55051811532033M39.73191349164635 13.06815652508304M39.41407558396975 12.653943471051477M38.999861513257784 12.336106888338598M38.51749928390849 12.13630681480641M36.749873481666015 19.81816129477172M36.690244402081234 20.271094719053664M36.51541933774061 20.693161669718982M36.237312327866846 21.055598981578M35.874875905589306 21.3337071507831M35.452809514131545 21.508533565197602M34.999876280574014 21.568164093593325M34.54694285627575 21.50853501400364M34.12487590559512 21.333709949660964M33.76243859372214 21.055602939787995M33.484330424505174 20.69316651751454M33.309504010080744 20.271100126064447M33.24987348167768 19.818166892517986M33.24987028293235 17.818166892602143M33.309499362517045 17.365233468331468M33.48432442685768 16.943166517684155M33.76243143673145 16.58072920584855M34.12486785900907 16.302621036668945M34.54693425046668 16.127794622276966M34.99986748402438 16.068164093895405M35.45280090832246 16.12779317348727M35.87486785900326 16.30261823781992M36.237305170876155 16.58072524767367M36.51541334009312 16.94316166992335M36.69023975451755 17.365228061349747M36.74987028292071 17.818161294876063M36.749995591948576 96.16816129434925M36.69036651236175 96.62109471864788M36.51554144801639 97.04316166932894M36.23743443813558 97.40559898120178M35.87499801584907 97.68370715041873M35.45293162438141 97.85853356484292M34.99999839081303 97.91816409324595M34.54706496650451 97.85853501366095M34.1249980158142 97.68370994932017M33.7625607039333 97.40560293944615M33.48445253471046 97.04316651716827M33.30962612028263 96.62110012571004M33.2499955918788 96.16816689215169M33.24999239313671 94.16816689215462M33.30962147272358 93.7152334678555M33.484446537068976 93.29316651717392M33.76255354694976 92.93072920530014M34.12498996923617 92.65262103608251M34.54705636070403 92.47779462165786M34.99998959427219 92.41816409325496M35.45292301858093 92.4777931728403M35.874989969271056 92.65261823718188M36.23742728115204 92.93072524705687M36.5155354503749 93.29316166933565M36.69036186480271 93.71522806079436M36.749992393206426 94.16816129435286 " fill="none" stroke="#ff0000" stroke-width="0.26458332" data-transform="matrix(1,0,0,1,115.94912528991699,-34.63795852661133)"></path></g><g id="SvgjsG1016" transform="matrix(1,0,0,1,56.06653594970703,85.42074584960938)"><path style="fill:none;stroke:#ff0000;stroke-width:0.26458332;" id="lzr_725_3" d="M38.779999999999944 52.4945368686771L38.779999999999944 12L10 12L10 52.4945368686771L38.779999999999944 52.4945368686771M32.634106660501146 24.366518274408264L32 24.450000000000045L16.78 24.450000000000045L16.145893339498798 24.366518274408264L15.555000000000007 24.12176223927193L15.04758838609294 23.73241161390709L14.658237760728099 23.224999999999994L14.413481725591765 22.634106660501203L14.329999999999984 22.00000000000003L14.413481725591765 21.365893339498825L14.658237760728099 20.775000000000006L15.04758838609294 20.267588386092967L15.554999999999978 19.878237760728155L16.145893339498798 19.633481725591793L16.78 19.55000000000001L32 19.55000000000004L32.6341066605012 19.63348172559182L33.224999999999994 19.878237760728155L33.73241161390703 20.267588386092996L34.121762239271874 20.775000000000034L34.366518274408236 21.365893339498882L34.45000000000002 22.00000000000003L34.36651827440821 22.634106660501203L34.121762239271874 23.225000000000023L33.73241161390703 23.73241161390709L33.22500000000002 24.12176223927193L32.634106660501146 24.366518274408264M32.6341066605012 44.83742092591612L32 44.9209026515079L16.78 44.9209026515079L16.145893339498798 44.83742092591612L15.555000000000007 44.592664890779815L15.04758838609294 44.203314265414974L14.658237760728099 43.69590265150791L14.413481725591765 43.10500931200909L14.329999999999984 42.470902651507885L14.413481725591765 41.83679599100671L14.658237760728099 41.24590265150789L15.04758838609294 40.73849103760085L15.554999999999978 40.34914041223601L16.145893339498798 40.10438437709968L16.78 40.020902651507896L32 40.020902651507896L32.634106660501146 40.10438437709968L33.224999999999994 40.34914041223601L33.73241161390703 40.73849103760085L34.121762239271874 41.24590265150789L34.366518274408236 41.83679599100671L34.45000000000002 42.470902651507885L34.366518274408236 43.10500931200909L34.121762239271874 43.69590265150791L33.73241161390703 44.203314265414974L33.22500000000002 44.59266489077976L32.6341066605012 44.83742092591612 " fill="none" stroke="#ff0000" stroke-width="0.26458332" data-transform="matrix(1,0,0,1,56.06653594970703,85.42074584960938)"></path><path style="fill:none;stroke:#ff0000;stroke-width:0.26458332;" id="lzr_725_4" d="M38.779999999999944 52.4945368686771M38.779999999999944 12M10 12M10 52.4945368686771M32.634106660501146 24.366518274408264M32 24.450000000000045M16.78 24.450000000000045M16.145893339498798 24.366518274408264M15.555000000000007 24.12176223927193M15.04758838609294 23.73241161390709M14.658237760728099 23.224999999999994M14.413481725591765 22.634106660501203M14.329999999999984 22.00000000000003M14.413481725591765 21.365893339498825M14.658237760728099 20.775000000000006M15.04758838609294 20.267588386092967M15.554999999999978 19.878237760728155M16.145893339498798 19.633481725591793M16.78 19.55000000000001M32 19.55000000000004M32.6341066605012 19.63348172559182M33.224999999999994 19.878237760728155M33.73241161390703 20.267588386092996M34.121762239271874 20.775000000000034M34.366518274408236 21.365893339498882M34.45000000000002 22.00000000000003M34.36651827440821 22.634106660501203M34.121762239271874 23.225000000000023M33.73241161390703 23.73241161390709M33.22500000000002 24.12176223927193M32.6341066605012 44.83742092591612M32 44.9209026515079M16.78 44.9209026515079M16.145893339498798 44.83742092591612M15.555000000000007 44.592664890779815M15.04758838609294 44.203314265414974M14.658237760728099 43.69590265150791M14.413481725591765 43.10500931200909M14.329999999999984 42.470902651507885M14.413481725591765 41.83679599100671M14.658237760728099 41.24590265150789M15.04758838609294 40.73849103760085M15.554999999999978 40.34914041223601M16.145893339498798 40.10438437709968M16.78 40.020902651507896M32 40.020902651507896M32.634106660501146 40.10438437709968M33.224999999999994 40.34914041223601M33.73241161390703 40.73849103760085M34.121762239271874 41.24590265150789M34.366518274408236 41.83679599100671M34.45000000000002 42.470902651507885M34.366518274408236 43.10500931200909M34.121762239271874 43.69590265150791M33.73241161390703 44.203314265414974M33.22500000000002 44.59266489077976 " fill="none" stroke="#ff0000" stroke-width="0.26458332" data-transform="matrix(1,0,0,1,56.06653594970703,85.42074584960938)"></path><path style="fill:none;stroke:#ff0000;stroke-width:0.26458332;" id="lzr_725_5" d="M38.779999999999944 52.4945368686771M38.779999999999944 12M10 12M10 52.4945368686771M32.634106660501146 24.366518274408264M32 24.450000000000045M16.78 24.450000000000045M16.145893339498798 24.366518274408264M15.555000000000007 24.12176223927193M15.04758838609294 23.73241161390709M14.658237760728099 23.224999999999994M14.413481725591765 22.634106660501203M14.329999999999984 22.00000000000003M14.413481725591765 21.365893339498825M14.658237760728099 20.775000000000006M15.04758838609294 20.267588386092967M15.554999999999978 19.878237760728155M16.145893339498798 19.633481725591793M16.78 19.55000000000001M32 19.55000000000004M32.6341066605012 19.63348172559182M33.224999999999994 19.878237760728155M33.73241161390703 20.267588386092996M34.121762239271874 20.775000000000034M34.366518274408236 21.365893339498882M34.45000000000002 22.00000000000003M34.36651827440821 22.634106660501203M34.121762239271874 23.225000000000023M33.73241161390703 23.73241161390709M33.22500000000002 24.12176223927193M32.6341066605012 44.83742092591612M32 44.9209026515079M16.78 44.9209026515079M16.145893339498798 44.83742092591612M15.555000000000007 44.592664890779815M15.04758838609294 44.203314265414974M14.658237760728099 43.69590265150791M14.413481725591765 43.10500931200909M14.329999999999984 42.470902651507885M14.413481725591765 41.83679599100671M14.658237760728099 41.24590265150789M15.04758838609294 40.73849103760085M15.554999999999978 40.34914041223601M16.145893339498798 40.10438437709968M16.78 40.020902651507896M32 40.020902651507896M32.634106660501146 40.10438437709968M33.224999999999994 40.34914041223601M33.73241161390703 40.73849103760085M34.121762239271874 41.24590265150789M34.366518274408236 41.83679599100671M34.45000000000002 42.470902651507885M34.366518274408236 43.10500931200909M34.121762239271874 43.69590265150791M33.73241161390703 44.203314265414974M33.22500000000002 44.59266489077976 " fill="none" stroke="#ff0000" stroke-width="0.26458332" data-transform="matrix(1,0,0,1,56.06653594970703,85.42074584960938)"></path></g><g id="SvgjsG1020" transform="matrix(1,0,0,1,88.0626220703125,-34.637962341308594)"><path style="fill:none;stroke:#ff0000;stroke-width:0.26458332;" id="lzr_230_4" d="M37.99986108471052 12.068159295272913L31.99986112736002 12.068159295272913L31.482223152115267 12L30.999861561885325 12.336119813768846L30.585648507861038 12.653957649509529L30.267811925154888 13.068171695412708L30.068011851628455 13.550533913504786L29.99986433208224 14.068172107604518L29.99999364431939 94.92468391634326L29.93184612479395 95.44232211552209L29.73204605126176 95.92468434485151L29.41420946854892 96.338898415544L28.999996414517412 96.65673632320294L28.517634824280023 96.85653793967326L27.9999968430714 96.92468711498007L11.99999680124806 96.92471270255827L11.482358820041199 96.9928618778895L10.999997229803213 97.19266349437406L10.585784175770968 97.51050140204858L10.267947593057329 97.924715472757L10.068147519524473 98.40707770210183L10 98.92471590127344L10.000012862313383 106.92471591303313L30.00001288373413 106.9246839164111L30.000019757756363 111.22468391360427L20.00001975778953 111.22469990730086L20.0000241171778 113.92469990977018L20.06817329256708 114.44233789086427L20.267974909037903 114.92469948110802L20.585812816696418 115.33891253515186L21.000026887387563 115.65674911788206L21.482389116714927 115.85654919143546L22.000027315916498 115.9246967109742L38.000027189976024 115.9246711137783L38.51766517089695 115.8565219384029L39.000026761068 115.6567203219253L39.414239815057385 115.33888241425957L39.73207639775521 114.92466834356078L39.93187647130023 114.44230611422564L40.00002399122408 113.92466791503558L39.99986428344924 14.06815609652908L39.931715108131314 13.55051811532033L39.73191349164635 13.06815652508304L39.41407558396975 12.653943471051477L38.999861513257784 12.336106888338598L38.51749928390849 12.13630681480641L37.99986108471052 12.068159295272913M36.749873481666015 19.81816129477172L36.690244402081234 20.271094719053664L36.51541933774061 20.693161669718982L36.237312327866846 21.055598981578L35.874875905589306 21.3337071507831L35.452809514131545 21.508533565197602L34.999876280574014 21.568164093593325L34.54694285627575 21.50853501400364L34.12487590559512 21.333709949660964L33.76243859372214 21.055602939787995L33.484330424505174 20.69316651751454L33.309504010080744 20.271100126064447L33.24987348167768 19.818166892517986L33.24987028293235 17.818166892602143L33.309499362517045 17.365233468331468L33.48432442685768 16.943166517684155L33.76243143673145 16.58072920584855L34.12486785900907 16.302621036668945L34.54693425046668 16.127794622276966L34.99986748402438 16.068164093895405L35.45280090832246 16.12779317348727L35.87486785900326 16.30261823781992L36.237305170876155 16.58072524767367L36.51541334009312 16.94316166992335L36.69023975451755 17.365228061349747L36.74987028292071 17.818161294876063L36.749873481666015 19.81816129477172M36.749995591948576 96.16816129434925L36.69036651236175 96.62109471864788L36.51554144801639 97.04316166932894L36.23743443813558 97.40559898120178L35.87499801584907 97.68370715041873L35.45293162438141 97.85853356484292L34.99999839081303 97.91816409324595L34.54706496650451 97.85853501366095L34.1249980158142 97.68370994932017L33.7625607039333 97.40560293944615L33.48445253471046 97.04316651716827L33.30962612028263 96.62110012571004L33.2499955918788 96.16816689215169L33.24999239313671 94.16816689215462L33.30962147272358 93.7152334678555L33.484446537068976 93.29316651717392L33.76255354694976 92.93072920530014L34.12498996923617 92.65262103608251L34.54705636070403 92.47779462165786L34.99998959427219 92.41816409325496L35.45292301858093 92.4777931728403L35.874989969271056 92.65261823718188L36.23742728115204 92.93072524705687L36.5155354503749 93.29316166933565L36.69036186480271 93.71522806079436L36.749992393206426 94.16816129435286L36.749995591948576 96.16816129434925 " fill="none" stroke="#ff0000" stroke-width="0.26458332" data-transform="matrix(1,0,0,1,88.0626220703125,-34.637962341308594)" transform="matrix(6.123233995736766e-17,1,-1,6.123233995736766e-17,88.96236038208008,38.962337493896484)"></path><path style="fill:none;stroke:#ff0000;stroke-width:0.26458332;" id="lzr_230_5" d="M37.99986108471052 12.068159295272913M31.99986112736002 12.068159295272913M31.482223152115267 12M30.999861561885325 12.336119813768846M30.585648507861038 12.653957649509529M30.267811925154888 13.068171695412708M30.068011851628455 13.550533913504786M29.99986433208224 14.068172107604518M29.99999364431939 94.92468391634326M29.93184612479395 95.44232211552209M29.73204605126176 95.92468434485151M29.41420946854892 96.338898415544M28.999996414517412 96.65673632320294M28.517634824280023 96.85653793967326M27.9999968430714 96.92468711498007M11.99999680124806 96.92471270255827M11.482358820041199 96.9928618778895M10.999997229803213 97.19266349437406M10.585784175770968 97.51050140204858M10.267947593057329 97.924715472757M10.068147519524473 98.40707770210183M10 98.92471590127344M10.000012862313383 106.92471591303313M30.00001288373413 106.9246839164111M30.000019757756363 111.22468391360427M20.00001975778953 111.22469990730086M20.0000241171778 113.92469990977018M20.06817329256708 114.44233789086427M20.267974909037903 114.92469948110802M20.585812816696418 115.33891253515186M21.000026887387563 115.65674911788206M21.482389116714927 115.85654919143546M22.000027315916498 115.9246967109742M38.000027189976024 115.9246711137783M38.51766517089695 115.8565219384029M39.000026761068 115.6567203219253M39.414239815057385 115.33888241425957M39.73207639775521 114.92466834356078M39.93187647130023 114.44230611422564M40.00002399122408 113.92466791503558M39.99986428344924 14.06815609652908M39.931715108131314 13.55051811532033M39.73191349164635 13.06815652508304M39.41407558396975 12.653943471051477M38.999861513257784 12.336106888338598M38.51749928390849 12.13630681480641M36.749873481666015 19.81816129477172M36.690244402081234 20.271094719053664M36.51541933774061 20.693161669718982M36.237312327866846 21.055598981578M35.874875905589306 21.3337071507831M35.452809514131545 21.508533565197602M34.999876280574014 21.568164093593325M34.54694285627575 21.50853501400364M34.12487590559512 21.333709949660964M33.76243859372214 21.055602939787995M33.484330424505174 20.69316651751454M33.309504010080744 20.271100126064447M33.24987348167768 19.818166892517986M33.24987028293235 17.818166892602143M33.309499362517045 17.365233468331468M33.48432442685768 16.943166517684155M33.76243143673145 16.58072920584855M34.12486785900907 16.302621036668945M34.54693425046668 16.127794622276966M34.99986748402438 16.068164093895405M35.45280090832246 16.12779317348727M35.87486785900326 16.30261823781992M36.237305170876155 16.58072524767367M36.51541334009312 16.94316166992335M36.69023975451755 17.365228061349747M36.74987028292071 17.818161294876063M36.749995591948576 96.16816129434925M36.69036651236175 96.62109471864788M36.51554144801639 97.04316166932894M36.23743443813558 97.40559898120178M35.87499801584907 97.68370715041873M35.45293162438141 97.85853356484292M34.99999839081303 97.91816409324595M34.54706496650451 97.85853501366095M34.1249980158142 97.68370994932017M33.7625607039333 97.40560293944615M33.48445253471046 97.04316651716827M33.30962612028263 96.62110012571004M33.2499955918788 96.16816689215169M33.24999239313671 94.16816689215462M33.30962147272358 93.7152334678555M33.484446537068976 93.29316651717392M33.76255354694976 92.93072920530014M34.12498996923617 92.65262103608251M34.54705636070403 92.47779462165786M34.99998959427219 92.41816409325496M35.45292301858093 92.4777931728403M35.874989969271056 92.65261823718188M36.23742728115204 92.93072524705687M36.5155354503749 93.29316166933565M36.69036186480271 93.71522806079436M36.749992393206426 94.16816129435286 " fill="none" stroke="#ff0000" stroke-width="0.26458332" data-transform="matrix(1,0,0,1,88.0626220703125,-34.637962341308594)"></path><path style="fill:none;stroke:#ff0000;stroke-width:0.26458332;" id="lzr_230_6" d="M37.99986108471052 12.068159295272913M31.99986112736002 12.068159295272913M31.482223152115267 12M30.999861561885325 12.336119813768846M30.585648507861038 12.653957649509529M30.267811925154888 13.068171695412708M30.068011851628455 13.550533913504786M29.99986433208224 14.068172107604518M29.99999364431939 94.92468391634326M29.93184612479395 95.44232211552209M29.73204605126176 95.92468434485151M29.41420946854892 96.338898415544M28.999996414517412 96.65673632320294M28.517634824280023 96.85653793967326M27.9999968430714 96.92468711498007M11.99999680124806 96.92471270255827M11.482358820041199 96.9928618778895M10.999997229803213 97.19266349437406M10.585784175770968 97.51050140204858M10.267947593057329 97.924715472757M10.068147519524473 98.40707770210183M10 98.92471590127344M10.000012862313383 106.92471591303313M30.00001288373413 106.9246839164111M30.000019757756363 111.22468391360427M20.00001975778953 111.22469990730086M20.0000241171778 113.92469990977018M20.06817329256708 114.44233789086427M20.267974909037903 114.92469948110802M20.585812816696418 115.33891253515186M21.000026887387563 115.65674911788206M21.482389116714927 115.85654919143546M22.000027315916498 115.9246967109742M38.000027189976024 115.9246711137783M38.51766517089695 115.8565219384029M39.000026761068 115.6567203219253M39.414239815057385 115.33888241425957M39.73207639775521 114.92466834356078M39.93187647130023 114.44230611422564M40.00002399122408 113.92466791503558M39.99986428344924 14.06815609652908M39.931715108131314 13.55051811532033M39.73191349164635 13.06815652508304M39.41407558396975 12.653943471051477M38.999861513257784 12.336106888338598M38.51749928390849 12.13630681480641M36.749873481666015 19.81816129477172M36.690244402081234 20.271094719053664M36.51541933774061 20.693161669718982M36.237312327866846 21.055598981578M35.874875905589306 21.3337071507831M35.452809514131545 21.508533565197602M34.999876280574014 21.568164093593325M34.54694285627575 21.50853501400364M34.12487590559512 21.333709949660964M33.76243859372214 21.055602939787995M33.484330424505174 20.69316651751454M33.309504010080744 20.271100126064447M33.24987348167768 19.818166892517986M33.24987028293235 17.818166892602143M33.309499362517045 17.365233468331468M33.48432442685768 16.943166517684155M33.76243143673145 16.58072920584855M34.12486785900907 16.302621036668945M34.54693425046668 16.127794622276966M34.99986748402438 16.068164093895405M35.45280090832246 16.12779317348727M35.87486785900326 16.30261823781992M36.237305170876155 16.58072524767367M36.51541334009312 16.94316166992335M36.69023975451755 17.365228061349747M36.74987028292071 17.818161294876063M36.749995591948576 96.16816129434925M36.69036651236175 96.62109471864788M36.51554144801639 97.04316166932894M36.23743443813558 97.40559898120178M35.87499801584907 97.68370715041873M35.45293162438141 97.85853356484292M34.99999839081303 97.91816409324595M34.54706496650451 97.85853501366095M34.1249980158142 97.68370994932017M33.7625607039333 97.40560293944615M33.48445253471046 97.04316651716827M33.30962612028263 96.62110012571004M33.2499955918788 96.16816689215169M33.24999239313671 94.16816689215462M33.30962147272358 93.7152334678555M33.484446537068976 93.29316651717392M33.76255354694976 92.93072920530014M34.12498996923617 92.65262103608251M34.54705636070403 92.47779462165786M34.99998959427219 92.41816409325496M35.45292301858093 92.4777931728403M35.874989969271056 92.65261823718188M36.23742728115204 92.93072524705687M36.5155354503749 93.29316166933565M36.69036186480271 93.71522806079436M36.749992393206426 94.16816129435286 " fill="none" stroke="#ff0000" stroke-width="0.26458332" data-transform="matrix(1,0,0,1,88.0626220703125,-34.637962341308594)"></path></g></svg>