<svg id="SvgjsSvg1006" width="234mm" height="195mm" xmlns="http://www.w3.org/2000/svg" version="1.1" xmlns:xlink="http://www.w3.org/1999/xlink" xmlns:svgjs="http://svgjs.com/svgjs" viewBox="0 0 234 195"><g id="SvgjsG1008"><path style="fill:none;stroke:#ff0000;stroke-width:0.26458332;" id="lzr_209_2" d="M232.791870791856 186.00000000000082L229.04187079185704 172.75000000000023L229.0418707918554 23.250000000000263L232.791870791856 10.000000000000547L224.79187079185704 2L211.5418707918563 5.749999999999211L23.250000000074802 5.750000000232589L10.000000000140666 2.0000000000001563L2.000000000000135 9.999999999859007L5.749999999767459 23.24999999992543L5.750000000000364 172.7499999999998L2 186.00000000000085L9.999999999999083 194.0000000000011L224.791870791856 194L232.791870791856 186.00000000000082M215.34453686867613 184.50000000000003L201.3995368686762 184.5000000000003L201.39953686867614 182.50000000000003L215.34453686867613 182.5L215.34453686867613 184.50000000000003M10.439576690024232 7.964722813211942L10.719133928495566 8.32604270527122L10.895649015621824 8.74740565807582L10.957092739920256 9.200096482727517L10.899277813120552 9.653265047633063L10.726144226940391 10.076028663990748L10.449490749161086 10.439576689995647L10.08817085710183 10.719133928467024L9.666807904297226 10.895649015593378L9.214117079645462 10.957092739891898L8.760948514739987 10.899277813092077L8.338184898382252 10.72614422691192L7.974636872377401 10.44949074913248L7.695079633905845 10.08817085707333L7.518564546779674 9.666807904268637L7.457120822481107 9.214117079617083L7.5149357492808555 8.760948514711465L7.688069335461153 8.338184898353738L7.964722813240504 7.974636872348789L8.326042705299628 7.695079633877391L8.74740565810432 7.518564546751129L9.200096482755946 7.45712082245268L9.653265047661556 7.514935749252452L10.076028664019201 7.688069335432637L10.439576690024232 7.964722813211942M7.5167365851801335 186.3399598898733L7.6915473500761795 186.00000000000085L7.969669914109478 185.5554563517263L8.3321067811859 185.27734876218375L8.754173452256495 185.10252302280728L9.207106781185882 185.04289321881456L9.66004011011536 185.10252302281202L10.082106781185956 185.2773487621882L10.444543648262378 185.55545635171987L10.722636058930505 186.00000000000085L10.897476977191857 186.33995988989062L10.957106781186027 186.79289321881126L10.897476977191904 187.24582654775188L10.722651237808833 187.66789321881473L10.44454364826256 188.03033008589003L10.082106781186134 188.30843767543521L9.660040110115588 188.48326341482274L9.207106781186155 188.542893218815L8.754173452256719 188.4832634148242L8.332106781186127 188.30843767543652L7.969669914109659 188.03033008589335L7.691562324563339 187.66789321881043L7.516736585180178 187.24582654774278L7.45710678118601 186.7928932188085L7.5167365851801335 186.3399598898733M183.4545368686762 182.5L197.3995368686762 182.5L197.3995368686762 184.5000000000001L183.4545368686762 184.4999999999998L183.4545368686762 182.5M227.27693504259776 9.653265047617815L227.1038014564249 10.07602866397852L226.8271479786519 10.439576689988314L226.46582808659758 10.719133928466029L226.04446513379605 10.895649015599695L225.59177430914548 10.957092739906109L225.13860574423882 10.899277813114303L224.71584212787815 10.72614422694145L224.35229410186832 10.449490749168504L224.07273686339062 10.088170857114164L223.89622177625694 9.666807904312606L223.8347780519506 9.214117079662046L223.8925929787424 8.760948514755412L224.06572656491517 8.33818489839473L224.34238004268815 7.974636872384956L224.70369993474247 7.69507963390722L225.125062887544 7.518564546773554L225.57775371219464 7.457120822467161L226.03092227710118 7.514935749258967L226.4536858934619 7.688069335431798L226.81723391947168 7.9647228132047445L227.09679115794944 8.326042705259063L227.27330624508306 8.747405658060593L227.33474996938952 9.200096482711203L227.27693504259776 9.653265047617815M160.79187079185624 6.9999999999999005L170.7918707918563 6.9999999999999005L170.7918707918563 9.999999999999709L160.79187079185624 9.999999999999709L160.79187079185624 6.9999999999999005M27.755544456622516 16.875000000000604L27.930370196005633 17.297066671071157L27.989999999999803 17.75000000000059L27.930370196005676 18.202933328929994L27.755544456622516 18.625000000000632L27.477436867076193 18.987436867077044L27.114999999999725 19.26554445662334L26.692933328929186 19.440370196006434L26.239999999999746 19.50000000000059L25.787066671070356 19.440370196006448L25.364999999999768 19.26554445662334L25.002563132923257 18.9874368670771L24.724455543376976 18.625000000000576L24.54962980399391 18.20293332892995L24.48999999999978 17.75000000000052L24.549629803993817 17.297066671071242L24.724455543376976 16.875000000000647L25.002563132923342 16.512563132924136L25.364999999999768 16.23445554337784L25.787066671070356 16.059629803994817L26.239999999999796 16.00000000000052L26.692933328929186 16.059629803994746L27.114999999999725 16.23445554337784L27.477436867076193 16.512563132924207L27.755544456622516 16.875000000000604M27.930370196005633 149.3770666710712L27.98999999999971 149.83000000000058L27.930370196005633 150.28293332892997L27.755544456622516 150.70500000000047L27.47743686707615 151.0674368670771L27.114999999999725 151.34554445662317L26.692933328929136 151.52037019600658L26.239999999999746 151.58000000000047L25.787066671070264 151.52037019600633L25.364999999999675 151.34554445662343L25.002563132923257 151.0674368670769L24.724455543376976 150.7050000000004L24.549629803993867 150.28293332892991L24.489999999999696 149.8300000000004L24.549629803993867 149.37706667107096L24.724455543376976 148.95500000000055L25.0025631329233 148.59256313292408L25.364999999999768 148.31445554337768L25.787066671070313 148.13962980399464L26.239999999999746 148.08000000000038L26.692933328929186 148.13962980399458L27.114999999999775 148.31445554337762L27.477436867076193 148.59256313292406L27.755544456622516 148.95500000000038L27.930370196005633 149.3770666710712M184.59499999999923 19.26554445662338L184.17293332892865 19.440370196006448L183.71999999999917 19.50000000000059L183.2670666710698 19.440370196006477L182.84499999999917 19.265544456623353L182.48256313292273 18.987436867077058L182.2044555433764 18.625000000000618L182.02962980399332 18.202933328930023L181.96999999999917 17.750000000000632L182.02962980399332 17.2970666710712L182.2044555433764 16.875000000000604L182.48256313292273 16.512563132924164L182.84499999999917 16.23445554337784L183.2670666710698 16.059629803994746L183.71999999999917 16.000000000000576L184.1729333289286 16.059629803994774L184.59499999999923 16.234455543377813L184.95743686707567 16.512563132924136L185.23554445662194 16.875000000000604L185.41037019600503 17.2970666710712L185.46999999999917 17.750000000000632L185.4103701960051 18.20293332893005L185.23554445662194 18.625000000000618L184.95743686707567 18.987436867077058L184.59499999999923 19.26554445662338M73.99999999999977 7.0000000000009805L73.99999999999972 10.000000000000838L63.999999999999844 10.000000000000817L63.99999999999986 7.0000000000009805L73.99999999999977 7.0000000000009805M227.2751342066755 187.24582654774346L227.1003084672924 187.66789321881404L226.82220087774607 188.03033008589045L226.45976401066957 188.30843767543678L226.037697339599 188.48326341481985L225.58476401066957 188.54289321881393L225.13183068174015 188.48326341481982L224.70976401066957 188.3084376754367L224.3473271435932 188.03033008589034L224.06921955404687 187.66789321881387L223.89439381466377 187.24582654774326L223.8347640106697 186.79289321881387L223.89439381466383 186.33995988988445L224.06921955404698 185.91789321881396L224.3473271435933 185.55545635173743L224.70976401066974 185.27734876219117L225.13183068174038 185.1025230228081L225.58476401066974 185.04289321881396L226.03769733959916 185.10252302280813L226.45976401066974 185.27734876219125L226.82220087774618 185.55545635173758L227.10030846729245 185.91789321881396L227.27513420667555 186.33995988988462L227.3347640106697 186.79289321881407L227.2751342066755 187.24582654774346M13.999999999999389 188.99999999999932L13.999999999999389 184.50000000000108L23.999999999999375 184.4999999999994L23.999999999999375 188.99999999999892L13.999999999999389 188.99999999999932M102.7249999999988 184.50000000000117L102.7249999999988 188.99999999999991L92.72499999999879 188.99999999999963L92.72499999999881 184.4999999999998L102.7249999999988 184.50000000000117M182.20445554337715 173.5650000000005L182.02962980399406 173.14293332892996L181.9699999999999 172.69000000000054L182.02962980399406 172.23706667107118L182.20445554337715 171.81500000000054L182.48256313292347 171.45256313292407L182.8449999999999 171.1744555433778L183.2670666710705 170.99962980399468L183.7199999999999 170.94000000000054L184.17293332892933 170.99962980399468L184.5949999999999 171.17445554337786L184.95743686707635 171.45256313292407L185.23554445662268 171.8150000000005L185.41037019600577 172.23706667107118L185.4699999999999 172.69000000000062L185.41037019600577 173.14293332892996L185.23554445662268 173.56500000000057L184.95743686707635 173.92743686707706L184.5949999999999 174.2055444566233L184.17293332892933 174.38037019600637L183.7199999999999 174.44000000000054L183.2670666710705 174.38037019600645L182.8449999999999 174.20554445662336L182.48256313292347 173.92743686707703L182.20445554337715 173.5650000000005M9.999999999511026 102.99999999986414L6.9999999993126405 102.99999999986426L6.999999999312685 92.99999999992369L9.999999999511068 92.99999999992352L9.999999999511026 102.99999999986414M224.79187079510007 93.00000000116196L227.79187079520216 93.00000000116196L227.79187079520216 103.0000000011313L224.79187079510007 103.0000000011313L224.79187079510007 93.00000000116196M181.44999999999817 184.50000000000034L181.44999999999817 189.00000000000009L171.44999999999817 189.00000000000045L171.44999999999817 184.5000000000002L181.44999999999817 184.50000000000034 " fill="none" stroke="#ff0000" stroke-width="0.26458332"></path><path style="fill:none;stroke:#ff0000;stroke-width:0.26458332;" id="lzr_209_3" d="M232.791870791856 186.00000000000082M229.04187079185704 172.75000000000023M229.0418707918554 23.250000000000263M232.791870791856 10.000000000000547M224.79187079185704 2M211.5418707918563 5.749999999999211M23.250000000074802 5.750000000232589M10.000000000140666 2.0000000000001563M2.000000000000135 9.999999999859007M5.749999999767459 23.24999999992543M5.750000000000364 172.7499999999998M2 186.00000000000085M9.999999999999083 194.0000000000011M224.791870791856 194M215.34453686867613 184.50000000000003M201.3995368686762 184.5000000000003M201.39953686867614 182.50000000000003M215.34453686867613 182.5M10.439576690024232 7.964722813211942M10.719133928495566 8.32604270527122M10.895649015621824 8.74740565807582M10.957092739920256 9.200096482727517M10.899277813120552 9.653265047633063M10.726144226940391 10.076028663990748M10.449490749161086 10.439576689995647M10.08817085710183 10.719133928467024M9.666807904297226 10.895649015593378M9.214117079645462 10.957092739891898M8.760948514739987 10.899277813092077M8.338184898382252 10.72614422691192M7.974636872377401 10.44949074913248M7.695079633905845 10.08817085707333M7.518564546779674 9.666807904268637M7.457120822481107 9.214117079617083M7.5149357492808555 8.760948514711465M7.688069335461153 8.338184898353738M7.964722813240504 7.974636872348789M8.326042705299628 7.695079633877391M8.74740565810432 7.518564546751129M9.200096482755946 7.45712082245268M9.653265047661556 7.514935749252452M10.076028664019201 7.688069335432637M7.5167365851801335 186.3399598898733M7.6915473500761795 186.00000000000085M7.969669914109478 185.5554563517263M8.3321067811859 185.27734876218375M8.754173452256495 185.10252302280728M9.207106781185882 185.04289321881456M9.66004011011536 185.10252302281202M10.082106781185956 185.2773487621882M10.444543648262378 185.55545635171987M10.722636058930505 186.00000000000085M10.897476977191857 186.33995988989062M10.957106781186027 186.79289321881126M10.897476977191904 187.24582654775188M10.722651237808833 187.66789321881473M10.44454364826256 188.03033008589003M10.082106781186134 188.30843767543521M9.660040110115588 188.48326341482274M9.207106781186155 188.542893218815M8.754173452256719 188.4832634148242M8.332106781186127 188.30843767543652M7.969669914109659 188.03033008589335M7.691562324563339 187.66789321881043M7.516736585180178 187.24582654774278M7.45710678118601 186.7928932188085M183.4545368686762 182.5M197.3995368686762 182.5M197.3995368686762 184.5000000000001M183.4545368686762 184.4999999999998M227.27693504259776 9.653265047617815M227.1038014564249 10.07602866397852M226.8271479786519 10.439576689988314M226.46582808659758 10.719133928466029M226.04446513379605 10.895649015599695M225.59177430914548 10.957092739906109M225.13860574423882 10.899277813114303M224.71584212787815 10.72614422694145M224.35229410186832 10.449490749168504M224.07273686339062 10.088170857114164M223.89622177625694 9.666807904312606M223.8347780519506 9.214117079662046M223.8925929787424 8.760948514755412M224.06572656491517 8.33818489839473M224.34238004268815 7.974636872384956M224.70369993474247 7.69507963390722M225.125062887544 7.518564546773554M225.57775371219464 7.457120822467161M226.03092227710118 7.514935749258967M226.4536858934619 7.688069335431798M226.81723391947168 7.9647228132047445M227.09679115794944 8.326042705259063M227.27330624508306 8.747405658060593M227.33474996938952 9.200096482711203M160.79187079185624 6.9999999999999005M170.7918707918563 6.9999999999999005M170.7918707918563 9.999999999999709M160.79187079185624 9.999999999999709M27.755544456622516 16.875000000000604M27.930370196005633 17.297066671071157M27.989999999999803 17.75000000000059M27.930370196005676 18.202933328929994M27.755544456622516 18.625000000000632M27.477436867076193 18.987436867077044M27.114999999999725 19.26554445662334M26.692933328929186 19.440370196006434M26.239999999999746 19.50000000000059M25.787066671070356 19.440370196006448M25.364999999999768 19.26554445662334M25.002563132923257 18.9874368670771M24.724455543376976 18.625000000000576M24.54962980399391 18.20293332892995M24.48999999999978 17.75000000000052M24.549629803993817 17.297066671071242M24.724455543376976 16.875000000000647M25.002563132923342 16.512563132924136M25.364999999999768 16.23445554337784M25.787066671070356 16.059629803994817M26.239999999999796 16.00000000000052M26.692933328929186 16.059629803994746M27.114999999999725 16.23445554337784M27.477436867076193 16.512563132924207M27.930370196005633 149.3770666710712M27.98999999999971 149.83000000000058M27.930370196005633 150.28293332892997M27.755544456622516 150.70500000000047M27.47743686707615 151.0674368670771M27.114999999999725 151.34554445662317M26.692933328929136 151.52037019600658M26.239999999999746 151.58000000000047M25.787066671070264 151.52037019600633M25.364999999999675 151.34554445662343M25.002563132923257 151.0674368670769M24.724455543376976 150.7050000000004M24.549629803993867 150.28293332892991M24.489999999999696 149.8300000000004M24.549629803993867 149.37706667107096M24.724455543376976 148.95500000000055M25.0025631329233 148.59256313292408M25.364999999999768 148.31445554337768M25.787066671070313 148.13962980399464M26.239999999999746 148.08000000000038M26.692933328929186 148.13962980399458M27.114999999999775 148.31445554337762M27.477436867076193 148.59256313292406M27.755544456622516 148.95500000000038M184.59499999999923 19.26554445662338M184.17293332892865 19.440370196006448M183.71999999999917 19.50000000000059M183.2670666710698 19.440370196006477M182.84499999999917 19.265544456623353M182.48256313292273 18.987436867077058M182.2044555433764 18.625000000000618M182.02962980399332 18.202933328930023M181.96999999999917 17.750000000000632M182.02962980399332 17.2970666710712M182.2044555433764 16.875000000000604M182.48256313292273 16.512563132924164M182.84499999999917 16.23445554337784M183.2670666710698 16.059629803994746M183.71999999999917 16.000000000000576M184.1729333289286 16.059629803994774M184.59499999999923 16.234455543377813M184.95743686707567 16.512563132924136M185.23554445662194 16.875000000000604M185.41037019600503 17.2970666710712M185.46999999999917 17.750000000000632M185.4103701960051 18.20293332893005M185.23554445662194 18.625000000000618M184.95743686707567 18.987436867077058M73.99999999999977 7.0000000000009805M73.99999999999972 10.000000000000838M63.999999999999844 10.000000000000817M63.99999999999986 7.0000000000009805M227.2751342066755 187.24582654774346M227.1003084672924 187.66789321881404M226.82220087774607 188.03033008589045M226.45976401066957 188.30843767543678M226.037697339599 188.48326341481985M225.58476401066957 188.54289321881393M225.13183068174015 188.48326341481982M224.70976401066957 188.3084376754367M224.3473271435932 188.03033008589034M224.06921955404687 187.66789321881387M223.89439381466377 187.24582654774326M223.8347640106697 186.79289321881387M223.89439381466383 186.33995988988445M224.06921955404698 185.91789321881396M224.3473271435933 185.55545635173743M224.70976401066974 185.27734876219117M225.13183068174038 185.1025230228081M225.58476401066974 185.04289321881396M226.03769733959916 185.10252302280813M226.45976401066974 185.27734876219125M226.82220087774618 185.55545635173758M227.10030846729245 185.91789321881396M227.27513420667555 186.33995988988462M227.3347640106697 186.79289321881407M13.999999999999389 188.99999999999932M13.999999999999389 184.50000000000108M23.999999999999375 184.4999999999994M23.999999999999375 188.99999999999892M102.7249999999988 184.50000000000117M102.7249999999988 188.99999999999991M92.72499999999879 188.99999999999963M92.72499999999881 184.4999999999998M182.20445554337715 173.5650000000005M182.02962980399406 173.14293332892996M181.9699999999999 172.69000000000054M182.02962980399406 172.23706667107118M182.20445554337715 171.81500000000054M182.48256313292347 171.45256313292407M182.8449999999999 171.1744555433778M183.2670666710705 170.99962980399468M183.7199999999999 170.94000000000054M184.17293332892933 170.99962980399468M184.5949999999999 171.17445554337786M184.95743686707635 171.45256313292407M185.23554445662268 171.8150000000005M185.41037019600577 172.23706667107118M185.4699999999999 172.69000000000062M185.41037019600577 173.14293332892996M185.23554445662268 173.56500000000057M184.95743686707635 173.92743686707706M184.5949999999999 174.2055444566233M184.17293332892933 174.38037019600637M183.7199999999999 174.44000000000054M183.2670666710705 174.38037019600645M182.8449999999999 174.20554445662336M182.48256313292347 173.92743686707703M9.999999999511026 102.99999999986414M6.9999999993126405 102.99999999986426M6.999999999312685 92.99999999992369M9.999999999511068 92.99999999992352M224.79187079510007 93.00000000116196M227.79187079520216 93.00000000116196M227.79187079520216 103.0000000011313M224.79187079510007 103.0000000011313M181.44999999999817 184.50000000000034M181.44999999999817 189.00000000000009M171.44999999999817 189.00000000000045M171.44999999999817 184.5000000000002 " fill="none" stroke="#ff0000" stroke-width="0.26458332"></path><path style="fill:none;stroke:#ff0000;stroke-width:0.26458332;" id="lzr_209_4" d="M232.791870791856 186.00000000000082M229.04187079185704 172.75000000000023M229.0418707918554 23.250000000000263M232.791870791856 10.000000000000547M224.79187079185704 2M211.5418707918563 5.749999999999211M23.250000000074802 5.750000000232589M10.000000000140666 2.0000000000001563M2.000000000000135 9.999999999859007M5.749999999767459 23.24999999992543M5.750000000000364 172.7499999999998M2 186.00000000000085M9.999999999999083 194.0000000000011M224.791870791856 194M215.34453686867613 184.50000000000003M201.3995368686762 184.5000000000003M201.39953686867614 182.50000000000003M215.34453686867613 182.5M10.439576690024232 7.964722813211942M10.719133928495566 8.32604270527122M10.895649015621824 8.74740565807582M10.957092739920256 9.200096482727517M10.899277813120552 9.653265047633063M10.726144226940391 10.076028663990748M10.449490749161086 10.439576689995647M10.08817085710183 10.719133928467024M9.666807904297226 10.895649015593378M9.214117079645462 10.957092739891898M8.760948514739987 10.899277813092077M8.338184898382252 10.72614422691192M7.974636872377401 10.44949074913248M7.695079633905845 10.08817085707333M7.518564546779674 9.666807904268637M7.457120822481107 9.214117079617083M7.5149357492808555 8.760948514711465M7.688069335461153 8.338184898353738M7.964722813240504 7.974636872348789M8.326042705299628 7.695079633877391M8.74740565810432 7.518564546751129M9.200096482755946 7.45712082245268M9.653265047661556 7.514935749252452M10.076028664019201 7.688069335432637M7.5167365851801335 186.3399598898733M7.6915473500761795 186.00000000000085M7.969669914109478 185.5554563517263M8.3321067811859 185.27734876218375M8.754173452256495 185.10252302280728M9.207106781185882 185.04289321881456M9.66004011011536 185.10252302281202M10.082106781185956 185.2773487621882M10.444543648262378 185.55545635171987M10.722636058930505 186.00000000000085M10.897476977191857 186.33995988989062M10.957106781186027 186.79289321881126M10.897476977191904 187.24582654775188M10.722651237808833 187.66789321881473M10.44454364826256 188.03033008589003M10.082106781186134 188.30843767543521M9.660040110115588 188.48326341482274M9.207106781186155 188.542893218815M8.754173452256719 188.4832634148242M8.332106781186127 188.30843767543652M7.969669914109659 188.03033008589335M7.691562324563339 187.66789321881043M7.516736585180178 187.24582654774278M7.45710678118601 186.7928932188085M183.4545368686762 182.5M197.3995368686762 182.5M197.3995368686762 184.5000000000001M183.4545368686762 184.4999999999998M227.27693504259776 9.653265047617815M227.1038014564249 10.07602866397852M226.8271479786519 10.439576689988314M226.46582808659758 10.719133928466029M226.04446513379605 10.895649015599695M225.59177430914548 10.957092739906109M225.13860574423882 10.899277813114303M224.71584212787815 10.72614422694145M224.35229410186832 10.449490749168504M224.07273686339062 10.088170857114164M223.89622177625694 9.666807904312606M223.8347780519506 9.214117079662046M223.8925929787424 8.760948514755412M224.06572656491517 8.33818489839473M224.34238004268815 7.974636872384956M224.70369993474247 7.69507963390722M225.125062887544 7.518564546773554M225.57775371219464 7.457120822467161M226.03092227710118 7.514935749258967M226.4536858934619 7.688069335431798M226.81723391947168 7.9647228132047445M227.09679115794944 8.326042705259063M227.27330624508306 8.747405658060593M227.33474996938952 9.200096482711203M160.79187079185624 6.9999999999999005M170.7918707918563 6.9999999999999005M170.7918707918563 9.999999999999709M160.79187079185624 9.999999999999709M27.755544456622516 16.875000000000604M27.930370196005633 17.297066671071157M27.989999999999803 17.75000000000059M27.930370196005676 18.202933328929994M27.755544456622516 18.625000000000632M27.477436867076193 18.987436867077044M27.114999999999725 19.26554445662334M26.692933328929186 19.440370196006434M26.239999999999746 19.50000000000059M25.787066671070356 19.440370196006448M25.364999999999768 19.26554445662334M25.002563132923257 18.9874368670771M24.724455543376976 18.625000000000576M24.54962980399391 18.20293332892995M24.48999999999978 17.75000000000052M24.549629803993817 17.297066671071242M24.724455543376976 16.875000000000647M25.002563132923342 16.512563132924136M25.364999999999768 16.23445554337784M25.787066671070356 16.059629803994817M26.239999999999796 16.00000000000052M26.692933328929186 16.059629803994746M27.114999999999725 16.23445554337784M27.477436867076193 16.512563132924207M27.930370196005633 149.3770666710712M27.98999999999971 149.83000000000058M27.930370196005633 150.28293332892997M27.755544456622516 150.70500000000047M27.47743686707615 151.0674368670771M27.114999999999725 151.34554445662317M26.692933328929136 151.52037019600658M26.239999999999746 151.58000000000047M25.787066671070264 151.52037019600633M25.364999999999675 151.34554445662343M25.002563132923257 151.0674368670769M24.724455543376976 150.7050000000004M24.549629803993867 150.28293332892991M24.489999999999696 149.8300000000004M24.549629803993867 149.37706667107096M24.724455543376976 148.95500000000055M25.0025631329233 148.59256313292408M25.364999999999768 148.31445554337768M25.787066671070313 148.13962980399464M26.239999999999746 148.08000000000038M26.692933328929186 148.13962980399458M27.114999999999775 148.31445554337762M27.477436867076193 148.59256313292406M27.755544456622516 148.95500000000038M184.59499999999923 19.26554445662338M184.17293332892865 19.440370196006448M183.71999999999917 19.50000000000059M183.2670666710698 19.440370196006477M182.84499999999917 19.265544456623353M182.48256313292273 18.987436867077058M182.2044555433764 18.625000000000618M182.02962980399332 18.202933328930023M181.96999999999917 17.750000000000632M182.02962980399332 17.2970666710712M182.2044555433764 16.875000000000604M182.48256313292273 16.512563132924164M182.84499999999917 16.23445554337784M183.2670666710698 16.059629803994746M183.71999999999917 16.000000000000576M184.1729333289286 16.059629803994774M184.59499999999923 16.234455543377813M184.95743686707567 16.512563132924136M185.23554445662194 16.875000000000604M185.41037019600503 17.2970666710712M185.46999999999917 17.750000000000632M185.4103701960051 18.20293332893005M185.23554445662194 18.625000000000618M184.95743686707567 18.987436867077058M73.99999999999977 7.0000000000009805M73.99999999999972 10.000000000000838M63.999999999999844 10.000000000000817M63.99999999999986 7.0000000000009805M227.2751342066755 187.24582654774346M227.1003084672924 187.66789321881404M226.82220087774607 188.03033008589045M226.45976401066957 188.30843767543678M226.037697339599 188.48326341481985M225.58476401066957 188.54289321881393M225.13183068174015 188.48326341481982M224.70976401066957 188.3084376754367M224.3473271435932 188.03033008589034M224.06921955404687 187.66789321881387M223.89439381466377 187.24582654774326M223.8347640106697 186.79289321881387M223.89439381466383 186.33995988988445M224.06921955404698 185.91789321881396M224.3473271435933 185.55545635173743M224.70976401066974 185.27734876219117M225.13183068174038 185.1025230228081M225.58476401066974 185.04289321881396M226.03769733959916 185.10252302280813M226.45976401066974 185.27734876219125M226.82220087774618 185.55545635173758M227.10030846729245 185.91789321881396M227.27513420667555 186.33995988988462M227.3347640106697 186.79289321881407M13.999999999999389 188.99999999999932M13.999999999999389 184.50000000000108M23.999999999999375 184.4999999999994M23.999999999999375 188.99999999999892M102.7249999999988 184.50000000000117M102.7249999999988 188.99999999999991M92.72499999999879 188.99999999999963M92.72499999999881 184.4999999999998M182.20445554337715 173.5650000000005M182.02962980399406 173.14293332892996M181.9699999999999 172.69000000000054M182.02962980399406 172.23706667107118M182.20445554337715 171.81500000000054M182.48256313292347 171.45256313292407M182.8449999999999 171.1744555433778M183.2670666710705 170.99962980399468M183.7199999999999 170.94000000000054M184.17293332892933 170.99962980399468M184.5949999999999 171.17445554337786M184.95743686707635 171.45256313292407M185.23554445662268 171.8150000000005M185.41037019600577 172.23706667107118M185.4699999999999 172.69000000000062M185.41037019600577 173.14293332892996M185.23554445662268 173.56500000000057M184.95743686707635 173.92743686707706M184.5949999999999 174.2055444566233M184.17293332892933 174.38037019600637M183.7199999999999 174.44000000000054M183.2670666710705 174.38037019600645M182.8449999999999 174.20554445662336M182.48256313292347 173.92743686707703M9.999999999511026 102.99999999986414M6.9999999993126405 102.99999999986426M6.999999999312685 92.99999999992369M9.999999999511068 92.99999999992352M224.79187079510007 93.00000000116196M227.79187079520216 93.00000000116196M227.79187079520216 103.0000000011313M224.79187079510007 103.0000000011313M181.44999999999817 184.50000000000034M181.44999999999817 189.00000000000009M171.44999999999817 189.00000000000045M171.44999999999817 184.5000000000002 " fill="none" stroke="#ff0000" stroke-width="0.26458332"></path><defs id="lzr_209_0" x="-8" y="-8" fill="none" stroke="#ff0000" stroke-width="0.26458332"></defs></g></svg>