<svg id="SvgjsSvg1006" width="211mm" height="182mm" xmlns="http://www.w3.org/2000/svg" version="1.1" xmlns:xlink="http://www.w3.org/1999/xlink" xmlns:svgjs="http://svgjs.com/svgjs" viewBox="0 0 211 182"><g id="SvgjsG1008" transform="matrix(1,0,0,1,29.060665130615234,-28.473583221435547)"><path style="fill:none;stroke:#ff0000;stroke-width:0.26458332;" id="lzr_606_2" d="M5.000000000000007 2L5.000000000000014 52.00000000000006L2.000000000000014 52L2.000000000000014 62L5.000000000000014 62L4.999999999999986 148.79187079185527L2 148.79187079185527L2.000000000000007 158.79187079185527L4.999999999999986 158.79187079185527L5.000000000000064 208.79187079185533L149.99999999999977 208.79187079185527L149.99999999999986 158.79187079185527L152.9999999999998 158.79187079185527L152.99999999999983 148.79187079185527L149.99999999999986 148.79187079185522L149.99999999999977 62.00000000000006L152.99999999999983 62.00000000000006L152.9999999999998 52.000000000000114L149.99999999999974 52.00000000000006L149.99999999999972 2L5.000000000000007 2M44.764056224898674 42.19999999999993L37.499999999998956 42.19999999999999L37.49999999999903 37.621685055253636L37.55742985747059 37.329842350846945L37.608028154501845 37.27249138201711L37.66953619414175 37.2270372034651L37.73921412089184 37.19550455670088L37.81395815430597 37.17929805315521L37.89043884587405 37.179139606226045L38.096753218129074 37.271478878285905L44.93839130958629 41.530398590218056L45.1041462232512 41.7773715872047L45.10892108327108 41.85370324511905L45.097569289231636 41.92933695493326L45.0705965030835 42.00090363779327L45.02920421875955 42.06521537922981L44.975236242019925 42.11940743376556L44.911096558728765 42.16106583406446L44.764056224898674 42.19999999999993M71.43072289156535 42.20000000000016L50.833333333332384 42.20000000000016L43.39494202374511 37.569601409782194L43.22918711008017 37.322628412795495L43.22441225006039 37.24629675488103L43.23576404409986 37.17066304506693L43.262736830247924 37.09909636220692L43.3041291145719 37.03478462077027L43.358097091311414 36.98059256623458L43.422236774602744 36.93893416593562L43.56927710843282 36.900000000000205L64.16666666666566 36.900000000000205L71.60505797625297 41.530398590218226L71.77081288991783 41.77737158720481L71.77558774993787 41.85370324511922L71.76423595589839 41.929336954933376L71.73726316975032 42.00090363779327L71.69587088542636 42.065215379229926L71.64190290868677 42.11940743376584L71.57776322539542 42.161065834064686L71.43072289156535 42.20000000000016M98.09738955823192 42.2000000000001L77.499999999999 42.200000000000216L70.06160869041173 37.56960140978214L69.89585377674683 37.32262841279538L69.89107891672703 37.246296754880916L69.90243071076651 37.17066304506676L69.92940349691455 37.09909636220692L69.97079578123854 37.03478462077027L70.02476375797809 36.98059256623452L70.08890344126934 36.93893416593551L70.23594377509951 36.900000000000205L90.83333333333232 36.900000000000034L98.27172464291951 41.530398590218226L98.43747955658455 41.777371587204755L98.44225441660438 41.85370324511911L98.43090262256499 41.929336954933376L98.40392983641695 42.000903637793215L98.3625375520929 42.065215379229926L98.30856957535315 42.119407433765616L98.24442989206204 42.161065834064686L98.09738955823192 42.2000000000001M117.49999999999889 42.20000000000016L104.16666666666563 42.2000000000001L96.72827535707842 37.56960140978197L96.56252044341349 37.322628412795154L96.55774558339363 37.246296754880916L96.56909737743317 37.17066304506676L96.5960701635812 37.099096362206694L96.63746244790522 37.034784620770154L96.6914304246447 36.98059256623441L96.75557010793597 36.93893416593551L96.90261044176614 36.89999999999998L117.49999999999889 36.89999999999992L117.49999999999889 42.20000000000016M58.09738955823198 33.90000000000026L37.49999999999907 33.90000000000009L37.49999999999903 28.600000000000136L50.8333333333323 28.600000000000165L58.27172464291971 33.23039859021827L58.43747955658455 33.47737158720486L58.44225441660447 33.55370324511921L58.43090262256513 33.62933695493342L58.40392983641681 33.70090363779349L58.36253755209296 33.76521537922997L58.30856957535329 33.81940743376583L58.244429892062044 33.861065834064675L58.09738955823198 33.90000000000026M84.76405622489872 33.90000000000015L64.16666666666569 33.900000000000205L56.72827535707847 29.269601409782126L56.56252044341355 29.022628412795456L56.557745583393654 28.94629675488102L56.569097377433195 28.87066304506689L56.5960701635812 28.79909636220694L56.63746244790522 28.73478462077037L56.69143042464472 28.680592566234594L56.75557010793608 28.63893416593561L56.90261044176614 28.600000000000165L77.49999999999906 28.60000000000005L84.93839130958622 33.23039859021824L85.1041462232512 33.47737158720486L85.1089210832711 33.55370324511921L85.09756928923167 33.629336954933365L85.07059650308358 33.70090363779332L85.0292042187595 33.76521537922997L84.97523624201992 33.81940743376566L84.91109655872864 33.861065834064675L84.76405622489872 33.90000000000015M111.43072289156527 33.900000000000205L90.83333333333232 33.90000000000009L83.39494202374516 29.26960140978204L83.22918711008015 29.022628412795456L83.22441225006031 28.94629675488116L83.23576404409982 28.870663045066806L83.26273683024783 28.799096362206853L83.30412911457191 28.734784620770426L83.35809709131144 28.680592566234566L83.42223677460268 28.63893416593558L83.56927710843286 28.600000000000136L104.16666666666558 28.599999999999994L111.60505797625277 33.230398590218186L111.7708128899178 33.4773715872048L111.7755877499377 33.55370324511915L111.76423595589819 33.629336954933535L111.73726316975001 33.70090363779326L111.69587088542605 33.76521537923003L111.64190290868646 33.819407433765775L111.5777632253953 33.86106583406479L111.43072289156527 33.900000000000205M117.18604184569205 33.62070194684475L117.10956115412367 33.620860393774024L116.90324678186857 33.52852112171405L110.06160869041167 29.26960140978207L109.89585377674672 29.0226284127954L109.89107891672671 28.946296754880933L109.90243071076637 28.87066304506672L109.92940349691443 28.799096362206882L109.9707957812384 28.734784620770284L110.02476375797795 28.680592566234452L110.08890344126911 28.63893416593544L110.23594377509929 28.600000000000165L117.49999999999892 28.600000000000165L117.49999999999886 33.17831494474652L117.44257014252722 33.47015764915318L117.39197184549596 33.527508617982846L117.330463805856 33.57296279653485L117.26078587910601 33.604495443299356L117.18604184569205 33.62070194684475M44.764056224898674 25.59999999999991L37.499999999999 25.60000000000008L37.49999999999903 21.021685055253585L37.55742985747066 20.72984235084698L37.6080281545018 20.672491382017114L37.66953619414168 20.627037203465193L37.73921412089188 20.595504556700945L37.81395815430593 20.579298053155412L37.89043884587401 20.579139606226136L38.096753218129116 20.671478878285967L44.93839130958634 24.930398590218147L45.104146223251256 25.177371587204732L45.108921083271134 25.253703245119112L45.09756928923158 25.329336954933268L45.0705965030835 25.40090363779322L45.02920421875955 25.46521537922979L44.97523624201994 25.519407433765537L44.911096558728694 25.561065834064607L44.764056224898674 25.59999999999991M71.43072289156541 25.600000000000136L50.8333333333324 25.600000000000165L43.39494202374511 20.969601409782058L43.22918711008011 20.722628412795387L43.22441225006039 20.646296754881064L43.2357640440999 20.570663045067022L43.262736830247896 20.499096362206984L43.3041291145719 20.43478462077036L43.3580970913114 20.380592566234583L43.422236774602645 20.338934165935655L43.56927710843278 20.300000000000267L64.16666666666572 20.300000000000153L71.60505797625305 24.930398590218317L71.77081288991786 25.177371587204846L71.77558774993781 25.253703245119226L71.76423595589841 25.329336954933495L71.73726316975026 25.400903637793334L71.6958708854263 25.46521537922999L71.64190290868669 25.519407433765792L71.57776322539544 25.56106583406475L71.43072289156541 25.600000000000136M98.09738955823192 25.60000000000005L77.49999999999892 25.60000000000008L70.06160869041173 20.969601409782058L69.89585377674683 20.722628412795444L69.89107891672697 20.64629675488115L69.90243071076648 20.570663045066937L69.92940349691443 20.4990963622069L69.97079578123851 20.43478462077033L70.02476375797806 20.380592566234554L70.08890344126931 20.338934165935598L70.23594377509951 20.30000000000021L90.83333333333226 20.30000000000021L98.27172464291954 24.930398590218147L98.43747955658444 25.177371587204817L98.44225441660438 25.25370324511914L98.43090262256487 25.329336954933353L98.40392983641686 25.400903637793448L98.3625375520929 25.465215379230017L98.30856957535323 25.519407433765565L98.24442989206204 25.561065834064607L98.09738955823192 25.60000000000005M117.49999999999889 25.600000000000165L104.16666666666569 25.60000000000022L96.72827535707845 20.969601409781973L96.56252044341349 20.722628412795274L96.55774558339363 20.64629675488092L96.56909737743308 20.57066304506671L96.59607016358126 20.4990963622067L96.63746244790516 20.434784620770216L96.69143042464475 20.38059256623444L96.75557010793594 20.338934165935513L96.90261044176609 20.30000000000004L117.49999999999889 20.299999999999983L117.49999999999889 25.600000000000165M58.09738955823198 17.300000000000125L37.49999999999904 17.300000000000068L37.49999999999907 12.000000000000114L50.83333333333233 12.000000000000284L58.271724642919594 16.630398590218306L58.43747955658449 16.877371587204948L58.44225441660444 16.953703245119243L58.43090262256493 17.029336954933484L58.403929836416864 17.100903637793408L58.3625375520929 17.165215379230062L58.30856957535323 17.219407433765753L58.2444298920621 17.261065834064766L58.09738955823198 17.300000000000125M84.7640562248987 17.300000000000125L64.16666666666563 17.300000000000182L56.72827535707839 12.66960140978216L56.56252044341343 12.42262841279549L56.557745583393654 12.34629675488111L56.56909737743317 12.270663045066925L56.59607016358123 12.199096362206973L56.637462447905165 12.134784620770404L56.69143042464469 12.080592566234543L56.75557010793602 12.0389341659357L56.90261044176603 12.000000000000256L77.49999999999895 12.000000000000256L84.93839130958628 16.630398590218277L85.10414622325118 16.87737158720475L85.10892108327113 16.95370324511927L85.09756928923161 17.029336954933456L85.07059650308352 17.100903637793266L85.02920421875956 17.16521537922992L84.97523624201992 17.219407433765753L84.9110965587287 17.26106583406468L84.7640562248987 17.300000000000125M111.43072289156518 17.30000000000004L90.83333333333238 17.300000000000125L83.39494202374513 12.669601409782047L83.22918711008015 12.422628412795575L83.2244122500604 12.346296754881024L83.23576404409974 12.27066304506701L83.26273683024792 12.199096362206888L83.30412911457188 12.134784620770432L83.35809709131146 12.080592566234543L83.42223677460268 12.038934165935643L83.5692771084328 12.00000000000017L104.16666666666563 11.999999999999972L111.6050579762528 16.630398590218135L111.77081288991775 16.877371587204806L111.77558774993767 16.953703245119243L111.7642359558981 17.029336954933456L111.73726316974998 17.10090363779335L111.69587088542622 17.165215379230062L111.64190290868652 17.219407433765753L111.57776322539527 17.261065834064738L111.43072289156518 17.30000000000004M117.18604184569199 17.020701946844838L117.1095611541237 17.020860393774086L116.9032467818686 16.928521121713914L110.06160869041165 12.669601409782103L109.89585377674666 12.422628412795376L109.89107891672683 12.34629675488111L109.9024307107664 12.270663045066698L109.92940349691443 12.199096362206802L109.97079578123845 12.134784620770262L110.02476375797801 12.080592566234401L110.0889034412692 12.038934165935586L110.23594377509932 12.000000000000057L117.49999999999883 12.000000000000114L117.49999999999883 16.57831494474638L117.44257014252705 16.870157649153157L117.3919718454959 16.927508617982767L117.33046380585606 16.97296279653486L117.26078587910607 17.004495443299362L117.18604184569199 17.020701946844838M71.49999999999991 168.39187079185672L71.70444504226552 166.83895652124158L72.30384757729325 165.39187079185672L73.25735931288057 164.1492301047375L74.49999999999991 163.1957183691501L75.94708572938478 162.59631583412227L77.49999999999989 162.39187079185677L79.05291427061502 162.59631583412232L80.49999999999994 163.1957183691501L81.7426406871192 164.1492301047374L82.69615242270658 165.39187079185672L83.29555495773428 166.83895652124158L83.49999999999989 168.39187079185672L83.29555495773434 169.9447850624718L82.69615242270655 171.39187079185672L81.7426406871192 172.63451147897598L80.49999999999989 173.5880232145634L79.05291427061502 174.1874257495911L77.49999999999989 174.39187079185677L75.94708572938484 174.1874257495911L74.49999999999994 173.5880232145634L73.25735931288065 172.63451147897598L72.30384757729328 171.39187079185672L71.70444504226552 169.94478506247185L71.49999999999991 168.39187079185672 " fill="none" stroke="#ff0000" stroke-width="0.26458332" transform="matrix(6.123233995736766e-17,1,-1,6.123233995736766e-17,182.89593505859375,27.89593505859375)" data-transform="matrix(1,0,0,1,29.060665130615234,-28.473583221435547)"></path><path style="fill:none;stroke:#ff0000;stroke-width:0.26458332;" id="lzr_606_3" d="M5.000000000000007 2M5.000000000000014 52.00000000000006M2.000000000000014 52M2.000000000000014 62M5.000000000000014 62M4.999999999999986 148.79187079185527M2 148.79187079185527M2.000000000000007 158.79187079185527M4.999999999999986 158.79187079185527M5.000000000000064 208.79187079185533M149.99999999999977 208.79187079185527M149.99999999999986 158.79187079185527M152.9999999999998 158.79187079185527M152.99999999999983 148.79187079185527M149.99999999999986 148.79187079185522M149.99999999999977 62.00000000000006M152.99999999999983 62.00000000000006M152.9999999999998 52.000000000000114M149.99999999999974 52.00000000000006M149.99999999999972 2M44.764056224898674 42.19999999999993M37.499999999998956 42.19999999999999M37.49999999999903 37.621685055253636M37.55742985747059 37.329842350846945M37.608028154501845 37.27249138201711M37.66953619414175 37.2270372034651M37.73921412089184 37.19550455670088M37.81395815430597 37.17929805315521M37.89043884587405 37.179139606226045M38.096753218129074 37.271478878285905M44.93839130958629 41.530398590218056M45.1041462232512 41.7773715872047M45.10892108327108 41.85370324511905M45.097569289231636 41.92933695493326M45.0705965030835 42.00090363779327M45.02920421875955 42.06521537922981M44.975236242019925 42.11940743376556M44.911096558728765 42.16106583406446M71.43072289156535 42.20000000000016M50.833333333332384 42.20000000000016M43.39494202374511 37.569601409782194M43.22918711008017 37.322628412795495M43.22441225006039 37.24629675488103M43.23576404409986 37.17066304506693M43.262736830247924 37.09909636220692M43.3041291145719 37.03478462077027M43.358097091311414 36.98059256623458M43.422236774602744 36.93893416593562M43.56927710843282 36.900000000000205M64.16666666666566 36.900000000000205M71.60505797625297 41.530398590218226M71.77081288991783 41.77737158720481M71.77558774993787 41.85370324511922M71.76423595589839 41.929336954933376M71.73726316975032 42.00090363779327M71.69587088542636 42.065215379229926M71.64190290868677 42.11940743376584M71.57776322539542 42.161065834064686M98.09738955823192 42.2000000000001M77.499999999999 42.200000000000216M70.06160869041173 37.56960140978214M69.89585377674683 37.32262841279538M69.89107891672703 37.246296754880916M69.90243071076651 37.17066304506676M69.92940349691455 37.09909636220692M69.97079578123854 37.03478462077027M70.02476375797809 36.98059256623452M70.08890344126934 36.93893416593551M70.23594377509951 36.900000000000205M90.83333333333232 36.900000000000034M98.27172464291951 41.530398590218226M98.43747955658455 41.777371587204755M98.44225441660438 41.85370324511911M98.43090262256499 41.929336954933376M98.40392983641695 42.000903637793215M98.3625375520929 42.065215379229926M98.30856957535315 42.119407433765616M98.24442989206204 42.161065834064686M117.49999999999889 42.20000000000016M104.16666666666563 42.2000000000001M96.72827535707842 37.56960140978197M96.56252044341349 37.322628412795154M96.55774558339363 37.246296754880916M96.56909737743317 37.17066304506676M96.5960701635812 37.099096362206694M96.63746244790522 37.034784620770154M96.6914304246447 36.98059256623441M96.75557010793597 36.93893416593551M96.90261044176614 36.89999999999998M117.49999999999889 36.89999999999992M58.09738955823198 33.90000000000026M37.49999999999907 33.90000000000009M37.49999999999903 28.600000000000136M50.8333333333323 28.600000000000165M58.27172464291971 33.23039859021827M58.43747955658455 33.47737158720486M58.44225441660447 33.55370324511921M58.43090262256513 33.62933695493342M58.40392983641681 33.70090363779349M58.36253755209296 33.76521537922997M58.30856957535329 33.81940743376583M58.244429892062044 33.861065834064675M84.76405622489872 33.90000000000015M64.16666666666569 33.900000000000205M56.72827535707847 29.269601409782126M56.56252044341355 29.022628412795456M56.557745583393654 28.94629675488102M56.569097377433195 28.87066304506689M56.5960701635812 28.79909636220694M56.63746244790522 28.73478462077037M56.69143042464472 28.680592566234594M56.75557010793608 28.63893416593561M56.90261044176614 28.600000000000165M77.49999999999906 28.60000000000005M84.93839130958622 33.23039859021824M85.1041462232512 33.47737158720486M85.1089210832711 33.55370324511921M85.09756928923167 33.629336954933365M85.07059650308358 33.70090363779332M85.0292042187595 33.76521537922997M84.97523624201992 33.81940743376566M84.91109655872864 33.861065834064675M111.43072289156527 33.900000000000205M90.83333333333232 33.90000000000009M83.39494202374516 29.26960140978204M83.22918711008015 29.022628412795456M83.22441225006031 28.94629675488116M83.23576404409982 28.870663045066806M83.26273683024783 28.799096362206853M83.30412911457191 28.734784620770426M83.35809709131144 28.680592566234566M83.42223677460268 28.63893416593558M83.56927710843286 28.600000000000136M104.16666666666558 28.599999999999994M111.60505797625277 33.230398590218186M111.7708128899178 33.4773715872048M111.7755877499377 33.55370324511915M111.76423595589819 33.629336954933535M111.73726316975001 33.70090363779326M111.69587088542605 33.76521537923003M111.64190290868646 33.819407433765775M111.5777632253953 33.86106583406479M117.18604184569205 33.62070194684475M117.10956115412367 33.620860393774024M116.90324678186857 33.52852112171405M110.06160869041167 29.26960140978207M109.89585377674672 29.0226284127954M109.89107891672671 28.946296754880933M109.90243071076637 28.87066304506672M109.92940349691443 28.799096362206882M109.9707957812384 28.734784620770284M110.02476375797795 28.680592566234452M110.08890344126911 28.63893416593544M110.23594377509929 28.600000000000165M117.49999999999892 28.600000000000165M117.49999999999886 33.17831494474652M117.44257014252722 33.47015764915318M117.39197184549596 33.527508617982846M117.330463805856 33.57296279653485M117.26078587910601 33.604495443299356M44.764056224898674 25.59999999999991M37.499999999999 25.60000000000008M37.49999999999903 21.021685055253585M37.55742985747066 20.72984235084698M37.6080281545018 20.672491382017114M37.66953619414168 20.627037203465193M37.73921412089188 20.595504556700945M37.81395815430593 20.579298053155412M37.89043884587401 20.579139606226136M38.096753218129116 20.671478878285967M44.93839130958634 24.930398590218147M45.104146223251256 25.177371587204732M45.108921083271134 25.253703245119112M45.09756928923158 25.329336954933268M45.0705965030835 25.40090363779322M45.02920421875955 25.46521537922979M44.97523624201994 25.519407433765537M44.911096558728694 25.561065834064607M71.43072289156541 25.600000000000136M50.8333333333324 25.600000000000165M43.39494202374511 20.969601409782058M43.22918711008011 20.722628412795387M43.22441225006039 20.646296754881064M43.2357640440999 20.570663045067022M43.262736830247896 20.499096362206984M43.3041291145719 20.43478462077036M43.3580970913114 20.380592566234583M43.422236774602645 20.338934165935655M43.56927710843278 20.300000000000267M64.16666666666572 20.300000000000153M71.60505797625305 24.930398590218317M71.77081288991786 25.177371587204846M71.77558774993781 25.253703245119226M71.76423595589841 25.329336954933495M71.73726316975026 25.400903637793334M71.6958708854263 25.46521537922999M71.64190290868669 25.519407433765792M71.57776322539544 25.56106583406475M98.09738955823192 25.60000000000005M77.49999999999892 25.60000000000008M70.06160869041173 20.969601409782058M69.89585377674683 20.722628412795444M69.89107891672697 20.64629675488115M69.90243071076648 20.570663045066937M69.92940349691443 20.4990963622069M69.97079578123851 20.43478462077033M70.02476375797806 20.380592566234554M70.08890344126931 20.338934165935598M70.23594377509951 20.30000000000021M90.83333333333226 20.30000000000021M98.27172464291954 24.930398590218147M98.43747955658444 25.177371587204817M98.44225441660438 25.25370324511914M98.43090262256487 25.329336954933353M98.40392983641686 25.400903637793448M98.3625375520929 25.465215379230017M98.30856957535323 25.519407433765565M98.24442989206204 25.561065834064607M117.49999999999889 25.600000000000165M104.16666666666569 25.60000000000022M96.72827535707845 20.969601409781973M96.56252044341349 20.722628412795274M96.55774558339363 20.64629675488092M96.56909737743308 20.57066304506671M96.59607016358126 20.4990963622067M96.63746244790516 20.434784620770216M96.69143042464475 20.38059256623444M96.75557010793594 20.338934165935513M96.90261044176609 20.30000000000004M117.49999999999889 20.299999999999983M58.09738955823198 17.300000000000125M37.49999999999904 17.300000000000068M37.49999999999907 12.000000000000114M50.83333333333233 12.000000000000284M58.271724642919594 16.630398590218306M58.43747955658449 16.877371587204948M58.44225441660444 16.953703245119243M58.43090262256493 17.029336954933484M58.403929836416864 17.100903637793408M58.3625375520929 17.165215379230062M58.30856957535323 17.219407433765753M58.2444298920621 17.261065834064766M84.7640562248987 17.300000000000125M64.16666666666563 17.300000000000182M56.72827535707839 12.66960140978216M56.56252044341343 12.42262841279549M56.557745583393654 12.34629675488111M56.56909737743317 12.270663045066925M56.59607016358123 12.199096362206973M56.637462447905165 12.134784620770404M56.69143042464469 12.080592566234543M56.75557010793602 12.0389341659357M56.90261044176603 12.000000000000256M77.49999999999895 12.000000000000256M84.93839130958628 16.630398590218277M85.10414622325118 16.87737158720475M85.10892108327113 16.95370324511927M85.09756928923161 17.029336954933456M85.07059650308352 17.100903637793266M85.02920421875956 17.16521537922992M84.97523624201992 17.219407433765753M84.9110965587287 17.26106583406468M111.43072289156518 17.30000000000004M90.83333333333238 17.300000000000125M83.39494202374513 12.669601409782047M83.22918711008015 12.422628412795575M83.2244122500604 12.346296754881024M83.23576404409974 12.27066304506701M83.26273683024792 12.199096362206888M83.30412911457188 12.134784620770432M83.35809709131146 12.080592566234543M83.42223677460268 12.038934165935643M83.5692771084328 12.00000000000017M104.16666666666563 11.999999999999972M111.6050579762528 16.630398590218135M111.77081288991775 16.877371587204806M111.77558774993767 16.953703245119243M111.7642359558981 17.029336954933456M111.73726316974998 17.10090363779335M111.69587088542622 17.165215379230062M111.64190290868652 17.219407433765753M111.57776322539527 17.261065834064738M117.18604184569199 17.020701946844838M117.1095611541237 17.020860393774086M116.9032467818686 16.928521121713914M110.06160869041165 12.669601409782103M109.89585377674666 12.422628412795376M109.89107891672683 12.34629675488111M109.9024307107664 12.270663045066698M109.92940349691443 12.199096362206802M109.97079578123845 12.134784620770262M110.02476375797801 12.080592566234401M110.0889034412692 12.038934165935586M110.23594377509932 12.000000000000057M117.49999999999883 12.000000000000114M117.49999999999883 16.57831494474638M117.44257014252705 16.870157649153157M117.3919718454959 16.927508617982767M117.33046380585606 16.97296279653486M117.26078587910607 17.004495443299362M71.49999999999991 168.39187079185672M71.70444504226552 166.83895652124158M72.30384757729325 165.39187079185672M73.25735931288057 164.1492301047375M74.49999999999991 163.1957183691501M75.94708572938478 162.59631583412227M77.49999999999989 162.39187079185677M79.05291427061502 162.59631583412232M80.49999999999994 163.1957183691501M81.7426406871192 164.1492301047374M82.69615242270658 165.39187079185672M83.29555495773428 166.83895652124158M83.49999999999989 168.39187079185672M83.29555495773434 169.9447850624718M82.69615242270655 171.39187079185672M81.7426406871192 172.63451147897598M80.49999999999989 173.5880232145634M79.05291427061502 174.1874257495911M77.49999999999989 174.39187079185677M75.94708572938484 174.1874257495911M74.49999999999994 173.5880232145634M73.25735931288065 172.63451147897598M72.30384757729328 171.39187079185672M71.70444504226552 169.94478506247185 " fill="none" stroke="#ff0000" stroke-width="0.26458332" data-transform="matrix(1,0,0,1,29.060665130615234,-28.473583221435547)"></path><path style="fill:none;stroke:#ff0000;stroke-width:0.26458332;" id="lzr_606_4" d="M5.000000000000007 2M5.000000000000014 52.00000000000006M2.000000000000014 52M2.000000000000014 62M5.000000000000014 62M4.999999999999986 148.79187079185527M2 148.79187079185527M2.000000000000007 158.79187079185527M4.999999999999986 158.79187079185527M5.000000000000064 208.79187079185533M149.99999999999977 208.79187079185527M149.99999999999986 158.79187079185527M152.9999999999998 158.79187079185527M152.99999999999983 148.79187079185527M149.99999999999986 148.79187079185522M149.99999999999977 62.00000000000006M152.99999999999983 62.00000000000006M152.9999999999998 52.000000000000114M149.99999999999974 52.00000000000006M149.99999999999972 2M44.764056224898674 42.19999999999993M37.499999999998956 42.19999999999999M37.49999999999903 37.621685055253636M37.55742985747059 37.329842350846945M37.608028154501845 37.27249138201711M37.66953619414175 37.2270372034651M37.73921412089184 37.19550455670088M37.81395815430597 37.17929805315521M37.89043884587405 37.179139606226045M38.096753218129074 37.271478878285905M44.93839130958629 41.530398590218056M45.1041462232512 41.7773715872047M45.10892108327108 41.85370324511905M45.097569289231636 41.92933695493326M45.0705965030835 42.00090363779327M45.02920421875955 42.06521537922981M44.975236242019925 42.11940743376556M44.911096558728765 42.16106583406446M71.43072289156535 42.20000000000016M50.833333333332384 42.20000000000016M43.39494202374511 37.569601409782194M43.22918711008017 37.322628412795495M43.22441225006039 37.24629675488103M43.23576404409986 37.17066304506693M43.262736830247924 37.09909636220692M43.3041291145719 37.03478462077027M43.358097091311414 36.98059256623458M43.422236774602744 36.93893416593562M43.56927710843282 36.900000000000205M64.16666666666566 36.900000000000205M71.60505797625297 41.530398590218226M71.77081288991783 41.77737158720481M71.77558774993787 41.85370324511922M71.76423595589839 41.929336954933376M71.73726316975032 42.00090363779327M71.69587088542636 42.065215379229926M71.64190290868677 42.11940743376584M71.57776322539542 42.161065834064686M98.09738955823192 42.2000000000001M77.499999999999 42.200000000000216M70.06160869041173 37.56960140978214M69.89585377674683 37.32262841279538M69.89107891672703 37.246296754880916M69.90243071076651 37.17066304506676M69.92940349691455 37.09909636220692M69.97079578123854 37.03478462077027M70.02476375797809 36.98059256623452M70.08890344126934 36.93893416593551M70.23594377509951 36.900000000000205M90.83333333333232 36.900000000000034M98.27172464291951 41.530398590218226M98.43747955658455 41.777371587204755M98.44225441660438 41.85370324511911M98.43090262256499 41.929336954933376M98.40392983641695 42.000903637793215M98.3625375520929 42.065215379229926M98.30856957535315 42.119407433765616M98.24442989206204 42.161065834064686M117.49999999999889 42.20000000000016M104.16666666666563 42.2000000000001M96.72827535707842 37.56960140978197M96.56252044341349 37.322628412795154M96.55774558339363 37.246296754880916M96.56909737743317 37.17066304506676M96.5960701635812 37.099096362206694M96.63746244790522 37.034784620770154M96.6914304246447 36.98059256623441M96.75557010793597 36.93893416593551M96.90261044176614 36.89999999999998M117.49999999999889 36.89999999999992M58.09738955823198 33.90000000000026M37.49999999999907 33.90000000000009M37.49999999999903 28.600000000000136M50.8333333333323 28.600000000000165M58.27172464291971 33.23039859021827M58.43747955658455 33.47737158720486M58.44225441660447 33.55370324511921M58.43090262256513 33.62933695493342M58.40392983641681 33.70090363779349M58.36253755209296 33.76521537922997M58.30856957535329 33.81940743376583M58.244429892062044 33.861065834064675M84.76405622489872 33.90000000000015M64.16666666666569 33.900000000000205M56.72827535707847 29.269601409782126M56.56252044341355 29.022628412795456M56.557745583393654 28.94629675488102M56.569097377433195 28.87066304506689M56.5960701635812 28.79909636220694M56.63746244790522 28.73478462077037M56.69143042464472 28.680592566234594M56.75557010793608 28.63893416593561M56.90261044176614 28.600000000000165M77.49999999999906 28.60000000000005M84.93839130958622 33.23039859021824M85.1041462232512 33.47737158720486M85.1089210832711 33.55370324511921M85.09756928923167 33.629336954933365M85.07059650308358 33.70090363779332M85.0292042187595 33.76521537922997M84.97523624201992 33.81940743376566M84.91109655872864 33.861065834064675M111.43072289156527 33.900000000000205M90.83333333333232 33.90000000000009M83.39494202374516 29.26960140978204M83.22918711008015 29.022628412795456M83.22441225006031 28.94629675488116M83.23576404409982 28.870663045066806M83.26273683024783 28.799096362206853M83.30412911457191 28.734784620770426M83.35809709131144 28.680592566234566M83.42223677460268 28.63893416593558M83.56927710843286 28.600000000000136M104.16666666666558 28.599999999999994M111.60505797625277 33.230398590218186M111.7708128899178 33.4773715872048M111.7755877499377 33.55370324511915M111.76423595589819 33.629336954933535M111.73726316975001 33.70090363779326M111.69587088542605 33.76521537923003M111.64190290868646 33.819407433765775M111.5777632253953 33.86106583406479M117.18604184569205 33.62070194684475M117.10956115412367 33.620860393774024M116.90324678186857 33.52852112171405M110.06160869041167 29.26960140978207M109.89585377674672 29.0226284127954M109.89107891672671 28.946296754880933M109.90243071076637 28.87066304506672M109.92940349691443 28.799096362206882M109.9707957812384 28.734784620770284M110.02476375797795 28.680592566234452M110.08890344126911 28.63893416593544M110.23594377509929 28.600000000000165M117.49999999999892 28.600000000000165M117.49999999999886 33.17831494474652M117.44257014252722 33.47015764915318M117.39197184549596 33.527508617982846M117.330463805856 33.57296279653485M117.26078587910601 33.604495443299356M44.764056224898674 25.59999999999991M37.499999999999 25.60000000000008M37.49999999999903 21.021685055253585M37.55742985747066 20.72984235084698M37.6080281545018 20.672491382017114M37.66953619414168 20.627037203465193M37.73921412089188 20.595504556700945M37.81395815430593 20.579298053155412M37.89043884587401 20.579139606226136M38.096753218129116 20.671478878285967M44.93839130958634 24.930398590218147M45.104146223251256 25.177371587204732M45.108921083271134 25.253703245119112M45.09756928923158 25.329336954933268M45.0705965030835 25.40090363779322M45.02920421875955 25.46521537922979M44.97523624201994 25.519407433765537M44.911096558728694 25.561065834064607M71.43072289156541 25.600000000000136M50.8333333333324 25.600000000000165M43.39494202374511 20.969601409782058M43.22918711008011 20.722628412795387M43.22441225006039 20.646296754881064M43.2357640440999 20.570663045067022M43.262736830247896 20.499096362206984M43.3041291145719 20.43478462077036M43.3580970913114 20.380592566234583M43.422236774602645 20.338934165935655M43.56927710843278 20.300000000000267M64.16666666666572 20.300000000000153M71.60505797625305 24.930398590218317M71.77081288991786 25.177371587204846M71.77558774993781 25.253703245119226M71.76423595589841 25.329336954933495M71.73726316975026 25.400903637793334M71.6958708854263 25.46521537922999M71.64190290868669 25.519407433765792M71.57776322539544 25.56106583406475M98.09738955823192 25.60000000000005M77.49999999999892 25.60000000000008M70.06160869041173 20.969601409782058M69.89585377674683 20.722628412795444M69.89107891672697 20.64629675488115M69.90243071076648 20.570663045066937M69.92940349691443 20.4990963622069M69.97079578123851 20.43478462077033M70.02476375797806 20.380592566234554M70.08890344126931 20.338934165935598M70.23594377509951 20.30000000000021M90.83333333333226 20.30000000000021M98.27172464291954 24.930398590218147M98.43747955658444 25.177371587204817M98.44225441660438 25.25370324511914M98.43090262256487 25.329336954933353M98.40392983641686 25.400903637793448M98.3625375520929 25.465215379230017M98.30856957535323 25.519407433765565M98.24442989206204 25.561065834064607M117.49999999999889 25.600000000000165M104.16666666666569 25.60000000000022M96.72827535707845 20.969601409781973M96.56252044341349 20.722628412795274M96.55774558339363 20.64629675488092M96.56909737743308 20.57066304506671M96.59607016358126 20.4990963622067M96.63746244790516 20.434784620770216M96.69143042464475 20.38059256623444M96.75557010793594 20.338934165935513M96.90261044176609 20.30000000000004M117.49999999999889 20.299999999999983M58.09738955823198 17.300000000000125M37.49999999999904 17.300000000000068M37.49999999999907 12.000000000000114M50.83333333333233 12.000000000000284M58.271724642919594 16.630398590218306M58.43747955658449 16.877371587204948M58.44225441660444 16.953703245119243M58.43090262256493 17.029336954933484M58.403929836416864 17.100903637793408M58.3625375520929 17.165215379230062M58.30856957535323 17.219407433765753M58.2444298920621 17.261065834064766M84.7640562248987 17.300000000000125M64.16666666666563 17.300000000000182M56.72827535707839 12.66960140978216M56.56252044341343 12.42262841279549M56.557745583393654 12.34629675488111M56.56909737743317 12.270663045066925M56.59607016358123 12.199096362206973M56.637462447905165 12.134784620770404M56.69143042464469 12.080592566234543M56.75557010793602 12.0389341659357M56.90261044176603 12.000000000000256M77.49999999999895 12.000000000000256M84.93839130958628 16.630398590218277M85.10414622325118 16.87737158720475M85.10892108327113 16.95370324511927M85.09756928923161 17.029336954933456M85.07059650308352 17.100903637793266M85.02920421875956 17.16521537922992M84.97523624201992 17.219407433765753M84.9110965587287 17.26106583406468M111.43072289156518 17.30000000000004M90.83333333333238 17.300000000000125M83.39494202374513 12.669601409782047M83.22918711008015 12.422628412795575M83.2244122500604 12.346296754881024M83.23576404409974 12.27066304506701M83.26273683024792 12.199096362206888M83.30412911457188 12.134784620770432M83.35809709131146 12.080592566234543M83.42223677460268 12.038934165935643M83.5692771084328 12.00000000000017M104.16666666666563 11.999999999999972M111.6050579762528 16.630398590218135M111.77081288991775 16.877371587204806M111.77558774993767 16.953703245119243M111.7642359558981 17.029336954933456M111.73726316974998 17.10090363779335M111.69587088542622 17.165215379230062M111.64190290868652 17.219407433765753M111.57776322539527 17.261065834064738M117.18604184569199 17.020701946844838M117.1095611541237 17.020860393774086M116.9032467818686 16.928521121713914M110.06160869041165 12.669601409782103M109.89585377674666 12.422628412795376M109.89107891672683 12.34629675488111M109.9024307107664 12.270663045066698M109.92940349691443 12.199096362206802M109.97079578123845 12.134784620770262M110.02476375797801 12.080592566234401M110.0889034412692 12.038934165935586M110.23594377509932 12.000000000000057M117.49999999999883 12.000000000000114M117.49999999999883 16.57831494474638M117.44257014252705 16.870157649153157M117.3919718454959 16.927508617982767M117.33046380585606 16.97296279653486M117.26078587910607 17.004495443299362M71.49999999999991 168.39187079185672M71.70444504226552 166.83895652124158M72.30384757729325 165.39187079185672M73.25735931288057 164.1492301047375M74.49999999999991 163.1957183691501M75.94708572938478 162.59631583412227M77.49999999999989 162.39187079185677M79.05291427061502 162.59631583412232M80.49999999999994 163.1957183691501M81.7426406871192 164.1492301047374M82.69615242270658 165.39187079185672M83.29555495773428 166.83895652124158M83.49999999999989 168.39187079185672M83.29555495773434 169.9447850624718M82.69615242270655 171.39187079185672M81.7426406871192 172.63451147897598M80.49999999999989 173.5880232145634M79.05291427061502 174.1874257495911M77.49999999999989 174.39187079185677M75.94708572938484 174.1874257495911M74.49999999999994 173.5880232145634M73.25735931288065 172.63451147897598M72.30384757729328 171.39187079185672M71.70444504226552 169.94478506247185 " fill="none" stroke="#ff0000" stroke-width="0.26458332" data-transform="matrix(1,0,0,1,29.060665130615234,-28.473583221435547)"></path><defs id="lzr_606_0" x="-8" y="-8" fill="none" stroke="#ff0000" stroke-width="0.26458332" data-transform="matrix(1,0,0,1,29.060665130615234,-28.473583221435547)"></defs></g></svg>