<svg id="SvgjsSvg1006" width="172mm" height="163mm" xmlns="http://www.w3.org/2000/svg" version="1.1" xmlns:xlink="http://www.w3.org/1999/xlink" xmlns:svgjs="http://svgjs.com/svgjs" viewBox="0 0 172 163"><g id="SvgjsG1008" transform="matrix(1,0,0,1,8.806262969970703,-8.806266784667969)"><path style="fill:none;stroke:#ff0000;stroke-width:0.26458332;" id="lzr_271_2" d="M4.999999881206577 169.99999999927968L149.99999988120675 169.99999999927968L149.99999988110346 91.00000000115203L152.99999988110346 91.0000000011785L152.999999881299 81.00000000114832L149.999999881299 81.00000000112182L149.9999998811909 2.000000000000256L4.999999881190831 2L5.000000000065654 81.00000000113562L2.000000000065654 81.00000000111592L2 91.00000000111594L5 91.00000000113565L4.999999881206577 169.99999999927968M37.60126880574256 52.008755178949656L37.55067050871173 51.95140421011983L37.493240651240285 51.659561505713185L37.49324065124026 47.08124656096682L44.75729687613904 47.081246560966804L44.90433720997015 47.12018072690229L44.968476893260515 47.161839127201134L45.02244486999993 47.216031181736994L45.063837154324204 47.28034292317352L45.09080994047301 47.35190960603347L45.10216173451204 47.42754331584766L45.09738687449166 47.503874973762024L44.93163196082767 47.75084797074865L38.08999386937006 52.00976768268073L37.8836794971148 52.10210695474069L37.80719880554699 52.101948507811514L37.73245477213388 52.08574200426614L37.66277684538284 52.05420935750162L37.60126880574256 52.008755178949656M69.9531012194787 68.71058351590008L69.94174942544049 68.63494980608591L69.9465242854597 68.5586181481715L70.11227919912443 68.3116451511849L77.55067050871162 63.68124656096681L98.14806006694471 63.681246560966926L98.29510040077434 63.72018072690234L98.35924008406545 63.76183912720131L98.41320806080483 63.81603118173706L98.45460034512985 63.88034292317367L98.48157313127717 63.951909606033624L98.4929249253172 64.02754331584775L98.48815006529765 64.10387497376216L98.32239515163218 64.3508479707488L90.88400384204431 68.98124656096688L70.2866142838119 68.98124656096678L70.13957394998164 68.94231239503137L70.07543426669122 68.90065399473241L70.02146628995098 68.84646194019663L69.98007400562756 68.78215019876002L69.9531012194787 68.71058351590008M56.778945865791684 76.61164515118487L64.21733717537876 71.98124656096675L84.81472673361219 71.98124656096685L84.96176706744149 72.02018072690232L85.02590675073299 72.06183912720118L85.07987472747271 72.11603118173697L85.12126701179614 72.18034292317357L85.14823979794431 72.25190960603351L85.15959159198366 72.32754331584769L85.15481673196444 72.4038749737621L84.98906181829898 72.6508479707487L77.55067050871162 77.2812465609668L56.95328095047813 77.2812465609668L56.806240616648495 77.24231239503133L56.742100933357335 77.20065399473239L56.688132956616926 77.14646194019662L56.64674067229407 77.08215019876L56.61976788614629 77.01058351590004L56.60841609210661 76.93494980608587L56.613190952125535 76.85861814817149L56.778945865791684 76.61164515118487M112.48860105794705 95.8462154242849L112.94153438687647 95.78658562029078L113.394467715806 95.8462154242849L113.81653438687647 96.02104116366797L114.17897125395297 96.29914875321431L114.45707884349929 96.66158562029077L114.54806538425089 96.88124656096682L114.63190458288233 97.08365229136135L114.69153438687647 97.53658562029071L114.63190458288227 97.9895189492201L114.45707884349929 98.41158562029071L114.17897125395297 98.77402248736712L113.81653438687653 99.05213007691344L113.394467715806 99.22695581629651L112.94153438687653 99.28658562029068L112.48860105794705 99.22695581629648L112.06653438687653 99.05213007691349L111.70409751979997 98.77402248736709L111.42598993025382 98.41158562029071L111.25116419087072 97.98951894922008L111.19153438687647 97.5365856202907L111.25116419087078 97.0836522913613L111.33500338950216 96.88124656096682L111.4259899302537 96.66158562029071L111.70409751979997 96.29914875321431L112.06653438687658 96.02104116366792L112.48860105794705 95.8462154242849M70.11227919912488 84.91164515118497L77.55067050871162 80.28124656096685L98.14806006694465 80.28124656096688L98.29510040077457 80.32018072690225L98.35924008406579 80.36183912720129L98.41320806080523 80.4160311817371L98.45460034513019 80.48034292317371L98.48157313127746 80.55190960603365L98.49292492531725 80.62754331584773L98.48815006529696 80.70387497376221L98.32239515163224 80.95084797074882L90.8840038420447 85.58124656096685L70.28661428381241 85.58124656096673L70.13957394998204 85.54231239503133L70.07543426669139 85.50065399473237L70.02146628995075 85.44646194019671L69.98007400562761 85.38215019876002L69.95310121947881 85.31058351590015L69.94174942544043 85.23494980608585L69.94652428545982 85.1586181481715L70.11227919912488 84.91164515118497M111.69257341739973 72.0618391272013L111.74654139413815 72.11603118173706L111.7879336784631 72.1803429231737L111.81490646461037 72.25190960603366L111.82625825865023 72.32754331584775L111.82148339863056 72.40387497376221L111.65572848496578 72.65084797074884L104.2173371753787 77.28124656096684L83.61994761714595 77.28124656096679L83.47290728331484 77.24231239503142L83.40876760002482 77.20065399473239L83.35479962328458 77.1464619401966L83.31340733896081 77.08215019875998L83.28643455281235 77.01058351590002L83.27508275877221 76.93494980608587L83.27985761879307 76.85861814817149L83.44561253245769 76.61164515118485L90.88400384204431 71.98124656096687L111.48139340027757 71.98124656096695L111.62843373410936 72.02018072690235L111.69257341739973 72.0618391272013M116.59687344620033 97.53658562029071L116.59687344620028 96.8812465609668L117.55067050871332 96.88124656096682L117.55067050871293 102.18124656096683L96.95328095047881 102.18124656096688L96.80624061664878 102.14231239503147L96.742100933357 102.10065399473248L96.68813295661789 102.04646194019666L96.64674067229294 101.98215019876007L96.61976788614555 101.91058351590009L96.60841609210507 101.83494980608596L96.61319095212616 101.75861814817154L96.77894586579157 101.51164515118487L104.21733717537865 96.8812465609668L109.2861953275526 96.8812465609668L109.28619532755255 97.5365856202907L109.4107479856325 98.48265698515084L109.77591790205634 99.36425514995267L110.35681935049251 100.12130065667473L111.11386485721448 100.7022021051107L111.99546302201628 101.06737202153492L112.94153438687647 101.19192467961466L113.88760575173671 101.06737202153488L114.7692039165384 100.70220210511076L115.52624942326042 100.12130065667478L116.10715087169655 99.36425514995267L116.4723207881205 98.48265698515084L116.59687344620033 97.53658562029071M56.89585109300697 44.08124656096683L56.74881075917676 44.042312395031416L56.68467107588589 44.000653994732446L56.63070309914605 43.946461940196684L56.58931081482223 43.88215019876006L56.56233802867456 43.810583515900134L56.550986234634706 43.73494980608595L56.55576109465483 43.658618148171556L56.7215160083191 43.41164515118493L64.15990731790663 38.78124656096682L84.75729687613904 38.78124656096695L84.90433720996901 38.82018072690235L84.96847689326086 38.86183912720131L85.02244487000024 38.9160311817371L85.06383715432412 38.980342923173666L85.09080994047224 39.05190960603363L85.10216173451266 39.1275433158478L85.09738687449163 39.20387497376218L84.93163196082725 39.45084797074881L77.49324065123972 44.08124656096683L56.89585109300697 44.08124656096683M96.61319095212656 85.15861814817161L96.77894586579168 84.91164515118497L104.2173371753787 80.28124656096688L117.55067050871293 80.28124656096692L117.55067050871293 85.58124656096675L96.95328095047842 85.58124656096692L96.80624061664918 85.54231239503133L96.742100933357 85.50065399473249L96.68813295661789 85.44646194019674L96.64674067229367 85.3821501987601L96.61976788614555 85.31058351590016L96.60841609210502 85.234949806086L96.61319095212656 85.15861814817161M98.29510040077417 96.92018072690226L98.35924008406573 96.96183912720122L98.41320806080523 97.01603118173699L98.45460034513019 97.08034292317362L98.48157313127751 97.1519096060336L98.4929249253172 97.22754331584774L98.48815006529765 97.30387497376212L98.32239515163172 97.55084797074872L90.88400384204436 102.18124656096685L70.28661428381201 102.18124656096685L70.13957394998204 102.14231239503135L70.07543426669133 102.10065399473243L70.02146628995075 102.04646194019666L69.98007400562716 101.98215019876005L69.95310121947836 101.91058351590009L69.94174942544049 101.83494980608592L69.94652428545982 101.75861814817154L70.11227919912488 101.51164515118492L77.55067050871122 96.8812465609668L98.14806006694431 96.8812465609668L98.29510040077417 96.92018072690226M98.2376705433029 30.520180726902282L98.3018102265936 30.56183912720121L98.35577820333384 30.616031181736986L98.39717048765777 30.680342923173583L98.42414327380652 30.751909606033564L98.43549506784484 30.827543315847663L98.43072020782449 30.9038749737621L98.26496529416085 31.150847970748714L90.82657398457371 35.78124656096679L70.22918442634108 35.78124656096669L70.08214409251036 35.74231239503129L70.01800440921988 35.700653994732335L69.9640364324801 35.64646194019659L69.9226441481552 35.58215019875996L69.89567136200782 35.51058351589998L69.88431956796774 35.43494980608581L69.88909442798808 35.35861814817143L70.05484934165241 35.1116451511848L77.49324065124017 30.481246560966582L98.09063020947366 30.481246560966866L98.2376705433029 30.520180726902282M109.98007400562665 60.48215019875997L109.9531012194796 60.41058351589996L109.94174942543799 60.33494980608583L109.94652428545908 60.25861814817145L110.11227919912454 60.01164515118484L116.95391729058139 55.7527254392527L117.16023166283657 55.66038616719284L117.23671235440474 55.660544614122045L117.31145638781896 55.67675111766759L117.3811343145693 55.70828376443188L117.44264235420832 55.75373794298392L117.49324065123903 55.8110889118137L117.55067050871293 56.10293161622036L117.55067050871304 60.68124656096688L110.28661428381173 60.68124656096673L110.13957394998238 60.64231239503131L110.07543426669099 60.600653994732326L110.02146628995149 60.54646194019654L109.98007400562665 60.48215019875997M45.07987472747209 80.41603118173694L45.121267011796675 80.48034292317358L45.14823979794437 80.5519096060335L45.1595915919838 80.62754331584762L45.15481673196342 80.70387497376208L44.98906181829912 80.95084797074868L38.147423726842874 85.20976768268073L37.94110935458724 85.30210695474068L37.864628663018436 85.30194850781143L37.78988462960456 85.28574200426603L37.72020670285454 85.25420935750154L37.65869866321512 85.20875517894957L37.60810036618301 85.15140421011975L37.55067050871165 84.85956150571316L37.55067050871165 80.2812465609668L44.81472673361077 80.28124656096684L44.961767067440746 80.32018072690222L45.025906750732986 80.36183912720116L45.07987472747209 80.41603118173694M83.40876760002482 60.60065399473258L83.35479962328469 60.54646194019681L83.31340733896013 60.482150198760166L83.28643455281235 60.410583515900214L83.27508275877227 60.33494980608606L83.27985761879364 60.25861814817168L83.44561253245769 60.011645151185036L90.88400384204482 55.3812465609669L111.48139340027757 55.381246560966986L111.62843373410925 55.4201807269024L111.69257341739905 55.461839127201344L111.74654139413815 55.51603118173716L111.78793367846265 55.58034292317376L111.81490646461043 55.65190960603368L111.82625825864983 55.72754331584781L111.82148339863045 55.803874973762234L111.65572848496521 56.05084797074886L104.2173371753787 60.68124656096691L83.61994761714595 60.68124656096688L83.4729072833153 60.642312395031496L83.40876760002482 60.60065399473258M43.04844813793653 23.295121100397864L42.10237677307737 23.170568442318114L41.15630540821641 23.29512110039795L40.27470724341532 23.660291016821844L39.51766173669253 24.241192465257825L38.93676028825692 24.998237971980586L38.571590371832514 25.879836136781478L38.44703771375299 26.825907501642007L38.44703771375322 27.48124656096553L37.493240651240285 27.481246560966696L37.493240651240285 22.181246560966628L58.09063020947332 22.181246560966628L58.237670543303295 22.220180726902186L58.3018102265944 22.261839127201057L58.35577820333452 22.316031181736804L58.39717048765766 22.38034292317346L58.42414327380544 22.45190960603341L58.4354950678449 22.527543315847566L58.43072020782637 22.603874973761975L58.264965294160845 22.85084797074856L50.826573984573486 27.481246560966696L45.75771583240049 27.4812465609661L45.75771583240072 26.825907501642348L45.63316317432049 25.879836136781677L45.267993257896876 24.99823797198013L44.687091809461094 24.24119246525808L43.93004630273913 23.6602910168223L43.04844813793653 23.295121100397864M58.32239515163286 89.25084797074858L50.88400384204522 93.8812465609668L37.550670508711704 93.88124656096669L37.55067050871162 88.58124656096656L58.14806006694437 88.58124656096668L58.295100400774686 88.62018072690219L58.35924008406545 88.66183912720102L58.41320806080529 88.71603118173678L58.454600345129165 88.78034292317341L58.48157313127757 88.85190960603336L58.49292492531697 88.92754331584753L58.488150065296566 89.00387497376191L58.32239515163286 89.25084797074858M43.44561253245777 68.31164515118486L50.884003842045615 63.68124656096681L71.48139340027791 63.68124656096688L71.62843373410828 63.7201807269023L71.69257341739899 63.76183912720124L71.74654139413957 63.81603118173703L71.7879336784631 63.88034292317363L71.81490646461111 63.95190960603358L71.82625825864983 64.02754331584771L71.82148339863056 64.10387497376216L71.65572848496544 64.35084797074876L64.21733717537904 68.98124656096682L43.6199476171447 68.98124656096678L43.472907283315294 68.94231239503134L43.40876760002422 68.90065399473241L43.35479962328449 68.84646194019663L43.31340733896022 68.78215019876L43.286434552812864 68.71058351590004L43.2750827587727 68.63494980608587L43.27985761879273 68.5586181481715L43.44561253245777 68.31164515118486M112.85504195974033 25.068525246425025L113.30797528866407 25.13553730563015L113.73004195973454 25.310363045013162L114.09247882681109 25.588470634559513L114.3705864163573 25.950907501635925L114.54541215574034 26.372974172706506L114.60504195973465 26.825907501635896L114.54541215574034 27.278840830565287L114.46157295710611 27.48124656096664L114.3705864163573 27.700907501635896L114.09247882681109 28.063344368712308L113.73004195973454 28.34145195825866L113.30797528866401 28.516277697641698L112.85504195973459 28.575907501635868L112.40210863080506 28.516277697641698L111.98004195973454 28.34145195825866L111.6176050926581 28.063344368712308L111.33949750311177 27.700907501635896L111.2485109623629 27.481246560966582L111.16467176372873 27.278840830565315L111.10504195973465 26.825907501635896L111.16467176372873 26.372974172706506L111.30542723076354 26.033160415213132L111.33949750311177 25.950907501635925L111.6176050926581 25.588470634559485L111.98004195973454 25.31036304501319L112.40210863080512 25.13553730563021L112.85504195974033 25.068525246425025M85.15481673196473 55.80387497376219L84.98906181829892 56.05084797074882L77.55067050871156 60.68124656096683L56.95328095047813 60.68124656096683L56.806240616648154 60.642312395031354L56.74210093335779 60.600653994732426L56.68813295661727 60.54646194019665L56.64674067229407 60.48215019876004L56.61976788614629 60.41058351590007L56.60841609210661 60.3349498060859L56.61319095212593 60.25861814817155L56.77894586579174 60.011645151184894L64.21733717537876 55.38124656096683L84.81472673361151 55.38124656096697L84.96176706744143 55.42018072690239L85.02590675073259 55.4618391272013L85.07987472747283 55.51603118173708L85.12126701179625 55.58034292317369L85.14823979794431 55.65190960603364L85.15959159198411 55.72754331584781L85.15481673196473 55.80387497376219M56.589310814822284 27.282150198759922L56.56233802867456 27.21058351589994L56.550986234635275 27.134949806085785L56.555761094655224 27.058618148171433L56.72151600831921 26.81164515118479L64.15990731790663 22.181246560966713L84.75729687613887 22.181246560966827L84.9043372099689 22.2201807269023L84.96847689326074 22.261839127201256L85.02244487000024 22.316031181737117L85.06383715432446 22.38034292317363L85.09080994047258 22.45190960603358L85.10216173451272 22.527543315847765L85.09738687449169 22.603874973762146L84.93163196082725 22.85084797074876L77.49324065123977 27.481246560966554L56.895851093007536 27.481246560966724L56.74881075917676 27.44231239503125L56.684671075886 27.400653994732295L56.63070309914616 27.34646194019652L56.589310814822284 27.282150198759922M58.148060066944026 71.98124656096675L58.295100400774686 72.02018072690215L58.35924008406539 72.06183912720108L58.41320806080529 72.11603118173686L58.45460034512956 72.18034292317347L58.48157313127791 72.25190960603341L58.49292492531623 72.32754331584749L58.48815006529668 72.40387497376199L58.322395151632634 72.65084797074861L50.88400384204556 77.2812465609668L37.55067050871165 77.28124656096679L37.55067050871165 71.98124656096664L58.148060066944026 71.98124656096675M40.864939906000615 28.063344368718504L40.58683231645401 27.70090750164215L40.49584577570269 27.4812465609659L40.4120065770704 27.278840830571653L40.35237677307677 26.825907501641893L40.412006577071 26.372974172712787L40.58683231645446 25.95090750164138L40.864939906000245 25.588470634565596L41.227376773077026 25.310363045019443L41.649443444147266 25.135537305635893L42.10237677307657 25.075907501642064L42.55531010200667 25.135537305636603L42.97737677307654 25.3103630450193L43.33981364015341 25.58847063456531L43.61792122969919 25.950907501642206L43.7927469690824 26.372974172713242L43.85237677307666 26.82590750164229L43.792746969082 27.278840830571284L43.70890777045159 27.48124656096644L43.617921229699505 27.700907501641808L43.33981364015341 28.063344368718305L42.97737677307694 28.341451958264912L42.555310102006416 28.516277697647723L42.10237677307657 28.57590750164215L41.649443444147636 28.51627769764835L41.2273767730768 28.34145195826511L40.864939906000615 28.063344368718504M37.86462866301841 68.70194850781155L37.7898846296045 68.68574200426609L37.72020670285468 68.65420935750159L37.65869866321549 68.60875517894962L37.60810036618341 68.55140421011988L37.55067050871173 68.25956150571324L37.55067050871162 63.681246560966855L44.81472673361111 63.68124656096681L44.961767067441514 63.720180726902285L45.02590675073296 63.76183912720117L45.07987472747172 63.81603118173696L45.12126701179665 63.880342923173586L45.14823979794431 63.95190960603354L45.1595915919838 64.02754331584767L45.15481673196339 64.10387497376209L44.98906181829943 64.35084797074872L38.147423726842845 68.60976768268077L37.941109354587354 68.70210695474076L37.86462866301841 68.70194850781155M43.28643455281281 101.91058351590007L43.27508275877261 101.83494980608589L43.279857618792704 101.7586181481715L43.44561253245783 101.51164515118487L50.88400384204522 96.88124656096679L71.4813934002782 96.8812465609669L71.62843373410828 96.92018072690226L71.69257341739865 96.96183912720122L71.74654139413917 97.01603118173699L71.78793367846231 97.08034292317363L71.81490646461117 97.15190960603357L71.82625825864977 97.22754331584774L71.8214833986305 97.30387497376212L71.65572848496544 97.55084797074875L64.21733717537876 102.18124656096677L43.61994761714456 102.18124656096674L43.47290728331569 102.14231239503135L43.40876760002422 102.10065399473241L43.35479962328475 102.04646194019665L43.31340733896016 101.98215019876002L43.28643455281281 101.91058351590007M44.757296876139094 30.48124656096664L44.90433720996981 30.52018072690214L44.968476893260515 30.56183912720107L45.022444870000015 30.616031181736872L45.06383715432423 30.680342923173498L45.09080994047335 30.75190960603345L45.10216173451204 30.827543315847606L45.09738687449172 30.90387497376196L44.93163196082776 31.15084797074863L38.0899938693704 35.409767682680595L37.883679497114855 35.50210695474057L37.80719880554739 35.50194850781148L37.73245477213342 35.48574200426599L37.662776845382865 35.4542093575015L37.60126880574302 35.408755178949534L37.55067050871173 35.351404210119796L37.4932406512406 35.059561505713035L37.49324065124026 30.48124656096664L44.757296876139094 30.48124656096664M71.635143559928 30.561839127200983L71.68911153666744 30.616031181736815L71.73050382099132 30.680342923173384L71.7574766071387 30.751909606033337L71.76882840117884 30.82754331584752L71.76405354115946 30.90387497376193L71.5982986274933 31.150847970748572L64.15990731790697 35.781246560966665L43.56251775967334 35.78124656096675L43.41547742584325 35.74231239503126L43.35133774255246 35.700653994732335L43.29736976581199 35.64646194019656L43.25597748148911 35.58215019875996L43.229004695341445 35.51058351589998L43.21765290130173 35.43494980608581L43.222427761320574 35.35861814817143L43.38818267498638 35.1116451511848L50.826573984573145 30.481246560966724L71.42396354280686 30.48124656096664L71.57100387663576 30.520180726902055L71.635143559928 30.561839127200983M111.82625825865045 88.92754331584779L111.82148339863079 89.00387497376211L111.65572848496544 89.25084797074882L104.21733717537904 93.88124656096687L83.6199476171459 93.8812465609668L83.47290728331478 93.84231239503134L83.40876760002504 93.8006539947324L83.35479962328458 93.74646194019661L83.3134073389603 93.68215019876L83.2864345528119 93.61058351590006L83.27508275877193 93.53494980608589L83.27985761879324 93.45861814817151L83.44561253245763 93.21164515118492L90.8840038420447 88.58124656096678L111.48139340027751 88.58124656096693L111.62843373410931 88.62018072690238L111.69257341739899 88.66183912720123L111.74654139413838 88.71603118173701L111.7879336784631 88.7803429231736L111.81490646461003 88.85190960603356L111.82625825865045 88.92754331584779M117.16023166283651 88.86038616719284L117.23671235440435 88.86054461412208L117.31145638781902 88.87675111766751L117.38113431456964 88.9082837644318L117.44264235420803 88.95373794298384L117.49324065123858 89.01108891181357L117.55067050871327 89.3029316162204L117.55067050871361 93.88124656096687L110.28661428381201 93.88124656096669L110.13957394998204 93.84231239503119L110.07543426669093 93.80065399473229L110.02146628995189 93.74646194019658L109.98007400562653 93.68215019875989L109.95310121947949 93.61058351590003L109.94174942543839 93.5349498060857L109.94652428545862 93.45861814817137L110.11227919912483 93.21164515118484L116.95391729058167 88.95272543925263L117.16023166283651 88.86038616719284M96.56233802867536 52.110583515900174L96.55098623463482 52.03494980608593L96.55576109465477 51.95861814817161L96.72151600832063 51.711645151185024L104.15990731790765 47.08124656096689L117.49324065123909 47.08124656096685L117.49324065123858 52.38124656096683L96.89585109300629 52.3812465609669L96.7488107591767 52.342312395031456L96.6846710758856 52.3006539947325L96.63070309914576 52.24646194019678L96.58931081482228 52.1821501987601L96.56233802867536 52.110583515900174M96.60841609210536 68.63494980608597L96.61319095212616 68.55861814817162L96.77894586579117 68.31164515118498L104.2173371753787 63.68124656096688L117.55067050871298 63.68124656096684L117.55067050871293 68.98124656096681L96.9532809504787 68.98124656096685L96.80624061664872 68.94231239503144L96.74210093335688 68.90065399473248L96.68813295661744 68.8464619401967L96.64674067229356 68.78215019876009L96.61976788614584 68.71058351590017L96.60841609210536 68.63494980608597M71.57100387663615 47.120180726902305L71.63514355992805 47.16183912720125L71.68911153666738 47.216031181736994L71.73050382099137 47.280342923173606L71.75747660713864 47.35190960603357L71.76882840117878 47.42754331584774L71.76405354115917 47.50387497376212L71.5982986274933 47.75084797074875L64.15990731790663 52.38124656096679L43.5625177596736 52.38124656096677L43.41547742584319 52.34231239503137L43.35133774255209 52.30065399473237L43.29736976581188 52.24646194019667L43.25597748148911 52.182150198759985L43.229004695341416 52.11058351590009L43.217652901301705 52.03494980608585L43.22242776132063 51.95861814817145L43.38818267498675 51.71164515118491L50.826573984573486 47.081246560966804L71.42396354280686 47.081246560966875L71.57100387663615 47.120180726902305M58.48815006529662 55.803874973761964L58.32239515163292 56.050847970748634L50.88400384204556 60.68124656096683L37.55067050871125 60.68124656096687L37.55067050871165 55.381246560966744L58.14806006694397 55.381246560966716L58.29510040077474 55.42018072690223L58.35924008406545 55.461839127201074L58.41320806080529 55.51603118173685L58.454600345129165 55.58034292317346L58.48157313127797 55.65190960603341L58.49292492531663 55.72754331584761L58.48815006529662 55.803874973761964M70.08214409251036 52.34231239503137L70.01800440921954 52.300653994732386L69.9640364324801 52.24646194019667L69.9226441481552 52.18215019876003L69.89567136200742 52.11058351590009L69.88431956796813 52.03494980608589L69.88909442798882 51.95861814817151L70.05484934165241 51.71164515118491L77.49324065123972 47.08124656096682L98.09063020947355 47.08124656096689L98.2376705433029 47.12018072690233L98.30181022659366 47.161839127201276L98.35577820333378 47.21603118173708L98.39717048765806 47.28034292317366L98.42414327380618 47.351909606033615L98.4354950678449 47.427543315847814L98.43072020782517 47.503874973762194L98.26496529416113 47.750847970748794L90.82657398457377 52.381246560966886L70.22918442634068 52.38124656096679L70.08214409251036 52.34231239503137M84.96176706744211 88.62018072690226L85.02590675073287 88.66183912720119L85.07987472747271 88.71603118173697L85.12126701179614 88.78034292317356L85.14823979794431 88.85190960603356L85.15959159198405 88.92754331584771L85.15481673196444 89.0038749737621L84.98906181829892 89.25084797074878L77.5506705087115 93.88124656096672L56.95328095047802 93.88124656096674L56.80624061664838 93.84231239503134L56.742100933357335 93.80065399473239L56.688132956616755 93.74646194019664L56.64674067229396 93.68215019876001L56.61976788614629 93.61058351590006L56.608416092106495 93.53494980608589L56.613190952125365 93.45861814817151L56.778945865792025 93.21164515118492L64.21733717537836 88.58124656096678L84.81472673361145 88.58124656096679L84.96176706744211 88.62018072690226M111.42396354280646 38.781246560966935L111.57100387663706 38.820180726902436L111.63514355992771 38.86183912720135L111.6891115366671 38.91603118173714L111.7305038209899 38.980342923173765L111.75747660713978 39.05190960603365L111.76882840117815 39.1275433158478L111.76405354115923 39.203874973762225L111.59829862749416 39.45084797074885L104.15990731790765 44.0812465609669L83.56251775967309 44.08124656096692L83.41547742584373 44.04231239503146L83.35133774255229 44.00065399473252L83.29736976581177 43.94646194019677L83.25597748148931 43.882150198760115L83.2290046953405 43.81058351590018L83.21765290130043 43.73494980608598L83.22242776132043 43.6586181481716L83.38818267498658 43.41164515118504L90.82657398457371 38.781246560966935L111.42396354280646 38.781246560966935M117.10280180536557 39.06038616719289L117.17928249693341 39.06054461412198L117.25402653034718 39.076751117667555L117.32370445709756 39.1082837644319L117.38521249673886 39.15373794298388L117.43581079376838 39.21108891181366L117.49324065123875 39.50293161622038L117.4932406512387 44.081246560966875L110.22918442634102 44.08124656096672L110.08214409250996 44.04231239503132L110.0180044092196 44.00065399473232L109.96403643247976 43.946461940196585L109.92264414815662 43.88215019875993L109.89567136200714 43.81058351590006L109.88431956796916 43.734949806085794L109.88909442798831 43.65861814817144L110.05484934165236 43.41164515118486L116.89648743310966 39.15272543925268L117.10280180536557 39.06038616719289M110.11227919912454 76.61164515118476L116.95391729058173 72.35272543925268L117.16023166283696 72.2603861671928L117.23671235440469 72.26054461412208L117.31145638781862 72.27675111766757L117.3811343145693 72.30828376443186L117.44264235420837 72.35373794298391L117.49324065123903 72.41108891181365L117.55067050871338 72.70293161622033L117.55067050871321 77.28124656096686L110.28661428381173 77.28124656096668L110.13957394998243 77.2423123950313L110.07543426669099 77.20065399473225L110.02146628995189 77.1464619401965L109.98007400562653 77.08215019875986L109.95310121947949 77.01058351589988L109.94174942543873 76.93494980608575L109.94652428545919 76.85861814817136L110.11227919912454 76.61164515118476M83.22900469534108 27.21058351590011L83.2176529013006 27.1349498060859L83.2224277613206 27.05861814817152L83.3881826749867 26.811645151184933L90.82657398457366 22.181246560966855L111.42396354280697 22.181246560966798L111.57100387663695 22.220180726902413L111.63514355992766 22.261839127201256L111.68911153666744 22.316031181737003L111.73050382099024 22.380342923173657L111.75747660713972 22.45190960603361L111.76882840117804 22.527543315847794L111.76405354115911 22.603874973762146L111.59829862749444 22.85084797074876L104.15990731790731 27.481246560966838L83.56251775967314 27.481246560966838L83.4154774258435 27.442312395031337L83.3513377425524 27.400653994732437L83.29736976581194 27.34646194019669L83.25597748148948 27.282150198760036L83.22900469534108 27.21058351590011M43.40876760002422 85.50065399473235L43.35479962328472 85.4464619401967L43.31340733896013 85.38215019875999L43.28643455281275 85.31058351590009L43.2750827587727 85.23494980608584L43.279857618792306 85.15861814817148L43.44561253245777 84.91164515118494L50.884003842045615 80.28124656096685L71.4813934002782 80.28124656096685L71.62843373410828 80.32018072690225L71.69257341739905 80.36183912720129L71.74654139413894 80.41603118173705L71.78793367846271 80.48034292317364L71.81490646461077 80.55190960603362L71.82625825864983 80.62754331584769L71.8214833986305 80.70387497376217L71.65572848496544 80.9508479707488L64.21733717537865 85.5812465609667L43.61994761714496 85.5812465609667L43.47290728331569 85.54231239503129L43.40876760002422 85.50065399473235M41.735935871286216 95.84621542429124L42.18886920021569 95.78658562029743L42.64180252914534 95.84621542429161L43.06386920021512 96.02104116367457L43.42630606729173 96.29914875322066L43.70441365683823 96.66158562029726L43.79540019758744 96.88124656096667L43.879239396221294 97.08365229136774L43.938869200215606 97.53658562029787L43.879239396221436 97.98951894922645L43.73848392918637 98.32933270672027L43.704413656837914 98.4115856202974L43.42630606729165 98.77402248737383L43.06386920021586 99.05213007692001L42.64180252914471 99.2269558163031L42.188869200209325 99.2939678755082L41.735935871286216 99.22695581630282L41.31386920021552 99.05213007692026L40.95143233313897 98.77402248737371L40.67332474359324 98.41158562029702L40.49849900421003 97.98951894922652L40.438869200215464 97.53658562029722L40.49849900420972 97.0836522913682L40.582338202844085 96.88124656096653L40.67332474359324 96.66158562029688L40.951432333139024 96.29914875322123L41.31386920021552 96.02104116367435L41.735935871286216 95.84621542429124M96.58931081482189 35.58215019876006L96.56233802867536 35.51058351590008L96.55098623463476 35.434949806085925L96.55576109465443 35.35861814817153L96.7215160083203 35.111645151184916L104.15990731790765 30.481246560966866L117.4932406512383 30.481246560966724L117.49324065123903 35.781246560966736L96.89585109300594 35.78124656096679L96.74881075917676 35.74231239503138L96.68467107588594 35.70065399473242L96.63070309914542 35.646461940196644L96.58931081482189 35.58215019876006M58.355778203334296 38.91603118173694L58.397170487657775 38.98034292317347L58.4241432738055 39.051909606033405L58.435495067845295 39.127543315847575L58.430720207825914 39.203874973761955L58.264965294160845 39.4508479707486L50.82657398457309 44.08124656096685L37.493240651240654 44.081246560966875L37.493240651240285 38.78124656096672L58.090630209473375 38.78124656096672L58.23767054330301 38.82018072690221L58.3018102265944 38.86183912720104L58.355778203334296 38.91603118173694 " fill="none" stroke="#ff0000" stroke-width="0.26458332" transform="matrix(6.123233995736766e-17,1,-1,6.123233995736766e-17,163.5,8.5)" data-transform="matrix(1,0,0,1,8.806262969970703,-8.806266784667969)"></path><path style="fill:none;stroke:#ff0000;stroke-width:0.26458332;" id="lzr_271_3" d="M4.999999881206577 169.99999999927968M149.99999988120675 169.99999999927968M149.99999988110346 91.00000000115203M152.99999988110346 91.0000000011785M152.999999881299 81.00000000114832M149.999999881299 81.00000000112182M149.9999998811909 2.000000000000256M4.999999881190831 2M5.000000000065654 81.00000000113562M2.000000000065654 81.00000000111592M2 91.00000000111594M5 91.00000000113565M37.60126880574256 52.008755178949656M37.55067050871173 51.95140421011983M37.493240651240285 51.659561505713185M37.49324065124026 47.08124656096682M44.75729687613904 47.081246560966804M44.90433720997015 47.12018072690229M44.968476893260515 47.161839127201134M45.02244486999993 47.216031181736994M45.063837154324204 47.28034292317352M45.09080994047301 47.35190960603347M45.10216173451204 47.42754331584766M45.09738687449166 47.503874973762024M44.93163196082767 47.75084797074865M38.08999386937006 52.00976768268073M37.8836794971148 52.10210695474069M37.80719880554699 52.101948507811514M37.73245477213388 52.08574200426614M37.66277684538284 52.05420935750162M69.9531012194787 68.71058351590008M69.94174942544049 68.63494980608591M69.9465242854597 68.5586181481715M70.11227919912443 68.3116451511849M77.55067050871162 63.68124656096681M98.14806006694471 63.681246560966926M98.29510040077434 63.72018072690234M98.35924008406545 63.76183912720131M98.41320806080483 63.81603118173706M98.45460034512985 63.88034292317367M98.48157313127717 63.951909606033624M98.4929249253172 64.02754331584775M98.48815006529765 64.10387497376216M98.32239515163218 64.3508479707488M90.88400384204431 68.98124656096688M70.2866142838119 68.98124656096678M70.13957394998164 68.94231239503137M70.07543426669122 68.90065399473241M70.02146628995098 68.84646194019663M69.98007400562756 68.78215019876002M56.778945865791684 76.61164515118487M64.21733717537876 71.98124656096675M84.81472673361219 71.98124656096685M84.96176706744149 72.02018072690232M85.02590675073299 72.06183912720118M85.07987472747271 72.11603118173697M85.12126701179614 72.18034292317357M85.14823979794431 72.25190960603351M85.15959159198366 72.32754331584769M85.15481673196444 72.4038749737621M84.98906181829898 72.6508479707487M77.55067050871162 77.2812465609668M56.95328095047813 77.2812465609668M56.806240616648495 77.24231239503133M56.742100933357335 77.20065399473239M56.688132956616926 77.14646194019662M56.64674067229407 77.08215019876M56.61976788614629 77.01058351590004M56.60841609210661 76.93494980608587M56.613190952125535 76.85861814817149M112.48860105794705 95.8462154242849M112.94153438687647 95.78658562029078M113.394467715806 95.8462154242849M113.81653438687647 96.02104116366797M114.17897125395297 96.29914875321431M114.45707884349929 96.66158562029077M114.54806538425089 96.88124656096682M114.63190458288233 97.08365229136135M114.69153438687647 97.53658562029071M114.63190458288227 97.9895189492201M114.45707884349929 98.41158562029071M114.17897125395297 98.77402248736712M113.81653438687653 99.05213007691344M113.394467715806 99.22695581629651M112.94153438687653 99.28658562029068M112.48860105794705 99.22695581629648M112.06653438687653 99.05213007691349M111.70409751979997 98.77402248736709M111.42598993025382 98.41158562029071M111.25116419087072 97.98951894922008M111.19153438687647 97.5365856202907M111.25116419087078 97.0836522913613M111.33500338950216 96.88124656096682M111.4259899302537 96.66158562029071M111.70409751979997 96.29914875321431M112.06653438687658 96.02104116366792M70.11227919912488 84.91164515118497M77.55067050871162 80.28124656096685M98.14806006694465 80.28124656096688M98.29510040077457 80.32018072690225M98.35924008406579 80.36183912720129M98.41320806080523 80.4160311817371M98.45460034513019 80.48034292317371M98.48157313127746 80.55190960603365M98.49292492531725 80.62754331584773M98.48815006529696 80.70387497376221M98.32239515163224 80.95084797074882M90.8840038420447 85.58124656096685M70.28661428381241 85.58124656096673M70.13957394998204 85.54231239503133M70.07543426669139 85.50065399473237M70.02146628995075 85.44646194019671M69.98007400562761 85.38215019876002M69.95310121947881 85.31058351590015M69.94174942544043 85.23494980608585M69.94652428545982 85.1586181481715M111.69257341739973 72.0618391272013M111.74654139413815 72.11603118173706M111.7879336784631 72.1803429231737M111.81490646461037 72.25190960603366M111.82625825865023 72.32754331584775M111.82148339863056 72.40387497376221M111.65572848496578 72.65084797074884M104.2173371753787 77.28124656096684M83.61994761714595 77.28124656096679M83.47290728331484 77.24231239503142M83.40876760002482 77.20065399473239M83.35479962328458 77.1464619401966M83.31340733896081 77.08215019875998M83.28643455281235 77.01058351590002M83.27508275877221 76.93494980608587M83.27985761879307 76.85861814817149M83.44561253245769 76.61164515118485M90.88400384204431 71.98124656096687M111.48139340027757 71.98124656096695M111.62843373410936 72.02018072690235M116.59687344620033 97.53658562029071M116.59687344620028 96.8812465609668M117.55067050871332 96.88124656096682M117.55067050871293 102.18124656096683M96.95328095047881 102.18124656096688M96.80624061664878 102.14231239503147M96.742100933357 102.10065399473248M96.68813295661789 102.04646194019666M96.64674067229294 101.98215019876007M96.61976788614555 101.91058351590009M96.60841609210507 101.83494980608596M96.61319095212616 101.75861814817154M96.77894586579157 101.51164515118487M104.21733717537865 96.8812465609668M109.2861953275526 96.8812465609668M109.28619532755255 97.5365856202907M109.4107479856325 98.48265698515084M109.77591790205634 99.36425514995267M110.35681935049251 100.12130065667473M111.11386485721448 100.7022021051107M111.99546302201628 101.06737202153492M112.94153438687647 101.19192467961466M113.88760575173671 101.06737202153488M114.7692039165384 100.70220210511076M115.52624942326042 100.12130065667478M116.10715087169655 99.36425514995267M116.4723207881205 98.48265698515084M56.89585109300697 44.08124656096683M56.74881075917676 44.042312395031416M56.68467107588589 44.000653994732446M56.63070309914605 43.946461940196684M56.58931081482223 43.88215019876006M56.56233802867456 43.810583515900134M56.550986234634706 43.73494980608595M56.55576109465483 43.658618148171556M56.7215160083191 43.41164515118493M64.15990731790663 38.78124656096682M84.75729687613904 38.78124656096695M84.90433720996901 38.82018072690235M84.96847689326086 38.86183912720131M85.02244487000024 38.9160311817371M85.06383715432412 38.980342923173666M85.09080994047224 39.05190960603363M85.10216173451266 39.1275433158478M85.09738687449163 39.20387497376218M84.93163196082725 39.45084797074881M77.49324065123972 44.08124656096683M96.61319095212656 85.15861814817161M96.77894586579168 84.91164515118497M104.2173371753787 80.28124656096688M117.55067050871293 80.28124656096692M117.55067050871293 85.58124656096675M96.95328095047842 85.58124656096692M96.80624061664918 85.54231239503133M96.742100933357 85.50065399473249M96.68813295661789 85.44646194019674M96.64674067229367 85.3821501987601M96.61976788614555 85.31058351590016M96.60841609210502 85.234949806086M98.29510040077417 96.92018072690226M98.35924008406573 96.96183912720122M98.41320806080523 97.01603118173699M98.45460034513019 97.08034292317362M98.48157313127751 97.1519096060336M98.4929249253172 97.22754331584774M98.48815006529765 97.30387497376212M98.32239515163172 97.55084797074872M90.88400384204436 102.18124656096685M70.28661428381201 102.18124656096685M70.13957394998204 102.14231239503135M70.07543426669133 102.10065399473243M70.02146628995075 102.04646194019666M69.98007400562716 101.98215019876005M69.95310121947836 101.91058351590009M69.94174942544049 101.83494980608592M69.94652428545982 101.75861814817154M70.11227919912488 101.51164515118492M77.55067050871122 96.8812465609668M98.14806006694431 96.8812465609668M98.2376705433029 30.520180726902282M98.3018102265936 30.56183912720121M98.35577820333384 30.616031181736986M98.39717048765777 30.680342923173583M98.42414327380652 30.751909606033564M98.43549506784484 30.827543315847663M98.43072020782449 30.9038749737621M98.26496529416085 31.150847970748714M90.82657398457371 35.78124656096679M70.22918442634108 35.78124656096669M70.08214409251036 35.74231239503129M70.01800440921988 35.700653994732335M69.9640364324801 35.64646194019659M69.9226441481552 35.58215019875996M69.89567136200782 35.51058351589998M69.88431956796774 35.43494980608581M69.88909442798808 35.35861814817143M70.05484934165241 35.1116451511848M77.49324065124017 30.481246560966582M98.09063020947366 30.481246560966866M109.98007400562665 60.48215019875997M109.9531012194796 60.41058351589996M109.94174942543799 60.33494980608583M109.94652428545908 60.25861814817145M110.11227919912454 60.01164515118484M116.95391729058139 55.7527254392527M117.16023166283657 55.66038616719284M117.23671235440474 55.660544614122045M117.31145638781896 55.67675111766759M117.3811343145693 55.70828376443188M117.44264235420832 55.75373794298392M117.49324065123903 55.8110889118137M117.55067050871293 56.10293161622036M117.55067050871304 60.68124656096688M110.28661428381173 60.68124656096673M110.13957394998238 60.64231239503131M110.07543426669099 60.600653994732326M110.02146628995149 60.54646194019654M45.07987472747209 80.41603118173694M45.121267011796675 80.48034292317358M45.14823979794437 80.5519096060335M45.1595915919838 80.62754331584762M45.15481673196342 80.70387497376208M44.98906181829912 80.95084797074868M38.147423726842874 85.20976768268073M37.94110935458724 85.30210695474068M37.864628663018436 85.30194850781143M37.78988462960456 85.28574200426603M37.72020670285454 85.25420935750154M37.65869866321512 85.20875517894957M37.60810036618301 85.15140421011975M37.55067050871165 84.85956150571316M37.55067050871165 80.2812465609668M44.81472673361077 80.28124656096684M44.961767067440746 80.32018072690222M45.025906750732986 80.36183912720116M83.40876760002482 60.60065399473258M83.35479962328469 60.54646194019681M83.31340733896013 60.482150198760166M83.28643455281235 60.410583515900214M83.27508275877227 60.33494980608606M83.27985761879364 60.25861814817168M83.44561253245769 60.011645151185036M90.88400384204482 55.3812465609669M111.48139340027757 55.381246560966986M111.62843373410925 55.4201807269024M111.69257341739905 55.461839127201344M111.74654139413815 55.51603118173716M111.78793367846265 55.58034292317376M111.81490646461043 55.65190960603368M111.82625825864983 55.72754331584781M111.82148339863045 55.803874973762234M111.65572848496521 56.05084797074886M104.2173371753787 60.68124656096691M83.61994761714595 60.68124656096688M83.4729072833153 60.642312395031496M43.04844813793653 23.295121100397864M42.10237677307737 23.170568442318114M41.15630540821641 23.29512110039795M40.27470724341532 23.660291016821844M39.51766173669253 24.241192465257825M38.93676028825692 24.998237971980586M38.571590371832514 25.879836136781478M38.44703771375299 26.825907501642007M38.44703771375322 27.48124656096553M37.493240651240285 27.481246560966696M37.493240651240285 22.181246560966628M58.09063020947332 22.181246560966628M58.237670543303295 22.220180726902186M58.3018102265944 22.261839127201057M58.35577820333452 22.316031181736804M58.39717048765766 22.38034292317346M58.42414327380544 22.45190960603341M58.4354950678449 22.527543315847566M58.43072020782637 22.603874973761975M58.264965294160845 22.85084797074856M50.826573984573486 27.481246560966696M45.75771583240049 27.4812465609661M45.75771583240072 26.825907501642348M45.63316317432049 25.879836136781677M45.267993257896876 24.99823797198013M44.687091809461094 24.24119246525808M43.93004630273913 23.6602910168223M58.32239515163286 89.25084797074858M50.88400384204522 93.8812465609668M37.550670508711704 93.88124656096669M37.55067050871162 88.58124656096656M58.14806006694437 88.58124656096668M58.295100400774686 88.62018072690219M58.35924008406545 88.66183912720102M58.41320806080529 88.71603118173678M58.454600345129165 88.78034292317341M58.48157313127757 88.85190960603336M58.49292492531697 88.92754331584753M58.488150065296566 89.00387497376191M43.44561253245777 68.31164515118486M50.884003842045615 63.68124656096681M71.48139340027791 63.68124656096688M71.62843373410828 63.7201807269023M71.69257341739899 63.76183912720124M71.74654139413957 63.81603118173703M71.7879336784631 63.88034292317363M71.81490646461111 63.95190960603358M71.82625825864983 64.02754331584771M71.82148339863056 64.10387497376216M71.65572848496544 64.35084797074876M64.21733717537904 68.98124656096682M43.6199476171447 68.98124656096678M43.472907283315294 68.94231239503134M43.40876760002422 68.90065399473241M43.35479962328449 68.84646194019663M43.31340733896022 68.78215019876M43.286434552812864 68.71058351590004M43.2750827587727 68.63494980608587M43.27985761879273 68.5586181481715M112.85504195974033 25.068525246425025M113.30797528866407 25.13553730563015M113.73004195973454 25.310363045013162M114.09247882681109 25.588470634559513M114.3705864163573 25.950907501635925M114.54541215574034 26.372974172706506M114.60504195973465 26.825907501635896M114.54541215574034 27.278840830565287M114.46157295710611 27.48124656096664M114.3705864163573 27.700907501635896M114.09247882681109 28.063344368712308M113.73004195973454 28.34145195825866M113.30797528866401 28.516277697641698M112.85504195973459 28.575907501635868M112.40210863080506 28.516277697641698M111.98004195973454 28.34145195825866M111.6176050926581 28.063344368712308M111.33949750311177 27.700907501635896M111.2485109623629 27.481246560966582M111.16467176372873 27.278840830565315M111.10504195973465 26.825907501635896M111.16467176372873 26.372974172706506M111.30542723076354 26.033160415213132M111.33949750311177 25.950907501635925M111.6176050926581 25.588470634559485M111.98004195973454 25.31036304501319M112.40210863080512 25.13553730563021M85.15481673196473 55.80387497376219M84.98906181829892 56.05084797074882M77.55067050871156 60.68124656096683M56.95328095047813 60.68124656096683M56.806240616648154 60.642312395031354M56.74210093335779 60.600653994732426M56.68813295661727 60.54646194019665M56.64674067229407 60.48215019876004M56.61976788614629 60.41058351590007M56.60841609210661 60.3349498060859M56.61319095212593 60.25861814817155M56.77894586579174 60.011645151184894M64.21733717537876 55.38124656096683M84.81472673361151 55.38124656096697M84.96176706744143 55.42018072690239M85.02590675073259 55.4618391272013M85.07987472747283 55.51603118173708M85.12126701179625 55.58034292317369M85.14823979794431 55.65190960603364M85.15959159198411 55.72754331584781M56.589310814822284 27.282150198759922M56.56233802867456 27.21058351589994M56.550986234635275 27.134949806085785M56.555761094655224 27.058618148171433M56.72151600831921 26.81164515118479M64.15990731790663 22.181246560966713M84.75729687613887 22.181246560966827M84.9043372099689 22.2201807269023M84.96847689326074 22.261839127201256M85.02244487000024 22.316031181737117M85.06383715432446 22.38034292317363M85.09080994047258 22.45190960603358M85.10216173451272 22.527543315847765M85.09738687449169 22.603874973762146M84.93163196082725 22.85084797074876M77.49324065123977 27.481246560966554M56.895851093007536 27.481246560966724M56.74881075917676 27.44231239503125M56.684671075886 27.400653994732295M56.63070309914616 27.34646194019652M58.148060066944026 71.98124656096675M58.295100400774686 72.02018072690215M58.35924008406539 72.06183912720108M58.41320806080529 72.11603118173686M58.45460034512956 72.18034292317347M58.48157313127791 72.25190960603341M58.49292492531623 72.32754331584749M58.48815006529668 72.40387497376199M58.322395151632634 72.65084797074861M50.88400384204556 77.2812465609668M37.55067050871165 77.28124656096679M37.55067050871165 71.98124656096664M40.864939906000615 28.063344368718504M40.58683231645401 27.70090750164215M40.49584577570269 27.4812465609659M40.4120065770704 27.278840830571653M40.35237677307677 26.825907501641893M40.412006577071 26.372974172712787M40.58683231645446 25.95090750164138M40.864939906000245 25.588470634565596M41.227376773077026 25.310363045019443M41.649443444147266 25.135537305635893M42.10237677307657 25.075907501642064M42.55531010200667 25.135537305636603M42.97737677307654 25.3103630450193M43.33981364015341 25.58847063456531M43.61792122969919 25.950907501642206M43.7927469690824 26.372974172713242M43.85237677307666 26.82590750164229M43.792746969082 27.278840830571284M43.70890777045159 27.48124656096644M43.617921229699505 27.700907501641808M43.33981364015341 28.063344368718305M42.97737677307694 28.341451958264912M42.555310102006416 28.516277697647723M42.10237677307657 28.57590750164215M41.649443444147636 28.51627769764835M41.2273767730768 28.34145195826511M37.86462866301841 68.70194850781155M37.7898846296045 68.68574200426609M37.72020670285468 68.65420935750159M37.65869866321549 68.60875517894962M37.60810036618341 68.55140421011988M37.55067050871173 68.25956150571324M37.55067050871162 63.681246560966855M44.81472673361111 63.68124656096681M44.961767067441514 63.720180726902285M45.02590675073296 63.76183912720117M45.07987472747172 63.81603118173696M45.12126701179665 63.880342923173586M45.14823979794431 63.95190960603354M45.1595915919838 64.02754331584767M45.15481673196339 64.10387497376209M44.98906181829943 64.35084797074872M38.147423726842845 68.60976768268077M37.941109354587354 68.70210695474076M43.28643455281281 101.91058351590007M43.27508275877261 101.83494980608589M43.279857618792704 101.7586181481715M43.44561253245783 101.51164515118487M50.88400384204522 96.88124656096679M71.4813934002782 96.8812465609669M71.62843373410828 96.92018072690226M71.69257341739865 96.96183912720122M71.74654139413917 97.01603118173699M71.78793367846231 97.08034292317363M71.81490646461117 97.15190960603357M71.82625825864977 97.22754331584774M71.8214833986305 97.30387497376212M71.65572848496544 97.55084797074875M64.21733717537876 102.18124656096677M43.61994761714456 102.18124656096674M43.47290728331569 102.14231239503135M43.40876760002422 102.10065399473241M43.35479962328475 102.04646194019665M43.31340733896016 101.98215019876002M44.757296876139094 30.48124656096664M44.90433720996981 30.52018072690214M44.968476893260515 30.56183912720107M45.022444870000015 30.616031181736872M45.06383715432423 30.680342923173498M45.09080994047335 30.75190960603345M45.10216173451204 30.827543315847606M45.09738687449172 30.90387497376196M44.93163196082776 31.15084797074863M38.0899938693704 35.409767682680595M37.883679497114855 35.50210695474057M37.80719880554739 35.50194850781148M37.73245477213342 35.48574200426599M37.662776845382865 35.4542093575015M37.60126880574302 35.408755178949534M37.55067050871173 35.351404210119796M37.4932406512406 35.059561505713035M37.49324065124026 30.48124656096664M71.635143559928 30.561839127200983M71.68911153666744 30.616031181736815M71.73050382099132 30.680342923173384M71.7574766071387 30.751909606033337M71.76882840117884 30.82754331584752M71.76405354115946 30.90387497376193M71.5982986274933 31.150847970748572M64.15990731790697 35.781246560966665M43.56251775967334 35.78124656096675M43.41547742584325 35.74231239503126M43.35133774255246 35.700653994732335M43.29736976581199 35.64646194019656M43.25597748148911 35.58215019875996M43.229004695341445 35.51058351589998M43.21765290130173 35.43494980608581M43.222427761320574 35.35861814817143M43.38818267498638 35.1116451511848M50.826573984573145 30.481246560966724M71.42396354280686 30.48124656096664M71.57100387663576 30.520180726902055M111.82625825865045 88.92754331584779M111.82148339863079 89.00387497376211M111.65572848496544 89.25084797074882M104.21733717537904 93.88124656096687M83.6199476171459 93.8812465609668M83.47290728331478 93.84231239503134M83.40876760002504 93.8006539947324M83.35479962328458 93.74646194019661M83.3134073389603 93.68215019876M83.2864345528119 93.61058351590006M83.27508275877193 93.53494980608589M83.27985761879324 93.45861814817151M83.44561253245763 93.21164515118492M90.8840038420447 88.58124656096678M111.48139340027751 88.58124656096693M111.62843373410931 88.62018072690238M111.69257341739899 88.66183912720123M111.74654139413838 88.71603118173701M111.7879336784631 88.7803429231736M111.81490646461003 88.85190960603356M117.16023166283651 88.86038616719284M117.23671235440435 88.86054461412208M117.31145638781902 88.87675111766751M117.38113431456964 88.9082837644318M117.44264235420803 88.95373794298384M117.49324065123858 89.01108891181357M117.55067050871327 89.3029316162204M117.55067050871361 93.88124656096687M110.28661428381201 93.88124656096669M110.13957394998204 93.84231239503119M110.07543426669093 93.80065399473229M110.02146628995189 93.74646194019658M109.98007400562653 93.68215019875989M109.95310121947949 93.61058351590003M109.94174942543839 93.5349498060857M109.94652428545862 93.45861814817137M110.11227919912483 93.21164515118484M116.95391729058167 88.95272543925263M96.56233802867536 52.110583515900174M96.55098623463482 52.03494980608593M96.55576109465477 51.95861814817161M96.72151600832063 51.711645151185024M104.15990731790765 47.08124656096689M117.49324065123909 47.08124656096685M117.49324065123858 52.38124656096683M96.89585109300629 52.3812465609669M96.7488107591767 52.342312395031456M96.6846710758856 52.3006539947325M96.63070309914576 52.24646194019678M96.58931081482228 52.1821501987601M96.60841609210536 68.63494980608597M96.61319095212616 68.55861814817162M96.77894586579117 68.31164515118498M104.2173371753787 63.68124656096688M117.55067050871298 63.68124656096684M117.55067050871293 68.98124656096681M96.9532809504787 68.98124656096685M96.80624061664872 68.94231239503144M96.74210093335688 68.90065399473248M96.68813295661744 68.8464619401967M96.64674067229356 68.78215019876009M96.61976788614584 68.71058351590017M71.57100387663615 47.120180726902305M71.63514355992805 47.16183912720125M71.68911153666738 47.216031181736994M71.73050382099137 47.280342923173606M71.75747660713864 47.35190960603357M71.76882840117878 47.42754331584774M71.76405354115917 47.50387497376212M71.5982986274933 47.75084797074875M64.15990731790663 52.38124656096679M43.5625177596736 52.38124656096677M43.41547742584319 52.34231239503137M43.35133774255209 52.30065399473237M43.29736976581188 52.24646194019667M43.25597748148911 52.182150198759985M43.229004695341416 52.11058351590009M43.217652901301705 52.03494980608585M43.22242776132063 51.95861814817145M43.38818267498675 51.71164515118491M50.826573984573486 47.081246560966804M71.42396354280686 47.081246560966875M58.48815006529662 55.803874973761964M58.32239515163292 56.050847970748634M50.88400384204556 60.68124656096683M37.55067050871125 60.68124656096687M37.55067050871165 55.381246560966744M58.14806006694397 55.381246560966716M58.29510040077474 55.42018072690223M58.35924008406545 55.461839127201074M58.41320806080529 55.51603118173685M58.454600345129165 55.58034292317346M58.48157313127797 55.65190960603341M58.49292492531663 55.72754331584761M70.08214409251036 52.34231239503137M70.01800440921954 52.300653994732386M69.9640364324801 52.24646194019667M69.9226441481552 52.18215019876003M69.89567136200742 52.11058351590009M69.88431956796813 52.03494980608589M69.88909442798882 51.95861814817151M70.05484934165241 51.71164515118491M77.49324065123972 47.08124656096682M98.09063020947355 47.08124656096689M98.2376705433029 47.12018072690233M98.30181022659366 47.161839127201276M98.35577820333378 47.21603118173708M98.39717048765806 47.28034292317366M98.42414327380618 47.351909606033615M98.4354950678449 47.427543315847814M98.43072020782517 47.503874973762194M98.26496529416113 47.750847970748794M90.82657398457377 52.381246560966886M70.22918442634068 52.38124656096679M84.96176706744211 88.62018072690226M85.02590675073287 88.66183912720119M85.07987472747271 88.71603118173697M85.12126701179614 88.78034292317356M85.14823979794431 88.85190960603356M85.15959159198405 88.92754331584771M85.15481673196444 89.0038749737621M84.98906181829892 89.25084797074878M77.5506705087115 93.88124656096672M56.95328095047802 93.88124656096674M56.80624061664838 93.84231239503134M56.742100933357335 93.80065399473239M56.688132956616755 93.74646194019664M56.64674067229396 93.68215019876001M56.61976788614629 93.61058351590006M56.608416092106495 93.53494980608589M56.613190952125365 93.45861814817151M56.778945865792025 93.21164515118492M64.21733717537836 88.58124656096678M84.81472673361145 88.58124656096679M111.42396354280646 38.781246560966935M111.57100387663706 38.820180726902436M111.63514355992771 38.86183912720135M111.6891115366671 38.91603118173714M111.7305038209899 38.980342923173765M111.75747660713978 39.05190960603365M111.76882840117815 39.1275433158478M111.76405354115923 39.203874973762225M111.59829862749416 39.45084797074885M104.15990731790765 44.0812465609669M83.56251775967309 44.08124656096692M83.41547742584373 44.04231239503146M83.35133774255229 44.00065399473252M83.29736976581177 43.94646194019677M83.25597748148931 43.882150198760115M83.2290046953405 43.81058351590018M83.21765290130043 43.73494980608598M83.22242776132043 43.6586181481716M83.38818267498658 43.41164515118504M90.82657398457371 38.781246560966935M117.10280180536557 39.06038616719289M117.17928249693341 39.06054461412198M117.25402653034718 39.076751117667555M117.32370445709756 39.1082837644319M117.38521249673886 39.15373794298388M117.43581079376838 39.21108891181366M117.49324065123875 39.50293161622038M117.4932406512387 44.081246560966875M110.22918442634102 44.08124656096672M110.08214409250996 44.04231239503132M110.0180044092196 44.00065399473232M109.96403643247976 43.946461940196585M109.92264414815662 43.88215019875993M109.89567136200714 43.81058351590006M109.88431956796916 43.734949806085794M109.88909442798831 43.65861814817144M110.05484934165236 43.41164515118486M116.89648743310966 39.15272543925268M110.11227919912454 76.61164515118476M116.95391729058173 72.35272543925268M117.16023166283696 72.2603861671928M117.23671235440469 72.26054461412208M117.31145638781862 72.27675111766757M117.3811343145693 72.30828376443186M117.44264235420837 72.35373794298391M117.49324065123903 72.41108891181365M117.55067050871338 72.70293161622033M117.55067050871321 77.28124656096686M110.28661428381173 77.28124656096668M110.13957394998243 77.2423123950313M110.07543426669099 77.20065399473225M110.02146628995189 77.1464619401965M109.98007400562653 77.08215019875986M109.95310121947949 77.01058351589988M109.94174942543873 76.93494980608575M109.94652428545919 76.85861814817136M83.22900469534108 27.21058351590011M83.2176529013006 27.1349498060859M83.2224277613206 27.05861814817152M83.3881826749867 26.811645151184933M90.82657398457366 22.181246560966855M111.42396354280697 22.181246560966798M111.57100387663695 22.220180726902413M111.63514355992766 22.261839127201256M111.68911153666744 22.316031181737003M111.73050382099024 22.380342923173657M111.75747660713972 22.45190960603361M111.76882840117804 22.527543315847794M111.76405354115911 22.603874973762146M111.59829862749444 22.85084797074876M104.15990731790731 27.481246560966838M83.56251775967314 27.481246560966838M83.4154774258435 27.442312395031337M83.3513377425524 27.400653994732437M83.29736976581194 27.34646194019669M83.25597748148948 27.282150198760036M43.40876760002422 85.50065399473235M43.35479962328472 85.4464619401967M43.31340733896013 85.38215019875999M43.28643455281275 85.31058351590009M43.2750827587727 85.23494980608584M43.279857618792306 85.15861814817148M43.44561253245777 84.91164515118494M50.884003842045615 80.28124656096685M71.4813934002782 80.28124656096685M71.62843373410828 80.32018072690225M71.69257341739905 80.36183912720129M71.74654139413894 80.41603118173705M71.78793367846271 80.48034292317364M71.81490646461077 80.55190960603362M71.82625825864983 80.62754331584769M71.8214833986305 80.70387497376217M71.65572848496544 80.9508479707488M64.21733717537865 85.5812465609667M43.61994761714496 85.5812465609667M43.47290728331569 85.54231239503129M41.735935871286216 95.84621542429124M42.18886920021569 95.78658562029743M42.64180252914534 95.84621542429161M43.06386920021512 96.02104116367457M43.42630606729173 96.29914875322066M43.70441365683823 96.66158562029726M43.79540019758744 96.88124656096667M43.879239396221294 97.08365229136774M43.938869200215606 97.53658562029787M43.879239396221436 97.98951894922645M43.73848392918637 98.32933270672027M43.704413656837914 98.4115856202974M43.42630606729165 98.77402248737383M43.06386920021586 99.05213007692001M42.64180252914471 99.2269558163031M42.188869200209325 99.2939678755082M41.735935871286216 99.22695581630282M41.31386920021552 99.05213007692026M40.95143233313897 98.77402248737371M40.67332474359324 98.41158562029702M40.49849900421003 97.98951894922652M40.438869200215464 97.53658562029722M40.49849900420972 97.0836522913682M40.582338202844085 96.88124656096653M40.67332474359324 96.66158562029688M40.951432333139024 96.29914875322123M41.31386920021552 96.02104116367435M96.58931081482189 35.58215019876006M96.56233802867536 35.51058351590008M96.55098623463476 35.434949806085925M96.55576109465443 35.35861814817153M96.7215160083203 35.111645151184916M104.15990731790765 30.481246560966866M117.4932406512383 30.481246560966724M117.49324065123903 35.781246560966736M96.89585109300594 35.78124656096679M96.74881075917676 35.74231239503138M96.68467107588594 35.70065399473242M96.63070309914542 35.646461940196644M58.355778203334296 38.91603118173694M58.397170487657775 38.98034292317347M58.4241432738055 39.051909606033405M58.435495067845295 39.127543315847575M58.430720207825914 39.203874973761955M58.264965294160845 39.4508479707486M50.82657398457309 44.08124656096685M37.493240651240654 44.081246560966875M37.493240651240285 38.78124656096672M58.090630209473375 38.78124656096672M58.23767054330301 38.82018072690221M58.3018102265944 38.86183912720104 " fill="none" stroke="#ff0000" stroke-width="0.26458332" data-transform="matrix(1,0,0,1,8.806262969970703,-8.806266784667969)"></path><path style="fill:none;stroke:#ff0000;stroke-width:0.26458332;" id="lzr_271_4" d="M4.999999881206577 169.99999999927968M149.99999988120675 169.99999999927968M149.99999988110346 91.00000000115203M152.99999988110346 91.0000000011785M152.999999881299 81.00000000114832M149.999999881299 81.00000000112182M149.9999998811909 2.000000000000256M4.999999881190831 2M5.000000000065654 81.00000000113562M2.000000000065654 81.00000000111592M2 91.00000000111594M5 91.00000000113565M37.60126880574256 52.008755178949656M37.55067050871173 51.95140421011983M37.493240651240285 51.659561505713185M37.49324065124026 47.08124656096682M44.75729687613904 47.081246560966804M44.90433720997015 47.12018072690229M44.968476893260515 47.161839127201134M45.02244486999993 47.216031181736994M45.063837154324204 47.28034292317352M45.09080994047301 47.35190960603347M45.10216173451204 47.42754331584766M45.09738687449166 47.503874973762024M44.93163196082767 47.75084797074865M38.08999386937006 52.00976768268073M37.8836794971148 52.10210695474069M37.80719880554699 52.101948507811514M37.73245477213388 52.08574200426614M37.66277684538284 52.05420935750162M69.9531012194787 68.71058351590008M69.94174942544049 68.63494980608591M69.9465242854597 68.5586181481715M70.11227919912443 68.3116451511849M77.55067050871162 63.68124656096681M98.14806006694471 63.681246560966926M98.29510040077434 63.72018072690234M98.35924008406545 63.76183912720131M98.41320806080483 63.81603118173706M98.45460034512985 63.88034292317367M98.48157313127717 63.951909606033624M98.4929249253172 64.02754331584775M98.48815006529765 64.10387497376216M98.32239515163218 64.3508479707488M90.88400384204431 68.98124656096688M70.2866142838119 68.98124656096678M70.13957394998164 68.94231239503137M70.07543426669122 68.90065399473241M70.02146628995098 68.84646194019663M69.98007400562756 68.78215019876002M56.778945865791684 76.61164515118487M64.21733717537876 71.98124656096675M84.81472673361219 71.98124656096685M84.96176706744149 72.02018072690232M85.02590675073299 72.06183912720118M85.07987472747271 72.11603118173697M85.12126701179614 72.18034292317357M85.14823979794431 72.25190960603351M85.15959159198366 72.32754331584769M85.15481673196444 72.4038749737621M84.98906181829898 72.6508479707487M77.55067050871162 77.2812465609668M56.95328095047813 77.2812465609668M56.806240616648495 77.24231239503133M56.742100933357335 77.20065399473239M56.688132956616926 77.14646194019662M56.64674067229407 77.08215019876M56.61976788614629 77.01058351590004M56.60841609210661 76.93494980608587M56.613190952125535 76.85861814817149M112.48860105794705 95.8462154242849M112.94153438687647 95.78658562029078M113.394467715806 95.8462154242849M113.81653438687647 96.02104116366797M114.17897125395297 96.29914875321431M114.45707884349929 96.66158562029077M114.54806538425089 96.88124656096682M114.63190458288233 97.08365229136135M114.69153438687647 97.53658562029071M114.63190458288227 97.9895189492201M114.45707884349929 98.41158562029071M114.17897125395297 98.77402248736712M113.81653438687653 99.05213007691344M113.394467715806 99.22695581629651M112.94153438687653 99.28658562029068M112.48860105794705 99.22695581629648M112.06653438687653 99.05213007691349M111.70409751979997 98.77402248736709M111.42598993025382 98.41158562029071M111.25116419087072 97.98951894922008M111.19153438687647 97.5365856202907M111.25116419087078 97.0836522913613M111.33500338950216 96.88124656096682M111.4259899302537 96.66158562029071M111.70409751979997 96.29914875321431M112.06653438687658 96.02104116366792M70.11227919912488 84.91164515118497M77.55067050871162 80.28124656096685M98.14806006694465 80.28124656096688M98.29510040077457 80.32018072690225M98.35924008406579 80.36183912720129M98.41320806080523 80.4160311817371M98.45460034513019 80.48034292317371M98.48157313127746 80.55190960603365M98.49292492531725 80.62754331584773M98.48815006529696 80.70387497376221M98.32239515163224 80.95084797074882M90.8840038420447 85.58124656096685M70.28661428381241 85.58124656096673M70.13957394998204 85.54231239503133M70.07543426669139 85.50065399473237M70.02146628995075 85.44646194019671M69.98007400562761 85.38215019876002M69.95310121947881 85.31058351590015M69.94174942544043 85.23494980608585M69.94652428545982 85.1586181481715M111.69257341739973 72.0618391272013M111.74654139413815 72.11603118173706M111.7879336784631 72.1803429231737M111.81490646461037 72.25190960603366M111.82625825865023 72.32754331584775M111.82148339863056 72.40387497376221M111.65572848496578 72.65084797074884M104.2173371753787 77.28124656096684M83.61994761714595 77.28124656096679M83.47290728331484 77.24231239503142M83.40876760002482 77.20065399473239M83.35479962328458 77.1464619401966M83.31340733896081 77.08215019875998M83.28643455281235 77.01058351590002M83.27508275877221 76.93494980608587M83.27985761879307 76.85861814817149M83.44561253245769 76.61164515118485M90.88400384204431 71.98124656096687M111.48139340027757 71.98124656096695M111.62843373410936 72.02018072690235M116.59687344620033 97.53658562029071M116.59687344620028 96.8812465609668M117.55067050871332 96.88124656096682M117.55067050871293 102.18124656096683M96.95328095047881 102.18124656096688M96.80624061664878 102.14231239503147M96.742100933357 102.10065399473248M96.68813295661789 102.04646194019666M96.64674067229294 101.98215019876007M96.61976788614555 101.91058351590009M96.60841609210507 101.83494980608596M96.61319095212616 101.75861814817154M96.77894586579157 101.51164515118487M104.21733717537865 96.8812465609668M109.2861953275526 96.8812465609668M109.28619532755255 97.5365856202907M109.4107479856325 98.48265698515084M109.77591790205634 99.36425514995267M110.35681935049251 100.12130065667473M111.11386485721448 100.7022021051107M111.99546302201628 101.06737202153492M112.94153438687647 101.19192467961466M113.88760575173671 101.06737202153488M114.7692039165384 100.70220210511076M115.52624942326042 100.12130065667478M116.10715087169655 99.36425514995267M116.4723207881205 98.48265698515084M56.89585109300697 44.08124656096683M56.74881075917676 44.042312395031416M56.68467107588589 44.000653994732446M56.63070309914605 43.946461940196684M56.58931081482223 43.88215019876006M56.56233802867456 43.810583515900134M56.550986234634706 43.73494980608595M56.55576109465483 43.658618148171556M56.7215160083191 43.41164515118493M64.15990731790663 38.78124656096682M84.75729687613904 38.78124656096695M84.90433720996901 38.82018072690235M84.96847689326086 38.86183912720131M85.02244487000024 38.9160311817371M85.06383715432412 38.980342923173666M85.09080994047224 39.05190960603363M85.10216173451266 39.1275433158478M85.09738687449163 39.20387497376218M84.93163196082725 39.45084797074881M77.49324065123972 44.08124656096683M96.61319095212656 85.15861814817161M96.77894586579168 84.91164515118497M104.2173371753787 80.28124656096688M117.55067050871293 80.28124656096692M117.55067050871293 85.58124656096675M96.95328095047842 85.58124656096692M96.80624061664918 85.54231239503133M96.742100933357 85.50065399473249M96.68813295661789 85.44646194019674M96.64674067229367 85.3821501987601M96.61976788614555 85.31058351590016M96.60841609210502 85.234949806086M98.29510040077417 96.92018072690226M98.35924008406573 96.96183912720122M98.41320806080523 97.01603118173699M98.45460034513019 97.08034292317362M98.48157313127751 97.1519096060336M98.4929249253172 97.22754331584774M98.48815006529765 97.30387497376212M98.32239515163172 97.55084797074872M90.88400384204436 102.18124656096685M70.28661428381201 102.18124656096685M70.13957394998204 102.14231239503135M70.07543426669133 102.10065399473243M70.02146628995075 102.04646194019666M69.98007400562716 101.98215019876005M69.95310121947836 101.91058351590009M69.94174942544049 101.83494980608592M69.94652428545982 101.75861814817154M70.11227919912488 101.51164515118492M77.55067050871122 96.8812465609668M98.14806006694431 96.8812465609668M98.2376705433029 30.520180726902282M98.3018102265936 30.56183912720121M98.35577820333384 30.616031181736986M98.39717048765777 30.680342923173583M98.42414327380652 30.751909606033564M98.43549506784484 30.827543315847663M98.43072020782449 30.9038749737621M98.26496529416085 31.150847970748714M90.82657398457371 35.78124656096679M70.22918442634108 35.78124656096669M70.08214409251036 35.74231239503129M70.01800440921988 35.700653994732335M69.9640364324801 35.64646194019659M69.9226441481552 35.58215019875996M69.89567136200782 35.51058351589998M69.88431956796774 35.43494980608581M69.88909442798808 35.35861814817143M70.05484934165241 35.1116451511848M77.49324065124017 30.481246560966582M98.09063020947366 30.481246560966866M109.98007400562665 60.48215019875997M109.9531012194796 60.41058351589996M109.94174942543799 60.33494980608583M109.94652428545908 60.25861814817145M110.11227919912454 60.01164515118484M116.95391729058139 55.7527254392527M117.16023166283657 55.66038616719284M117.23671235440474 55.660544614122045M117.31145638781896 55.67675111766759M117.3811343145693 55.70828376443188M117.44264235420832 55.75373794298392M117.49324065123903 55.8110889118137M117.55067050871293 56.10293161622036M117.55067050871304 60.68124656096688M110.28661428381173 60.68124656096673M110.13957394998238 60.64231239503131M110.07543426669099 60.600653994732326M110.02146628995149 60.54646194019654M45.07987472747209 80.41603118173694M45.121267011796675 80.48034292317358M45.14823979794437 80.5519096060335M45.1595915919838 80.62754331584762M45.15481673196342 80.70387497376208M44.98906181829912 80.95084797074868M38.147423726842874 85.20976768268073M37.94110935458724 85.30210695474068M37.864628663018436 85.30194850781143M37.78988462960456 85.28574200426603M37.72020670285454 85.25420935750154M37.65869866321512 85.20875517894957M37.60810036618301 85.15140421011975M37.55067050871165 84.85956150571316M37.55067050871165 80.2812465609668M44.81472673361077 80.28124656096684M44.961767067440746 80.32018072690222M45.025906750732986 80.36183912720116M83.40876760002482 60.60065399473258M83.35479962328469 60.54646194019681M83.31340733896013 60.482150198760166M83.28643455281235 60.410583515900214M83.27508275877227 60.33494980608606M83.27985761879364 60.25861814817168M83.44561253245769 60.011645151185036M90.88400384204482 55.3812465609669M111.48139340027757 55.381246560966986M111.62843373410925 55.4201807269024M111.69257341739905 55.461839127201344M111.74654139413815 55.51603118173716M111.78793367846265 55.58034292317376M111.81490646461043 55.65190960603368M111.82625825864983 55.72754331584781M111.82148339863045 55.803874973762234M111.65572848496521 56.05084797074886M104.2173371753787 60.68124656096691M83.61994761714595 60.68124656096688M83.4729072833153 60.642312395031496M43.04844813793653 23.295121100397864M42.10237677307737 23.170568442318114M41.15630540821641 23.29512110039795M40.27470724341532 23.660291016821844M39.51766173669253 24.241192465257825M38.93676028825692 24.998237971980586M38.571590371832514 25.879836136781478M38.44703771375299 26.825907501642007M38.44703771375322 27.48124656096553M37.493240651240285 27.481246560966696M37.493240651240285 22.181246560966628M58.09063020947332 22.181246560966628M58.237670543303295 22.220180726902186M58.3018102265944 22.261839127201057M58.35577820333452 22.316031181736804M58.39717048765766 22.38034292317346M58.42414327380544 22.45190960603341M58.4354950678449 22.527543315847566M58.43072020782637 22.603874973761975M58.264965294160845 22.85084797074856M50.826573984573486 27.481246560966696M45.75771583240049 27.4812465609661M45.75771583240072 26.825907501642348M45.63316317432049 25.879836136781677M45.267993257896876 24.99823797198013M44.687091809461094 24.24119246525808M43.93004630273913 23.6602910168223M58.32239515163286 89.25084797074858M50.88400384204522 93.8812465609668M37.550670508711704 93.88124656096669M37.55067050871162 88.58124656096656M58.14806006694437 88.58124656096668M58.295100400774686 88.62018072690219M58.35924008406545 88.66183912720102M58.41320806080529 88.71603118173678M58.454600345129165 88.78034292317341M58.48157313127757 88.85190960603336M58.49292492531697 88.92754331584753M58.488150065296566 89.00387497376191M43.44561253245777 68.31164515118486M50.884003842045615 63.68124656096681M71.48139340027791 63.68124656096688M71.62843373410828 63.7201807269023M71.69257341739899 63.76183912720124M71.74654139413957 63.81603118173703M71.7879336784631 63.88034292317363M71.81490646461111 63.95190960603358M71.82625825864983 64.02754331584771M71.82148339863056 64.10387497376216M71.65572848496544 64.35084797074876M64.21733717537904 68.98124656096682M43.6199476171447 68.98124656096678M43.472907283315294 68.94231239503134M43.40876760002422 68.90065399473241M43.35479962328449 68.84646194019663M43.31340733896022 68.78215019876M43.286434552812864 68.71058351590004M43.2750827587727 68.63494980608587M43.27985761879273 68.5586181481715M112.85504195974033 25.068525246425025M113.30797528866407 25.13553730563015M113.73004195973454 25.310363045013162M114.09247882681109 25.588470634559513M114.3705864163573 25.950907501635925M114.54541215574034 26.372974172706506M114.60504195973465 26.825907501635896M114.54541215574034 27.278840830565287M114.46157295710611 27.48124656096664M114.3705864163573 27.700907501635896M114.09247882681109 28.063344368712308M113.73004195973454 28.34145195825866M113.30797528866401 28.516277697641698M112.85504195973459 28.575907501635868M112.40210863080506 28.516277697641698M111.98004195973454 28.34145195825866M111.6176050926581 28.063344368712308M111.33949750311177 27.700907501635896M111.2485109623629 27.481246560966582M111.16467176372873 27.278840830565315M111.10504195973465 26.825907501635896M111.16467176372873 26.372974172706506M111.30542723076354 26.033160415213132M111.33949750311177 25.950907501635925M111.6176050926581 25.588470634559485M111.98004195973454 25.31036304501319M112.40210863080512 25.13553730563021M85.15481673196473 55.80387497376219M84.98906181829892 56.05084797074882M77.55067050871156 60.68124656096683M56.95328095047813 60.68124656096683M56.806240616648154 60.642312395031354M56.74210093335779 60.600653994732426M56.68813295661727 60.54646194019665M56.64674067229407 60.48215019876004M56.61976788614629 60.41058351590007M56.60841609210661 60.3349498060859M56.61319095212593 60.25861814817155M56.77894586579174 60.011645151184894M64.21733717537876 55.38124656096683M84.81472673361151 55.38124656096697M84.96176706744143 55.42018072690239M85.02590675073259 55.4618391272013M85.07987472747283 55.51603118173708M85.12126701179625 55.58034292317369M85.14823979794431 55.65190960603364M85.15959159198411 55.72754331584781M56.589310814822284 27.282150198759922M56.56233802867456 27.21058351589994M56.550986234635275 27.134949806085785M56.555761094655224 27.058618148171433M56.72151600831921 26.81164515118479M64.15990731790663 22.181246560966713M84.75729687613887 22.181246560966827M84.9043372099689 22.2201807269023M84.96847689326074 22.261839127201256M85.02244487000024 22.316031181737117M85.06383715432446 22.38034292317363M85.09080994047258 22.45190960603358M85.10216173451272 22.527543315847765M85.09738687449169 22.603874973762146M84.93163196082725 22.85084797074876M77.49324065123977 27.481246560966554M56.895851093007536 27.481246560966724M56.74881075917676 27.44231239503125M56.684671075886 27.400653994732295M56.63070309914616 27.34646194019652M58.148060066944026 71.98124656096675M58.295100400774686 72.02018072690215M58.35924008406539 72.06183912720108M58.41320806080529 72.11603118173686M58.45460034512956 72.18034292317347M58.48157313127791 72.25190960603341M58.49292492531623 72.32754331584749M58.48815006529668 72.40387497376199M58.322395151632634 72.65084797074861M50.88400384204556 77.2812465609668M37.55067050871165 77.28124656096679M37.55067050871165 71.98124656096664M40.864939906000615 28.063344368718504M40.58683231645401 27.70090750164215M40.49584577570269 27.4812465609659M40.4120065770704 27.278840830571653M40.35237677307677 26.825907501641893M40.412006577071 26.372974172712787M40.58683231645446 25.95090750164138M40.864939906000245 25.588470634565596M41.227376773077026 25.310363045019443M41.649443444147266 25.135537305635893M42.10237677307657 25.075907501642064M42.55531010200667 25.135537305636603M42.97737677307654 25.3103630450193M43.33981364015341 25.58847063456531M43.61792122969919 25.950907501642206M43.7927469690824 26.372974172713242M43.85237677307666 26.82590750164229M43.792746969082 27.278840830571284M43.70890777045159 27.48124656096644M43.617921229699505 27.700907501641808M43.33981364015341 28.063344368718305M42.97737677307694 28.341451958264912M42.555310102006416 28.516277697647723M42.10237677307657 28.57590750164215M41.649443444147636 28.51627769764835M41.2273767730768 28.34145195826511M37.86462866301841 68.70194850781155M37.7898846296045 68.68574200426609M37.72020670285468 68.65420935750159M37.65869866321549 68.60875517894962M37.60810036618341 68.55140421011988M37.55067050871173 68.25956150571324M37.55067050871162 63.681246560966855M44.81472673361111 63.68124656096681M44.961767067441514 63.720180726902285M45.02590675073296 63.76183912720117M45.07987472747172 63.81603118173696M45.12126701179665 63.880342923173586M45.14823979794431 63.95190960603354M45.1595915919838 64.02754331584767M45.15481673196339 64.10387497376209M44.98906181829943 64.35084797074872M38.147423726842845 68.60976768268077M37.941109354587354 68.70210695474076M43.28643455281281 101.91058351590007M43.27508275877261 101.83494980608589M43.279857618792704 101.7586181481715M43.44561253245783 101.51164515118487M50.88400384204522 96.88124656096679M71.4813934002782 96.8812465609669M71.62843373410828 96.92018072690226M71.69257341739865 96.96183912720122M71.74654139413917 97.01603118173699M71.78793367846231 97.08034292317363M71.81490646461117 97.15190960603357M71.82625825864977 97.22754331584774M71.8214833986305 97.30387497376212M71.65572848496544 97.55084797074875M64.21733717537876 102.18124656096677M43.61994761714456 102.18124656096674M43.47290728331569 102.14231239503135M43.40876760002422 102.10065399473241M43.35479962328475 102.04646194019665M43.31340733896016 101.98215019876002M44.757296876139094 30.48124656096664M44.90433720996981 30.52018072690214M44.968476893260515 30.56183912720107M45.022444870000015 30.616031181736872M45.06383715432423 30.680342923173498M45.09080994047335 30.75190960603345M45.10216173451204 30.827543315847606M45.09738687449172 30.90387497376196M44.93163196082776 31.15084797074863M38.0899938693704 35.409767682680595M37.883679497114855 35.50210695474057M37.80719880554739 35.50194850781148M37.73245477213342 35.48574200426599M37.662776845382865 35.4542093575015M37.60126880574302 35.408755178949534M37.55067050871173 35.351404210119796M37.4932406512406 35.059561505713035M37.49324065124026 30.48124656096664M71.635143559928 30.561839127200983M71.68911153666744 30.616031181736815M71.73050382099132 30.680342923173384M71.7574766071387 30.751909606033337M71.76882840117884 30.82754331584752M71.76405354115946 30.90387497376193M71.5982986274933 31.150847970748572M64.15990731790697 35.781246560966665M43.56251775967334 35.78124656096675M43.41547742584325 35.74231239503126M43.35133774255246 35.700653994732335M43.29736976581199 35.64646194019656M43.25597748148911 35.58215019875996M43.229004695341445 35.51058351589998M43.21765290130173 35.43494980608581M43.222427761320574 35.35861814817143M43.38818267498638 35.1116451511848M50.826573984573145 30.481246560966724M71.42396354280686 30.48124656096664M71.57100387663576 30.520180726902055M111.82625825865045 88.92754331584779M111.82148339863079 89.00387497376211M111.65572848496544 89.25084797074882M104.21733717537904 93.88124656096687M83.6199476171459 93.8812465609668M83.47290728331478 93.84231239503134M83.40876760002504 93.8006539947324M83.35479962328458 93.74646194019661M83.3134073389603 93.68215019876M83.2864345528119 93.61058351590006M83.27508275877193 93.53494980608589M83.27985761879324 93.45861814817151M83.44561253245763 93.21164515118492M90.8840038420447 88.58124656096678M111.48139340027751 88.58124656096693M111.62843373410931 88.62018072690238M111.69257341739899 88.66183912720123M111.74654139413838 88.71603118173701M111.7879336784631 88.7803429231736M111.81490646461003 88.85190960603356M117.16023166283651 88.86038616719284M117.23671235440435 88.86054461412208M117.31145638781902 88.87675111766751M117.38113431456964 88.9082837644318M117.44264235420803 88.95373794298384M117.49324065123858 89.01108891181357M117.55067050871327 89.3029316162204M117.55067050871361 93.88124656096687M110.28661428381201 93.88124656096669M110.13957394998204 93.84231239503119M110.07543426669093 93.80065399473229M110.02146628995189 93.74646194019658M109.98007400562653 93.68215019875989M109.95310121947949 93.61058351590003M109.94174942543839 93.5349498060857M109.94652428545862 93.45861814817137M110.11227919912483 93.21164515118484M116.95391729058167 88.95272543925263M96.56233802867536 52.110583515900174M96.55098623463482 52.03494980608593M96.55576109465477 51.95861814817161M96.72151600832063 51.711645151185024M104.15990731790765 47.08124656096689M117.49324065123909 47.08124656096685M117.49324065123858 52.38124656096683M96.89585109300629 52.3812465609669M96.7488107591767 52.342312395031456M96.6846710758856 52.3006539947325M96.63070309914576 52.24646194019678M96.58931081482228 52.1821501987601M96.60841609210536 68.63494980608597M96.61319095212616 68.55861814817162M96.77894586579117 68.31164515118498M104.2173371753787 63.68124656096688M117.55067050871298 63.68124656096684M117.55067050871293 68.98124656096681M96.9532809504787 68.98124656096685M96.80624061664872 68.94231239503144M96.74210093335688 68.90065399473248M96.68813295661744 68.8464619401967M96.64674067229356 68.78215019876009M96.61976788614584 68.71058351590017M71.57100387663615 47.120180726902305M71.63514355992805 47.16183912720125M71.68911153666738 47.216031181736994M71.73050382099137 47.280342923173606M71.75747660713864 47.35190960603357M71.76882840117878 47.42754331584774M71.76405354115917 47.50387497376212M71.5982986274933 47.75084797074875M64.15990731790663 52.38124656096679M43.5625177596736 52.38124656096677M43.41547742584319 52.34231239503137M43.35133774255209 52.30065399473237M43.29736976581188 52.24646194019667M43.25597748148911 52.182150198759985M43.229004695341416 52.11058351590009M43.217652901301705 52.03494980608585M43.22242776132063 51.95861814817145M43.38818267498675 51.71164515118491M50.826573984573486 47.081246560966804M71.42396354280686 47.081246560966875M58.48815006529662 55.803874973761964M58.32239515163292 56.050847970748634M50.88400384204556 60.68124656096683M37.55067050871125 60.68124656096687M37.55067050871165 55.381246560966744M58.14806006694397 55.381246560966716M58.29510040077474 55.42018072690223M58.35924008406545 55.461839127201074M58.41320806080529 55.51603118173685M58.454600345129165 55.58034292317346M58.48157313127797 55.65190960603341M58.49292492531663 55.72754331584761M70.08214409251036 52.34231239503137M70.01800440921954 52.300653994732386M69.9640364324801 52.24646194019667M69.9226441481552 52.18215019876003M69.89567136200742 52.11058351590009M69.88431956796813 52.03494980608589M69.88909442798882 51.95861814817151M70.05484934165241 51.71164515118491M77.49324065123972 47.08124656096682M98.09063020947355 47.08124656096689M98.2376705433029 47.12018072690233M98.30181022659366 47.161839127201276M98.35577820333378 47.21603118173708M98.39717048765806 47.28034292317366M98.42414327380618 47.351909606033615M98.4354950678449 47.427543315847814M98.43072020782517 47.503874973762194M98.26496529416113 47.750847970748794M90.82657398457377 52.381246560966886M70.22918442634068 52.38124656096679M84.96176706744211 88.62018072690226M85.02590675073287 88.66183912720119M85.07987472747271 88.71603118173697M85.12126701179614 88.78034292317356M85.14823979794431 88.85190960603356M85.15959159198405 88.92754331584771M85.15481673196444 89.0038749737621M84.98906181829892 89.25084797074878M77.5506705087115 93.88124656096672M56.95328095047802 93.88124656096674M56.80624061664838 93.84231239503134M56.742100933357335 93.80065399473239M56.688132956616755 93.74646194019664M56.64674067229396 93.68215019876001M56.61976788614629 93.61058351590006M56.608416092106495 93.53494980608589M56.613190952125365 93.45861814817151M56.778945865792025 93.21164515118492M64.21733717537836 88.58124656096678M84.81472673361145 88.58124656096679M111.42396354280646 38.781246560966935M111.57100387663706 38.820180726902436M111.63514355992771 38.86183912720135M111.6891115366671 38.91603118173714M111.7305038209899 38.980342923173765M111.75747660713978 39.05190960603365M111.76882840117815 39.1275433158478M111.76405354115923 39.203874973762225M111.59829862749416 39.45084797074885M104.15990731790765 44.0812465609669M83.56251775967309 44.08124656096692M83.41547742584373 44.04231239503146M83.35133774255229 44.00065399473252M83.29736976581177 43.94646194019677M83.25597748148931 43.882150198760115M83.2290046953405 43.81058351590018M83.21765290130043 43.73494980608598M83.22242776132043 43.6586181481716M83.38818267498658 43.41164515118504M90.82657398457371 38.781246560966935M117.10280180536557 39.06038616719289M117.17928249693341 39.06054461412198M117.25402653034718 39.076751117667555M117.32370445709756 39.1082837644319M117.38521249673886 39.15373794298388M117.43581079376838 39.21108891181366M117.49324065123875 39.50293161622038M117.4932406512387 44.081246560966875M110.22918442634102 44.08124656096672M110.08214409250996 44.04231239503132M110.0180044092196 44.00065399473232M109.96403643247976 43.946461940196585M109.92264414815662 43.88215019875993M109.89567136200714 43.81058351590006M109.88431956796916 43.734949806085794M109.88909442798831 43.65861814817144M110.05484934165236 43.41164515118486M116.89648743310966 39.15272543925268M110.11227919912454 76.61164515118476M116.95391729058173 72.35272543925268M117.16023166283696 72.2603861671928M117.23671235440469 72.26054461412208M117.31145638781862 72.27675111766757M117.3811343145693 72.30828376443186M117.44264235420837 72.35373794298391M117.49324065123903 72.41108891181365M117.55067050871338 72.70293161622033M117.55067050871321 77.28124656096686M110.28661428381173 77.28124656096668M110.13957394998243 77.2423123950313M110.07543426669099 77.20065399473225M110.02146628995189 77.1464619401965M109.98007400562653 77.08215019875986M109.95310121947949 77.01058351589988M109.94174942543873 76.93494980608575M109.94652428545919 76.85861814817136M83.22900469534108 27.21058351590011M83.2176529013006 27.1349498060859M83.2224277613206 27.05861814817152M83.3881826749867 26.811645151184933M90.82657398457366 22.181246560966855M111.42396354280697 22.181246560966798M111.57100387663695 22.220180726902413M111.63514355992766 22.261839127201256M111.68911153666744 22.316031181737003M111.73050382099024 22.380342923173657M111.75747660713972 22.45190960603361M111.76882840117804 22.527543315847794M111.76405354115911 22.603874973762146M111.59829862749444 22.85084797074876M104.15990731790731 27.481246560966838M83.56251775967314 27.481246560966838M83.4154774258435 27.442312395031337M83.3513377425524 27.400653994732437M83.29736976581194 27.34646194019669M83.25597748148948 27.282150198760036M43.40876760002422 85.50065399473235M43.35479962328472 85.4464619401967M43.31340733896013 85.38215019875999M43.28643455281275 85.31058351590009M43.2750827587727 85.23494980608584M43.279857618792306 85.15861814817148M43.44561253245777 84.91164515118494M50.884003842045615 80.28124656096685M71.4813934002782 80.28124656096685M71.62843373410828 80.32018072690225M71.69257341739905 80.36183912720129M71.74654139413894 80.41603118173705M71.78793367846271 80.48034292317364M71.81490646461077 80.55190960603362M71.82625825864983 80.62754331584769M71.8214833986305 80.70387497376217M71.65572848496544 80.9508479707488M64.21733717537865 85.5812465609667M43.61994761714496 85.5812465609667M43.47290728331569 85.54231239503129M41.735935871286216 95.84621542429124M42.18886920021569 95.78658562029743M42.64180252914534 95.84621542429161M43.06386920021512 96.02104116367457M43.42630606729173 96.29914875322066M43.70441365683823 96.66158562029726M43.79540019758744 96.88124656096667M43.879239396221294 97.08365229136774M43.938869200215606 97.53658562029787M43.879239396221436 97.98951894922645M43.73848392918637 98.32933270672027M43.704413656837914 98.4115856202974M43.42630606729165 98.77402248737383M43.06386920021586 99.05213007692001M42.64180252914471 99.2269558163031M42.188869200209325 99.2939678755082M41.735935871286216 99.22695581630282M41.31386920021552 99.05213007692026M40.95143233313897 98.77402248737371M40.67332474359324 98.41158562029702M40.49849900421003 97.98951894922652M40.438869200215464 97.53658562029722M40.49849900420972 97.0836522913682M40.582338202844085 96.88124656096653M40.67332474359324 96.66158562029688M40.951432333139024 96.29914875322123M41.31386920021552 96.02104116367435M96.58931081482189 35.58215019876006M96.56233802867536 35.51058351590008M96.55098623463476 35.434949806085925M96.55576109465443 35.35861814817153M96.7215160083203 35.111645151184916M104.15990731790765 30.481246560966866M117.4932406512383 30.481246560966724M117.49324065123903 35.781246560966736M96.89585109300594 35.78124656096679M96.74881075917676 35.74231239503138M96.68467107588594 35.70065399473242M96.63070309914542 35.646461940196644M58.355778203334296 38.91603118173694M58.397170487657775 38.98034292317347M58.4241432738055 39.051909606033405M58.435495067845295 39.127543315847575M58.430720207825914 39.203874973761955M58.264965294160845 39.4508479707486M50.82657398457309 44.08124656096685M37.493240651240654 44.081246560966875M37.493240651240285 38.78124656096672M58.090630209473375 38.78124656096672M58.23767054330301 38.82018072690221M58.3018102265944 38.86183912720104 " fill="none" stroke="#ff0000" stroke-width="0.26458332" data-transform="matrix(1,0,0,1,8.806262969970703,-8.806266784667969)"></path><defs id="lzr_271_0" x="-8" y="-8" fill="none" stroke="#ff0000" stroke-width="0.26458332" data-transform="matrix(1,0,0,1,8.806262969970703,-8.806266784667969)"></defs></g></svg>