solid case-v5
facet normal 2.1198705078886215e-16 0.7071067811864907 0.7071067811866043
  outer loop
    vertex 144.99999999999991 500.61481517545553 11.879393923933899
    vertex -6.767919558114953e-14 506.27166942494887 6.222539674441928
    vertex -6.767919558114953e-14 500.61481517545553 11.87939392393407
  endloop
endfacet
facet normal 2.1198705078886215e-16 0.7071067811864907 0.7071067811866043
  outer loop
    vertex -6.767919558114953e-14 506.27166942494887 6.222539674441928
    vertex 144.99999999999991 500.61481517545553 11.879393923933899
    vertex 144.99999999999991 506.27166942494887 6.222539674441601
  endloop
endfacet
facet normal -8.057047092994e-17 9.725553695716371e-14 -1.0
  outer loop
    vertex -6.767919558114953e-14 505.7059839999999 4.779843187918687e-13
    vertex 144.99999999999991 517.0196924989843 1.018007900199791e-12
    vertex 144.99999999999991 505.7059839999998 -1.4099832412739488e-13
  endloop
endfacet
facet normal -8.057047092994e-17 9.725553695716371e-14 -1.0
  outer loop
    vertex 144.99999999999991 517.0196924989843 1.018007900199791e-12
    vertex -6.767919558114953e-14 505.7059839999999 4.779843187918687e-13
    vertex -6.767919558114953e-14 517.0196924989843 1.0955569784698582e-12
  endloop
endfacet
facet normal 6.263253773303949e-17 -0.7071067811865874 0.7071067811865076
  outer loop
    vertex -6.767919558114953e-14 522.1108613235269 11.879393923935645
    vertex 144.99999999999991 516.4540070740351 6.222539674442814
    vertex 144.99999999999991 522.1108613235266 11.879393923935284
  endloop
endfacet
facet normal 6.263253773303949e-17 -0.7071067811865874 0.7071067811865076
  outer loop
    vertex 144.99999999999991 516.4540070740351 6.222539674442814
    vertex -6.767919558114953e-14 522.1108613235269 11.879393923935645
    vertex -6.767919558114953e-14 516.4540070740351 6.222539674443016
  endloop
endfacet
facet normal -3.0613776872606624e-17 0.8729434821372881 -0.4878213576649
  outer loop
    vertex -6.767919558114953e-14 517.0196924989843 1.0955569784698582e-12
    vertex 144.99999999999986 523.1034791446643 10.886776102798047
    vertex 144.99999999999991 517.0196924989843 1.018007900199791e-12
  endloop
endfacet
facet normal -3.0613776872606624e-17 0.8729434821372881 -0.4878213576649
  outer loop
    vertex 144.99999999999986 523.1034791446643 10.886776102798047
    vertex -6.767919558114953e-14 517.0196924989843 1.0955569784698582e-12
    vertex -6.767919558114953e-14 523.1034791446643 10.88677610279825
  endloop
endfacet
facet normal 9.724022353613456e-17 -6.106226635438361e-14 1.0
  outer loop
    vertex 144.99999999999983 517.0853779239328 12.020815280172917
    vertex -6.767919558114953e-14 505.64029857504886 12.020815280172235
    vertex 144.9999999999998 505.64029857504886 12.020815280172224
  endloop
endfacet
facet normal 9.724022353613456e-17 -6.106226635438361e-14 1.0
  outer loop
    vertex -6.767919558114953e-14 505.64029857504886 12.020815280172235
    vertex 144.99999999999983 517.0853779239328 12.020815280172917
    vertex -6.767919558114953e-14 517.0853779239328 12.020815280172929
  endloop
endfacet
facet normal 1.0 -4.2705013817714093e-16 6.118416517025836e-15
  outer loop
    vertex 144.99999999999991 505.7059839999998 -1.4099832412739488e-13
    vertex 144.99999999999991 509.6589973791168 2.8452894595764033
    vertex 144.99999999999986 499.62219735431864 10.886776102796855
  endloop
endfacet
facet normal 1.0 -4.2705013817714093e-16 6.118416517025836e-15
  outer loop
    vertex 144.99999999999991 509.6589973791168 2.8452894595764033
    vertex 144.99999999999991 505.7059839999998 -1.4099832412739488e-13
    vertex 144.99999999999991 510.1545218025056 2.4618966753781724
  endloop
endfacet
facet normal 1.0 -4.2705013817714093e-16 6.118416517025836e-15
  outer loop
    vertex 144.99999999999991 510.1545218025056 2.4618966753781724
    vertex 144.99999999999991 505.7059839999998 -1.4099832412739488e-13
    vertex 144.99999999999991 510.7323909949193 2.2198188415948725
  endloop
endfacet
facet normal 1.0 -4.2705013817714093e-16 6.118416517025836e-15
  outer loop
    vertex 144.99999999999991 510.7323909949193 2.2198188415948725
    vertex 144.99999999999991 505.7059839999998 -1.4099832412739488e-13
    vertex 144.99999999999991 517.0196924989843 1.018007900199791e-12
  endloop
endfacet
facet normal 1.0 -4.2705013817714093e-16 6.118416517025836e-15
  outer loop
    vertex 144.99999999999986 499.62219735431864 10.886776102796855
    vertex 144.99999999999991 509.6589973791168 2.8452894595764033
    vertex 144.99999999999991 506.27166942494887 6.222539674441601
  endloop
endfacet
facet normal 1.0 -4.2705013817714093e-16 6.118416517025836e-15
  outer loop
    vertex 144.99999999999986 499.62219735431864 10.886776102796855
    vertex 144.99999999999991 506.27166942494887 6.222539674441601
    vertex 144.99999999999991 500.61481517545553 11.879393923933899
  endloop
endfacet
facet normal 1.0 -4.2705013817714093e-16 6.118416517025836e-15
  outer loop
    vertex 144.99999999999991 510.7323909949193 2.2198188415948725
    vertex 144.99999999999991 517.0196924989843 1.018007900199791e-12
    vertex 144.99999999999991 511.3532241258686 2.1355531625461124
  endloop
endfacet
facet normal 1.0 -4.2705013817714093e-16 6.118416517025836e-15
  outer loop
    vertex 144.99999999999991 511.3532241258686 2.1355531625461124
    vertex 144.99999999999991 517.0196924989843 1.018007900199791e-12
    vertex 144.99999999999991 511.9747124434546 2.2148422050034564
  endloop
endfacet
facet normal 1.0 -4.2705013817714093e-16 6.118416517025836e-15
  outer loop
    vertex 144.99999999999991 511.9747124434546 2.2148422050034564
    vertex 144.99999999999991 517.0196924989843 1.018007900199791e-12
    vertex 144.99999999999991 512.5545025458923 2.4522825517548625
  endloop
endfacet
facet normal 1.0 -4.2705013817714093e-16 6.118416517025836e-15
  outer loop
    vertex 144.99999999999991 512.5545025458923 2.4522825517548625
    vertex 144.99999999999991 517.0196924989843 1.018007900199791e-12
    vertex 144.99999999999991 513.0530826958486 2.831693035557709
  endloop
endfacet
facet normal 1.0 -4.2705013817714093e-16 6.118416517025836e-15
  outer loop
    vertex 144.99999999999991 513.0530826958486 2.831693035557709
    vertex 144.99999999999991 517.0196924989843 1.018007900199791e-12
    vertex 144.99999999999991 513.4364754800466 3.3272174589464836
  endloop
endfacet
facet normal 1.0 -4.2705013817714093e-16 6.118416517025836e-15
  outer loop
    vertex 144.99999999999991 513.4364754800466 3.3272174589464836
    vertex 144.99999999999991 517.0196924989843 1.018007900199791e-12
    vertex 144.99999999999991 513.67855331383 3.905086651360071
  endloop
endfacet
facet normal 1.0 -4.2705013817714093e-16 6.118416517025836e-15
  outer loop
    vertex 144.99999999999991 513.67855331383 3.905086651360071
    vertex 144.99999999999991 517.0196924989843 1.018007900199791e-12
    vertex 144.99999999999986 523.1034791446643 10.886776102798047
  endloop
endfacet
facet normal 1.0 -4.2705013817714093e-16 6.118416517025836e-15
  outer loop
    vertex 144.99999999999991 513.67855331383 3.905086651360071
    vertex 144.99999999999986 523.1034791446643 10.886776102798047
    vertex 144.99999999999991 516.4540070740351 6.222539674442814
  endloop
endfacet
facet normal 1.0 -4.2705013817714093e-16 6.118416517025836e-15
  outer loop
    vertex 144.99999999999991 513.67855331383 3.905086651360071
    vertex 144.99999999999991 516.4540070740351 6.222539674442814
    vertex 144.99999999999991 513.7628189928787 4.525919782309483
  endloop
endfacet
facet normal 1.0 -4.2705013817714093e-16 6.118416517025836e-15
  outer loop
    vertex 144.99999999999991 513.7628189928787 4.525919782309483
    vertex 144.99999999999991 516.4540070740351 6.222539674442814
    vertex 144.99999999999991 513.683529950421 5.147408099895623
  endloop
endfacet
facet normal 1.0 -4.2705013817714093e-16 6.118416517025836e-15
  outer loop
    vertex 144.99999999999991 513.683529950421 5.147408099895623
    vertex 144.99999999999991 516.4540070740351 6.222539674442814
    vertex 144.99999999999991 513.44608960367 5.727198202333158
  endloop
endfacet
facet normal 1.0 -4.2705013817714093e-16 6.118416517025836e-15
  outer loop
    vertex 144.99999999999991 513.44608960367 5.727198202333158
    vertex 144.99999999999991 516.4540070740351 6.222539674442814
    vertex 144.99999999999991 513.066679119867 6.225778352289432
  endloop
endfacet
facet normal 1.0 -4.2705013817714093e-16 6.118416517025836e-15
  outer loop
    vertex 144.99999999999991 516.4540070740351 6.222539674442814
    vertex 144.99999999999986 523.1034791446643 10.886776102798047
    vertex 144.99999999999991 522.1108613235266 11.879393923935284
  endloop
endfacet
facet normal 1.0 -4.2705013817714093e-16 6.118416517025836e-15
  outer loop
    vertex 144.99999999999991 506.27166942494887 6.222539674441601
    vertex 144.99999999999991 508.96285750610525 4.545148029556195
    vertex 144.99999999999986 508.6051218028637 8.555992052357333
  endloop
endfacet
facet normal 1.0 -4.2705013817714093e-16 6.118416517025836e-15
  outer loop
    vertex 144.99999999999991 508.96285750610525 4.545148029556195
    vertex 144.99999999999991 506.27166942494887 6.222539674441601
    vertex 144.99999999999991 509.04214654856264 3.923659711970148
  endloop
endfacet
facet normal 1.0 -4.2705013817714093e-16 6.118416517025836e-15
  outer loop
    vertex 144.99999999999991 509.04214654856264 3.923659711970148
    vertex 144.99999999999991 506.27166942494887 6.222539674441601
    vertex 144.99999999999991 509.2795868953137 3.343869609532613
  endloop
endfacet
facet normal 1.0 -4.2705013817714093e-16 6.118416517025836e-15
  outer loop
    vertex 144.99999999999991 509.2795868953137 3.343869609532613
    vertex 144.99999999999991 506.27166942494887 6.222539674441601
    vertex 144.99999999999991 509.6589973791168 2.8452894595764033
  endloop
endfacet
facet normal 1.0 -4.2705013817714093e-16 6.118416517025836e-15
  outer loop
    vertex 144.99999999999986 508.6051218028637 8.555992052357333
    vertex 144.99999999999991 508.96285750610525 4.545148029556195
    vertex 144.99999999999991 509.04712318515396 5.165981160505768
  endloop
endfacet
facet normal 1.0 -4.2705013817714093e-16 6.118416517025836e-15
  outer loop
    vertex 144.99999999999986 508.6051218028637 8.555992052357333
    vertex 144.99999999999991 509.04712318515396 5.165981160505768
    vertex 144.99999999999991 509.2892010189372 5.743850352919324
  endloop
endfacet
facet normal 1.0 -4.2705013817714093e-16 6.118416517025836e-15
  outer loop
    vertex 144.99999999999986 508.6051218028637 8.555992052357333
    vertex 144.99999999999991 509.2892010189372 5.743850352919324
    vertex 144.99999999999991 509.67259380313527 6.239374776308
  endloop
endfacet
facet normal 1.0 -4.2705013817714093e-16 6.118416517025836e-15
  outer loop
    vertex 144.99999999999986 508.6051218028637 8.555992052357333
    vertex 144.99999999999991 509.67259380313527 6.239374776308
    vertex 144.99999999999991 510.1711739530915 6.618785260110813
  endloop
endfacet
facet normal 1.0 -4.2705013817714093e-16 6.118416517025836e-15
  outer loop
    vertex 144.99999999999986 508.6051218028637 8.555992052357333
    vertex 144.99999999999991 510.1711739530915 6.618785260110813
    vertex 144.99999999999991 510.7509640555291 6.856225606862314
  endloop
endfacet
facet normal 1.0 -4.2705013817714093e-16 6.118416517025836e-15
  outer loop
    vertex 144.99999999999986 508.6051218028637 8.555992052357333
    vertex 144.99999999999991 510.7509640555291 6.856225606862314
    vertex 144.9999999999998 505.64029857504886 11.520815280172162
  endloop
endfacet
facet normal 1.0 -4.2705013817714093e-16 6.118416517025836e-15
  outer loop
    vertex 144.9999999999998 505.64029857504886 11.520815280172162
    vertex 144.99999999999991 510.7509640555291 6.856225606862314
    vertex 144.9999999999998 505.64029857504886 12.020815280172224
  endloop
endfacet
facet normal 1.0 -4.2705013817714093e-16 6.118416517025836e-15
  outer loop
    vertex 144.9999999999998 505.64029857504886 12.020815280172224
    vertex 144.99999999999991 510.7509640555291 6.856225606862314
    vertex 144.99999999999991 511.37245237311544 6.935514649319563
  endloop
endfacet
facet normal 1.0 -4.2705013817714093e-16 6.118416517025836e-15
  outer loop
    vertex 144.9999999999998 505.64029857504886 12.020815280172224
    vertex 144.99999999999991 511.37245237311544 6.935514649319563
    vertex 144.99999999999983 517.0853779239328 12.020815280172917
  endloop
endfacet
facet normal 1.0 -4.2705013817714093e-16 6.118416517025836e-15
  outer loop
    vertex 144.99999999999983 517.0853779239328 12.020815280172917
    vertex 144.99999999999991 511.37245237311544 6.935514649319563
    vertex 144.99999999999991 511.99328550406454 6.8512489702708335
  endloop
endfacet
facet normal 1.0 -4.2705013817714093e-16 6.118416517025836e-15
  outer loop
    vertex 144.99999999999983 517.0853779239328 12.020815280172917
    vertex 144.99999999999991 511.99328550406454 6.8512489702708335
    vertex 144.99999999999986 514.1205546961196 8.555992052358446
  endloop
endfacet
facet normal 1.0 -4.2705013817714093e-16 6.118416517025836e-15
  outer loop
    vertex 144.99999999999986 514.1205546961196 8.555992052358446
    vertex 144.99999999999991 511.99328550406454 6.8512489702708335
    vertex 144.99999999999991 512.5711546964784 6.609171136487573
  endloop
endfacet
facet normal 1.0 -4.2705013817714093e-16 6.118416517025836e-15
  outer loop
    vertex 144.99999999999986 514.1205546961196 8.555992052358446
    vertex 144.99999999999991 512.5711546964784 6.609171136487573
    vertex 144.99999999999991 513.066679119867 6.225778352289432
  endloop
endfacet
facet normal 1.0 -4.2705013817714093e-16 6.118416517025836e-15
  outer loop
    vertex 144.99999999999986 514.1205546961196 8.555992052358446
    vertex 144.99999999999991 513.066679119867 6.225778352289432
    vertex 144.99999999999991 516.4540070740351 6.222539674442814
  endloop
endfacet
facet normal 1.0 -4.2705013817714093e-16 6.118416517025836e-15
  outer loop
    vertex 144.99999999999983 517.0853779239328 12.020815280172917
    vertex 144.99999999999986 514.1205546961196 8.555992052358446
    vertex 144.99999999999983 517.0853779239328 11.520815280172853
  endloop
endfacet
facet normal 1.0 -2.1570415377137053e-32 -2.465190328815662e-32
  outer loop
    vertex 124.99999999999993 510.1545218025056 2.4618966753781737
    vertex 124.99999999999993 509.2795868953138 3.3438696095328035
    vertex 124.99999999999993 509.6589973791168 2.845289459576278
  endloop
endfacet
facet normal 1.0 -2.1570415377137053e-32 -2.465190328815662e-32
  outer loop
    vertex 124.99999999999993 509.2795868953138 3.3438696095328035
    vertex 124.99999999999993 510.1545218025056 2.4618966753781737
    vertex 124.99999999999993 510.7323909949193 2.219818841594874
  endloop
endfacet
facet normal 1.0 -2.1570415377137053e-32 -2.465190328815662e-32
  outer loop
    vertex 124.99999999999993 509.2795868953138 3.3438696095328035
    vertex 124.99999999999993 510.7323909949193 2.219818841594874
    vertex 124.99999999999993 509.04214654856264 3.9236597119701493
  endloop
endfacet
facet normal 1.0 -2.1570415377137053e-32 -2.465190328815662e-32
  outer loop
    vertex 124.99999999999993 509.04214654856264 3.9236597119701493
    vertex 124.99999999999993 510.7323909949193 2.219818841594874
    vertex 124.99999999999993 511.3532241258686 2.1355531625461137
  endloop
endfacet
facet normal 1.0 -2.1570415377137053e-32 -2.465190328815662e-32
  outer loop
    vertex 124.99999999999993 509.04214654856264 3.9236597119701493
    vertex 124.99999999999993 511.3532241258686 2.1355531625461137
    vertex 124.99999999999993 508.96285750610525 4.545148029556197
  endloop
endfacet
facet normal 1.0 -2.1570415377137053e-32 -2.465190328815662e-32
  outer loop
    vertex 124.99999999999993 508.96285750610525 4.545148029556197
    vertex 124.99999999999993 511.3532241258686 2.1355531625461137
    vertex 124.99999999999993 511.9747124434546 2.2148422050034577
  endloop
endfacet
facet normal 1.0 -2.1570415377137053e-32 -2.465190328815662e-32
  outer loop
    vertex 124.99999999999993 508.96285750610525 4.545148029556197
    vertex 124.99999999999993 511.9747124434546 2.2148422050034577
    vertex 124.99999999999993 509.04712318515396 5.165981160505706
  endloop
endfacet
facet normal 1.0 -2.1570415377137053e-32 -2.465190328815662e-32
  outer loop
    vertex 124.99999999999993 509.04712318515396 5.165981160505706
    vertex 124.99999999999993 511.9747124434546 2.2148422050034577
    vertex 124.99999999999993 512.5545025458923 2.4522825517548643
  endloop
endfacet
facet normal 1.0 -2.1570415377137053e-32 -2.465190328815662e-32
  outer loop
    vertex 124.99999999999993 509.04712318515396 5.165981160505706
    vertex 124.99999999999993 512.5545025458923 2.4522825517548643
    vertex 124.99999999999993 509.2892010189372 5.743850352919327
  endloop
endfacet
facet normal 1.0 -2.1570415377137053e-32 -2.465190328815662e-32
  outer loop
    vertex 124.99999999999993 509.2892010189372 5.743850352919327
    vertex 124.99999999999993 512.5545025458923 2.4522825517548643
    vertex 124.99999999999993 513.0530826958486 2.831693035557741
  endloop
endfacet
facet normal 1.0 -2.1570415377137053e-32 -2.465190328815662e-32
  outer loop
    vertex 124.99999999999993 509.2892010189372 5.743850352919327
    vertex 124.99999999999993 513.0530826958486 2.831693035557741
    vertex 124.99999999999993 509.6725938031351 6.239374776308037
  endloop
endfacet
facet normal 1.0 -2.1570415377137053e-32 -2.465190328815662e-32
  outer loop
    vertex 124.99999999999993 509.6725938031351 6.239374776308037
    vertex 124.99999999999993 513.0530826958486 2.831693035557741
    vertex 124.99999999999993 513.4364754800466 3.327217458946485
  endloop
endfacet
facet normal 1.0 -2.1570415377137053e-32 -2.465190328815662e-32
  outer loop
    vertex 124.99999999999993 509.6725938031351 6.239374776308037
    vertex 124.99999999999993 513.4364754800466 3.327217458946485
    vertex 124.99999999999993 510.1711739530915 6.6187852601108155
  endloop
endfacet
facet normal 1.0 -2.1570415377137053e-32 -2.465190328815662e-32
  outer loop
    vertex 124.99999999999993 510.1711739530915 6.6187852601108155
    vertex 124.99999999999993 513.4364754800466 3.327217458946485
    vertex 124.99999999999993 513.67855331383 3.9050866513600724
  endloop
endfacet
facet normal 1.0 -2.1570415377137053e-32 -2.465190328815662e-32
  outer loop
    vertex 124.99999999999993 510.1711739530915 6.6187852601108155
    vertex 124.99999999999993 513.67855331383 3.9050866513600724
    vertex 124.99999999999993 510.7509640555291 6.856225606862318
  endloop
endfacet
facet normal 1.0 -2.1570415377137053e-32 -2.465190328815662e-32
  outer loop
    vertex 124.99999999999993 510.7509640555291 6.856225606862318
    vertex 124.99999999999993 513.67855331383 3.9050866513600724
    vertex 124.99999999999993 513.7628189928787 4.525919782309484
  endloop
endfacet
facet normal 1.0 -2.1570415377137053e-32 -2.465190328815662e-32
  outer loop
    vertex 124.99999999999993 510.7509640555291 6.856225606862318
    vertex 124.99999999999993 513.7628189928787 4.525919782309484
    vertex 124.99999999999993 511.37245237311544 6.935514649319566
  endloop
endfacet
facet normal 1.0 -2.1570415377137053e-32 -2.465190328815662e-32
  outer loop
    vertex 124.99999999999993 511.37245237311544 6.935514649319566
    vertex 124.99999999999993 513.7628189928787 4.525919782309484
    vertex 124.99999999999993 513.683529950421 5.147408099895626
  endloop
endfacet
facet normal 1.0 -2.1570415377137053e-32 -2.465190328815662e-32
  outer loop
    vertex 124.99999999999993 511.37245237311544 6.935514649319566
    vertex 124.99999999999993 513.683529950421 5.147408099895626
    vertex 124.99999999999993 511.99328550406466 6.851248970270802
  endloop
endfacet
facet normal 1.0 -2.1570415377137053e-32 -2.465190328815662e-32
  outer loop
    vertex 124.99999999999993 511.99328550406466 6.851248970270802
    vertex 124.99999999999993 513.683529950421 5.147408099895626
    vertex 124.99999999999993 513.44608960367 5.727198202333161
  endloop
endfacet
facet normal 1.0 -2.1570415377137053e-32 -2.465190328815662e-32
  outer loop
    vertex 124.99999999999993 511.99328550406466 6.851248970270802
    vertex 124.99999999999993 513.44608960367 5.727198202333161
    vertex 124.99999999999993 512.5711546964784 6.609171136487576
  endloop
endfacet
facet normal 1.0 -2.1570415377137053e-32 -2.465190328815662e-32
  outer loop
    vertex 124.99999999999993 512.5711546964784 6.609171136487576
    vertex 124.99999999999993 513.44608960367 5.727198202333161
    vertex 124.99999999999993 513.066679119867 6.225778352289435
  endloop
endfacet
facet normal 1.8488927466117469e-31 -0.7909083465686914 0.6119346266783562
  outer loop
    vertex 124.99999999999993 513.4364754800466 3.327217458946485
    vertex 144.99999999999991 513.0530826958486 2.831693035557709
    vertex 144.99999999999991 513.4364754800466 3.3272174589464836
  endloop
endfacet
facet normal 1.8488927466117469e-31 -0.7909083465686914 0.6119346266783562
  outer loop
    vertex 144.99999999999991 513.0530826958486 2.831693035557709
    vertex 124.99999999999993 513.4364754800466 3.327217458946485
    vertex 124.99999999999993 513.0530826958486 2.831693035557741
  endloop
endfacet
facet normal 6.162975822039154e-32 -0.9223391339203213 0.3863813168867142
  outer loop
    vertex 124.99999999999993 513.67855331383 3.9050866513600724
    vertex 144.99999999999991 513.4364754800466 3.3272174589464836
    vertex 144.99999999999991 513.67855331383 3.905086651360071
  endloop
endfacet
facet normal 6.162975822039154e-32 -0.9223391339203213 0.3863813168867142
  outer loop
    vertex 144.99999999999991 513.4364754800466 3.3272174589464836
    vertex 124.99999999999993 513.67855331383 3.9050866513600724
    vertex 124.99999999999993 513.4364754800466 3.327217458946485
  endloop
endfacet
facet normal 8.628166150854817e-32 -0.9909140335328137 0.13449675887444174
  outer loop
    vertex 124.99999999999993 513.7628189928787 4.525919782309484
    vertex 144.99999999999991 513.67855331383 3.905086651360071
    vertex 144.99999999999991 513.7628189928787 4.525919782309483
  endloop
endfacet
facet normal 8.628166150854817e-32 -0.9909140335328137 0.13449675887444174
  outer loop
    vertex 144.99999999999991 513.67855331383 3.905086651360071
    vertex 124.99999999999993 513.7628189928787 4.525919782309484
    vertex 124.99999999999993 513.67855331383 3.9050866513600724
  endloop
endfacet
facet normal 1.232595164407831e-32 -0.9919597793228848 -0.1265535309886449
  outer loop
    vertex 124.99999999999993 513.7628189928787 4.525919782309484
    vertex 144.99999999999991 513.683529950421 5.147408099895623
    vertex 124.99999999999993 513.683529950421 5.147408099895626
  endloop
endfacet
facet normal 1.232595164407831e-32 -0.9919597793228848 -0.1265535309886449
  outer loop
    vertex 144.99999999999991 513.683529950421 5.147408099895623
    vertex 124.99999999999993 513.7628189928787 4.525919782309484
    vertex 144.99999999999991 513.7628189928787 4.525919782309483
  endloop
endfacet
facet normal 4.930380657631324e-32 -0.9254051054431586 -0.3789794068544317
  outer loop
    vertex 124.99999999999993 513.683529950421 5.147408099895626
    vertex 144.99999999999991 513.44608960367 5.727198202333158
    vertex 124.99999999999993 513.44608960367 5.727198202333161
  endloop
endfacet
facet normal 4.930380657631324e-32 -0.9254051054431586 -0.3789794068544317
  outer loop
    vertex 144.99999999999991 513.44608960367 5.727198202333158
    vertex 124.99999999999993 513.683529950421 5.147408099895626
    vertex 144.99999999999991 513.683529950421 5.147408099895623
  endloop
endfacet
facet normal 9.860761315262645e-32 -0.795785602931731 -0.6055784624361912
  outer loop
    vertex 124.99999999999993 513.44608960367 5.727198202333161
    vertex 144.99999999999991 513.066679119867 6.225778352289432
    vertex 124.99999999999993 513.066679119867 6.225778352289435
  endloop
endfacet
facet normal 9.860761315262645e-32 -0.795785602931731 -0.6055784624361912
  outer loop
    vertex 144.99999999999991 513.066679119867 6.225778352289432
    vertex 124.99999999999993 513.44608960367 5.727198202333161
    vertex 144.99999999999991 513.44608960367 5.727198202333158
  endloop
endfacet
facet normal 6.162975822039155e-32 -0.6119346266783551 -0.7909083465686921
  outer loop
    vertex 124.99999999999993 513.066679119867 6.225778352289435
    vertex 144.99999999999991 512.5711546964784 6.609171136487573
    vertex 124.99999999999993 512.5711546964784 6.609171136487576
  endloop
endfacet
facet normal 6.162975822039155e-32 -0.6119346266783551 -0.7909083465686921
  outer loop
    vertex 144.99999999999991 512.5711546964784 6.609171136487573
    vertex 124.99999999999993 513.066679119867 6.225778352289435
    vertex 144.99999999999991 513.066679119867 6.225778352289432
  endloop
endfacet
facet normal 2.465190328815662e-32 -0.3863813168866673 -0.9223391339203411
  outer loop
    vertex 124.99999999999993 511.99328550406466 6.851248970270802
    vertex 144.99999999999991 512.5711546964784 6.609171136487573
    vertex 144.99999999999991 511.99328550406454 6.8512489702708335
  endloop
endfacet
facet normal 2.465190328815662e-32 -0.3863813168866673 -0.9223391339203411
  outer loop
    vertex 144.99999999999991 512.5711546964784 6.609171136487573
    vertex 124.99999999999993 511.99328550406466 6.851248970270802
    vertex 124.99999999999993 512.5711546964784 6.609171136487576
  endloop
endfacet
facet normal 4.930380657631324e-32 -0.13449675887447765 -0.9909140335328089
  outer loop
    vertex 124.99999999999993 511.99328550406466 6.851248970270802
    vertex 144.99999999999991 511.37245237311544 6.935514649319563
    vertex 124.99999999999993 511.37245237311544 6.935514649319566
  endloop
endfacet
facet normal 4.930380657631324e-32 -0.13449675887447765 -0.9909140335328089
  outer loop
    vertex 144.99999999999991 511.37245237311544 6.935514649319563
    vertex 124.99999999999993 511.99328550406466 6.851248970270802
    vertex 144.99999999999991 511.99328550406454 6.8512489702708335
  endloop
endfacet
facet normal 1.232595164407831e-32 0.12655353098862154 -0.9919597793228877
  outer loop
    vertex 124.99999999999993 510.7509640555291 6.856225606862318
    vertex 144.99999999999991 511.37245237311544 6.935514649319563
    vertex 144.99999999999991 510.7509640555291 6.856225606862314
  endloop
endfacet
facet normal 1.232595164407831e-32 0.12655353098862154 -0.9919597793228877
  outer loop
    vertex 144.99999999999991 511.37245237311544 6.935514649319563
    vertex 124.99999999999993 510.7509640555291 6.856225606862318
    vertex 124.99999999999993 511.37245237311544 6.935514649319566
  endloop
endfacet
facet normal -4.930380657631324e-32 0.3789794068544415 -0.9254051054431545
  outer loop
    vertex 124.99999999999993 510.1711739530915 6.6187852601108155
    vertex 144.99999999999991 510.7509640555291 6.856225606862314
    vertex 144.99999999999991 510.1711739530915 6.618785260110813
  endloop
endfacet
facet normal -4.930380657631324e-32 0.3789794068544415 -0.9254051054431545
  outer loop
    vertex 144.99999999999991 510.7509640555291 6.856225606862314
    vertex 124.99999999999993 510.1711739530915 6.6187852601108155
    vertex 124.99999999999993 510.7509640555291 6.856225606862318
  endloop
endfacet
facet normal -3.697785493223494e-32 0.6055784624362124 -0.7957856029317151
  outer loop
    vertex 124.99999999999993 509.6725938031351 6.239374776308037
    vertex 144.99999999999991 510.1711739530915 6.618785260110813
    vertex 144.99999999999991 509.67259380313527 6.239374776308
  endloop
endfacet
facet normal -3.697785493223494e-32 0.6055784624362124 -0.7957856029317151
  outer loop
    vertex 144.99999999999991 510.1711739530915 6.618785260110813
    vertex 124.99999999999993 509.6725938031351 6.239374776308037
    vertex 124.99999999999993 510.1711739530915 6.6187852601108155
  endloop
endfacet
facet normal -1.8488927466117469e-31 0.7909083465686914 -0.6119346266783562
  outer loop
    vertex 124.99999999999993 509.2892010189372 5.743850352919327
    vertex 144.99999999999991 509.67259380313527 6.239374776308
    vertex 144.99999999999991 509.2892010189372 5.743850352919324
  endloop
endfacet
facet normal -1.8488927466117469e-31 0.7909083465686914 -0.6119346266783562
  outer loop
    vertex 144.99999999999991 509.67259380313527 6.239374776308
    vertex 124.99999999999993 509.2892010189372 5.743850352919327
    vertex 124.99999999999993 509.6725938031351 6.239374776308037
  endloop
endfacet
facet normal -4.3140830754274083e-32 0.9223391339203215 -0.38638131688671395
  outer loop
    vertex 124.99999999999993 509.04712318515396 5.165981160505706
    vertex 144.99999999999991 509.2892010189372 5.743850352919324
    vertex 144.99999999999991 509.04712318515396 5.165981160505768
  endloop
endfacet
facet normal -4.3140830754274083e-32 0.9223391339203215 -0.38638131688671395
  outer loop
    vertex 144.99999999999991 509.2892010189372 5.743850352919324
    vertex 124.99999999999993 509.04712318515396 5.165981160505706
    vertex 124.99999999999993 509.2892010189372 5.743850352919327
  endloop
endfacet
facet normal -8.628166150854817e-32 0.9909140335328137 -0.13449675887444174
  outer loop
    vertex 124.99999999999993 508.96285750610525 4.545148029556197
    vertex 144.99999999999991 509.04712318515396 5.165981160505768
    vertex 144.99999999999991 508.96285750610525 4.545148029556195
  endloop
endfacet
facet normal -8.628166150854817e-32 0.9909140335328137 -0.13449675887444174
  outer loop
    vertex 144.99999999999991 509.04712318515396 5.165981160505768
    vertex 124.99999999999993 508.96285750610525 4.545148029556197
    vertex 124.99999999999993 509.04712318515396 5.165981160505706
  endloop
endfacet
facet normal 9.244463733058732e-32 0.9919597793228847 0.12655353098864502
  outer loop
    vertex 144.99999999999991 509.04214654856264 3.923659711970148
    vertex 124.99999999999993 508.96285750610525 4.545148029556197
    vertex 144.99999999999991 508.96285750610525 4.545148029556195
  endloop
endfacet
facet normal 9.244463733058732e-32 0.9919597793228847 0.12655353098864502
  outer loop
    vertex 124.99999999999993 508.96285750610525 4.545148029556197
    vertex 144.99999999999991 509.04214654856264 3.923659711970148
    vertex 124.99999999999993 509.04214654856264 3.9236597119701493
  endloop
endfacet
facet normal -1.232595164407831e-32 0.9254051054431587 0.37897940685443127
  outer loop
    vertex 144.99999999999991 509.2795868953137 3.343869609532613
    vertex 124.99999999999993 509.04214654856264 3.9236597119701493
    vertex 144.99999999999991 509.04214654856264 3.923659711970148
  endloop
endfacet
facet normal -1.232595164407831e-32 0.9254051054431587 0.37897940685443127
  outer loop
    vertex 124.99999999999993 509.04214654856264 3.9236597119701493
    vertex 144.99999999999991 509.2795868953137 3.343869609532613
    vertex 124.99999999999993 509.2795868953138 3.3438696095328035
  endloop
endfacet
facet normal -2.465190328815662e-32 0.7957856029317318 0.6055784624361902
  outer loop
    vertex 144.99999999999991 509.2795868953137 3.343869609532613
    vertex 124.99999999999993 509.6589973791168 2.845289459576278
    vertex 124.99999999999993 509.2795868953138 3.3438696095328035
  endloop
endfacet
facet normal -2.465190328815662e-32 0.7957856029317318 0.6055784624361902
  outer loop
    vertex 124.99999999999993 509.6589973791168 2.845289459576278
    vertex 144.99999999999991 509.2795868953137 3.343869609532613
    vertex 144.99999999999991 509.6589973791168 2.8452894595764033
  endloop
endfacet
facet normal -6.162975822039155e-32 0.6119346266783551 0.7909083465686921
  outer loop
    vertex 144.99999999999991 510.1545218025056 2.4618966753781724
    vertex 124.99999999999993 509.6589973791168 2.845289459576278
    vertex 144.99999999999991 509.6589973791168 2.8452894595764033
  endloop
endfacet
facet normal -6.162975822039155e-32 0.6119346266783551 0.7909083465686921
  outer loop
    vertex 124.99999999999993 509.6589973791168 2.845289459576278
    vertex 144.99999999999991 510.1545218025056 2.4618966753781724
    vertex 124.99999999999993 510.1545218025056 2.4618966753781737
  endloop
endfacet
facet normal -6.162975822039156e-32 0.38638131688666827 0.9223391339203408
  outer loop
    vertex 144.99999999999991 510.7323909949193 2.2198188415948725
    vertex 124.99999999999993 510.1545218025056 2.4618966753781737
    vertex 144.99999999999991 510.1545218025056 2.4618966753781724
  endloop
endfacet
facet normal -6.162975822039156e-32 0.38638131688666827 0.9223391339203408
  outer loop
    vertex 124.99999999999993 510.1545218025056 2.4618966753781737
    vertex 144.99999999999991 510.7323909949193 2.2198188415948725
    vertex 124.99999999999993 510.7323909949193 2.219818841594874
  endloop
endfacet
facet normal -1.6023737137301802e-31 0.13449675887447632 0.9909140335328092
  outer loop
    vertex 144.99999999999991 511.3532241258686 2.1355531625461124
    vertex 124.99999999999993 510.7323909949193 2.219818841594874
    vertex 144.99999999999991 510.7323909949193 2.2198188415948725
  endloop
endfacet
facet normal -1.6023737137301802e-31 0.13449675887447632 0.9909140335328092
  outer loop
    vertex 124.99999999999993 510.7323909949193 2.219818841594874
    vertex 144.99999999999991 511.3532241258686 2.1355531625461124
    vertex 124.99999999999993 511.3532241258686 2.1355531625461137
  endloop
endfacet
facet normal -1.232595164407831e-32 -0.12655353098862154 0.9919597793228877
  outer loop
    vertex 124.99999999999993 511.9747124434546 2.2148422050034577
    vertex 144.99999999999991 511.3532241258686 2.1355531625461124
    vertex 144.99999999999991 511.9747124434546 2.2148422050034564
  endloop
endfacet
facet normal -1.232595164407831e-32 -0.12655353098862154 0.9919597793228877
  outer loop
    vertex 144.99999999999991 511.3532241258686 2.1355531625461124
    vertex 124.99999999999993 511.9747124434546 2.2148422050034577
    vertex 124.99999999999993 511.3532241258686 2.1355531625461137
  endloop
endfacet
facet normal 4.930380657631324e-32 -0.3789794068544415 0.9254051054431545
  outer loop
    vertex 124.99999999999993 512.5545025458923 2.4522825517548643
    vertex 144.99999999999991 511.9747124434546 2.2148422050034564
    vertex 144.99999999999991 512.5545025458923 2.4522825517548625
  endloop
endfacet
facet normal 4.930380657631324e-32 -0.3789794068544415 0.9254051054431545
  outer loop
    vertex 144.99999999999991 511.9747124434546 2.2148422050034564
    vertex 124.99999999999993 512.5545025458923 2.4522825517548643
    vertex 124.99999999999993 511.9747124434546 2.2148422050034577
  endloop
endfacet
facet normal -9.860761315262648e-32 -0.6055784624362128 0.7957856029317145
  outer loop
    vertex 124.99999999999993 513.0530826958486 2.831693035557741
    vertex 144.99999999999991 512.5545025458923 2.4522825517548625
    vertex 144.99999999999991 513.0530826958486 2.831693035557709
  endloop
endfacet
facet normal -9.860761315262648e-32 -0.6055784624362128 0.7957856029317145
  outer loop
    vertex 144.99999999999991 512.5545025458923 2.4522825517548625
    vertex 124.99999999999993 513.0530826958486 2.831693035557741
    vertex 124.99999999999993 512.5545025458923 2.4522825517548643
  endloop
endfacet
facet normal -1.0 2.1570415377137053e-32 2.465190328815662e-32
  outer loop
    vertex 19.99999999999992 509.2843772804094 3.3355339059331035
    vertex 19.99999999999992 510.1628382494921 2.457072936850494
    vertex 19.99999999999992 509.6657819746443 2.838477631085202
  endloop
endfacet
facet normal -1.0 2.1570415377137053e-32 2.465190328815662e-32
  outer loop
    vertex 19.99999999999992 510.1628382494921 2.457072936850494
    vertex 19.99999999999992 509.2843772804094 3.3355339059331035
    vertex 19.99999999999992 509.0446162663983 3.9143681976867994
  endloop
endfacet
facet normal -1.0 2.1570415377137053e-32 2.465190328815662e-32
  outer loop
    vertex 19.99999999999992 510.1628382494921 2.457072936850494
    vertex 19.99999999999992 509.0446162663983 3.9143681976867994
    vertex 19.99999999999992 510.7416725412462 2.217311922839222
  endloop
endfacet
facet normal -1.0 2.1570415377137053e-32 2.465190328815662e-32
  outer loop
    vertex 19.99999999999992 510.7416725412462 2.217311922839222
    vertex 19.99999999999992 509.0446162663983 3.9143681976867994
    vertex 19.99999999999992 508.9628382494919 4.535533905932935
  endloop
endfacet
facet normal -1.0 2.1570415377137053e-32 2.465190328815662e-32
  outer loop
    vertex 19.99999999999992 510.7416725412462 2.217311922839222
    vertex 19.99999999999992 508.9628382494919 4.535533905932935
    vertex 19.99999999999992 511.3628382494922 2.135533905933103
  endloop
endfacet
facet normal -1.0 2.1570415377137053e-32 2.465190328815662e-32
  outer loop
    vertex 19.99999999999992 511.3628382494922 2.135533905933103
    vertex 19.99999999999992 508.9628382494919 4.535533905932935
    vertex 19.99999999999992 509.04461626639824 5.156699614179055
  endloop
endfacet
facet normal -1.0 2.1570415377137053e-32 2.465190328815662e-32
  outer loop
    vertex 19.99999999999992 511.3628382494922 2.135533905933103
    vertex 19.99999999999992 509.04461626639824 5.156699614179055
    vertex 19.99999999999992 511.98400395773814 2.2173119228393996
  endloop
endfacet
facet normal -1.0 2.1570415377137053e-32 2.465190328815662e-32
  outer loop
    vertex 19.99999999999992 511.98400395773814 2.2173119228393996
    vertex 19.99999999999992 509.04461626639824 5.156699614179055
    vertex 19.99999999999992 512.5628382494923 2.457072936850649
  endloop
endfacet
facet normal -1.0 2.1570415377137053e-32 2.465190328815662e-32
  outer loop
    vertex 19.99999999999992 512.5628382494923 2.457072936850649
    vertex 19.99999999999992 509.04461626639824 5.156699614179055
    vertex 19.99999999999992 509.2843772804092 5.735533905933253
  endloop
endfacet
facet normal -1.0 2.1570415377137053e-32 2.465190328815662e-32
  outer loop
    vertex 19.99999999999992 512.5628382494923 2.457072936850649
    vertex 19.99999999999992 509.2843772804092 5.735533905933253
    vertex 19.99999999999992 509.6657819746441 6.232590180780726
  endloop
endfacet
facet normal -1.0 2.1570415377137053e-32 2.465190328815662e-32
  outer loop
    vertex 19.99999999999992 512.5628382494923 2.457072936850649
    vertex 19.99999999999992 509.6657819746441 6.232590180780726
    vertex 19.99999999999992 513.0598945243397 2.838477631085357
  endloop
endfacet
facet normal -1.0 2.1570415377137053e-32 2.465190328815662e-32
  outer loop
    vertex 19.99999999999992 513.0598945243397 2.838477631085357
    vertex 19.99999999999992 509.6657819746441 6.232590180780726
    vertex 19.99999999999992 513.4412992185747 3.335533905933177
  endloop
endfacet
facet normal -1.0 2.1570415377137053e-32 2.465190328815662e-32
  outer loop
    vertex 19.99999999999992 513.4412992185747 3.335533905933177
    vertex 19.99999999999992 509.6657819746441 6.232590180780726
    vertex 19.99999999999992 510.16283824949164 6.613994875015786
  endloop
endfacet
facet normal -1.0 2.1570415377137053e-32 2.465190328815662e-32
  outer loop
    vertex 19.99999999999992 513.4412992185747 3.335533905933177
    vertex 19.99999999999992 510.16283824949164 6.613994875015786
    vertex 19.99999999999992 510.7416725412458 6.853755889026903
  endloop
endfacet
facet normal -1.0 2.1570415377137053e-32 2.465190328815662e-32
  outer loop
    vertex 19.99999999999992 513.4412992185747 3.335533905933177
    vertex 19.99999999999992 510.7416725412458 6.853755889026903
    vertex 19.99999999999992 513.6810602325858 3.914368197687186
  endloop
endfacet
facet normal -1.0 2.1570415377137053e-32 2.465190328815662e-32
  outer loop
    vertex 19.99999999999992 513.6810602325858 3.914368197687186
    vertex 19.99999999999992 510.7416725412458 6.853755889026903
    vertex 19.99999999999992 513.762838249492 4.535533905933369
  endloop
endfacet
facet normal -1.0 2.1570415377137053e-32 2.465190328815662e-32
  outer loop
    vertex 19.99999999999992 513.762838249492 4.535533905933369
    vertex 19.99999999999992 510.7416725412458 6.853755889026903
    vertex 19.99999999999992 511.3628382494919 6.935533905933076
  endloop
endfacet
facet normal -1.0 2.1570415377137053e-32 2.465190328815662e-32
  outer loop
    vertex 19.99999999999992 513.762838249492 4.535533905933369
    vertex 19.99999999999992 511.3628382494919 6.935533905933076
    vertex 19.99999999999992 511.9840039577379 6.853755889027112
  endloop
endfacet
facet normal -1.0 2.1570415377137053e-32 2.465190328815662e-32
  outer loop
    vertex 19.99999999999992 513.762838249492 4.535533905933369
    vertex 19.99999999999992 511.9840039577379 6.853755889027112
    vertex 19.99999999999992 513.6810602325858 5.156699614179345
  endloop
endfacet
facet normal -1.0 2.1570415377137053e-32 2.465190328815662e-32
  outer loop
    vertex 19.99999999999992 513.6810602325858 5.156699614179345
    vertex 19.99999999999992 511.9840039577379 6.853755889027112
    vertex 19.99999999999992 513.4412992185745 5.7355339059331
  endloop
endfacet
facet normal -1.0 2.1570415377137053e-32 2.465190328815662e-32
  outer loop
    vertex 19.99999999999992 513.4412992185745 5.7355339059331
    vertex 19.99999999999992 511.9840039577379 6.853755889027112
    vertex 19.99999999999992 512.5628382494918 6.61399487501587
  endloop
endfacet
facet normal -1.0 2.1570415377137053e-32 2.465190328815662e-32
  outer loop
    vertex 19.99999999999992 513.4412992185745 5.7355339059331
    vertex 19.99999999999992 512.5628382494918 6.61399487501587
    vertex 19.99999999999992 513.0598945243396 6.232590180781194
  endloop
endfacet
facet normal -1.97215226305253e-31 -0.1305261922201004 0.991444861373804
  outer loop
    vertex -6.767919558114953e-14 511.9840039577381 2.2173119228394955
    vertex 19.99999999999992 511.3628382494922 2.135533905933103
    vertex 19.99999999999992 511.98400395773814 2.2173119228393996
  endloop
endfacet
facet normal -1.97215226305253e-31 -0.1305261922201004 0.991444861373804
  outer loop
    vertex 19.99999999999992 511.3628382494922 2.135533905933103
    vertex -6.767919558114953e-14 511.9840039577381 2.2173119228394955
    vertex -6.767919558114953e-14 511.3628382494922 2.135533905933165
  endloop
endfacet
facet normal -2.4651903288156624e-32 0.1305261922199861 0.9914448613738192
  outer loop
    vertex 19.99999999999992 510.7416725412462 2.217311922839222
    vertex -6.767919558114953e-14 511.3628382494922 2.135533905933165
    vertex -6.767919558114953e-14 510.7416725412462 2.217311922839292
  endloop
endfacet
facet normal -2.4651903288156624e-32 0.1305261922199861 0.9914448613738192
  outer loop
    vertex -6.767919558114953e-14 511.3628382494922 2.135533905933165
    vertex 19.99999999999992 510.7416725412462 2.217311922839222
    vertex 19.99999999999992 511.3628382494922 2.135533905933103
  endloop
endfacet
facet normal -1.232595164407831e-32 0.38268343236510144 0.9238795325112821
  outer loop
    vertex 19.99999999999992 510.1628382494921 2.457072936850494
    vertex -6.767919558114953e-14 510.7416725412462 2.217311922839292
    vertex -6.767919558114953e-14 510.1628382494921 2.4570729368505617
  endloop
endfacet
facet normal -1.232595164407831e-32 0.38268343236510144 0.9238795325112821
  outer loop
    vertex -6.767919558114953e-14 510.7416725412462 2.217311922839292
    vertex 19.99999999999992 510.1628382494921 2.457072936850494
    vertex 19.99999999999992 510.7416725412462 2.217311922839222
  endloop
endfacet
facet normal 1.4791141972893971e-31 0.6087614290085753 0.7933533402913466
  outer loop
    vertex 19.99999999999992 510.1628382494921 2.457072936850494
    vertex -6.767919558114953e-14 509.6657819746443 2.8384776310852047
    vertex 19.99999999999992 509.6657819746443 2.838477631085202
  endloop
endfacet
facet normal 1.4791141972893971e-31 0.6087614290085753 0.7933533402913466
  outer loop
    vertex -6.767919558114953e-14 509.6657819746443 2.8384776310852047
    vertex 19.99999999999992 510.1628382494921 2.457072936850494
    vertex -6.767919558114953e-14 510.1628382494921 2.4570729368505617
  endloop
endfacet
facet normal -1.1709654061874392e-31 0.7933533402912453 0.6087614290087074
  outer loop
    vertex 19.99999999999992 509.2843772804094 3.3355339059331035
    vertex -6.767919558114953e-14 509.6657819746443 2.8384776310852047
    vertex -6.767919558114953e-14 509.2843772804092 3.335533905933301
  endloop
endfacet
facet normal -1.1709654061874392e-31 0.7933533402912453 0.6087614290087074
  outer loop
    vertex -6.767919558114953e-14 509.6657819746443 2.8384776310852047
    vertex 19.99999999999992 509.2843772804094 3.3355339059331035
    vertex 19.99999999999992 509.6657819746443 2.838477631085202
  endloop
endfacet
facet normal -2.465190328815662e-32 0.9238795325112757 0.3826834323651165
  outer loop
    vertex 19.99999999999992 509.0446162663983 3.9143681976867994
    vertex -6.767919558114953e-14 509.2843772804092 3.335533905933301
    vertex -6.767919558114953e-14 509.0446162663983 3.9143681976868616
  endloop
endfacet
facet normal -2.465190328815662e-32 0.9238795325112757 0.3826834323651165
  outer loop
    vertex -6.767919558114953e-14 509.2843772804092 3.335533905933301
    vertex 19.99999999999992 509.0446162663983 3.9143681976867994
    vertex 19.99999999999992 509.2843772804094 3.3355339059331035
  endloop
endfacet
facet normal -5.700752635386217e-32 0.9914448613737925 0.130526192220187
  outer loop
    vertex 19.99999999999992 508.9628382494919 4.535533905932935
    vertex -6.767919558114953e-14 509.0446162663983 3.9143681976868616
    vertex -6.767919558114953e-14 508.9628382494919 4.535533905933002
  endloop
endfacet
facet normal -5.700752635386217e-32 0.9914448613737925 0.130526192220187
  outer loop
    vertex -6.767919558114953e-14 509.0446162663983 3.9143681976868616
    vertex 19.99999999999992 508.9628382494919 4.535533905932935
    vertex 19.99999999999992 509.0446162663983 3.9143681976867994
  endloop
endfacet
facet normal 2.311115933264683e-32 0.9914448613738133 -0.13052619222003065
  outer loop
    vertex -6.767919558114953e-14 508.9628382494919 4.535533905933002
    vertex 19.99999999999992 509.04461626639824 5.156699614179055
    vertex 19.99999999999992 508.9628382494919 4.535533905932935
  endloop
endfacet
facet normal 2.311115933264683e-32 0.9914448613738133 -0.13052619222003065
  outer loop
    vertex 19.99999999999992 509.04461626639824 5.156699614179055
    vertex -6.767919558114953e-14 508.9628382494919 4.535533905933002
    vertex -6.767919558114953e-14 509.04461626639824 5.15669961417912
  endloop
endfacet
facet normal -6.77927340424307e-32 0.9238795325113338 -0.38268343236497626
  outer loop
    vertex -6.767919558114953e-14 509.04461626639824 5.15669961417912
    vertex 19.99999999999992 509.2843772804092 5.735533905933253
    vertex 19.99999999999992 509.04461626639824 5.156699614179055
  endloop
endfacet
facet normal -6.77927340424307e-32 0.9238795325113338 -0.38268343236497626
  outer loop
    vertex 19.99999999999992 509.2843772804092 5.735533905933253
    vertex -6.767919558114953e-14 509.04461626639824 5.15669961417912
    vertex -6.767919558114953e-14 509.2843772804092 5.735533905933287
  endloop
endfacet
facet normal -4.3140830754274094e-32 0.7933533402912389 -0.608761429008716
  outer loop
    vertex -6.767919558114953e-14 509.2843772804092 5.735533905933287
    vertex 19.99999999999992 509.6657819746441 6.232590180780726
    vertex 19.99999999999992 509.2843772804092 5.735533905933253
  endloop
endfacet
facet normal -4.3140830754274094e-32 0.7933533402912389 -0.608761429008716
  outer loop
    vertex 19.99999999999992 509.6657819746441 6.232590180780726
    vertex -6.767919558114953e-14 509.2843772804092 5.735533905933287
    vertex -6.767919558114953e-14 509.66578197464406 6.232590180780757
  endloop
endfacet
facet normal 8.628166150854817e-32 0.6087614290087731 -0.7933533402911951
  outer loop
    vertex -6.767919558114953e-14 509.66578197464406 6.232590180780757
    vertex 19.99999999999992 510.16283824949164 6.613994875015786
    vertex 19.99999999999992 509.6657819746441 6.232590180780726
  endloop
endfacet
facet normal 8.628166150854817e-32 0.6087614290087731 -0.7933533402911951
  outer loop
    vertex 19.99999999999992 510.16283824949164 6.613994875015786
    vertex -6.767919558114953e-14 509.66578197464406 6.232590180780757
    vertex -6.767919558114953e-14 510.1628382494917 6.613994875015882
  endloop
endfacet
facet normal 2.465190328815662e-32 0.38268343236511243 -0.9238795325112774
  outer loop
    vertex -6.767919558114953e-14 510.1628382494917 6.613994875015882
    vertex 19.99999999999992 510.7416725412458 6.853755889026903
    vertex 19.99999999999992 510.16283824949164 6.613994875015786
  endloop
endfacet
facet normal 2.465190328815662e-32 0.38268343236511243 -0.9238795325112774
  outer loop
    vertex 19.99999999999992 510.7416725412458 6.853755889026903
    vertex -6.767919558114953e-14 510.1628382494917 6.613994875015882
    vertex -6.767919558114953e-14 510.74167254124575 6.853755889026937
  endloop
endfacet
facet normal 1.232595164407831e-32 0.13052619222015777 -0.9914448613737965
  outer loop
    vertex -6.767919558114953e-14 510.74167254124575 6.853755889026937
    vertex 19.99999999999992 511.3628382494919 6.935533905933076
    vertex 19.99999999999992 510.7416725412458 6.853755889026903
  endloop
endfacet
facet normal 1.232595164407831e-32 0.13052619222015777 -0.9914448613737965
  outer loop
    vertex 19.99999999999992 511.3628382494919 6.935533905933076
    vertex -6.767919558114953e-14 510.74167254124575 6.853755889026937
    vertex -6.767919558114953e-14 511.3628382494919 6.935533905933169
  endloop
endfacet
facet normal 1.232595164407831e-32 -0.13052619222007822 -0.991444861373807
  outer loop
    vertex -6.767919558114953e-14 511.9840039577379 6.853755889027112
    vertex 19.99999999999992 511.3628382494919 6.935533905933076
    vertex -6.767919558114953e-14 511.3628382494919 6.935533905933169
  endloop
endfacet
facet normal 1.232595164407831e-32 -0.13052619222007822 -0.991444861373807
  outer loop
    vertex 19.99999999999992 511.3628382494919 6.935533905933076
    vertex -6.767919558114953e-14 511.9840039577379 6.853755889027112
    vertex 19.99999999999992 511.9840039577379 6.853755889027112
  endloop
endfacet
facet normal 2.465190328815662e-32 -0.38268343236502905 -0.923879532511312
  outer loop
    vertex -6.767919558114953e-14 512.5628382494918 6.613994875015939
    vertex 19.99999999999992 511.9840039577379 6.853755889027112
    vertex -6.767919558114953e-14 511.9840039577379 6.853755889027112
  endloop
endfacet
facet normal 2.465190328815662e-32 -0.38268343236502905 -0.923879532511312
  outer loop
    vertex 19.99999999999992 511.9840039577379 6.853755889027112
    vertex -6.767919558114953e-14 512.5628382494918 6.613994875015939
    vertex 19.99999999999992 512.5628382494918 6.61399487501587
  endloop
endfacet
facet normal -7.395570986446986e-32 -0.6087614290086002 -0.7933533402913278
  outer loop
    vertex -6.767919558114953e-14 513.0598945243396 6.232590180781194
    vertex 19.99999999999992 512.5628382494918 6.61399487501587
    vertex -6.767919558114953e-14 512.5628382494918 6.613994875015939
  endloop
endfacet
facet normal -7.395570986446986e-32 -0.6087614290086002 -0.7933533402913278
  outer loop
    vertex 19.99999999999992 512.5628382494918 6.61399487501587
    vertex -6.767919558114953e-14 513.0598945243396 6.232590180781194
    vertex 19.99999999999992 513.0598945243396 6.232590180781194
  endloop
endfacet
facet normal 1.2325951644078307e-32 -0.7933533402912654 -0.6087614290086811
  outer loop
    vertex -6.767919558114953e-14 513.4412992185746 5.735533905933196
    vertex 19.99999999999992 513.0598945243396 6.232590180781194
    vertex -6.767919558114953e-14 513.0598945243396 6.232590180781194
  endloop
endfacet
facet normal 1.2325951644078307e-32 -0.7933533402912654 -0.6087614290086811
  outer loop
    vertex 19.99999999999992 513.0598945243396 6.232590180781194
    vertex -6.767919558114953e-14 513.4412992185746 5.735533905933196
    vertex 19.99999999999992 513.4412992185745 5.7355339059331
  endloop
endfacet
facet normal 5.546678239835239e-32 -0.9238795325112495 -0.3826834323651796
  outer loop
    vertex -6.767919558114953e-14 513.6810602325858 5.156699614179413
    vertex 19.99999999999992 513.4412992185745 5.7355339059331
    vertex -6.767919558114953e-14 513.4412992185746 5.735533905933196
  endloop
endfacet
facet normal 5.546678239835239e-32 -0.9238795325112495 -0.3826834323651796
  outer loop
    vertex 19.99999999999992 513.4412992185745 5.7355339059331
    vertex -6.767919558114953e-14 513.6810602325858 5.156699614179413
    vertex 19.99999999999992 513.6810602325858 5.156699614179345
  endloop
endfacet
facet normal 1.6948183510607676e-32 -0.9914448613738019 -0.13052619222011602
  outer loop
    vertex -6.767919558114953e-14 513.762838249492 4.535533905933304
    vertex 19.99999999999992 513.6810602325858 5.156699614179345
    vertex -6.767919558114953e-14 513.6810602325858 5.156699614179413
  endloop
endfacet
facet normal 1.6948183510607676e-32 -0.9914448613738019 -0.13052619222011602
  outer loop
    vertex 19.99999999999992 513.6810602325858 5.156699614179345
    vertex -6.767919558114953e-14 513.762838249492 4.535533905933304
    vertex 19.99999999999992 513.762838249492 4.535533905933369
  endloop
endfacet
facet normal 2.1570415377137042e-32 -0.9914448613738207 0.13052619221997386
  outer loop
    vertex -6.767919558114953e-14 513.762838249492 4.535533905933304
    vertex 19.99999999999992 513.6810602325858 3.914368197687186
    vertex 19.99999999999992 513.762838249492 4.535533905933369
  endloop
endfacet
facet normal 2.1570415377137042e-32 -0.9914448613738207 0.13052619221997386
  outer loop
    vertex 19.99999999999992 513.6810602325858 3.914368197687186
    vertex -6.767919558114953e-14 513.762838249492 4.535533905933304
    vertex -6.767919558114953e-14 513.6810602325858 3.91436819768722
  endloop
endfacet
facet normal 4.930380657631324e-32 -0.923879532511309 0.38268343236503605
  outer loop
    vertex -6.767919558114953e-14 513.6810602325858 3.91436819768722
    vertex 19.99999999999992 513.4412992185747 3.335533905933177
    vertex 19.99999999999992 513.6810602325858 3.914368197687186
  endloop
endfacet
facet normal 4.930380657631324e-32 -0.923879532511309 0.38268343236503605
  outer loop
    vertex 19.99999999999992 513.4412992185747 3.335533905933177
    vertex -6.767919558114953e-14 513.6810602325858 3.91436819768722
    vertex -6.767919558114953e-14 513.4412992185747 3.33553390593318
  endloop
endfacet
facet normal 4.930380657631324e-32 -0.7933533402912736 0.6087614290086706
  outer loop
    vertex -6.767919558114953e-14 513.4412992185747 3.33553390593318
    vertex 19.99999999999992 513.0598945243397 2.838477631085357
    vertex 19.99999999999992 513.4412992185747 3.335533905933177
  endloop
endfacet
facet normal 4.930380657631324e-32 -0.7933533402912736 0.6087614290086706
  outer loop
    vertex 19.99999999999992 513.0598945243397 2.838477631085357
    vertex -6.767919558114953e-14 513.4412992185747 3.33553390593318
    vertex -6.767919558114953e-14 513.0598945243397 2.838477631085394
  endloop
endfacet
facet normal -1.7256332301709633e-31 -0.6087614290087036 0.7933533402912484
  outer loop
    vertex -6.767919558114953e-14 513.0598945243397 2.838477631085394
    vertex 19.99999999999992 512.5628382494923 2.457072936850649
    vertex 19.99999999999992 513.0598945243397 2.838477631085357
  endloop
endfacet
facet normal -1.7256332301709633e-31 -0.6087614290087036 0.7933533402912484
  outer loop
    vertex 19.99999999999992 512.5628382494923 2.457072936850649
    vertex -6.767919558114953e-14 513.0598945243397 2.838477631085394
    vertex -6.767919558114953e-14 512.5628382494923 2.457072936850652
  endloop
endfacet
facet normal -3.697785493223494e-32 -0.38268343236518393 0.9238795325112479
  outer loop
    vertex -6.767919558114953e-14 512.5628382494923 2.457072936850652
    vertex 19.99999999999992 511.98400395773814 2.2173119228393996
    vertex 19.99999999999992 512.5628382494923 2.457072936850649
  endloop
endfacet
facet normal -3.697785493223494e-32 -0.38268343236518393 0.9238795325112479
  outer loop
    vertex 19.99999999999992 511.98400395773814 2.2173119228393996
    vertex -6.767919558114953e-14 512.5628382494923 2.457072936850652
    vertex -6.767919558114953e-14 511.9840039577381 2.2173119228394955
  endloop
endfacet
facet normal -1.0 7.799810110309615e-19 -1.7137459639484583e-18
  outer loop
    vertex -6.767919558114953e-14 506.27166942494887 6.222539674441928
    vertex -6.767919558114953e-14 509.2843772804092 3.335533905933301
    vertex -6.767919558114953e-14 509.6657819746443 2.8384776310852047
  endloop
endfacet
facet normal -1.0 7.799810110309615e-19 -1.7137459639484583e-18
  outer loop
    vertex -6.767919558114953e-14 509.2843772804092 3.335533905933301
    vertex -6.767919558114953e-14 506.27166942494887 6.222539674441928
    vertex -6.767919558114953e-14 509.0446162663983 3.9143681976868616
  endloop
endfacet
facet normal -1.0 7.799810110309615e-19 -1.7137459639484583e-18
  outer loop
    vertex -6.767919558114953e-14 509.0446162663983 3.9143681976868616
    vertex -6.767919558114953e-14 506.27166942494887 6.222539674441928
    vertex -6.767919558114953e-14 508.9628382494919 4.535533905933002
  endloop
endfacet
facet normal -1.0 7.799810110309615e-19 -1.7137459639484583e-18
  outer loop
    vertex -6.767919558114953e-14 508.9628382494919 4.535533905933002
    vertex -6.767919558114953e-14 506.27166942494887 6.222539674441928
    vertex -6.767919558114953e-14 508.6051218028637 8.555992052357345
  endloop
endfacet
facet normal -1.0 7.799810110309615e-19 -1.7137459639484583e-18
  outer loop
    vertex -6.767919558114953e-14 508.9628382494919 4.535533905933002
    vertex -6.767919558114953e-14 508.6051218028637 8.555992052357345
    vertex -6.767919558114953e-14 509.04461626639824 5.15669961417912
  endloop
endfacet
facet normal -1.0 7.799810110309615e-19 -1.7137459639484583e-18
  outer loop
    vertex -6.767919558114953e-14 509.04461626639824 5.15669961417912
    vertex -6.767919558114953e-14 508.6051218028637 8.555992052357345
    vertex -6.767919558114953e-14 509.2843772804092 5.735533905933287
  endloop
endfacet
facet normal -1.0 7.799810110309615e-19 -1.7137459639484583e-18
  outer loop
    vertex -6.767919558114953e-14 509.2843772804092 5.735533905933287
    vertex -6.767919558114953e-14 508.6051218028637 8.555992052357345
    vertex -6.767919558114953e-14 509.66578197464406 6.232590180780757
  endloop
endfacet
facet normal -1.0 7.799810110309615e-19 -1.7137459639484583e-18
  outer loop
    vertex -6.767919558114953e-14 509.66578197464406 6.232590180780757
    vertex -6.767919558114953e-14 508.6051218028637 8.555992052357345
    vertex -6.767919558114953e-14 510.1628382494917 6.613994875015882
  endloop
endfacet
facet normal -1.0 7.799810110309615e-19 -1.7137459639484583e-18
  outer loop
    vertex -6.767919558114953e-14 510.1628382494917 6.613994875015882
    vertex -6.767919558114953e-14 508.6051218028637 8.555992052357345
    vertex -6.767919558114953e-14 510.74167254124575 6.853755889026937
  endloop
endfacet
facet normal -1.0 7.799810110309615e-19 -1.7137459639484583e-18
  outer loop
    vertex -6.767919558114953e-14 510.74167254124575 6.853755889026937
    vertex -6.767919558114953e-14 508.6051218028637 8.555992052357345
    vertex -6.767919558114953e-14 505.64029857504886 11.520815280172238
  endloop
endfacet
facet normal -1.0 7.799810110309615e-19 -1.7137459639484583e-18
  outer loop
    vertex -6.767919558114953e-14 510.74167254124575 6.853755889026937
    vertex -6.767919558114953e-14 505.64029857504886 11.520815280172238
    vertex -6.767919558114953e-14 505.64029857504886 12.020815280172235
  endloop
endfacet
facet normal -1.0 7.799810110309615e-19 -1.7137459639484583e-18
  outer loop
    vertex -6.767919558114953e-14 510.74167254124575 6.853755889026937
    vertex -6.767919558114953e-14 505.64029857504886 12.020815280172235
    vertex -6.767919558114953e-14 511.3628382494919 6.935533905933169
  endloop
endfacet
facet normal -1.0 7.799810110309615e-19 -1.7137459639484583e-18
  outer loop
    vertex -6.767919558114953e-14 511.3628382494919 6.935533905933169
    vertex -6.767919558114953e-14 505.64029857504886 12.020815280172235
    vertex -6.767919558114953e-14 517.0853779239328 12.020815280172929
  endloop
endfacet
facet normal -1.0 7.799810110309615e-19 -1.7137459639484583e-18
  outer loop
    vertex -6.767919558114953e-14 511.3628382494919 6.935533905933169
    vertex -6.767919558114953e-14 517.0853779239328 12.020815280172929
    vertex -6.767919558114953e-14 511.9840039577379 6.853755889027112
  endloop
endfacet
facet normal -1.0 7.799810110309615e-19 -1.7137459639484583e-18
  outer loop
    vertex -6.767919558114953e-14 511.9840039577379 6.853755889027112
    vertex -6.767919558114953e-14 517.0853779239328 12.020815280172929
    vertex -6.767919558114953e-14 514.1205546961196 8.555992052358459
  endloop
endfacet
facet normal -1.0 7.799810110309615e-19 -1.7137459639484583e-18
  outer loop
    vertex -6.767919558114953e-14 511.9840039577379 6.853755889027112
    vertex -6.767919558114953e-14 514.1205546961196 8.555992052358459
    vertex -6.767919558114953e-14 512.5628382494918 6.613994875015939
  endloop
endfacet
facet normal -1.0 7.799810110309615e-19 -1.7137459639484583e-18
  outer loop
    vertex -6.767919558114953e-14 512.5628382494918 6.613994875015939
    vertex -6.767919558114953e-14 514.1205546961196 8.555992052358459
    vertex -6.767919558114953e-14 513.0598945243396 6.232590180781194
  endloop
endfacet
facet normal -1.0 7.799810110309615e-19 -1.7137459639484583e-18
  outer loop
    vertex -6.767919558114953e-14 513.0598945243396 6.232590180781194
    vertex -6.767919558114953e-14 514.1205546961196 8.555992052358459
    vertex -6.767919558114953e-14 516.4540070740351 6.222539674443016
  endloop
endfacet
facet normal -1.0 7.799810110309615e-19 -1.7137459639484583e-18
  outer loop
    vertex -6.767919558114953e-14 514.1205546961196 8.555992052358459
    vertex -6.767919558114953e-14 517.0853779239328 12.020815280172929
    vertex -6.767919558114953e-14 517.0853779239328 11.520815280172865
  endloop
endfacet
facet normal -1.0 7.799810110309615e-19 -1.7137459639484583e-18
  outer loop
    vertex -6.767919558114953e-14 505.7059839999999 4.779843187918687e-13
    vertex -6.767919558114953e-14 510.7416725412462 2.217311922839292
    vertex -6.767919558114953e-14 517.0196924989843 1.0955569784698582e-12
  endloop
endfacet
facet normal -1.0 7.799810110309615e-19 -1.7137459639484583e-18
  outer loop
    vertex -6.767919558114953e-14 510.7416725412462 2.217311922839292
    vertex -6.767919558114953e-14 505.7059839999999 4.779843187918687e-13
    vertex -6.767919558114953e-14 510.1628382494921 2.4570729368505617
  endloop
endfacet
facet normal -1.0 7.799810110309615e-19 -1.7137459639484583e-18
  outer loop
    vertex -6.767919558114953e-14 510.1628382494921 2.4570729368505617
    vertex -6.767919558114953e-14 505.7059839999999 4.779843187918687e-13
    vertex -6.767919558114953e-14 509.6657819746443 2.8384776310852047
  endloop
endfacet
facet normal -1.0 7.799810110309615e-19 -1.7137459639484583e-18
  outer loop
    vertex -6.767919558114953e-14 509.6657819746443 2.8384776310852047
    vertex -6.767919558114953e-14 505.7059839999999 4.779843187918687e-13
    vertex -6.767919558114953e-14 499.62219735431864 10.886776102796865
  endloop
endfacet
facet normal -1.0 7.799810110309615e-19 -1.7137459639484583e-18
  outer loop
    vertex -6.767919558114953e-14 509.6657819746443 2.8384776310852047
    vertex -6.767919558114953e-14 499.62219735431864 10.886776102796865
    vertex -6.767919558114953e-14 506.27166942494887 6.222539674441928
  endloop
endfacet
facet normal -1.0 7.799810110309615e-19 -1.7137459639484583e-18
  outer loop
    vertex -6.767919558114953e-14 506.27166942494887 6.222539674441928
    vertex -6.767919558114953e-14 499.62219735431864 10.886776102796865
    vertex -6.767919558114953e-14 500.61481517545553 11.87939392393407
  endloop
endfacet
facet normal -1.0 7.799810110309615e-19 -1.7137459639484583e-18
  outer loop
    vertex -6.767919558114953e-14 517.0196924989843 1.0955569784698582e-12
    vertex -6.767919558114953e-14 510.7416725412462 2.217311922839292
    vertex -6.767919558114953e-14 511.3628382494922 2.135533905933165
  endloop
endfacet
facet normal -1.0 7.799810110309615e-19 -1.7137459639484583e-18
  outer loop
    vertex -6.767919558114953e-14 517.0196924989843 1.0955569784698582e-12
    vertex -6.767919558114953e-14 511.3628382494922 2.135533905933165
    vertex -6.767919558114953e-14 511.9840039577381 2.2173119228394955
  endloop
endfacet
facet normal -1.0 7.799810110309615e-19 -1.7137459639484583e-18
  outer loop
    vertex -6.767919558114953e-14 517.0196924989843 1.0955569784698582e-12
    vertex -6.767919558114953e-14 511.9840039577381 2.2173119228394955
    vertex -6.767919558114953e-14 512.5628382494923 2.457072936850652
  endloop
endfacet
facet normal -1.0 7.799810110309615e-19 -1.7137459639484583e-18
  outer loop
    vertex -6.767919558114953e-14 517.0196924989843 1.0955569784698582e-12
    vertex -6.767919558114953e-14 512.5628382494923 2.457072936850652
    vertex -6.767919558114953e-14 513.0598945243397 2.838477631085394
  endloop
endfacet
facet normal -1.0 7.799810110309615e-19 -1.7137459639484583e-18
  outer loop
    vertex -6.767919558114953e-14 517.0196924989843 1.0955569784698582e-12
    vertex -6.767919558114953e-14 513.0598945243397 2.838477631085394
    vertex -6.767919558114953e-14 513.4412992185747 3.33553390593318
  endloop
endfacet
facet normal -1.0 7.799810110309615e-19 -1.7137459639484583e-18
  outer loop
    vertex -6.767919558114953e-14 517.0196924989843 1.0955569784698582e-12
    vertex -6.767919558114953e-14 513.4412992185747 3.33553390593318
    vertex -6.767919558114953e-14 513.6810602325858 3.91436819768722
  endloop
endfacet
facet normal -1.0 7.799810110309615e-19 -1.7137459639484583e-18
  outer loop
    vertex -6.767919558114953e-14 517.0196924989843 1.0955569784698582e-12
    vertex -6.767919558114953e-14 513.6810602325858 3.91436819768722
    vertex -6.767919558114953e-14 523.1034791446643 10.88677610279825
  endloop
endfacet
facet normal -1.0 7.799810110309615e-19 -1.7137459639484583e-18
  outer loop
    vertex -6.767919558114953e-14 523.1034791446643 10.88677610279825
    vertex -6.767919558114953e-14 513.6810602325858 3.91436819768722
    vertex -6.767919558114953e-14 516.4540070740351 6.222539674443016
  endloop
endfacet
facet normal -1.0 7.799810110309615e-19 -1.7137459639484583e-18
  outer loop
    vertex -6.767919558114953e-14 516.4540070740351 6.222539674443016
    vertex -6.767919558114953e-14 513.6810602325858 3.91436819768722
    vertex -6.767919558114953e-14 513.762838249492 4.535533905933304
  endloop
endfacet
facet normal -1.0 7.799810110309615e-19 -1.7137459639484583e-18
  outer loop
    vertex -6.767919558114953e-14 516.4540070740351 6.222539674443016
    vertex -6.767919558114953e-14 513.762838249492 4.535533905933304
    vertex -6.767919558114953e-14 513.6810602325858 5.156699614179413
  endloop
endfacet
facet normal -1.0 7.799810110309615e-19 -1.7137459639484583e-18
  outer loop
    vertex -6.767919558114953e-14 516.4540070740351 6.222539674443016
    vertex -6.767919558114953e-14 513.6810602325858 5.156699614179413
    vertex -6.767919558114953e-14 513.4412992185746 5.735533905933196
  endloop
endfacet
facet normal -1.0 7.799810110309615e-19 -1.7137459639484583e-18
  outer loop
    vertex -6.767919558114953e-14 516.4540070740351 6.222539674443016
    vertex -6.767919558114953e-14 513.4412992185746 5.735533905933196
    vertex -6.767919558114953e-14 513.0598945243396 6.232590180781194
  endloop
endfacet
facet normal -1.0 7.799810110309615e-19 -1.7137459639484583e-18
  outer loop
    vertex -6.767919558114953e-14 523.1034791446643 10.88677610279825
    vertex -6.767919558114953e-14 516.4540070740351 6.222539674443016
    vertex -6.767919558114953e-14 522.1108613235269 11.879393923935645
  endloop
endfacet
facet normal 4.125316187226475e-17 0.7071067811864798 0.7071067811866152
  outer loop
    vertex 144.99999999999991 522.1108613235266 11.879393923935284
    vertex -6.767919558114953e-14 523.1034791446643 10.88677610279825
    vertex -6.767919558114953e-14 522.1108613235269 11.879393923935645
  endloop
endfacet
facet normal 4.125316187226475e-17 0.7071067811864798 0.7071067811866152
  outer loop
    vertex -6.767919558114953e-14 523.1034791446643 10.88677610279825
    vertex 144.99999999999991 522.1108613235266 11.879393923935284
    vertex 144.99999999999986 523.1034791446643 10.886776102798047
  endloop
endfacet
facet normal 5.841688615487657e-17 -0.707106781186596 0.7071067811864991
  outer loop
    vertex -6.767919558114953e-14 500.61481517545553 11.87939392393407
    vertex 144.99999999999986 499.62219735431864 10.886776102796855
    vertex 144.99999999999991 500.61481517545553 11.879393923933899
  endloop
endfacet
facet normal 5.841688615487657e-17 -0.707106781186596 0.7071067811864991
  outer loop
    vertex 144.99999999999986 499.62219735431864 10.886776102796855
    vertex -6.767919558114953e-14 500.61481517545553 11.87939392393407
    vertex -6.767919558114953e-14 499.62219735431864 10.886776102796865
  endloop
endfacet
facet normal -1.5691747345561886e-16 -0.8729434821372436 -0.4878213576649795
  outer loop
    vertex -6.767919558114953e-14 505.7059839999999 4.779843187918687e-13
    vertex 144.99999999999986 499.62219735431864 10.886776102796855
    vertex -6.767919558114953e-14 499.62219735431864 10.886776102796865
  endloop
endfacet
facet normal -1.5691747345561886e-16 -0.8729434821372436 -0.4878213576649795
  outer loop
    vertex 144.99999999999986 499.62219735431864 10.886776102796855
    vertex -6.767919558114953e-14 505.7059839999999 4.779843187918687e-13
    vertex 144.99999999999991 505.7059839999998 -1.4099832412739488e-13
  endloop
endfacet
facet normal -3.733862826393651e-17 0.7071067811866787 -0.7071067811864163
  outer loop
    vertex -6.767919558114953e-14 514.1205546961196 8.555992052358459
    vertex 144.99999999999983 517.0853779239328 11.520815280172853
    vertex 144.99999999999986 514.1205546961196 8.555992052358446
  endloop
endfacet
facet normal -3.733862826393651e-17 0.7071067811866787 -0.7071067811864163
  outer loop
    vertex 144.99999999999983 517.0853779239328 11.520815280172853
    vertex -6.767919558114953e-14 514.1205546961196 8.555992052358459
    vertex -6.767919558114953e-14 517.0853779239328 11.520815280172865
  endloop
endfacet
facet normal 6.550319571250126e-16 0.7071067811865358 0.7071067811865592
  outer loop
    vertex 144.99999999999991 516.4540070740351 6.222539674442814
    vertex -6.767919558114953e-14 514.1205546961196 8.555992052358459
    vertex 144.99999999999986 514.1205546961196 8.555992052358446
  endloop
endfacet
facet normal 6.550319571250126e-16 0.7071067811865358 0.7071067811865592
  outer loop
    vertex -6.767919558114953e-14 514.1205546961196 8.555992052358459
    vertex 144.99999999999991 516.4540070740351 6.222539674442814
    vertex -6.767919558114953e-14 516.4540070740351 6.222539674443016
  endloop
endfacet
facet normal -8.611973938296834e-17 -0.7071067811865479 -0.7071067811865471
  outer loop
    vertex -6.767919558114953e-14 508.6051218028637 8.555992052357345
    vertex 144.9999999999998 505.64029857504886 11.520815280172162
    vertex -6.767919558114953e-14 505.64029857504886 11.520815280172238
  endloop
endfacet
facet normal -8.611973938296834e-17 -0.7071067811865479 -0.7071067811865471
  outer loop
    vertex 144.9999999999998 505.64029857504886 11.520815280172162
    vertex -6.767919558114953e-14 508.6051218028637 8.555992052357345
    vertex 144.99999999999986 508.6051218028637 8.555992052357333
  endloop
endfacet
facet normal 8.728406219978797e-16 -0.7071067811866528 0.7071067811864422
  outer loop
    vertex 144.99999999999986 508.6051218028637 8.555992052357333
    vertex -6.767919558114953e-14 506.27166942494887 6.222539674441928
    vertex 144.99999999999991 506.27166942494887 6.222539674441601
  endloop
endfacet
facet normal 8.728406219978797e-16 -0.7071067811866528 0.7071067811864422
  outer loop
    vertex -6.767919558114953e-14 506.27166942494887 6.222539674441928
    vertex 144.99999999999986 508.6051218028637 8.555992052357333
    vertex -6.767919558114953e-14 508.6051218028637 8.555992052357345
  endloop
endfacet
facet normal 5.251359106475246e-30 1.0 1.8035573035035668e-13
  outer loop
    vertex 144.99999999999983 517.0853779239328 11.520815280172853
    vertex -6.767919558114953e-14 517.0853779239328 12.020815280172929
    vertex 144.99999999999983 517.0853779239328 12.020815280172917
  endloop
endfacet
facet normal 5.251359106475246e-30 1.0 1.8035573035035668e-13
  outer loop
    vertex -6.767919558114953e-14 517.0853779239328 12.020815280172929
    vertex 144.99999999999983 517.0853779239328 11.520815280172853
    vertex -6.767919558114953e-14 517.0853779239328 11.520815280172865
  endloop
endfacet
facet normal 6.162975822039177e-33 -1.0 1.0263416486754013e-48
  outer loop
    vertex -6.767919558114953e-14 505.64029857504886 12.020815280172235
    vertex 144.9999999999998 505.64029857504886 11.520815280172162
    vertex 144.9999999999998 505.64029857504886 12.020815280172224
  endloop
endfacet
facet normal 6.162975822039177e-33 -1.0 1.0263416486754013e-48
  outer loop
    vertex 144.9999999999998 505.64029857504886 11.520815280172162
    vertex -6.767919558114953e-14 505.64029857504886 12.020815280172235
    vertex -6.767919558114953e-14 505.64029857504886 11.520815280172238
  endloop
endfacet
endsolid case-v5
