solid case-v5
facet normal 2.0289328809874826e-15 -0.7071067811865674 0.7071067811865277
  outer loop
    vertex 6.04882810506524e-13 572.640377608374 8.660172867253012
    vertex 6.05587802127161e-13 570.2027444155646 6.222539674443143
    vertex 145.00000000000037 572.6403776083739 8.66017286725199
  endloop
endfacet
facet normal 2.0289328809874826e-15 -0.7071067811865674 0.7071067811865277
  outer loop
    vertex 145.00000000000065 570.2027444155648 6.222539674442735
    vertex 145.00000000000037 572.6403776083739 8.66017286725199
    vertex 6.05587802127161e-13 570.2027444155646 6.222539674443143
  endloop
endfacet
facet normal 1.6653345369377457e-16 8.337774914934926e-14 -1.0
  outer loop
    vertex 6.069977853684349e-13 559.4547213415294 2.6789681584205025e-14
    vertex 6.069977853684349e-13 570.7684298405137 1.2562950679750883e-12
    vertex 145.00000000000063 559.4547213415295 3.242961454930082e-14
  endloop
endfacet
facet normal 1.6653345369377457e-16 8.337774914934926e-14 -1.0
  outer loop
    vertex 145.00000000000063 570.7684298405136 7.176814698084399e-13
    vertex 145.00000000000063 559.4547213415295 3.242961454930082e-14
    vertex 6.069977853684349e-13 570.7684298405137 1.2562950679750883e-12
  endloop
endfacet
facet normal 1.1335844236260172e-16 -0.8729434821372113 -0.48782135766503754
  outer loop
    vertex 6.04177818885887e-13 553.3709346958477 10.88677610279673
    vertex 6.069977853684349e-13 559.4547213415294 2.6789681584205025e-14
    vertex 145.00000000000063 553.3709346958478 10.886776102796352
  endloop
endfacet
facet normal 1.1335844236260172e-16 -0.8729434821372113 -0.48782135766503754
  outer loop
    vertex 145.00000000000063 559.4547213415295 3.242961454930082e-14
    vertex 145.00000000000063 553.3709346958478 10.886776102796352
    vertex 6.069977853684349e-13 559.4547213415294 2.6789681584205025e-14
  endloop
endfacet
facet normal 8.864913032987683e-16 0.7071067811864936 0.7071067811866015
  outer loop
    vertex 6.04177818885887e-13 554.3635525169852 11.879393923934161
    vertex 145.00000000000065 554.3635525169851 11.87939392393359
    vertex 6.05587802127161e-13 560.0204067664781 6.222539674441987
  endloop
endfacet
facet normal 8.864913032987683e-16 0.7071067811864936 0.7071067811866015
  outer loop
    vertex 145.00000000000065 560.0204067664779 6.222539674441612
    vertex 6.05587802127161e-13 560.0204067664781 6.222539674441987
    vertex 145.00000000000065 554.3635525169851 11.87939392393359
  endloop
endfacet
facet normal -2.5789920316814133e-16 0.872943482137285 -0.4878213576649053
  outer loop
    vertex 6.069977853684349e-13 570.7684298405137 1.2562950679750883e-12
    vertex 6.05587802127161e-13 574.5440957285725 6.756454747055036
    vertex 145.00000000000063 570.7684298405136 7.176814698084399e-13
  endloop
endfacet
facet normal -2.5789920316814133e-16 0.872943482137285 -0.4878213576649053
  outer loop
    vertex 145.0000000000004 574.5440957285725 6.756454747053443
    vertex 145.00000000000063 570.7684298405136 7.176814698084399e-13
    vertex 6.05587802127161e-13 574.5440957285725 6.756454747055036
  endloop
endfacet
facet normal 4.882025645510963e-15 0.707106781186505 0.7071067811865901
  outer loop
    vertex 6.04882810506524e-13 572.640377608374 8.660172867253012
    vertex 145.00000000000037 572.6403776083739 8.66017286725199
    vertex 6.05587802127161e-13 574.5440957285725 6.756454747055036
  endloop
endfacet
facet normal 4.882025645510963e-15 0.707106781186505 0.7071067811865901
  outer loop
    vertex 145.0000000000004 574.5440957285725 6.756454747053443
    vertex 6.05587802127161e-13 574.5440957285725 6.756454747055036
    vertex 145.00000000000037 572.6403776083739 8.66017286725199
  endloop
endfacet
facet normal 1.0 -1.4791141972893971e-31 -4.930380657631324e-32
  outer loop
    vertex 125.00000000000065 563.4145193161738 2.8384776310864144
    vertex 125.00000000000065 563.9115755910215 2.4570729368508437
    vertex 125.00000000000065 563.0331146219386 3.3355339059336786
  endloop
endfacet
facet normal 1.0 -1.4791141972893971e-31 -4.930380657631324e-32
  outer loop
    vertex 125.00000000000065 564.4904098827753 2.2173119228405302
    vertex 125.00000000000065 563.0331146219386 3.3355339059336786
    vertex 125.00000000000065 563.9115755910215 2.4570729368508437
  endloop
endfacet
facet normal 1.0 -1.4791141972893971e-31 -4.930380657631324e-32
  outer loop
    vertex 125.00000000000065 562.7933536079273 3.9143681976882605
    vertex 125.00000000000065 563.0331146219386 3.3355339059336786
    vertex 125.00000000000065 564.4904098827753 2.2173119228405302
  endloop
endfacet
facet normal 1.0 -1.4791141972893971e-31 -4.930380657631324e-32
  outer loop
    vertex 125.00000000000065 562.7115755910213 4.535533905933761
    vertex 125.00000000000065 562.7933536079273 3.9143681976882605
    vertex 125.00000000000065 564.4904098827753 2.2173119228405302
  endloop
endfacet
facet normal 1.0 -1.4791141972893971e-31 -4.930380657631324e-32
  outer loop
    vertex 125.00000000000065 565.1115755910215 2.135533905933836
    vertex 125.00000000000065 562.7115755910213 4.535533905933761
    vertex 125.00000000000065 564.4904098827753 2.2173119228405302
  endloop
endfacet
facet normal 1.0 -1.4791141972893971e-31 -4.930380657631324e-32
  outer loop
    vertex 125.00000000000065 565.7327412992674 2.2173119228400338
    vertex 125.00000000000065 562.7115755910213 4.535533905933761
    vertex 125.00000000000065 565.1115755910215 2.135533905933836
  endloop
endfacet
facet normal 1.0 -1.4791141972893971e-31 -4.930380657631324e-32
  outer loop
    vertex 125.00000000000065 562.7933536079273 5.156699614180301
    vertex 125.00000000000065 562.7115755910213 4.535533905933761
    vertex 125.00000000000065 565.7327412992674 2.2173119228400338
  endloop
endfacet
facet normal 1.0 -1.4791141972893971e-31 -4.930380657631324e-32
  outer loop
    vertex 125.00000000000065 566.3115755910213 2.4570729368510946
    vertex 125.00000000000065 562.7933536079273 5.156699614180301
    vertex 125.00000000000065 565.7327412992674 2.2173119228400338
  endloop
endfacet
facet normal 1.0 -1.4791141972893971e-31 -4.930380657631324e-32
  outer loop
    vertex 125.00000000000065 563.0331146219384 5.735533905933955
    vertex 125.00000000000065 562.7933536079273 5.156699614180301
    vertex 125.00000000000065 566.3115755910213 2.4570729368510946
  endloop
endfacet
facet normal 1.0 -1.4791141972893971e-31 -4.930380657631324e-32
  outer loop
    vertex 125.00000000000065 566.808631865869 2.8384776310862763
    vertex 125.00000000000065 563.0331146219384 5.735533905933955
    vertex 125.00000000000065 566.3115755910213 2.4570729368510946
  endloop
endfacet
facet normal 1.0 -1.4791141972893971e-31 -4.930380657631324e-32
  outer loop
    vertex 125.00000000000065 563.414519316173 6.23259018078158
    vertex 125.00000000000065 563.0331146219384 5.735533905933955
    vertex 125.00000000000065 566.808631865869 2.8384776310862763
  endloop
endfacet
facet normal 1.0 -1.4791141972893971e-31 -4.930380657631324e-32
  outer loop
    vertex 125.00000000000065 563.911575591021 6.6139948750161945
    vertex 125.00000000000065 563.414519316173 6.23259018078158
    vertex 125.00000000000065 566.808631865869 2.8384776310862763
  endloop
endfacet
facet normal 1.0 -1.4791141972893971e-31 -4.930380657631324e-32
  outer loop
    vertex 125.00000000000065 567.1900365601039 3.335533905934006
    vertex 125.00000000000065 563.911575591021 6.6139948750161945
    vertex 125.00000000000065 566.808631865869 2.8384776310862763
  endloop
endfacet
facet normal 1.0 -1.4791141972893971e-31 -4.930380657631324e-32
  outer loop
    vertex 125.00000000000065 564.4904098827748 6.853755889027992
    vertex 125.00000000000065 563.911575591021 6.6139948750161945
    vertex 125.00000000000065 567.1900365601039 3.335533905934006
  endloop
endfacet
facet normal 1.0 -1.4791141972893971e-31 -4.930380657631324e-32
  outer loop
    vertex 125.00000000000065 567.4297975741151 3.9143681976877924
    vertex 125.00000000000065 564.4904098827748 6.853755889027992
    vertex 125.00000000000065 567.1900365601039 3.335533905934006
  endloop
endfacet
facet normal 1.0 -1.4791141972893971e-31 -4.930380657631324e-32
  outer loop
    vertex 125.00000000000065 567.5115755910213 4.535533905933651
    vertex 125.00000000000065 564.4904098827748 6.853755889027992
    vertex 125.00000000000065 567.4297975741151 3.9143681976877924
  endloop
endfacet
facet normal 1.0 -1.4791141972893971e-31 -4.930380657631324e-32
  outer loop
    vertex 125.00000000000065 565.1115755910206 6.935533905934189
    vertex 125.00000000000065 564.4904098827748 6.853755889027992
    vertex 125.00000000000065 567.5115755910213 4.535533905933651
  endloop
endfacet
facet normal 1.0 -1.4791141972893971e-31 -4.930380657631324e-32
  outer loop
    vertex 125.00000000000065 567.4297975741147 5.156699614180464
    vertex 125.00000000000065 565.1115755910206 6.935533905934189
    vertex 125.00000000000065 567.5115755910213 4.535533905933651
  endloop
endfacet
facet normal 1.0 -1.4791141972893971e-31 -4.930380657631324e-32
  outer loop
    vertex 125.00000000000065 565.7327412992669 6.853755889027715
    vertex 125.00000000000065 565.1115755910206 6.935533905934189
    vertex 125.00000000000065 567.4297975741147 5.156699614180464
  endloop
endfacet
facet normal 1.0 -1.4791141972893971e-31 -4.930380657631324e-32
  outer loop
    vertex 125.00000000000065 566.3115755910209 6.613994875016889
    vertex 125.00000000000065 565.7327412992669 6.853755889027715
    vertex 125.00000000000065 567.4297975741147 5.156699614180464
  endloop
endfacet
facet normal 1.0 -1.4791141972893971e-31 -4.930380657631324e-32
  outer loop
    vertex 125.00000000000065 567.1900365601037 5.735533905934344
    vertex 125.00000000000065 566.3115755910209 6.613994875016889
    vertex 125.00000000000065 567.4297975741147 5.156699614180464
  endloop
endfacet
facet normal 1.0 -1.4791141972893971e-31 -4.930380657631324e-32
  outer loop
    vertex 125.00000000000065 566.8086318658688 6.232590180781704
    vertex 125.00000000000065 566.3115755910209 6.613994875016889
    vertex 125.00000000000065 567.1900365601037 5.735533905934344
  endloop
endfacet
facet normal -4.930380657631324e-32 -0.13052619221994555 -0.9914448613738245
  outer loop
    vertex 125.00000000000065 565.1115755910206 6.935533905934189
    vertex 125.00000000000065 565.7327412992669 6.853755889027715
    vertex 145.00000000000063 565.1115755910208 6.935533905933143
  endloop
endfacet
facet normal -4.930380657631324e-32 -0.13052619221994555 -0.9914448613738245
  outer loop
    vertex 145.00000000000063 565.732741299267 6.853755889026447
    vertex 145.00000000000063 565.1115755910208 6.935533905933143
    vertex 125.00000000000065 565.7327412992669 6.853755889027715
  endloop
endfacet
facet normal 4.930380657631324e-32 0.13052619222016698 -0.9914448613737954
  outer loop
    vertex 125.00000000000065 564.4904098827748 6.853755889027992
    vertex 125.00000000000065 565.1115755910206 6.935533905934189
    vertex 145.00000000000063 564.4904098827748 6.853755889026779
  endloop
endfacet
facet normal 4.930380657631324e-32 0.13052619222016698 -0.9914448613737954
  outer loop
    vertex 145.00000000000063 565.1115755910208 6.935533905933143
    vertex 145.00000000000063 564.4904098827748 6.853755889026779
    vertex 125.00000000000065 565.1115755910206 6.935533905934189
  endloop
endfacet
facet normal 1.035379938102578e-30 0.3826834323651979 -0.9238795325112421
  outer loop
    vertex 125.00000000000065 563.911575591021 6.6139948750161945
    vertex 125.00000000000065 564.4904098827748 6.853755889027992
    vertex 145.00000000000063 563.911575591021 6.6139948750152415
  endloop
endfacet
facet normal 1.035379938102578e-30 0.3826834323651979 -0.9238795325112421
  outer loop
    vertex 145.00000000000063 564.4904098827748 6.853755889026779
    vertex 145.00000000000063 563.911575591021 6.6139948750152415
    vertex 125.00000000000065 564.4904098827748 6.853755889027992
  endloop
endfacet
facet normal 1.0846837446788912e-30 0.6087614290087985 -0.7933533402911755
  outer loop
    vertex 125.00000000000065 563.414519316173 6.23259018078158
    vertex 125.00000000000065 563.911575591021 6.6139948750161945
    vertex 145.00000000000063 563.4145193161733 6.2325901807805
  endloop
endfacet
facet normal 1.0846837446788912e-30 0.6087614290087985 -0.7933533402911755
  outer loop
    vertex 145.00000000000063 563.911575591021 6.6139948750152415
    vertex 145.00000000000063 563.4145193161733 6.2325901807805
    vertex 125.00000000000065 563.911575591021 6.6139948750161945
  endloop
endfacet
facet normal 6.656013887802287e-31 0.793353340291309 -0.6087614290086246
  outer loop
    vertex 125.00000000000065 563.0331146219384 5.735533905933955
    vertex 125.00000000000065 563.414519316173 6.23259018078158
    vertex 145.00000000000063 563.0331146219384 5.735533905932807
  endloop
endfacet
facet normal 6.656013887802287e-31 0.793353340291309 -0.6087614290086246
  outer loop
    vertex 145.00000000000063 563.4145193161733 6.2325901807805
    vertex 145.00000000000063 563.0331146219384 5.735533905932807
    vertex 125.00000000000065 563.414519316173 6.23259018078158
  endloop
endfacet
facet normal 6.162975822039156e-32 0.9238795325113165 -0.3826834323650185
  outer loop
    vertex 125.00000000000065 562.7933536079273 5.156699614180301
    vertex 125.00000000000065 563.0331146219384 5.735533905933955
    vertex 145.00000000000063 562.7933536079274 5.156699614178547
  endloop
endfacet
facet normal 6.162975822039156e-32 0.9238795325113165 -0.3826834323650185
  outer loop
    vertex 145.00000000000063 563.0331146219384 5.735533905932807
    vertex 145.00000000000063 562.7933536079274 5.156699614178547
    vertex 125.00000000000065 563.0331146219384 5.735533905933955
  endloop
endfacet
facet normal -1.7256332301709629e-31 0.9914448613738303 -0.1305261922199014
  outer loop
    vertex 125.00000000000065 562.7115755910213 4.535533905933761
    vertex 125.00000000000065 562.7933536079273 5.156699614180301
    vertex 145.00000000000063 562.7115755910213 4.535533905932495
  endloop
endfacet
facet normal -1.7256332301709629e-31 0.9914448613738303 -0.1305261922199014
  outer loop
    vertex 145.00000000000063 562.7933536079274 5.156699614178547
    vertex 145.00000000000063 562.7115755910213 4.535533905932495
    vertex 125.00000000000065 562.7933536079273 5.156699614180301
  endloop
endfacet
facet normal 1.9105225048321375e-31 0.9914448613737924 0.13052619222018788
  outer loop
    vertex 125.00000000000065 562.7115755910213 4.535533905933761
    vertex 145.00000000000063 562.7115755910213 4.535533905932495
    vertex 125.00000000000065 562.7933536079273 3.9143681976882605
  endloop
endfacet
facet normal 1.9105225048321375e-31 0.9914448613737924 0.13052619222018788
  outer loop
    vertex 145.00000000000063 562.7933536079277 3.9143681976865796
    vertex 125.00000000000065 562.7933536079273 3.9143681976882605
    vertex 145.00000000000063 562.7115755910213 4.535533905932495
  endloop
endfacet
facet normal -1.2325951644078307e-31 0.9238795325112528 0.38268343236517177
  outer loop
    vertex 125.00000000000065 562.7933536079273 3.9143681976882605
    vertex 145.00000000000063 562.7933536079277 3.9143681976865796
    vertex 125.00000000000065 563.0331146219386 3.3355339059336786
  endloop
endfacet
facet normal -1.2325951644078307e-31 0.9238795325112528 0.38268343236517177
  outer loop
    vertex 145.00000000000063 563.0331146219387 3.335533905932537
    vertex 125.00000000000065 563.0331146219386 3.3355339059336786
    vertex 145.00000000000063 562.7933536079277 3.9143681976865796
  endloop
endfacet
facet normal -5.423418723394455e-31 0.7933533402911523 0.6087614290088285
  outer loop
    vertex 125.00000000000065 563.0331146219386 3.3355339059336786
    vertex 145.00000000000063 563.0331146219387 3.335533905932537
    vertex 125.00000000000065 563.4145193161738 2.8384776310864144
  endloop
endfacet
facet normal -5.423418723394455e-31 0.7933533402911523 0.6087614290088285
  outer loop
    vertex 145.00000000000063 563.4145193161739 2.8384776310848268
    vertex 125.00000000000065 563.4145193161738 2.8384776310864144
    vertex 145.00000000000063 563.0331146219387 3.335533905932537
  endloop
endfacet
facet normal 0.0 0.6087614290086524 0.7933533402912876
  outer loop
    vertex 125.00000000000065 563.4145193161738 2.8384776310864144
    vertex 145.00000000000063 563.4145193161739 2.8384776310848268
    vertex 125.00000000000065 563.9115755910215 2.4570729368508437
  endloop
endfacet
facet normal 0.0 0.6087614290086524 0.7933533402912876
  outer loop
    vertex 145.00000000000063 563.9115755910216 2.457072936850181
    vertex 125.00000000000065 563.9115755910215 2.4570729368508437
    vertex 145.00000000000063 563.4145193161739 2.8384776310848268
  endloop
endfacet
facet normal -1.3805065841367703e-30 0.38268343236496916 0.9238795325113367
  outer loop
    vertex 125.00000000000065 563.9115755910215 2.4570729368508437
    vertex 145.00000000000063 563.9115755910216 2.457072936850181
    vertex 125.00000000000065 564.4904098827753 2.2173119228405302
  endloop
endfacet
facet normal -1.3805065841367703e-30 0.38268343236496916 0.9238795325113367
  outer loop
    vertex 145.00000000000063 564.4904098827755 2.2173119228388467
    vertex 125.00000000000065 564.4904098827753 2.2173119228405302
    vertex 145.00000000000063 563.9115755910216 2.457072936850181
  endloop
endfacet
facet normal -4.930380657631324e-32 0.13052619221994383 0.9914448613738247
  outer loop
    vertex 125.00000000000065 564.4904098827753 2.2173119228405302
    vertex 145.00000000000063 564.4904098827755 2.2173119228388467
    vertex 125.00000000000065 565.1115755910215 2.135533905933836
  endloop
endfacet
facet normal -4.930380657631324e-32 0.13052619221994383 0.9914448613738247
  outer loop
    vertex 145.00000000000063 565.1115755910215 2.1355339059332974
    vertex 125.00000000000065 565.1115755910215 2.135533905933836
    vertex 145.00000000000063 564.4904098827755 2.2173119228388467
  endloop
endfacet
facet normal -5.916456789157587e-31 -0.1305261922201645 0.9914448613737956
  outer loop
    vertex 125.00000000000065 565.7327412992674 2.2173119228400338
    vertex 125.00000000000065 565.1115755910215 2.135533905933836
    vertex 145.00000000000063 565.7327412992676 2.217311922838923
  endloop
endfacet
facet normal -5.916456789157587e-31 -0.1305261922201645 0.9914448613737956
  outer loop
    vertex 145.00000000000063 565.1115755910215 2.1355339059332974
    vertex 145.00000000000063 565.7327412992676 2.217311922838923
    vertex 125.00000000000065 565.1115755910215 2.135533905933836
  endloop
endfacet
facet normal -1.035379938102578e-30 -0.3826834323651979 0.9238795325112421
  outer loop
    vertex 125.00000000000065 566.3115755910213 2.4570729368510946
    vertex 125.00000000000065 565.7327412992674 2.2173119228400338
    vertex 145.00000000000063 566.3115755910213 2.4570729368501416
  endloop
endfacet
facet normal -1.035379938102578e-30 -0.3826834323651979 0.9238795325112421
  outer loop
    vertex 145.00000000000063 565.7327412992676 2.217311922838923
    vertex 145.00000000000063 566.3115755910213 2.4570729368501416
    vertex 125.00000000000065 565.7327412992674 2.2173119228400338
  endloop
endfacet
facet normal -2.2186712959340953e-31 -0.6087614290087994 0.7933533402911747
  outer loop
    vertex 125.00000000000065 566.808631865869 2.8384776310862763
    vertex 125.00000000000065 566.3115755910213 2.4570729368510946
    vertex 145.00000000000063 566.8086318658691 2.838477631085298
  endloop
endfacet
facet normal -2.2186712959340953e-31 -0.6087614290087994 0.7933533402911747
  outer loop
    vertex 145.00000000000063 566.3115755910213 2.4570729368501416
    vertex 145.00000000000063 566.8086318658691 2.838477631085298
    vertex 125.00000000000065 566.3115755910213 2.4570729368510946
  endloop
endfacet
facet normal -4.930380657631324e-32 -0.793353340291308 0.608761429008626
  outer loop
    vertex 125.00000000000065 567.1900365601039 3.335533905934006
    vertex 125.00000000000065 566.808631865869 2.8384776310862763
    vertex 145.00000000000063 567.190036560104 3.33553390593283
  endloop
endfacet
facet normal -4.930380657631324e-32 -0.793353340291308 0.608761429008626
  outer loop
    vertex 145.00000000000063 566.8086318658691 2.838477631085298
    vertex 145.00000000000063 567.190036560104 3.33553390593283
    vertex 125.00000000000065 566.808631865869 2.8384776310862763
  endloop
endfacet
facet normal -4.930380657631324e-31 -0.9238795325113166 0.3826834323650178
  outer loop
    vertex 125.00000000000065 567.4297975741151 3.9143681976877924
    vertex 125.00000000000065 567.1900365601039 3.335533905934006
    vertex 145.00000000000063 567.4297975741152 3.9143681976870957
  endloop
endfacet
facet normal -4.930380657631324e-31 -0.9238795325113166 0.3826834323650178
  outer loop
    vertex 145.00000000000063 567.190036560104 3.33553390593283
    vertex 145.00000000000063 567.4297975741152 3.9143681976870957
    vertex 125.00000000000065 567.1900365601039 3.335533905934006
  endloop
endfacet
facet normal 1.7256332301709629e-31 -0.9914448613738303 0.1305261922199014
  outer loop
    vertex 125.00000000000065 567.5115755910213 4.535533905933651
    vertex 125.00000000000065 567.4297975741151 3.9143681976877924
    vertex 145.00000000000063 567.5115755910213 4.535533905933214
  endloop
endfacet
facet normal 1.7256332301709629e-31 -0.9914448613738303 0.1305261922199014
  outer loop
    vertex 145.00000000000063 567.4297975741152 3.9143681976870957
    vertex 145.00000000000063 567.5115755910213 4.535533905933214
    vertex 125.00000000000065 567.4297975741151 3.9143681976877924
  endloop
endfacet
facet normal -3.7594152514438835e-31 -0.9914448613737925 -0.130526192220188
  outer loop
    vertex 125.00000000000065 567.4297975741147 5.156699614180464
    vertex 125.00000000000065 567.5115755910213 4.535533905933651
    vertex 145.00000000000063 567.4297975741148 5.1566996141793195
  endloop
endfacet
facet normal -3.7594152514438835e-31 -0.9914448613737925 -0.130526192220188
  outer loop
    vertex 145.00000000000063 567.5115755910213 4.535533905933214
    vertex 145.00000000000063 567.4297975741148 5.1566996141793195
    vertex 125.00000000000065 567.5115755910213 4.535533905933651
  endloop
endfacet
facet normal 5.17689969051289e-31 -0.923879532511253 -0.3826834323651716
  outer loop
    vertex 125.00000000000065 567.1900365601037 5.735533905934344
    vertex 125.00000000000065 567.4297975741147 5.156699614180464
    vertex 145.00000000000063 567.1900365601036 5.73553390593336
  endloop
endfacet
facet normal 5.17689969051289e-31 -0.923879532511253 -0.3826834323651716
  outer loop
    vertex 145.00000000000063 567.4297975741148 5.1566996141793195
    vertex 145.00000000000063 567.1900365601036 5.73553390593336
    vertex 125.00000000000065 567.4297975741147 5.156699614180464
  endloop
endfacet
facet normal 4.190823558986624e-31 -0.7933533402911521 -0.6087614290088288
  outer loop
    vertex 125.00000000000065 566.8086318658688 6.232590180781704
    vertex 125.00000000000065 567.1900365601037 5.735533905934344
    vertex 145.00000000000063 566.8086318658688 6.232590180780782
  endloop
endfacet
facet normal 4.190823558986624e-31 -0.7933533402911521 -0.6087614290088288
  outer loop
    vertex 145.00000000000063 567.1900365601036 5.73553390593336
    vertex 145.00000000000063 566.8086318658688 6.232590180780782
    vertex 125.00000000000065 567.1900365601037 5.735533905934344
  endloop
endfacet
facet normal 1.6763294235946497e-30 -0.6087614290086525 -0.7933533402912875
  outer loop
    vertex 125.00000000000065 566.3115755910209 6.613994875016889
    vertex 125.00000000000065 566.8086318658688 6.232590180781704
    vertex 145.00000000000063 566.311575591021 6.61399487501562
  endloop
endfacet
facet normal 1.6763294235946497e-30 -0.6087614290086525 -0.7933533402912875
  outer loop
    vertex 145.00000000000063 566.8086318658688 6.232590180780782
    vertex 145.00000000000063 566.311575591021 6.61399487501562
    vertex 125.00000000000065 566.8086318658688 6.232590180781704
  endloop
endfacet
facet normal 1.035379938102578e-30 -0.3826834323649685 -0.923879532511337
  outer loop
    vertex 125.00000000000065 565.7327412992669 6.853755889027715
    vertex 125.00000000000065 566.3115755910209 6.613994875016889
    vertex 145.00000000000063 565.732741299267 6.853755889026447
  endloop
endfacet
facet normal 1.035379938102578e-30 -0.3826834323649685 -0.923879532511337
  outer loop
    vertex 145.00000000000063 566.311575591021 6.61399487501562
    vertex 145.00000000000063 565.732741299267 6.853755889026447
    vertex 125.00000000000065 566.3115755910209 6.613994875016889
  endloop
endfacet
facet normal -1.0 1.4791141972893971e-31 4.930380657631324e-32
  outer loop
    vertex 20.000000000000377 563.4145193161739 2.8384776310850497
    vertex 20.000000000000377 563.0331146219388 3.335533905933078
    vertex 20.00000000000035 563.9115755910216 2.4570729368504347
  endloop
endfacet
facet normal -1.0 1.4791141972893971e-31 4.930380657631324e-32
  outer loop
    vertex 20.00000000000035 564.4904098827756 2.2173119228392273
    vertex 20.00000000000035 563.9115755910216 2.4570729368504347
    vertex 20.000000000000377 563.0331146219388 3.335533905933078
  endloop
endfacet
facet normal -1.0 1.4791141972893971e-31 4.930380657631324e-32
  outer loop
    vertex 20.000000000000377 562.7933536079277 3.9143681976867994
    vertex 20.00000000000035 564.4904098827756 2.2173119228392273
    vertex 20.000000000000377 563.0331146219388 3.335533905933078
  endloop
endfacet
facet normal -1.0 1.4791141972893971e-31 4.930380657631324e-32
  outer loop
    vertex 20.000000000000377 562.7115755910213 4.535533905932715
    vertex 20.00000000000035 564.4904098827756 2.2173119228392273
    vertex 20.000000000000377 562.7933536079277 3.9143681976867994
  endloop
endfacet
facet normal -1.0 1.4791141972893971e-31 4.930380657631324e-32
  outer loop
    vertex 20.00000000000035 565.1115755910216 2.1355339059331704
    vertex 20.00000000000035 564.4904098827756 2.2173119228392273
    vertex 20.000000000000377 562.7115755910213 4.535533905932715
  endloop
endfacet
facet normal -1.0 1.4791141972893971e-31 4.930380657631324e-32
  outer loop
    vertex 20.000000000000377 562.7933536079272 5.156699614178894
    vertex 20.00000000000035 565.1115755910216 2.1355339059331704
    vertex 20.000000000000377 562.7115755910213 4.535533905932715
  endloop
endfacet
facet normal -1.0 1.4791141972893971e-31 4.930380657631324e-32
  outer loop
    vertex 20.00000000000035 565.7327412992678 2.2173119228395968
    vertex 20.00000000000035 565.1115755910216 2.1355339059331704
    vertex 20.000000000000377 562.7933536079272 5.156699614178894
  endloop
endfacet
facet normal -1.0 1.4791141972893971e-31 4.930380657631324e-32
  outer loop
    vertex 20.000000000000405 563.0331146219382 5.735533905933002
    vertex 20.00000000000035 565.7327412992678 2.2173119228395968
    vertex 20.000000000000377 562.7933536079272 5.156699614178894
  endloop
endfacet
facet normal -1.0 1.4791141972893971e-31 4.930380657631324e-32
  outer loop
    vertex 20.00000000000035 566.3115755910217 2.4570729368508775
    vertex 20.00000000000035 565.7327412992678 2.2173119228395968
    vertex 20.000000000000405 563.0331146219382 5.735533905933002
  endloop
endfacet
facet normal -1.0 1.4791141972893971e-31 4.930380657631324e-32
  outer loop
    vertex 20.000000000000405 563.4145193161731 6.232590180780917
    vertex 20.00000000000035 566.3115755910217 2.4570729368508775
    vertex 20.000000000000405 563.0331146219382 5.735533905933002
  endloop
endfacet
facet normal -1.0 1.4791141972893971e-31 4.930380657631324e-32
  outer loop
    vertex 20.000000000000377 566.8086318658692 2.838477631085808
    vertex 20.00000000000035 566.3115755910217 2.4570729368508775
    vertex 20.000000000000405 563.4145193161731 6.232590180780917
  endloop
endfacet
facet normal -1.0 1.4791141972893971e-31 4.930380657631324e-32
  outer loop
    vertex 20.000000000000377 563.9115755910203 6.613994875015149
    vertex 20.000000000000377 566.8086318658692 2.838477631085808
    vertex 20.000000000000405 563.4145193161731 6.232590180780917
  endloop
endfacet
facet normal -1.0 1.4791141972893971e-31 4.930380657631324e-32
  outer loop
    vertex 20.000000000000377 567.1900365601041 3.3355339059336337
    vertex 20.000000000000377 566.8086318658692 2.838477631085808
    vertex 20.000000000000377 563.9115755910203 6.613994875015149
  endloop
endfacet
facet normal -1.0 1.4791141972893971e-31 4.930380657631324e-32
  outer loop
    vertex 20.000000000000377 564.4904098827748 6.853755889027064
    vertex 20.000000000000377 567.1900365601041 3.3355339059336337
    vertex 20.000000000000377 563.9115755910203 6.613994875015149
  endloop
endfacet
facet normal -1.0 1.4791141972893971e-31 4.930380657631324e-32
  outer loop
    vertex 20.000000000000377 567.4297975741152 3.914368197687699
    vertex 20.000000000000377 567.1900365601041 3.3355339059336337
    vertex 20.000000000000377 564.4904098827748 6.853755889027064
  endloop
endfacet
facet normal -1.0 1.4791141972893971e-31 4.930380657631324e-32
  outer loop
    vertex 20.000000000000377 565.1115755910206 6.935533905933363
    vertex 20.000000000000377 567.4297975741152 3.914368197687699
    vertex 20.000000000000377 564.4904098827748 6.853755889027064
  endloop
endfacet
facet normal -1.0 1.4791141972893971e-31 4.930380657631324e-32
  outer loop
    vertex 20.000000000000377 567.511575591021 4.535533905933756
    vertex 20.000000000000377 567.4297975741152 3.914368197687699
    vertex 20.000000000000377 565.1115755910206 6.935533905933363
  endloop
endfacet
facet normal -1.0 1.4791141972893971e-31 4.930380657631324e-32
  outer loop
    vertex 20.000000000000377 565.7327412992669 6.853755889027112
    vertex 20.000000000000377 567.511575591021 4.535533905933756
    vertex 20.000000000000377 565.1115755910206 6.935533905933363
  endloop
endfacet
facet normal -1.0 1.4791141972893971e-31 4.930380657631324e-32
  outer loop
    vertex 20.000000000000377 567.4297975741147 5.156699614179672
    vertex 20.000000000000377 567.511575591021 4.535533905933756
    vertex 20.000000000000377 565.7327412992669 6.853755889027112
  endloop
endfacet
facet normal -1.0 1.4791141972893971e-31 4.930380657631324e-32
  outer loop
    vertex 20.000000000000377 566.3115755910208 6.613994875016226
    vertex 20.000000000000377 567.4297975741147 5.156699614179672
    vertex 20.000000000000377 565.7327412992669 6.853755889027112
  endloop
endfacet
facet normal -1.0 1.4791141972893971e-31 4.930380657631324e-32
  outer loop
    vertex 20.000000000000405 567.1900365601036 5.7355339059334245
    vertex 20.000000000000377 567.4297975741147 5.156699614179672
    vertex 20.000000000000377 566.3115755910208 6.613994875016226
  endloop
endfacet
facet normal -1.0 1.4791141972893971e-31 4.930380657631324e-32
  outer loop
    vertex 20.000000000000405 566.8086318658684 6.232590180781357
    vertex 20.000000000000405 567.1900365601036 5.7355339059334245
    vertex 20.000000000000377 566.3115755910208 6.613994875016226
  endloop
endfacet
facet normal 2.9582283945787934e-31 0.13052619222023762 -0.9914448613737858
  outer loop
    vertex 3.7999048352332916e-13 564.4904098827748 6.853755889027061
    vertex 3.7999048352332916e-13 565.1115755910207 6.935533905933078
    vertex 20.000000000000377 564.4904098827748 6.853755889027064
  endloop
endfacet
facet normal 2.9582283945787934e-31 0.13052619222023762 -0.9914448613737858
  outer loop
    vertex 20.000000000000377 565.1115755910206 6.935533905933363
    vertex 20.000000000000377 564.4904098827748 6.853755889027064
    vertex 3.7999048352332916e-13 565.1115755910207 6.935533905933078
  endloop
endfacet
facet normal 1.2818989709841438e-30 -0.13052619221986336 -0.9914448613738351
  outer loop
    vertex 20.000000000000377 565.1115755910206 6.935533905933363
    vertex 3.7999048352332916e-13 565.1115755910207 6.935533905933078
    vertex 20.000000000000377 565.7327412992669 6.853755889027112
  endloop
endfacet
facet normal 1.2818989709841438e-30 -0.13052619221986336 -0.9914448613738351
  outer loop
    vertex 3.7999048352332916e-13 565.732741299267 6.853755889027112
    vertex 20.000000000000377 565.7327412992669 6.853755889027112
    vertex 3.7999048352332916e-13 565.1115755910207 6.935533905933078
  endloop
endfacet
facet normal 3.4512664603419275e-31 -0.3826834323649343 -0.9238795325113514
  outer loop
    vertex 20.000000000000377 565.7327412992669 6.853755889027112
    vertex 3.7999048352332916e-13 565.732741299267 6.853755889027112
    vertex 20.000000000000377 566.3115755910208 6.613994875016226
  endloop
endfacet
facet normal 3.4512664603419275e-31 -0.3826834323649343 -0.9238795325113514
  outer loop
    vertex 3.7999048352332916e-13 566.3115755910208 6.613994875016223
    vertex 20.000000000000377 566.3115755910208 6.613994875016226
    vertex 3.7999048352332916e-13 565.732741299267 6.853755889027112
  endloop
endfacet
facet normal 2.465190328815662e-31 -0.6087614290085447 -0.7933533402913702
  outer loop
    vertex 20.000000000000377 566.3115755910208 6.613994875016226
    vertex 3.7999048352332916e-13 566.3115755910208 6.613994875016223
    vertex 20.000000000000405 566.8086318658684 6.232590180781357
  endloop
endfacet
facet normal 2.465190328815662e-31 -0.6087614290085447 -0.7933533402913702
  outer loop
    vertex 3.7999048352332916e-13 566.8086318658686 6.23259018078129
    vertex 20.000000000000405 566.8086318658684 6.232590180781357
    vertex 3.7999048352332916e-13 566.3115755910208 6.613994875016223
  endloop
endfacet
facet normal 1.4791141972893971e-31 -0.793353340291137 -0.6087614290088486
  outer loop
    vertex 20.000000000000405 566.8086318658684 6.232590180781357
    vertex 3.7999048352332916e-13 566.8086318658686 6.23259018078129
    vertex 20.000000000000405 567.1900365601036 5.7355339059334245
  endloop
endfacet
facet normal 1.4791141972893971e-31 -0.793353340291137 -0.6087614290088486
  outer loop
    vertex 3.7999048352332916e-13 567.1900365601036 5.735533905933422
    vertex 20.000000000000405 567.1900365601036 5.7355339059334245
    vertex 3.7999048352332916e-13 566.8086318658686 6.23259018078129
  endloop
endfacet
facet normal 1.4791141972893967e-31 -0.9238795325112233 -0.3826834323652428
  outer loop
    vertex 20.000000000000405 567.1900365601036 5.7355339059334245
    vertex 3.7999048352332916e-13 567.1900365601036 5.735533905933422
    vertex 20.000000000000377 567.4297975741147 5.156699614179672
  endloop
endfacet
facet normal 1.4791141972893967e-31 -0.9238795325112233 -0.3826834323652428
  outer loop
    vertex 3.7999048352332916e-13 567.4297975741148 5.156699614179729
    vertex 20.000000000000377 567.4297975741147 5.156699614179672
    vertex 3.7999048352332916e-13 567.1900365601036 5.735533905933422
  endloop
endfacet
facet normal 2.8965986363584023e-31 -0.991444861373783 -0.13052619222026038
  outer loop
    vertex 20.000000000000377 567.4297975741147 5.156699614179672
    vertex 3.7999048352332916e-13 567.4297975741148 5.156699614179729
    vertex 20.000000000000377 567.511575591021 4.535533905933756
  endloop
endfacet
facet normal 2.8965986363584023e-31 -0.991444861373783 -0.13052619222026038
  outer loop
    vertex 3.877453913503359e-13 567.511575591021 4.53553390593375
    vertex 20.000000000000377 567.511575591021 4.535533905933756
    vertex 3.7999048352332916e-13 567.4297975741148 5.156699614179729
  endloop
endfacet
facet normal -4.3140830754274083e-32 -0.9914448613738398 0.13052619221982875
  outer loop
    vertex 3.806954751439662e-13 567.4297975741152 3.9143681976876934
    vertex 20.000000000000377 567.4297975741152 3.914368197687699
    vertex 3.877453913503359e-13 567.511575591021 4.53553390593375
  endloop
endfacet
facet normal -4.3140830754274083e-32 -0.9914448613738398 0.13052619221982875
  outer loop
    vertex 20.000000000000377 567.511575591021 4.535533905933756
    vertex 3.877453913503359e-13 567.511575591021 4.53553390593375
    vertex 20.000000000000377 567.4297975741152 3.914368197687699
  endloop
endfacet
facet normal 3.697785493223492e-32 -0.9238795325113462 0.38268343236494595
  outer loop
    vertex 3.806954751439662e-13 567.4297975741152 3.9143681976876934
    vertex 3.806954751439662e-13 567.1900365601041 3.3355339059333686
    vertex 20.000000000000377 567.4297975741152 3.914368197687699
  endloop
endfacet
facet normal 3.697785493223492e-32 -0.9238795325113462 0.38268343236494595
  outer loop
    vertex 20.000000000000377 567.1900365601041 3.3355339059336337
    vertex 20.000000000000377 567.4297975741152 3.914368197687699
    vertex 3.806954751439662e-13 567.1900365601041 3.3355339059333686
  endloop
endfacet
facet normal -7.888609052210116e-31 -0.7933533402913598 0.6087614290085581
  outer loop
    vertex 3.806954751439662e-13 567.1900365601041 3.3355339059333686
    vertex 3.806954751439662e-13 566.8086318658694 2.8384776310860254
    vertex 20.000000000000377 567.1900365601041 3.3355339059336337
  endloop
endfacet
facet normal -7.888609052210116e-31 -0.7933533402913598 0.6087614290085581
  outer loop
    vertex 20.000000000000377 566.8086318658692 2.838477631085808
    vertex 20.000000000000377 567.1900365601041 3.3355339059336337
    vertex 3.806954751439662e-13 566.8086318658694 2.8384776310860254
  endloop
endfacet
facet normal -4.437342591868191e-31 -0.6087614290088718 0.7933533402911194
  outer loop
    vertex 3.806954751439662e-13 566.8086318658694 2.8384776310860254
    vertex 3.806954751439662e-13 566.3115755910217 2.457072936850872
    vertex 20.000000000000377 566.8086318658692 2.838477631085808
  endloop
endfacet
facet normal -4.437342591868191e-31 -0.6087614290088718 0.7933533402911194
  outer loop
    vertex 20.00000000000035 566.3115755910217 2.4570729368508775
    vertex 20.000000000000377 566.8086318658692 2.838477631085808
    vertex 3.806954751439662e-13 566.3115755910217 2.457072936850872
  endloop
endfacet
facet normal -9.367723249499513e-31 -0.3826834323652571 0.9238795325112175
  outer loop
    vertex 3.806954751439662e-13 566.3115755910217 2.457072936850872
    vertex 3.806954751439662e-13 565.7327412992678 2.2173119228393348
    vertex 20.00000000000035 566.3115755910217 2.4570729368508775
  endloop
endfacet
facet normal -9.367723249499513e-31 -0.3826834323652571 0.9238795325112175
  outer loop
    vertex 20.00000000000035 565.7327412992678 2.2173119228395968
    vertex 20.00000000000035 566.3115755910217 2.4570729368508775
    vertex 3.806954751439662e-13 565.7327412992678 2.2173119228393348
  endloop
endfacet
facet normal -2.4651903288156615e-31 -0.13052619222023712 0.9914448613737861
  outer loop
    vertex 3.806954751439662e-13 565.7327412992678 2.2173119228393348
    vertex 3.806954751439662e-13 565.1115755910218 2.135533905933261
    vertex 20.00000000000035 565.7327412992678 2.2173119228395968
  endloop
endfacet
facet normal -2.4651903288156615e-31 -0.13052619222023712 0.9914448613737861
  outer loop
    vertex 20.00000000000035 565.1115755910216 2.1355339059331704
    vertex 20.00000000000035 565.7327412992678 2.2173119228395968
    vertex 3.806954751439662e-13 565.1115755910218 2.135533905933261
  endloop
endfacet
facet normal -1.331202777560457e-30 0.1305261922198623 0.9914448613738354
  outer loop
    vertex 3.806954751439662e-13 564.4904098827756 2.2173119228394813
    vertex 20.00000000000035 564.4904098827756 2.2173119228392273
    vertex 3.806954751439662e-13 565.1115755910218 2.135533905933261
  endloop
endfacet
facet normal -1.331202777560457e-30 0.1305261922198623 0.9914448613738354
  outer loop
    vertex 20.00000000000035 565.1115755910216 2.1355339059331704
    vertex 3.806954751439662e-13 565.1115755910218 2.135533905933261
    vertex 20.00000000000035 564.4904098827756 2.2173119228392273
  endloop
endfacet
facet normal -9.367723249499515e-31 0.3826834323649352 0.9238795325113509
  outer loop
    vertex 3.806954751439662e-13 563.9115755910216 2.4570729368504294
    vertex 20.00000000000035 563.9115755910216 2.4570729368504347
    vertex 3.806954751439662e-13 564.4904098827756 2.2173119228394813
  endloop
endfacet
facet normal -9.367723249499515e-31 0.3826834323649352 0.9238795325113509
  outer loop
    vertex 20.00000000000035 564.4904098827756 2.2173119228392273
    vertex 3.806954751439662e-13 564.4904098827756 2.2173119228394813
    vertex 20.00000000000035 563.9115755910216 2.4570729368504347
  endloop
endfacet
facet normal -4.683861624749758e-31 0.6087614290085452 0.79335334029137
  outer loop
    vertex 20.000000000000377 563.4145193161739 2.8384776310850497
    vertex 20.00000000000035 563.9115755910216 2.4570729368504347
    vertex 3.806954751439662e-13 563.4145193161739 2.8384776310848525
  endloop
endfacet
facet normal -4.683861624749758e-31 0.6087614290085452 0.79335334029137
  outer loop
    vertex 3.806954751439662e-13 563.9115755910216 2.4570729368504294
    vertex 3.806954751439662e-13 563.4145193161739 2.8384776310848525
    vertex 20.00000000000035 563.9115755910216 2.4570729368504347
  endloop
endfacet
facet normal -4.9303806576313227e-32 0.7933533402911364 0.6087614290088493
  outer loop
    vertex 3.806954751439662e-13 563.0331146219388 3.3355339059330444
    vertex 20.000000000000377 563.0331146219388 3.335533905933078
    vertex 3.806954751439662e-13 563.4145193161739 2.8384776310848525
  endloop
endfacet
facet normal -4.9303806576313227e-32 0.7933533402911364 0.6087614290088493
  outer loop
    vertex 20.000000000000377 563.4145193161739 2.8384776310850497
    vertex 3.806954751439662e-13 563.4145193161739 2.8384776310848525
    vertex 20.000000000000377 563.0331146219388 3.335533905933078
  endloop
endfacet
facet normal -1.4791141972893967e-31 0.9238795325112233 0.3826834323652428
  outer loop
    vertex 3.806954751439662e-13 562.7933536079277 3.914368197686794
    vertex 20.000000000000377 562.7933536079277 3.9143681976867994
    vertex 3.806954751439662e-13 563.0331146219388 3.3355339059330444
  endloop
endfacet
facet normal -1.4791141972893967e-31 0.9238795325112233 0.3826834323652428
  outer loop
    vertex 20.000000000000377 563.0331146219388 3.335533905933078
    vertex 3.806954751439662e-13 563.0331146219388 3.3355339059330444
    vertex 20.000000000000377 562.7933536079277 3.9143681976867994
  endloop
endfacet
facet normal -2.8965986363584023e-31 0.991444861373783 0.13052619222026038
  outer loop
    vertex 3.877453913503359e-13 562.7115755910213 4.535533905932774
    vertex 20.000000000000377 562.7115755910213 4.535533905932715
    vertex 3.806954751439662e-13 562.7933536079277 3.914368197686794
  endloop
endfacet
facet normal -2.8965986363584023e-31 0.991444861373783 0.13052619222026038
  outer loop
    vertex 20.000000000000377 562.7933536079277 3.9143681976867994
    vertex 3.806954751439662e-13 562.7933536079277 3.914368197686794
    vertex 20.000000000000377 562.7115755910213 4.535533905932715
  endloop
endfacet
facet normal 1.1093356479670479e-31 0.9914448613738398 -0.13052619221982875
  outer loop
    vertex 3.7999048352332916e-13 562.7933536079273 5.156699614179055
    vertex 20.000000000000377 562.7933536079272 5.156699614178894
    vertex 3.877453913503359e-13 562.7115755910213 4.535533905932774
  endloop
endfacet
facet normal 1.1093356479670479e-31 0.9914448613738398 -0.13052619221982875
  outer loop
    vertex 20.000000000000377 562.7115755910213 4.535533905932715
    vertex 3.877453913503359e-13 562.7115755910213 4.535533905932774
    vertex 20.000000000000377 562.7933536079272 5.156699614178894
  endloop
endfacet
facet normal 1.972152263052529e-31 0.9238795325113464 -0.38268343236494584
  outer loop
    vertex 3.7999048352332916e-13 562.7933536079273 5.156699614179055
    vertex 3.7999048352332916e-13 563.0331146219384 5.735533905932906
    vertex 20.000000000000377 562.7933536079272 5.156699614178894
  endloop
endfacet
facet normal 1.972152263052529e-31 0.9238795325113464 -0.38268343236494584
  outer loop
    vertex 20.000000000000405 563.0331146219382 5.735533905933002
    vertex 20.000000000000377 562.7933536079272 5.156699614178894
    vertex 3.7999048352332916e-13 563.0331146219384 5.735533905932906
  endloop
endfacet
facet normal 5.669937756276022e-31 0.7933533402913596 -0.6087614290085587
  outer loop
    vertex 3.7999048352332916e-13 563.0331146219384 5.735533905932906
    vertex 3.7999048352332916e-13 563.414519316173 6.23259018078079
    vertex 20.000000000000405 563.0331146219382 5.735533905933002
  endloop
endfacet
facet normal 5.669937756276022e-31 0.7933533402913596 -0.6087614290085587
  outer loop
    vertex 20.000000000000405 563.4145193161731 6.232590180780917
    vertex 20.000000000000405 563.0331146219382 5.735533905933002
    vertex 3.7999048352332916e-13 563.414519316173 6.23259018078079
  endloop
endfacet
facet normal 5.6699377562760215e-31 0.6087614290088721 -0.7933533402911189
  outer loop
    vertex 3.7999048352332916e-13 563.414519316173 6.23259018078079
    vertex 3.7999048352332916e-13 563.9115755910204 6.6139948750157185
    vertex 20.000000000000405 563.4145193161731 6.232590180780917
  endloop
endfacet
facet normal 5.6699377562760215e-31 0.6087614290088721 -0.7933533402911189
  outer loop
    vertex 20.000000000000377 563.9115755910203 6.613994875015149
    vertex 20.000000000000405 563.4145193161731 6.232590180780917
    vertex 3.7999048352332916e-13 563.9115755910204 6.6139948750157185
  endloop
endfacet
facet normal 8.874685183736383e-31 0.3826834323652574 -0.9238795325112175
  outer loop
    vertex 3.7999048352332916e-13 563.9115755910204 6.6139948750157185
    vertex 3.7999048352332916e-13 564.4904098827748 6.853755889027061
    vertex 20.000000000000377 563.9115755910203 6.613994875015149
  endloop
endfacet
facet normal 8.874685183736383e-31 0.3826834323652574 -0.9238795325112175
  outer loop
    vertex 20.000000000000377 564.4904098827748 6.853755889027064
    vertex 20.000000000000377 563.9115755910203 6.613994875015149
    vertex 3.7999048352332916e-13 564.4904098827748 6.853755889027061
  endloop
endfacet
facet normal -3.167761043038254e-16 0.7071067811864581 0.7071067811866371
  outer loop
    vertex 6.04882810506524e-13 566.8086318658686 9.616652224137871
    vertex 145.00000000000065 566.8086318658686 9.616652224137622
    vertex 6.05587802127161e-13 570.2027444155646 6.222539674443143
  endloop
endfacet
facet normal -3.167761043038254e-16 0.7071067811864581 0.7071067811866371
  outer loop
    vertex 145.00000000000065 570.2027444155648 6.222539674442735
    vertex 6.05587802127161e-13 570.2027444155646 6.222539674443143
    vertex 145.00000000000065 566.8086318658686 9.616652224137622
  endloop
endfacet
facet normal -6.602611178099498e-15 -7.612244168342386e-13 1.0
  outer loop
    vertex 5.759781540604081e-13 566.8793425439815 12.020815280177626
    vertex 6.027678356446131e-13 559.3890359165779 12.020815280172393
    vertex 145.0000000000006 566.8793425439825 12.020815280178969
  endloop
endfacet
facet normal -6.602611178099498e-15 -7.612244168342386e-13 1.0
  outer loop
    vertex 145.00000000000063 559.3890359165785 12.020815280172748
    vertex 145.0000000000006 566.8793425439825 12.020815280178969
    vertex 6.027678356446131e-13 559.3890359165779 12.020815280172393
  endloop
endfacet
facet normal 1.7669602471791205e-15 0.7071067811888043 -0.7071067811842908
  outer loop
    vertex 5.816180870255039e-13 568.046068732941 10.854089091217862
    vertex 145.0000000000006 568.046068732942 10.854089091218983
    vertex 6.04882810506524e-13 566.8086318658686 9.616652224137871
  endloop
endfacet
facet normal 1.7669602471791205e-15 0.7071067811888043 -0.7071067811842908
  outer loop
    vertex 145.00000000000065 566.8086318658686 9.616652224137622
    vertex 6.04882810506524e-13 566.8086318658686 9.616652224137871
    vertex 145.0000000000006 568.046068732942 10.854089091218983
  endloop
endfacet
facet normal 1.0 8.797584022929355e-15 3.798272791129637e-15
  outer loop
    vertex 145.00000000000063 563.4145193161739 2.8384776310848268
    vertex 145.00000000000063 563.0331146219387 3.335533905932537
    vertex 145.00000000000065 560.0204067664779 6.222539674441612
  endloop
endfacet
facet normal 1.0 8.797584022929355e-15 3.798272791129637e-15
  outer loop
    vertex 145.00000000000063 562.7933536079277 3.9143681976865796
    vertex 145.00000000000065 560.0204067664779 6.222539674441612
    vertex 145.00000000000063 563.0331146219387 3.335533905932537
  endloop
endfacet
facet normal 1.0 8.797584022929355e-15 3.798272791129637e-15
  outer loop
    vertex 145.00000000000063 562.7115755910213 4.535533905932495
    vertex 145.00000000000065 560.0204067664779 6.222539674441612
    vertex 145.00000000000063 562.7933536079277 3.9143681976865796
  endloop
endfacet
facet normal 1.0 8.797584022929355e-15 3.798272791129637e-15
  outer loop
    vertex 145.00000000000063 562.353859144393 8.55599205235712
    vertex 145.00000000000065 560.0204067664779 6.222539674441612
    vertex 145.00000000000063 562.7115755910213 4.535533905932495
  endloop
endfacet
facet normal 1.0 8.797584022929355e-15 3.798272791129637e-15
  outer loop
    vertex 145.00000000000063 562.7933536079274 5.156699614178547
    vertex 145.00000000000063 562.353859144393 8.55599205235712
    vertex 145.00000000000063 562.7115755910213 4.535533905932495
  endloop
endfacet
facet normal 1.0 8.797584022929355e-15 3.798272791129637e-15
  outer loop
    vertex 145.00000000000063 563.0331146219384 5.735533905932807
    vertex 145.00000000000063 562.353859144393 8.55599205235712
    vertex 145.00000000000063 562.7933536079274 5.156699614178547
  endloop
endfacet
facet normal 1.0 8.797584022929355e-15 3.798272791129637e-15
  outer loop
    vertex 145.00000000000063 563.4145193161733 6.2325901807805
    vertex 145.00000000000063 562.353859144393 8.55599205235712
    vertex 145.00000000000063 563.0331146219384 5.735533905932807
  endloop
endfacet
facet normal 1.0 8.797584022929355e-15 3.798272791129637e-15
  outer loop
    vertex 145.00000000000063 563.911575591021 6.6139948750152415
    vertex 145.00000000000063 562.353859144393 8.55599205235712
    vertex 145.00000000000063 563.4145193161733 6.2325901807805
  endloop
endfacet
facet normal 1.0 8.797584022929355e-15 3.798272791129637e-15
  outer loop
    vertex 145.00000000000063 564.4904098827748 6.853755889026779
    vertex 145.00000000000063 562.353859144393 8.55599205235712
    vertex 145.00000000000063 563.911575591021 6.6139948750152415
  endloop
endfacet
facet normal 1.0 8.797584022929355e-15 3.798272791129637e-15
  outer loop
    vertex 145.00000000000063 559.3890359165788 11.520815280172622
    vertex 145.00000000000063 562.353859144393 8.55599205235712
    vertex 145.00000000000063 564.4904098827748 6.853755889026779
  endloop
endfacet
facet normal 1.0 8.797584022929355e-15 3.798272791129637e-15
  outer loop
    vertex 145.00000000000063 559.3890359165785 12.020815280172748
    vertex 145.00000000000063 559.3890359165788 11.520815280172622
    vertex 145.00000000000063 564.4904098827748 6.853755889026779
  endloop
endfacet
facet normal 1.0 8.797584022929355e-15 3.798272791129637e-15
  outer loop
    vertex 145.00000000000063 565.1115755910208 6.935533905933143
    vertex 145.00000000000063 559.3890359165785 12.020815280172748
    vertex 145.00000000000063 564.4904098827748 6.853755889026779
  endloop
endfacet
facet normal 1.0 8.797584022929355e-15 3.798272791129637e-15
  outer loop
    vertex 145.0000000000006 566.8793425439825 12.020815280178969
    vertex 145.00000000000063 559.3890359165785 12.020815280172748
    vertex 145.00000000000063 565.1115755910208 6.935533905933143
  endloop
endfacet
facet normal 1.0 8.797584022929355e-15 3.798272791129637e-15
  outer loop
    vertex 145.00000000000063 565.732741299267 6.853755889026447
    vertex 145.0000000000006 566.8793425439825 12.020815280178969
    vertex 145.00000000000063 565.1115755910208 6.935533905933143
  endloop
endfacet
facet normal 1.0 8.797584022929355e-15 3.798272791129637e-15
  outer loop
    vertex 145.00000000000063 566.311575591021 6.61399487501562
    vertex 145.0000000000006 566.8793425439825 12.020815280178969
    vertex 145.00000000000063 565.732741299267 6.853755889026447
  endloop
endfacet
facet normal 1.0 8.797584022929355e-15 3.798272791129637e-15
  outer loop
    vertex 145.00000000000065 566.8086318658686 9.616652224137622
    vertex 145.0000000000006 566.8793425439825 12.020815280178969
    vertex 145.00000000000063 566.311575591021 6.61399487501562
  endloop
endfacet
facet normal 1.0 8.797584022929355e-15 3.798272791129637e-15
  outer loop
    vertex 145.00000000000063 566.8086318658688 6.232590180780782
    vertex 145.00000000000065 566.8086318658686 9.616652224137622
    vertex 145.00000000000063 566.311575591021 6.61399487501562
  endloop
endfacet
facet normal 1.0 8.797584022929355e-15 3.798272791129637e-15
  outer loop
    vertex 145.0000000000006 568.046068732942 10.854089091218983
    vertex 145.0000000000006 566.8793425439825 12.020815280178969
    vertex 145.00000000000065 566.8086318658686 9.616652224137622
  endloop
endfacet
facet normal 1.0 8.797584022929355e-15 3.798272791129637e-15
  outer loop
    vertex 145.00000000000063 570.7684298405136 7.176814698084399e-13
    vertex 145.00000000000063 564.4904098827755 2.2173119228388467
    vertex 145.00000000000063 559.4547213415295 3.242961454930082e-14
  endloop
endfacet
facet normal 1.0 8.797584022929355e-15 3.798272791129637e-15
  outer loop
    vertex 145.00000000000063 563.9115755910216 2.457072936850181
    vertex 145.00000000000063 559.4547213415295 3.242961454930082e-14
    vertex 145.00000000000063 564.4904098827755 2.2173119228388467
  endloop
endfacet
facet normal 1.0 8.797584022929355e-15 3.798272791129637e-15
  outer loop
    vertex 145.00000000000063 563.4145193161739 2.8384776310848268
    vertex 145.00000000000063 559.4547213415295 3.242961454930082e-14
    vertex 145.00000000000063 563.9115755910216 2.457072936850181
  endloop
endfacet
facet normal 1.0 8.797584022929355e-15 3.798272791129637e-15
  outer loop
    vertex 145.00000000000063 553.3709346958478 10.886776102796352
    vertex 145.00000000000063 559.4547213415295 3.242961454930082e-14
    vertex 145.00000000000063 563.4145193161739 2.8384776310848268
  endloop
endfacet
facet normal 1.0 8.797584022929355e-15 3.798272791129637e-15
  outer loop
    vertex 145.00000000000065 560.0204067664779 6.222539674441612
    vertex 145.00000000000063 553.3709346958478 10.886776102796352
    vertex 145.00000000000063 563.4145193161739 2.8384776310848268
  endloop
endfacet
facet normal 1.0 8.797584022929355e-15 3.798272791129637e-15
  outer loop
    vertex 145.00000000000065 554.3635525169851 11.87939392393359
    vertex 145.00000000000063 553.3709346958478 10.886776102796352
    vertex 145.00000000000065 560.0204067664779 6.222539674441612
  endloop
endfacet
facet normal 1.0 8.797584022929355e-15 3.798272791129637e-15
  outer loop
    vertex 145.00000000000063 565.1115755910215 2.1355339059332974
    vertex 145.00000000000063 564.4904098827755 2.2173119228388467
    vertex 145.00000000000063 570.7684298405136 7.176814698084399e-13
  endloop
endfacet
facet normal 1.0 8.797584022929355e-15 3.798272791129637e-15
  outer loop
    vertex 145.00000000000063 565.7327412992676 2.217311922838923
    vertex 145.00000000000063 565.1115755910215 2.1355339059332974
    vertex 145.00000000000063 570.7684298405136 7.176814698084399e-13
  endloop
endfacet
facet normal 1.0 8.797584022929355e-15 3.798272791129637e-15
  outer loop
    vertex 145.00000000000063 566.3115755910213 2.4570729368501416
    vertex 145.00000000000063 565.7327412992676 2.217311922838923
    vertex 145.00000000000063 570.7684298405136 7.176814698084399e-13
  endloop
endfacet
facet normal 1.0 8.797584022929355e-15 3.798272791129637e-15
  outer loop
    vertex 145.00000000000063 566.8086318658691 2.838477631085298
    vertex 145.00000000000063 566.3115755910213 2.4570729368501416
    vertex 145.00000000000063 570.7684298405136 7.176814698084399e-13
  endloop
endfacet
facet normal 1.0 8.797584022929355e-15 3.798272791129637e-15
  outer loop
    vertex 145.00000000000063 567.190036560104 3.33553390593283
    vertex 145.00000000000063 566.8086318658691 2.838477631085298
    vertex 145.00000000000063 570.7684298405136 7.176814698084399e-13
  endloop
endfacet
facet normal 1.0 8.797584022929355e-15 3.798272791129637e-15
  outer loop
    vertex 145.00000000000063 567.4297975741152 3.9143681976870957
    vertex 145.00000000000063 567.190036560104 3.33553390593283
    vertex 145.00000000000063 570.7684298405136 7.176814698084399e-13
  endloop
endfacet
facet normal 1.0 8.797584022929355e-15 3.798272791129637e-15
  outer loop
    vertex 145.0000000000004 574.5440957285725 6.756454747053443
    vertex 145.00000000000063 567.4297975741152 3.9143681976870957
    vertex 145.00000000000063 570.7684298405136 7.176814698084399e-13
  endloop
endfacet
facet normal 1.0 8.797584022929355e-15 3.798272791129637e-15
  outer loop
    vertex 145.00000000000063 567.5115755910213 4.535533905933214
    vertex 145.00000000000063 567.4297975741152 3.9143681976870957
    vertex 145.0000000000004 574.5440957285725 6.756454747053443
  endloop
endfacet
facet normal 1.0 8.797584022929355e-15 3.798272791129637e-15
  outer loop
    vertex 145.00000000000063 567.4297975741148 5.1566996141793195
    vertex 145.00000000000063 567.5115755910213 4.535533905933214
    vertex 145.0000000000004 574.5440957285725 6.756454747053443
  endloop
endfacet
facet normal 1.0 8.797584022929355e-15 3.798272791129637e-15
  outer loop
    vertex 145.00000000000063 567.1900365601036 5.73553390593336
    vertex 145.00000000000063 567.4297975741148 5.1566996141793195
    vertex 145.0000000000004 574.5440957285725 6.756454747053443
  endloop
endfacet
facet normal 1.0 8.797584022929355e-15 3.798272791129637e-15
  outer loop
    vertex 145.00000000000065 570.2027444155648 6.222539674442735
    vertex 145.00000000000063 567.1900365601036 5.73553390593336
    vertex 145.0000000000004 574.5440957285725 6.756454747053443
  endloop
endfacet
facet normal 1.0 8.797584022929355e-15 3.798272791129637e-15
  outer loop
    vertex 145.00000000000063 566.8086318658688 6.232590180780782
    vertex 145.00000000000063 567.1900365601036 5.73553390593336
    vertex 145.00000000000065 570.2027444155648 6.222539674442735
  endloop
endfacet
facet normal 1.0 8.797584022929355e-15 3.798272791129637e-15
  outer loop
    vertex 145.00000000000065 566.8086318658686 9.616652224137622
    vertex 145.00000000000063 566.8086318658688 6.232590180780782
    vertex 145.00000000000065 570.2027444155648 6.222539674442735
  endloop
endfacet
facet normal 1.0 8.797584022929355e-15 3.798272791129637e-15
  outer loop
    vertex 145.00000000000037 572.6403776083739 8.66017286725199
    vertex 145.00000000000065 570.2027444155648 6.222539674442735
    vertex 145.0000000000004 574.5440957285725 6.756454747053443
  endloop
endfacet
facet normal -5.1792290817752696e-17 -0.7071067811865904 0.7071067811865047
  outer loop
    vertex 6.04177818885887e-13 554.3635525169852 11.879393923934161
    vertex 6.04177818885887e-13 553.3709346958477 10.88677610279673
    vertex 145.00000000000065 554.3635525169851 11.87939392393359
  endloop
endfacet
facet normal -5.1792290817752696e-17 -0.7071067811865904 0.7071067811865047
  outer loop
    vertex 145.00000000000063 553.3709346958478 10.886776102796352
    vertex 145.00000000000065 554.3635525169851 11.87939392393359
    vertex 6.04177818885887e-13 553.3709346958477 10.88677610279673
  endloop
endfacet
facet normal -1.0 -4.295516002739125e-16 -1.3074408882792445e-15
  outer loop
    vertex 6.04882810506524e-13 562.353859144393 8.55599205235747
    vertex 3.877453913503359e-13 562.7115755910213 4.535533905932774
    vertex 6.05587802127161e-13 560.0204067664781 6.222539674441987
  endloop
endfacet
facet normal -1.0 -4.295516002739125e-16 -1.3074408882792445e-15
  outer loop
    vertex 3.806954751439662e-13 562.7933536079277 3.914368197686794
    vertex 6.05587802127161e-13 560.0204067664781 6.222539674441987
    vertex 3.877453913503359e-13 562.7115755910213 4.535533905932774
  endloop
endfacet
facet normal -1.0 -4.295516002739125e-16 -1.3074408882792445e-15
  outer loop
    vertex 3.806954751439662e-13 563.0331146219388 3.3355339059330444
    vertex 6.05587802127161e-13 560.0204067664781 6.222539674441987
    vertex 3.806954751439662e-13 562.7933536079277 3.914368197686794
  endloop
endfacet
facet normal -1.0 -4.295516002739125e-16 -1.3074408882792445e-15
  outer loop
    vertex 3.806954751439662e-13 563.4145193161739 2.8384776310848525
    vertex 6.05587802127161e-13 560.0204067664781 6.222539674441987
    vertex 3.806954751439662e-13 563.0331146219388 3.3355339059330444
  endloop
endfacet
facet normal -1.0 -4.295516002739125e-16 -1.3074408882792445e-15
  outer loop
    vertex 3.7999048352332916e-13 562.7933536079273 5.156699614179055
    vertex 3.877453913503359e-13 562.7115755910213 4.535533905932774
    vertex 6.04882810506524e-13 562.353859144393 8.55599205235747
  endloop
endfacet
facet normal -1.0 -4.295516002739125e-16 -1.3074408882792445e-15
  outer loop
    vertex 3.7999048352332916e-13 563.0331146219384 5.735533905932906
    vertex 3.7999048352332916e-13 562.7933536079273 5.156699614179055
    vertex 6.04882810506524e-13 562.353859144393 8.55599205235747
  endloop
endfacet
facet normal -1.0 -4.295516002739125e-16 -1.3074408882792445e-15
  outer loop
    vertex 3.7999048352332916e-13 563.414519316173 6.23259018078079
    vertex 3.7999048352332916e-13 563.0331146219384 5.735533905932906
    vertex 6.04882810506524e-13 562.353859144393 8.55599205235747
  endloop
endfacet
facet normal -1.0 -4.295516002739125e-16 -1.3074408882792445e-15
  outer loop
    vertex 3.7999048352332916e-13 563.9115755910204 6.6139948750157185
    vertex 3.7999048352332916e-13 563.414519316173 6.23259018078079
    vertex 6.04882810506524e-13 562.353859144393 8.55599205235747
  endloop
endfacet
facet normal -1.0 -4.295516002739125e-16 -1.3074408882792445e-15
  outer loop
    vertex 3.7999048352332916e-13 564.4904098827748 6.853755889027061
    vertex 3.7999048352332916e-13 563.9115755910204 6.6139948750157185
    vertex 6.04882810506524e-13 562.353859144393 8.55599205235747
  endloop
endfacet
facet normal -1.0 -4.295516002739125e-16 -1.3074408882792445e-15
  outer loop
    vertex 6.05587802127161e-13 559.3890359165782 11.520815280171657
    vertex 6.027678356446131e-13 559.3890359165779 12.020815280172393
    vertex 6.04882810506524e-13 562.353859144393 8.55599205235747
  endloop
endfacet
facet normal -1.0 -4.295516002739125e-16 -1.3074408882792445e-15
  outer loop
    vertex 3.7999048352332916e-13 564.4904098827748 6.853755889027061
    vertex 6.04882810506524e-13 562.353859144393 8.55599205235747
    vertex 6.027678356446131e-13 559.3890359165779 12.020815280172393
  endloop
endfacet
facet normal -1.0 -4.295516002739125e-16 -1.3074408882792445e-15
  outer loop
    vertex 3.7999048352332916e-13 565.1115755910207 6.935533905933078
    vertex 3.7999048352332916e-13 564.4904098827748 6.853755889027061
    vertex 6.027678356446131e-13 559.3890359165779 12.020815280172393
  endloop
endfacet
facet normal -1.0 -4.295516002739125e-16 -1.3074408882792445e-15
  outer loop
    vertex 5.759781540604081e-13 566.8793425439815 12.020815280177626
    vertex 3.7999048352332916e-13 565.1115755910207 6.935533905933078
    vertex 6.027678356446131e-13 559.3890359165779 12.020815280172393
  endloop
endfacet
facet normal -1.0 -4.295516002739125e-16 -1.3074408882792445e-15
  outer loop
    vertex 3.7999048352332916e-13 565.732741299267 6.853755889027112
    vertex 3.7999048352332916e-13 565.1115755910207 6.935533905933078
    vertex 5.759781540604081e-13 566.8793425439815 12.020815280177626
  endloop
endfacet
facet normal -1.0 -4.295516002739125e-16 -1.3074408882792445e-15
  outer loop
    vertex 3.7999048352332916e-13 566.3115755910208 6.613994875016223
    vertex 3.7999048352332916e-13 565.732741299267 6.853755889027112
    vertex 5.759781540604081e-13 566.8793425439815 12.020815280177626
  endloop
endfacet
facet normal -1.0 -4.295516002739125e-16 -1.3074408882792445e-15
  outer loop
    vertex 6.04882810506524e-13 566.8086318658686 9.616652224137871
    vertex 3.7999048352332916e-13 566.3115755910208 6.613994875016223
    vertex 5.759781540604081e-13 566.8793425439815 12.020815280177626
  endloop
endfacet
facet normal -1.0 -4.295516002739125e-16 -1.3074408882792445e-15
  outer loop
    vertex 3.7999048352332916e-13 566.8086318658686 6.23259018078129
    vertex 3.7999048352332916e-13 566.3115755910208 6.613994875016223
    vertex 6.04882810506524e-13 566.8086318658686 9.616652224137871
  endloop
endfacet
facet normal -1.0 -4.295516002739125e-16 -1.3074408882792445e-15
  outer loop
    vertex 5.816180870255039e-13 568.046068732941 10.854089091217862
    vertex 6.04882810506524e-13 566.8086318658686 9.616652224137871
    vertex 5.759781540604081e-13 566.8793425439815 12.020815280177626
  endloop
endfacet
facet normal -1.0 -4.295516002739125e-16 -1.3074408882792445e-15
  outer loop
    vertex 6.04177818885887e-13 553.3709346958477 10.88677610279673
    vertex 3.806954751439662e-13 563.4145193161739 2.8384776310848525
    vertex 6.069977853684349e-13 559.4547213415294 2.6789681584205025e-14
  endloop
endfacet
facet normal -1.0 -4.295516002739125e-16 -1.3074408882792445e-15
  outer loop
    vertex 3.806954751439662e-13 563.9115755910216 2.4570729368504294
    vertex 6.069977853684349e-13 559.4547213415294 2.6789681584205025e-14
    vertex 3.806954751439662e-13 563.4145193161739 2.8384776310848525
  endloop
endfacet
facet normal -1.0 -4.295516002739125e-16 -1.3074408882792445e-15
  outer loop
    vertex 3.806954751439662e-13 564.4904098827756 2.2173119228394813
    vertex 6.069977853684349e-13 559.4547213415294 2.6789681584205025e-14
    vertex 3.806954751439662e-13 563.9115755910216 2.4570729368504294
  endloop
endfacet
facet normal -1.0 -4.295516002739125e-16 -1.3074408882792445e-15
  outer loop
    vertex 6.069977853684349e-13 570.7684298405137 1.2562950679750883e-12
    vertex 6.069977853684349e-13 559.4547213415294 2.6789681584205025e-14
    vertex 3.806954751439662e-13 564.4904098827756 2.2173119228394813
  endloop
endfacet
facet normal -1.0 -4.295516002739125e-16 -1.3074408882792445e-15
  outer loop
    vertex 6.05587802127161e-13 560.0204067664781 6.222539674441987
    vertex 3.806954751439662e-13 563.4145193161739 2.8384776310848525
    vertex 6.04177818885887e-13 553.3709346958477 10.88677610279673
  endloop
endfacet
facet normal -1.0 -4.295516002739125e-16 -1.3074408882792445e-15
  outer loop
    vertex 6.04177818885887e-13 554.3635525169852 11.879393923934161
    vertex 6.05587802127161e-13 560.0204067664781 6.222539674441987
    vertex 6.04177818885887e-13 553.3709346958477 10.88677610279673
  endloop
endfacet
facet normal -1.0 -4.295516002739125e-16 -1.3074408882792445e-15
  outer loop
    vertex 3.806954751439662e-13 565.1115755910218 2.135533905933261
    vertex 6.069977853684349e-13 570.7684298405137 1.2562950679750883e-12
    vertex 3.806954751439662e-13 564.4904098827756 2.2173119228394813
  endloop
endfacet
facet normal -1.0 -4.295516002739125e-16 -1.3074408882792445e-15
  outer loop
    vertex 3.806954751439662e-13 565.7327412992678 2.2173119228393348
    vertex 6.069977853684349e-13 570.7684298405137 1.2562950679750883e-12
    vertex 3.806954751439662e-13 565.1115755910218 2.135533905933261
  endloop
endfacet
facet normal -1.0 -4.295516002739125e-16 -1.3074408882792445e-15
  outer loop
    vertex 3.806954751439662e-13 566.3115755910217 2.457072936850872
    vertex 6.069977853684349e-13 570.7684298405137 1.2562950679750883e-12
    vertex 3.806954751439662e-13 565.7327412992678 2.2173119228393348
  endloop
endfacet
facet normal -1.0 -4.295516002739125e-16 -1.3074408882792445e-15
  outer loop
    vertex 3.806954751439662e-13 566.8086318658694 2.8384776310860254
    vertex 6.069977853684349e-13 570.7684298405137 1.2562950679750883e-12
    vertex 3.806954751439662e-13 566.3115755910217 2.457072936850872
  endloop
endfacet
facet normal -1.0 -4.295516002739125e-16 -1.3074408882792445e-15
  outer loop
    vertex 3.806954751439662e-13 567.1900365601041 3.3355339059333686
    vertex 6.069977853684349e-13 570.7684298405137 1.2562950679750883e-12
    vertex 3.806954751439662e-13 566.8086318658694 2.8384776310860254
  endloop
endfacet
facet normal -1.0 -4.295516002739125e-16 -1.3074408882792445e-15
  outer loop
    vertex 3.806954751439662e-13 567.4297975741152 3.9143681976876934
    vertex 6.069977853684349e-13 570.7684298405137 1.2562950679750883e-12
    vertex 3.806954751439662e-13 567.1900365601041 3.3355339059333686
  endloop
endfacet
facet normal -1.0 -4.295516002739125e-16 -1.3074408882792445e-15
  outer loop
    vertex 6.05587802127161e-13 574.5440957285725 6.756454747055036
    vertex 6.069977853684349e-13 570.7684298405137 1.2562950679750883e-12
    vertex 3.806954751439662e-13 567.4297975741152 3.9143681976876934
  endloop
endfacet
facet normal -1.0 -4.295516002739125e-16 -1.3074408882792445e-15
  outer loop
    vertex 3.877453913503359e-13 567.511575591021 4.53553390593375
    vertex 6.05587802127161e-13 574.5440957285725 6.756454747055036
    vertex 3.806954751439662e-13 567.4297975741152 3.9143681976876934
  endloop
endfacet
facet normal -1.0 -4.295516002739125e-16 -1.3074408882792445e-15
  outer loop
    vertex 3.7999048352332916e-13 567.4297975741148 5.156699614179729
    vertex 6.05587802127161e-13 574.5440957285725 6.756454747055036
    vertex 3.877453913503359e-13 567.511575591021 4.53553390593375
  endloop
endfacet
facet normal -1.0 -4.295516002739125e-16 -1.3074408882792445e-15
  outer loop
    vertex 3.7999048352332916e-13 567.1900365601036 5.735533905933422
    vertex 6.05587802127161e-13 574.5440957285725 6.756454747055036
    vertex 3.7999048352332916e-13 567.4297975741148 5.156699614179729
  endloop
endfacet
facet normal -1.0 -4.295516002739125e-16 -1.3074408882792445e-15
  outer loop
    vertex 6.05587802127161e-13 570.2027444155646 6.222539674443143
    vertex 6.05587802127161e-13 574.5440957285725 6.756454747055036
    vertex 3.7999048352332916e-13 567.1900365601036 5.735533905933422
  endloop
endfacet
facet normal -1.0 -4.295516002739125e-16 -1.3074408882792445e-15
  outer loop
    vertex 3.7999048352332916e-13 566.8086318658686 6.23259018078129
    vertex 6.05587802127161e-13 570.2027444155646 6.222539674443143
    vertex 3.7999048352332916e-13 567.1900365601036 5.735533905933422
  endloop
endfacet
facet normal -1.0 -4.295516002739125e-16 -1.3074408882792445e-15
  outer loop
    vertex 6.04882810506524e-13 566.8086318658686 9.616652224137871
    vertex 6.05587802127161e-13 570.2027444155646 6.222539674443143
    vertex 3.7999048352332916e-13 566.8086318658686 6.23259018078129
  endloop
endfacet
facet normal -1.0 -4.295516002739125e-16 -1.3074408882792445e-15
  outer loop
    vertex 6.04882810506524e-13 572.640377608374 8.660172867253012
    vertex 6.05587802127161e-13 574.5440957285725 6.756454747055036
    vertex 6.05587802127161e-13 570.2027444155646 6.222539674443143
  endloop
endfacet
facet normal -1.320131291709363e-14 0.7071067811864965 0.7071067811865986
  outer loop
    vertex 145.0000000000006 566.8793425439825 12.020815280178969
    vertex 145.0000000000006 568.046068732942 10.854089091218983
    vertex 5.759781540604081e-13 566.8793425439815 12.020815280177626
  endloop
endfacet
facet normal -1.320131291709363e-14 0.7071067811864965 0.7071067811865986
  outer loop
    vertex 5.816180870255039e-13 568.046068732941 10.854089091217862
    vertex 5.759781540604081e-13 566.8793425439815 12.020815280177626
    vertex 145.0000000000006 568.046068732942 10.854089091218983
  endloop
endfacet
facet normal 3.2695389168540516e-15 -0.7071067811865885 -0.7071067811865066
  outer loop
    vertex 145.00000000000063 559.3890359165788 11.520815280172622
    vertex 6.05587802127161e-13 559.3890359165782 11.520815280171657
    vertex 145.00000000000063 562.353859144393 8.55599205235712
  endloop
endfacet
facet normal 3.2695389168540516e-15 -0.7071067811865885 -0.7071067811865066
  outer loop
    vertex 6.04882810506524e-13 562.353859144393 8.55599205235747
    vertex 145.00000000000063 562.353859144393 8.55599205235712
    vertex 6.05587802127161e-13 559.3890359165782 11.520815280171657
  endloop
endfacet
facet normal -1.1462557386408409e-16 -0.7071067811866075 0.7071067811864876
  outer loop
    vertex 6.04882810506524e-13 562.353859144393 8.55599205235747
    vertex 6.05587802127161e-13 560.0204067664781 6.222539674441987
    vertex 145.00000000000063 562.353859144393 8.55599205235712
  endloop
endfacet
facet normal -1.1462557386408409e-16 -0.7071067811866075 0.7071067811864876
  outer loop
    vertex 145.00000000000065 560.0204067664779 6.222539674441612
    vertex 145.00000000000063 562.353859144393 8.55599205235712
    vertex 6.05587802127161e-13 560.0204067664781 6.222539674441987
  endloop
endfacet
facet normal 3.734024583791056e-15 -1.0 -7.219225217625078e-13
  outer loop
    vertex 6.027678356446131e-13 559.3890359165779 12.020815280172393
    vertex 6.05587802127161e-13 559.3890359165782 11.520815280171657
    vertex 145.00000000000063 559.3890359165785 12.020815280172748
  endloop
endfacet
facet normal 3.734024583791056e-15 -1.0 -7.219225217625078e-13
  outer loop
    vertex 145.00000000000063 559.3890359165788 11.520815280172622
    vertex 145.00000000000063 559.3890359165785 12.020815280172748
    vertex 6.05587802127161e-13 559.3890359165782 11.520815280171657
  endloop
endfacet
endsolid case-v5
